<?xml version="1.0" standalone="no"?>
<!DOCTYPE svg PUBLIC "-//W3C//DTD SVG 1.1//EN" "http://www.w3.org/Graphics/SVG/1.1/DTD/svg11.dtd" >
<svg xmlns="http://www.w3.org/2000/svg">
<metadata>Generated by IcoMoon</metadata>
<defs>
<font id="net54-icons" horiz-adv-x="1024">
<font-face units-per-em="1024" ascent="960" descent="-64" />
<missing-glyph horiz-adv-x="1024" />
<glyph unicode="&#x20;" horiz-adv-x="0" d="" />
<glyph unicode="&#xe380;" glyph-name="play-circle" d="M512 960q-212 0-362-150t-150-362 150-362 362-150 362 150 150 362-150 362-362 150zM512 32q-172 0-294 122t-122 294 122 294 294 122 294-122 122-294-122-294-294-122zM384 672l384-224-384-224v448z" />
<glyph unicode="&#xe381;" glyph-name="pause-circle" d="M512 960q-212 0-362-150t-150-362 150-362 362-150 362 150 150 362-150 362-362 150zM512 32q-172 0-294 122t-122 294 122 294 294 122 294-122 122-294-122-294-294-122zM320 640h128v-384h-128v384zM576 640h128v-384h-128v384z" />
<glyph unicode="&#xe382;" glyph-name="stop-circle" d="M512 960q-212 0-362-150t-150-362 150-362 362-150 362 150 150 362-150 362-362 150zM512 32q-172 0-294 122t-122 294 122 294 294 122 294-122 122-294-122-294-294-122zM320 640h384v-384h-384v384z" />
<glyph unicode="&#xe383;" glyph-name="backward-circle" d="M512-64q212 0 362 150t150 362-150 362-362 150-362-150-150-362 150-362 362-150zM512 864q172 0 294-122t122-294-122-294-294-122-294 122-122 294 122 294 294 122zM704 288l-224 160 224 160v-320zM448 288l-224 160 224 160v-320z" />
<glyph unicode="&#xe384;" glyph-name="forward-circle" d="M512 960q-212 0-362-150t-150-362 150-362 362-150 362 150 150 362-150 362-362 150zM512 32q-172 0-294 122t-122 294 122 294 294 122 294-122 122-294-122-294-294-122zM320 608l224-160-224-160v320zM576 608l224-160-224-160v320z" />
<glyph unicode="&#xe385;" glyph-name="play" d="M192 832l640-384-640-384v768z" />
<glyph unicode="&#xe386;" glyph-name="pause" d="M128 832h320v-768h-320v768zM576 832h320v-768h-320v768z" />
<glyph unicode="&#xe387;" glyph-name="stop" d="M128 832h768v-768h-768v768z" />
<glyph unicode="&#xe388;" glyph-name="backward" d="M576 800v-320l320 320v-704l-320 320v-320l-352 352z" />
<glyph unicode="&#xe389;" glyph-name="forward" d="M512 96v320l-320-320v704l320-320v320l352-352z" />
<glyph unicode="&#xe38a;" glyph-name="first" d="M128 64v768h128v-352l320 320v-320l320 320v-704l-320 320v-320l-320 320v-352h-128z" />
<glyph unicode="&#xe38b;" glyph-name="last" d="M896 832v-768h-128v352l-320-320v320l-320-320v704l320-320v320l320-320v352h128z" />
<glyph unicode="&#xe38c;" glyph-name="previous" d="M256 64v768h128v-352l320 320v-704l-320 320v-352h-128z" />
<glyph unicode="&#xe38d;" glyph-name="next" d="M768 832v-768h-128v352l-320-320v704l320-320v352h128z" />
<glyph unicode="&#xe43b;" glyph-name="record" d="M0 448q0 212 150 362t362 150 362-150 150-362-150-362-362-150-362 150-150 362z" />
<glyph unicode="&#xe900;" glyph-name="phone-outgoing" d="M490.24 896l469.76-477.76v477.76h-469.76zM824.64 284.8q-96 84.8-136.64 43.84c-49.28-49.28-67.52-125.76-116.48-116.48-45.304 6.964-84.799 27.913-114.866 58.226-14.734 12.814-34.574 32.014-60.174 58.254-37.256 33.508-69.695 71.236-96.9 112.705-12.2 19.271-18.903 39.955-19.575 62.155-8.964 49.46 67.516 67.7 116.476 116.66q41.28 40.96-44.48 136.32c-54.72 64-98.24 96-131.2 96-29.633-7.892-54.45-25.125-71.755-48.297-24.777-23.846-47.408-48.81-68.202-75.286l-33.164-50.817c0-58.24 23.68-136.64 72.96-234.88 43.518-88.789 96.969-165.043 160.369-231.751 65.953-62.63 142.205-116.081 225.62-157.214 103.611-51.674 182.011-75.034 240.251-75.354l43.84 32c32.499 23.146 61.050 47.635 87.242 74.439 21.804 17.143 37.437 41.004 43.797 68.421-0.8 32.82-33.44 76.66-97.12 131.060z" />
<glyph unicode="&#xe903;" glyph-name="phone-onhold" d="M803.2 756.8q-111.36-7.68-111.68-65.6c0-69.44 36.16-136.64 0-164.8-28.59-24.764-66.118-39.889-107.177-40-16.983 0-41.623 0-73.303 0-8.372-0.567-18.148-0.89-27.999-0.89-36.857 0-72.657 4.525-106.875 13.050-16.222 4.788-32.607 15.164-45.212 29.037-36.235 28.564-0.075 96.084-0.075 164.884q0 57.92-111.68 65.6c-73.28 6.4-120.64 0-140.8-24.32-10.092-19.296-16.014-42.148-16.014-66.383 0-7.629 0.587-15.12 1.717-22.432-0.166-2.945-0.202-7.383-0.202-11.828 0-31.396 1.779-62.377 5.243-92.846l9.895-54.191c52.519-51.271 116.89-90.647 188.602-113.62 74.43-30.522 156.771-49.142 243.042-52.421 89.183 2.685 172.047 20.887 248.327 51.916 70.34 22.197 134.71 61.573 187.325 112.937l7.904 52.707c3.867 28.095 6.075 60.56 6.075 93.541 0 7.504-0.114 14.981-0.341 22.43 0.575 3.482 0.889 8.778 0.889 14.147 0 23.748-6.13 46.064-16.894 65.453-20.128 22.35-67.488 30.030-140.768 23.63zM64 224h896v-96h-896v96z" />
<glyph unicode="&#xe904;" glyph-name="phone-transfer" d="M615.36 115.2l335.040 334.72-335.040 335.040v-669.76zM274.56 628.8c28.48 36.16 96 0 164.8 0q57.92 0 65.6 111.68c6.4 73.28 0 120.64-24.32 140.8-19.331 10.136-42.231 16.084-66.52 16.084-7.012 0-13.908-0.496-20.655-1.454-4.076 0.194-9.794 0.254-15.525 0.254-30.556 0-60.718-1.687-90.398-4.972l-53.943-9.911c-51.271-52.519-90.647-116.89-113.62-188.602-30.269-74.59-48.571-157.096-51.469-243.505 2.694-89.039 20.896-171.903 51.925-248.183 22.269-70.317 61.633-134.675 112.945-187.333l52.7-7.897c32.302-5.113 69.549-8.035 107.479-8.035 2.49 0 4.977 0.013 7.461 0.038 4.194-0.552 9.49-0.865 14.859-0.865 23.748 0 46.064 6.13 65.453 16.894 22.67 19.808 31.31 67.168 23.95 140.448s-26.88 111.36-65.6 111.36c-69.44 0-136.64-36.16-164.8 0-24.788 28.577-39.92 66.114-40 107.183 0 16.977 0 41.617 0 73.297-0.566 8.364-0.888 18.13-0.888 27.97 0 36.867 4.524 72.676 13.048 106.905 3.882 17.054 13.801 34.362 27.506 47.831z" />
<glyph unicode="&#xe908;" glyph-name="phone-onhold-back" d="M320 344.32c56.272-52.772 122.329-95.94 195.033-126.392 63.645-31.704 133.663-49.333 207.798-49.333 2.267 0 4.531 0.016 6.79 0.049l42.218 31.996c31.836 24.051 60.041 48.907 86.269 75.706 21.284 17.292 37.202 40.136 45.616 66.342 2.835 31.072-23.405 68.512-77.485 113.632s-96 56.32-121.92 29.12c-49.28-49.28-72.32-120.96-116.48-116.48-39.346 1.944-74.5 18.44-100.493 44.172-12.467 10.548-29.107 27.188-50.547 48.628-31.507 27.393-58.36 59.032-79.958 94.243-8.617 15.202-13.105 31.286-13.105 48.418 0 2.498 0.095 4.974 0.283 7.424-4.5 44.155 67.5 67.195 116.46 116.155q40.32 40-29.76 122.24c-44.8 54.4-82.24 80.64-112.32 77.76-28.924-10.171-53.058-27.907-70.779-50.848-24.668-24.139-47.487-49.189-68.76-75.538l-35.181-48.014c-0.019-1.54-0.029-3.358-0.029-5.179 0-74.525 17.865-144.877 49.546-207.007 30.808-74.575 73.985-140.745 127.136-197.453zM64 96h896v-96h-896v96z" />
<glyph unicode="&#xe90e;" glyph-name="phone-hangup" d="M944.32 502.4c-52.519 51.271-116.89 90.647-188.602 113.62-74.294 30.133-156.449 48.422-242.484 51.466-89.099-2.676-171.965-20.879-248.239-51.92-70.345-22.198-134.716-61.574-187.331-112.938l-8.864-58.147c-3.13-26.79-4.916-57.827-4.916-89.281 0-4.838 0.042-9.666 0.126-14.484-0.813-5.019-1.271-11.654-1.271-18.396 0-24.21 5.909-47.040 16.363-67.126 19.778-22.233 67.138-31.193 140.418-23.513s111.68 26.88 111.68 65.6c0 69.44-36.16 136.64 0 164.8 12.68 13.956 29.065 24.332 47.603 29.586 31.013 7.607 65.793 11.87 101.569 11.87 11.13 0 22.163-0.413 33.086-1.223 30.542 0.087 54.862 0.087 71.822 0.087 41.082-0.111 78.61-15.236 107.407-40.175 35.953-27.985-0.207-95.825-0.207-164.625q0-57.92 111.68-65.6c73.28-6.4 120.64 0 140.8 24.32 10.412 18.698 16.542 41.014 16.542 64.762 0 5.369-0.313 10.665-0.923 15.87 0.082 1.466 0.095 3.945 0.095 6.427 0 37.937-2.921 75.193-8.551 111.553z" />
<glyph unicode="&#xe911;" glyph-name="phone-answer" d="M716.16 651.84c-66.322 63.022-142.574 116.472-225.989 157.606-103.931 51.994-182.011 75.674-240.571 75.674l-43.84-32c-32.4-22.887-60.844-47.066-86.974-73.533-21.752-17.089-37.385-40.95-43.746-68.367-0.16-32.82 31.84-77.3 95.84-132.020s109.12-71.040 136.64-43.84c49.28 49.28 67.52 125.76 116.48 116.48 45.304-6.964 84.799-27.913 114.866-58.226 14.734-12.814 34.574-32.014 60.174-58.254 37.256-33.508 69.695-71.236 96.9-112.705 12.2-19.271 18.903-39.955 19.575-62.155 8.964-49.46-67.516-67.7-116.476-116.66q-40.96-40.96 43.84-136.64c54.72-64 98.24-96 131.2-96 30.082 7.857 55.27 25.352 72.709 48.925 24.782 23.857 47.413 48.821 68.207 75.297l33.164 50.817c0 58.24-23.68 136.64-72.96 234.88-43.28 88.525-96.413 164.563-159.437 231.143z" />
<glyph unicode="&#xe912;" glyph-name="status-outgoing" d="M672 637.44l152.96-157.44h-202.56c-3.291 22.315-15.029 41.404-31.801 54.254-23.665 25.563-57.153 41.426-94.346 41.426-70.692 0-128-57.308-128-128s57.308-128 128-128c37.193 0 70.681 15.863 94.068 41.193 17.080 13.312 28.816 32.609 32.025 54.671l202.614 0.456-152.96-157.44 56.64-58.56 249.6 248-250.24 248.64zM194.88 465.92c2.169 85.365 38.548 161.83 95.878 216.524 54.364 55.489 129.907 89.817 213.467 89.817 2.734 0 5.459-0.037 8.176-0.11l-0.401 96.009c-3.38 0.102-7.355 0.16-11.344 0.16-222.151 0-402.24-180.089-402.24-402.24s180.089-402.24 402.24-402.24c3.989 0 7.965 0.058 11.926 0.173l-0.582 95.987c-2.502-0.075-5.445-0.118-8.398-0.118-83.569 0-159.118 34.335-213.311 89.667-57.193 54.874-93.331 131.209-95.403 215.991z" />
<glyph unicode="&#xe913;" glyph-name="status-incoming" d="M704 534.4c-16.971-12.996-28.709-32.085-31.945-53.946l-202.295-0.454 153.6 157.44-56.64 58.56-249.92-248 242.56-249.6 48.64 55.68v4.16l-138.24 157.76h202.24c3.291-22.315 15.029-41.404 31.801-54.254 23.459-23.918 55.867-38.657 91.718-38.657 34.897 0 66.532 13.965 89.622 36.611 23.072 22.596 37.388 54.096 37.388 88.94s-14.316 66.344-37.387 88.939c-23.021 22.275-54.4 35.99-88.984 35.99-36.173 0-68.842-15.005-92.121-39.131zM194.88 465.92c2.169 85.365 38.548 161.83 95.878 216.524 54.364 55.489 129.907 89.817 213.467 89.817 2.734 0 5.459-0.037 8.176-0.11l-0.401 96.009c-3.38 0.102-7.355 0.16-11.344 0.16-222.151 0-402.24-180.089-402.24-402.24s180.089-402.24 402.24-402.24c3.989 0 7.965 0.058 11.926 0.173l-0.582 95.987c-2.502-0.075-5.445-0.118-8.398-0.118-83.569 0-159.118 34.335-213.311 89.667-57.193 54.874-93.331 131.209-95.403 215.991z" />
<glyph unicode="&#xe915;" glyph-name="status-internal" d="M221.44 456.96c0.246 128.77 79.848 238.886 192.496 284.069l2.064 101.851c-169.003-50.049-290.197-203.911-290.197-386.080s121.195-336.031 287.354-385.356l2.844 100.716c-114.712 45.914-194.314 156.030-194.56 284.769zM608 851.2v-99.2c131.515-36.065 226.554-154.534 226.554-295.2s-95.039-259.135-224.408-294.697l-2.145-98.103c183.693 39.706 319.318 200.815 319.318 393.6s-135.625 353.894-316.667 393.118zM639.196 568.11c61.484-61.484 61.484-161.17 0-222.654s-161.17-61.484-222.654 0c-61.484 61.484-61.484 161.17 0 222.654s161.17 61.484 222.654 0z" />
<glyph unicode="&#xe916;" glyph-name="progress-inprogress" d="M261.605 538.488c49.987-49.987 49.987-131.032 0-181.019s-131.032-49.987-181.019 0c-49.987 49.987-49.987 131.032 0 181.019s131.032 49.987 181.019 0zM588.311 538.474c49.987-49.987 49.987-131.032 0-181.019s-131.032-49.987-181.019 0c-49.987 49.987-49.987 131.032 0 181.019s131.032 49.987 181.019 0zM914.736 538.414c49.996-49.978 50.010-131.024 0.032-181.019s-131.024-50.010-181.019-0.032c-49.996 49.978-50.010 131.024-0.032 181.019s131.024 50.010 181.019 0.032z" />
<glyph unicode="&#xe91a;" glyph-name="progress-disconnected" d="M448 832h96v-768h-96v768zM208 592c-0.038 0-0.082 0-0.127 0-79.529 0-144-64.471-144-144s64.471-144 144-144c79.529 0 144 64.471 144 144 0 39.733-16.092 75.707-42.115 101.761-25.966 26.091-61.907 42.239-101.62 42.239-0.049 0-0.098 0-0.146 0zM264.64 391.36c-14.47-14.434-34.441-23.36-56.497-23.36-44.183 0-80 35.817-80 80s35.817 80 80 80c22.056 0 42.027-8.926 56.499-23.362 14.596-14.447 23.635-34.487 23.635-56.638s-9.039-42.192-23.63-56.633zM816 592c-0.038 0-0.082 0-0.127 0-79.529 0-144-64.471-144-144s64.471-144 144-144c79.529 0 144 64.471 144 144 0 39.733-16.092 75.707-42.115 101.761-26.015 26.093-61.998 42.239-101.753 42.239-0.002 0-0.004 0-0.006 0zM872.64 391.36c-14.47-14.434-34.441-23.36-56.497-23.36-44.183 0-80 35.817-80 80s35.817 80 80 80c22.056 0 42.027-8.926 56.499-23.362 14.596-14.447 23.635-34.487 23.635-56.638s-9.039-42.192-23.63-56.633z" />
<glyph unicode="&#xe91b;" glyph-name="progress-" d="M176 592c-0.038 0-0.082 0-0.127 0-79.529 0-144-64.471-144-144s64.471-144 144-144c79.529 0 144 64.471 144 144 0 39.733-16.092 75.707-42.115 101.761-25.966 26.091-61.907 42.239-101.62 42.239-0.049 0-0.098 0-0.146 0zM232.64 391.36c-14.47-14.434-34.441-23.36-56.497-23.36-44.183 0-80 35.817-80 80s35.817 80 80 80c22.056 0 42.027-8.926 56.499-23.362 14.596-14.447 23.635-34.487 23.635-56.638s-9.039-42.192-23.63-56.633zM848 592c-0.038 0-0.082 0-0.127 0-79.529 0-144-64.471-144-144s64.471-144 144-144c79.529 0 144 64.471 144 144 0 39.733-16.092 75.707-42.115 101.761-26.015 26.093-61.998 42.239-101.753 42.239-0.002 0-0.004 0-0.006 0zM904.64 391.36c-14.47-14.434-34.441-23.36-56.497-23.36-44.183 0-80 35.817-80 80s35.817 80 80 80c22.056 0 42.027-8.926 56.499-23.362 14.596-14.447 23.635-34.487 23.635-56.638s-9.039-42.192-23.63-56.633zM512 592c-0.038 0-0.082 0-0.127 0-79.529 0-144-64.471-144-144s64.471-144 144-144c79.529 0 144 64.471 144 144 0 39.733-16.092 75.707-42.115 101.761-26.015 26.093-61.998 42.239-101.753 42.239-0.002 0-0.004 0-0.006 0zM568.64 391.36c-14.47-14.434-34.441-23.36-56.497-23.36-44.183 0-80 35.817-80 80s35.817 80 80 80c22.056 0 42.027-8.926 56.499-23.362 14.596-14.447 23.635-34.487 23.635-56.638s-9.039-42.192-23.63-56.633z" />
<glyph unicode="&#xe91c;" glyph-name="progress-disconnected-hard" d="M208 592c-0.038 0-0.082 0-0.127 0-79.529 0-144-64.471-144-144s64.471-144 144-144c79.529 0 144 64.471 144 144 0 39.733-16.092 75.707-42.115 101.761-25.966 26.091-61.907 42.239-101.62 42.239-0.049 0-0.098 0-0.146 0zM264.64 391.36c-14.47-14.434-34.441-23.36-56.497-23.36-44.183 0-80 35.817-80 80s35.817 80 80 80c22.056 0 42.027-8.926 56.499-23.362 14.596-14.447 23.635-34.487 23.635-56.638s-9.039-42.192-23.63-56.633zM816 592c-0.038 0-0.082 0-0.127 0-79.529 0-144-64.471-144-144s64.471-144 144-144c79.529 0 144 64.471 144 144 0 39.733-16.092 75.707-42.115 101.761-26.015 26.093-61.998 42.239-101.753 42.239-0.002 0-0.004 0-0.006 0zM872.64 391.36c-14.47-14.434-34.441-23.36-56.497-23.36-44.183 0-80 35.817-80 80s35.817 80 80 80c22.056 0 42.027-8.926 56.499-23.362 14.596-14.447 23.635-34.487 23.635-56.638s-9.039-42.192-23.63-56.633z" />
</font>
</defs>
</svg>
