<?xml version="1.0" standalone="no"?>
<!DOCTYPE svg PUBLIC "-//W3C//DTD SVG 1.1//EN" "http://www.w3.org/Graphics/SVG/1.1/DTD/svg11.dtd" >
<svg xmlns="http://www.w3.org/2000/svg">
<metadata>
Created by FontPrep 20130207 at Tue Aug 11 23:27:30 2015
 By Pixeloid
Copyright (c) 1992-97 Hewlett-Packard. All rights reserved.
</metadata>
<defs>
<font id="eded561bebdb284895656bed6df50806" horiz-adv-x='1024' >
  <font-face 
    font-family="Univers-Medium"
    font-weight="400"
    font-stretch="normal"
    units-per-em="2048"
    panose-1="2 11 6 3 2 2 2 3 2 4"
    ascent="1638"
    descent="-410"
    x-height="983"
    cap-height="1411"
    bbox="-730 -512 1984 2014"
    underline-thickness="105"
    underline-position="-355"
    unicode-range="U+0020-FB01"
  />
<missing-glyph horiz-adv-x="669" 
d="M100 1174v-1074h369v1074h-369zM0 1274h569v-1274h-569v1274z" />
    <glyph glyph-name=".notdef" horiz-adv-x="669" 
d="M100 1174v-1074h369v1074h-369zM0 1274h569v-1274h-569v1274z" />
    <glyph glyph-name="glyph1" horiz-adv-x="0" 
 />
    <glyph glyph-name="nonmarkingreturn" horiz-adv-x="682" 
 />
    <glyph glyph-name="space" unicode=" " horiz-adv-x="680" 
 />
    <glyph glyph-name="exclam" unicode="!" horiz-adv-x="680" 
d="M246 202h196v-202h-196v202zM281 354l-42 1057h210l-42 -1057h-126z" />
    <glyph glyph-name="quotedbl" unicode="&#x22;" horiz-adv-x="1020" 
d="M630 935l-60 476h229l-60 -476h-109zM281 935l-60 476h229l-60 -476h-109z" />
    <glyph glyph-name="numbersign" unicode="#" 
d="M624 911l-105 -366h244l106 366h-245zM768 1404l-106 -364h244l106 364h146l-106 -364h166l-37 -129h-166l-106 -366h166l-37 -129h-167l-129 -446h-146l129 446h-244l-129 -446h-146l129 446h-189l37 129h190l106 366h-190l37 129h190l106 364h146z" />
    <glyph glyph-name="dollar" unicode="$" 
d="M895 493q0 96 -117 125l-249 64q-121 30 -175 92t-53 183q0 121 99 197q71 54 178 69v246h192v-245q129 -12 204 -70t74 -179l-1 -30h-185q5 70 -46.5 113t-141.5 43t-139 -35t-49 -92q0 -105 84 -126l249 -64q138 -35 199 -99t61 -174q0 -147 -108 -231
q-76 -61 -201 -78v-260h-192v260q-118 18 -196 80q-108 87 -113 240h184q25 -190 221 -190q105 0 163 42t58 119z" />
    <glyph glyph-name="percent" unicode="%" horiz-adv-x="2039" 
d="M1503 641q-87 0 -137.5 -73.5t-50.5 -199.5t50.5 -201.5t137.5 -75.5t135.5 72.5t48.5 204.5t-48.5 202.5t-135.5 70.5zM1501 -26q-153 0 -247.5 109t-94.5 285t94.5 283t247.5 107t247.5 -107t94.5 -283t-94.5 -285t-247.5 -109zM563 -69l843 1518h130l-843 -1518h-130z
M598 1317q-87 0 -137.5 -73.5t-50.5 -199.5t50.5 -201.5t137.5 -75.5t135.5 72.5t48.5 204.5t-48.5 202.5t-135.5 70.5zM596 650q-153 0 -247.5 109t-94.5 285t94.5 283t247.5 107t247.5 -107t94.5 -283t-94.5 -285t-247.5 -109z" />
    <glyph glyph-name="ampersand" unicode="&#x26;" horiz-adv-x="1548" 
d="M820 1146q0 71 -42 110t-120 39t-120 -41t-43 -105q1 -65 41 -129t81 -114q203 108 203 240zM339 406q-1 -108 99 -199q100 -92 216 -92q214 0 346 134l-448 475q-83 -51 -136 -116q-77 -94 -77 -202zM317 1125q0 147 91 230.5t251 83.5t250.5 -76.5t90.5 -196.5
t-98 -222q-74 -78 -193 -140l391 -406q12 31 24 89t11 331h176q0 -292 -22 -378t-70 -166l264 -274h-249l-126 134q-68 -66 -184 -114t-269 -48q-232 0 -364 117t-132 322q1 133 89 241t212 179q-143 180 -143 294z" />
    <glyph glyph-name="quotesingle" unicode="'" horiz-adv-x="680" 
d="M279 935l-58 476h229l-57 -476h-114z" />
    <glyph glyph-name="parenleft" unicode="(" horiz-adv-x="680" 
d="M197 602q0 142 62.5 375t152.5 433h128q-56 -141 -110 -407t-54 -410t52 -410t106 -385h-128q-88 194 -149 428q-60 234 -60 376z" />
    <glyph glyph-name="parenright" unicode=")" horiz-adv-x="680" 
d="M474 606q0 -142 -62 -375.5t-152 -432.5h-128q55 140 109 406t54 411t-52 411t-105 384h128q88 -194 148 -428t60 -376z" />
    <glyph glyph-name="asterisk" unicode="*" 
d="M910 1361l-178 -240l295 36v-141l-294 36l181 -234l-122 -73l-120 273l-114 -275l-124 70l178 240l-295 -36v141l294 -36l-181 234l122 73l120 -273l114 275z" />
    <glyph glyph-name="plus" unicode="+" horiz-adv-x="2039" 
d="M988 504h-513v120h513v513h120v-513h513v-120h-513v-513h-120v513z" />
    <glyph glyph-name="comma" unicode="," horiz-adv-x="680" 
d="M168 -238l129 476h208l-213 -476h-124z" />
    <glyph glyph-name="hyphen" unicode="-" horiz-adv-x="680" 
d="M93 597h486v-133h-486v133z" />
    <glyph glyph-name="period" unicode="." horiz-adv-x="680" 
d="M237 238h218v-238h-218v238z" />
    <glyph glyph-name="slash" unicode="/" horiz-adv-x="680" 
d="M654 1411l-449 -1517h-114l449 1517h114z" />
    <glyph glyph-name="zero" unicode="0" 
d="M642 128q164 0 261.5 157t97.5 419t-97.5 415t-261.5 153t-261.5 -153t-97.5 -415t97.5 -419t261.5 -157zM642 -32q-244 0 -394 204t-150 532t150 528t394 200t394 -200t150 -528t-150 -532t-394 -204z" />
    <glyph glyph-name="one" unicode="1" 
d="M618 0v1185q-44 -36 -108 -79t-201 -96v176q110 42 181 88t157 129h160v-1403h-189z" />
    <glyph glyph-name="two" unicode="2" 
d="M1112 1058q0 -380 -714 -904h743v-154h-973v169q341 255 551 499t210 382q0 105 -70.5 167.5t-188.5 62.5t-189.5 -69t-71.5 -181h-183q0 184 120 293t320 109t324 -103q122 -103 122 -271z" />
    <glyph glyph-name="three" unicode="3" 
d="M1143 394q0 -191 -138.5 -308.5t-347.5 -117.5t-347 115t-168 302h193q31 -120 113 -188.5t210 -68.5t212 76t84 194t-91 181t-244 63h-77v158h63q137 0 229 70t91 175q0 106 -76.5 170.5t-202.5 64.5t-203.5 -65t-77.5 -171h-183q0 178 126 283t337 105t339.5 -102.5
t128.5 -271.5t-129 -274q-46 -38 -103 -62q262 -72 262 -328z" />
    <glyph glyph-name="four" unicode="4" 
d="M751 353h-656v170l622 888h223v-904h267v-154h-267v-353h-189v353z" />
    <glyph glyph-name="five" unicode="5" 
d="M702 936q184 0 298 -132t114 -349t-129 -352t-329 -135t-329 109t-148 286h193q25 -122 90.5 -178.5t187.5 -56.5t196.5 90t74.5 240t-74.5 238t-187.5 88t-181 -57t-78 -149h-189l12 825h817v-154h-640l-11 -454q41 44 75 70q95 71 238 71z" />
    <glyph glyph-name="six" unicode="6" 
d="M688 767q-138 0 -228 -86t-89 -232q0 -146 81.5 -233.5t219.5 -87.5t219 87.5t81 233.5t-73 232t-211 86zM706 1432q197 0 309 -99.5t112 -274.5h-185q0 102 -63 160t-173 58q-179 0 -276 -185q-74 -140 -90 -375q20 32 45 59q135 152 332 152t318.5 -131.5t121.5 -345.5
t-138.5 -348t-370.5 -134t-362.5 173.5t-130.5 493.5q-1 383 143 590t408 207z" />
    <glyph glyph-name="seven" unicode="7" 
d="M164 1253v158h959v-173l-541 -1238h-227l569 1253h-760z" />
    <glyph glyph-name="eight" unicode="8" 
d="M961 394q-1 120 -87 191t-232 71t-232 -71t-86 -191t86 -193t232 -73t232.5 73t86.5 193zM642 816q129 0 206 62.5t77 166.5t-77 165.5t-206 61.5t-206 -61.5t-77 -165.5q0 -105 77 -167t206 -62zM1146 370q0 -179 -139 -290.5t-365 -111.5t-364.5 111.5t-138.5 290.5
t139 289q65 51 151 79q-72 24 -126 68q-129 101 -129 264t129 262.5t339 99.5t339 -99.5t129 -262.5t-129 -265q-55 -44 -126 -68q85 -26 152 -79q139 -109 139 -288z" />
    <glyph glyph-name="nine" unicode="9" 
d="M627 682q135 0 217 80t82 214t-79.5 215t-213.5 81t-213.5 -81t-79.5 -215t76.5 -214t210.5 -80zM649 1432q495 0 493 -709q-2 -755 -543 -755q-404 0 -444 374h185q24 -218 259 -218q201 0 283 160q71 138 79 443q-19 -33 -44 -61q-122 -144 -298 -144q-208 0 -336 124
t-128 328t136.5 331t357.5 127z" />
    <glyph glyph-name="colon" unicode=":" horiz-adv-x="680" 
d="M237 983h218v-238h-218v238zM237 238h218v-238h-218v238z" />
    <glyph glyph-name="semicolon" unicode=";" horiz-adv-x="680" 
d="M265 983h218v-238h-218v238zM168 -238l129 476h208l-213 -476h-124z" />
    <glyph glyph-name="less" unicode="&#x3c;" horiz-adv-x="2039" 
d="M410 542v144l1225 549v-145l-1066 -475l1066 -479v-145z" />
    <glyph glyph-name="equal" unicode="=" horiz-adv-x="2039" 
d="M474 827h1150v-120h-1150v120zM474 455h1150v-120h-1150v120z" />
    <glyph glyph-name="greater" unicode="&#x3e;" horiz-adv-x="2039" 
d="M1635 686v-144l-1225 -551v145l1066 479l-1066 475v145z" />
    <glyph glyph-name="question" unicode="?" horiz-adv-x="1057" 
d="M340 202h196v-202h-196v202zM458 1425q199 0 312 -92t113 -254q0 -121 -115 -258q-64 -77 -188 -183q-62 -53 -62 -120v-163h-160v223q0 47 47 89q151 132 218 218q67 85 67 177t-70 148t-201 55q-132 0 -210 -26v144q133 42 249 42z" />
    <glyph glyph-name="at" unicode="@" horiz-adv-x="2040" 
d="M999 1012q-94 0 -157 -94t-63 -231t63 -231t161 -94t155.5 85t57.5 234t-61.5 240t-155.5 91zM1482 223q-153 0 -230 158l-24 -34q-98 -124 -261 -124t-269.5 134.5t-106.5 329.5t108 329.5t261 134.5t256 -122v95h181v-541q0 -87 34 -138.5t92 -51.5q74 0 117 111
t43 300q0 305 -171.5 483.5t-476.5 178.5t-491.5 -203.5t-186.5 -550.5t196.5 -551t532.5 -204q97 0 188 10.5t125 26.5v-170q-34 -16 -124 -26.5t-186 -10.5q-428 0 -679 249.5t-251 675.5t242 675t638 249t619 -224.5t223 -607.5q0 -267 -108 -424t-291 -157z" />
    <glyph glyph-name="A" unicode="A" horiz-adv-x="1511" 
d="M646 1411h212l579 -1411h-210l-142 368h-664l-140 -368h-214z" />
    <glyph glyph-name="B" unicode="B" 
d="M372 651v-491h319q169 0 245 59t76 183q0 250 -352 249h-288zM960 1026q0 225 -324 225h-264v-436h264q324 0 324 211zM1205 382q0 -382 -497 -382h-529v1411h457q517 0 517 -346q0 -242 -249 -321q96 -22 164 -71q137 -97 137 -291z" />
    <glyph glyph-name="C" unicode="C" horiz-adv-x="1435" 
d="M772 -28q-295 0 -463 193.5t-168 536.5t168 540t463 197q247 0 393 -109t146 -293h-198q0 107 -88.5 173t-232.5 66q-216 0 -334.5 -145t-118.5 -417t116.5 -426.5t327.5 -154.5q140 0 228 64t102 177h198q-5 -180 -154 -291t-385 -111z" />
    <glyph glyph-name="D" unicode="D" horiz-adv-x="1473" 
d="M379 160h293q248 0 363.5 133.5t115.5 412.5t-128 412t-390 133h-254v-1091zM1343 685q0 -685 -672 -685h-485v1411h447q710 0 710 -726z" />
    <glyph glyph-name="E" unicode="E" horiz-adv-x="1171" 
d="M184 0v1411h860v-160h-667v-445h641v-160h-641v-486h685v-160h-878z" />
    <glyph glyph-name="F" unicode="F" horiz-adv-x="1133" 
d="M180 0v1411h869v-160h-676v-445h641v-160h-641v-646h-193z" />
    <glyph glyph-name="G" unicode="G" horiz-adv-x="1511" 
d="M800 -28q-316 0 -492.5 189.5t-176.5 532.5t180.5 544t496.5 201q239 0 380.5 -105t141.5 -283h-193q-8 101 -99 163t-230 62q-230 0 -357 -148t-127 -424t124.5 -424t359.5 -148q186 1 329 42v427h-316v168h509v-714q-214 -83 -530 -83z" />
    <glyph glyph-name="H" unicode="H" horiz-adv-x="1473" 
d="M179 0v1411h193v-603h727v603h193v-1411h-193v644h-727v-644h-193z" />
    <glyph glyph-name="I" unicode="I" horiz-adv-x="566" 
d="M188 0v1411h193v-1411h-193z" />
    <glyph glyph-name="J" unicode="J" horiz-adv-x="1133" 
d="M503 134q260 0 260 280v997h193v-974q0 -465 -459 -465q-197 0 -307.5 103t-116.5 292h193q15 -123 71 -178t166 -55z" />
    <glyph glyph-name="K" unicode="K" horiz-adv-x="1360" 
d="M399 0h-193v1411h193v-613l577 613h247l-614 -629l668 -782h-255l-623 754v-754z" />
    <glyph glyph-name="L" unicode="L" horiz-adv-x="1095" 
d="M179 0v1411h193v-1251h666v-160h-859z" />
    <glyph glyph-name="M" unicode="M" horiz-adv-x="1850" 
d="M366 0h-193v1411h156l600 -1181l429 1181h313v-1411h-193v1265l-453 -1265h-194l-465 1263v-1263z" />
    <glyph glyph-name="N" unicode="N" horiz-adv-x="1473" 
d="M361 0h-192v1411h125l815 -1183v1183h192v-1411h-129l-811 1170v-1170z" />
    <glyph glyph-name="O" unicode="O" horiz-adv-x="1548" 
d="M768 132q210 0 324.5 151t114.5 425t-114.5 422.5t-324.5 148.5t-325 -148.5t-115 -422.5t115 -425t325 -151zM768 -28q-296 0 -464.5 197.5t-168.5 540.5t168.5 536t464.5 193t464 -193t168 -536t-168 -540.5t-464 -197.5z" />
    <glyph glyph-name="P" unicode="P" horiz-adv-x="1208" 
d="M367 759h320q135 0 209.5 65t74.5 182t-74.5 181t-209.5 64h-320v-492zM174 0v1411h513q223 0 350 -107t127 -297t-127 -299t-350 -109h-320v-599h-193z" />
    <glyph glyph-name="Q" unicode="Q" horiz-adv-x="1586" 
d="M782 1279q-210 0 -324.5 -148.5t-114.5 -422.5t114.5 -425t324.5 -151t325 151t115 425t-115 422.5t-325 148.5zM150 714q0 339 168.5 532t464.5 193t464 -188.5t168 -528.5t-189 -545l-15 -17h312v-160h-222l-519 -28q-632 0 -632 742z" />
    <glyph glyph-name="R" unicode="R" horiz-adv-x="1322" 
d="M374 792h336q142 0 220 57t78 173t-82.5 172.5t-266.5 56.5h-285v-459zM181 0v1411h562q214 0 336 -96.5t122 -267.5t-131 -269q-62 -47 -148 -72q95 -11 139 -49q65 -53 85 -199t37 -234l11 -62q24 -118 47 -161h-205q-34 101 -74 360l-9 59q-18 117 -77 164.5
t-184 47.5h-318v-632h-193z" />
    <glyph glyph-name="S" unicode="S" horiz-adv-x="1322" 
d="M666 1275q-142 0 -230 -60t-88 -169q0 -141 204 -191l284 -68q198 -48 286 -135t87 -236q0 -208 -142.5 -326t-391.5 -118q-499 0 -539 437h194q5 -141 89 -209t251 -68t256.5 70t89.5 198q0 148 -222 201l-284 68q-190 45 -274 131t-84 232q0 191 141 299t379 108
t363 -97.5t137 -283.5h-196q-6 97 -87 157t-223 60z" />
    <glyph glyph-name="T" unicode="T" 
d="M545 0v1251h-473v160h1139v-160h-473v-1251h-193z" />
    <glyph glyph-name="U" unicode="U" horiz-adv-x="1473" 
d="M1296 532q0 -262 -149 -411t-411 -149t-411 149t-149 411v879h193v-837q0 -211 96.5 -326.5t271.5 -115.5t271 115.5t96 326.5v837h192v-879z" />
    <glyph glyph-name="V" unicode="V" horiz-adv-x="1473" 
d="M1192 1411h209l-560 -1411h-216l-560 1411h104l567 -1226z" />
    <glyph glyph-name="W" unicode="W" horiz-adv-x="2039" 
d="M1793 1411h191l-417 -1411h-102l-463 1208l-326 -1208h-203l-416 1411h101l427 -1204l323 1204h102l463 -1220z" />
    <glyph glyph-name="X" unicode="X" horiz-adv-x="1473" 
d="M129 1411h241l375 -548l373 548h230l-492 -676l541 -735h-247l-421 601l-411 -601h-236l533 739z" />
    <glyph glyph-name="Y" unicode="Y" horiz-adv-x="1397" 
d="M787 0h-193v574l-541 837h236l415 -689l418 689h204l-539 -836v-575z" />
    <glyph glyph-name="Z" unicode="Z" horiz-adv-x="1246" 
d="M124 1251v160h1003v-191l-810 -1060h829v-160h-1045v181l811 1070h-788z" />
    <glyph glyph-name="bracketleft" unicode="[" horiz-adv-x="680" 
d="M196 -184v1594h359v-87h-193v-1424h193v-83h-359z" />
    <glyph glyph-name="backslash" unicode="\" horiz-adv-x="680" 
d="M508 -106l-450 1517h114l450 -1517h-114z" />
    <glyph glyph-name="bracketright" unicode="]" horiz-adv-x="680" 
d="M476 -184h-359v83h193v1424h-193v87h359v-1594z" />
    <glyph glyph-name="asciicircum" unicode="^" horiz-adv-x="1020" 
d="M458 1536h106q68 -158 144 -252t216 -197v-94q-232 105 -368 219l-46 41l-44 -40q-136 -114 -367 -220v94q139 103 215 197t144 252z" />
    <glyph glyph-name="underscore" unicode="_" horiz-adv-x="1020" 
d="M0 -512v105h1020v-105h-1020z" />
    <glyph glyph-name="grave" unicode="`" 
d="M653 1103l-265 300h248l188 -300h-171z" />
    <glyph glyph-name="a" unicode="a" horiz-adv-x="1095" 
d="M505 108q264 0 266 296v74h-166q-307 0 -307 -200q0 -81 54 -125.5t153 -44.5zM771 695q0 180 -202 180t-214 -149h-190q11 148 106 216.5t279 68.5t293 -87t109 -229v-342q0 -301 27 -353l-189 66q-5 35 -7 84q-100 -178 -308 -178q-169 0 -264.5 81.5t-95.5 231.5
t131 238.5t361 88.5h164v83z" />
    <glyph glyph-name="b" unicode="b" horiz-adv-x="1171" 
d="M610 106q130 0 202.5 102t72.5 286t-71.5 283.5t-201.5 99.5t-202 -100.5t-72 -284.5t71 -285t201 -101zM157 1411h181v-556l14 18q110 138 304 138t303 -136.5t109 -380.5t-112 -383t-308 -139t-308 139l-2 2v-113h-181v1411z" />
    <glyph glyph-name="c" unicode="c" horiz-adv-x="1095" 
d="M582 1011q181 0 286.5 -91t110.5 -252h-185q-3 97 -64.5 152t-181.5 55q-248 0 -248 -379q0 -204 62 -296t190 -92t186.5 54.5t67.5 171.5h182q-28 -362 -406 -362q-472 0 -474 512q0 254 126 390.5t348 136.5z" />
    <glyph glyph-name="d" unicode="d" horiz-adv-x="1171" 
d="M555 877q-128 0 -198.5 -99.5t-70.5 -283.5t70.5 -286t198.5 -102t198.5 101t70.5 285t-70.5 284.5t-198.5 100.5zM506 -28q-192 0 -302 139t-110 383t112 380.5t308 136.5t308 -138l2 -2v540h181v-1411h-181v130l-15 -19q-111 -139 -303 -139z" />
    <glyph glyph-name="e" unicode="e" horiz-adv-x="1095" 
d="M560 875q-134 0 -203 -93q-52 -70 -64 -185h515q-9 135 -56 198q-58 80 -192 80zM102 483q0 243 124 385.5t336 142.5t322 -123.5t110 -359.5l-2 -66h-701q7 -168 68 -261t201 -93q99 0 162.5 55t75.5 152h187q-43 -343 -437 -343q-200 0 -323 134t-123 377z" />
    <glyph glyph-name="f" unicode="f" horiz-adv-x="755" 
d="M445 852v-852h-181v852h-192v131h192v114q0 184 68.5 256t243.5 72q49 0 97 -10v-134q-33 8 -71 8q-87 0 -122 -43t-35 -149v-114h228v-131h-228z" />
    <glyph glyph-name="g" unicode="g" horiz-adv-x="1171" 
d="M293 516q0 -368 269 -368q128 0 198.5 95.5t70.5 269.5t-70.5 269t-198.5 95t-198.5 -94.5t-70.5 -266.5zM578 -259q130 0 191.5 72t61.5 245v131l-30 -42q-109 -133 -295 -133t-295.5 134t-109.5 360t121.5 364.5t306.5 138.5t287 -133l15 -19v124h181v-925
q0 -236 -109.5 -344.5t-331.5 -108.5t-318.5 77t-96.5 242h189q0 -95 51.5 -139t181.5 -44z" />
    <glyph glyph-name="h" unicode="h" horiz-adv-x="1171" 
d="M148 0v1411h181v-549l22 24q111 125 302 125t281.5 -102.5t90.5 -320.5v-588h-181v583q0 151 -57 219t-192 68t-200.5 -74.5t-65.5 -239.5v-556h-181z" />
    <glyph glyph-name="i" unicode="i" horiz-adv-x="491" 
d="M145 1411h198v-185h-198v185zM154 0v983h181v-983h-181z" />
    <glyph glyph-name="j" unicode="j" horiz-adv-x="491" 
d="M147 1411h198v-185h-198v185zM155 983h181v-1072q0 -166 -57.5 -233.5t-198.5 -67.5q-59 -1 -101 7v129h54q70 0 96 35t26 130v1072z" />
    <glyph glyph-name="k" unicode="k" horiz-adv-x="1095" 
d="M361 0h-181v1411h181v-836l386 408h229l-423 -415l492 -568h-244l-440 541v-541z" />
    <glyph glyph-name="l" unicode="l" horiz-adv-x="491" 
d="M150 0v1411h181v-1411h-181z" />
    <glyph glyph-name="m" unicode="m" horiz-adv-x="1775" 
d="M147 0v983h181v-117l17 20q104 125 268 125t263 -95q40 -38 63 -85l38 51q111 129 289 129t265 -98t87 -307v-606h-181v612q0 135 -50.5 196.5t-172.5 61.5t-181 -74.5t-59 -239.5v-556h-181v611q0 136 -51.5 197.5t-173.5 61.5t-181 -74.5t-59 -239.5v-556h-181z" />
    <glyph glyph-name="n" unicode="n" horiz-adv-x="1171" 
d="M633 1011q209 0 300 -103t91 -322v-586h-181v583q0 151 -57 219t-192 68t-200.5 -74.5t-65.5 -239.5v-556h-181v983h168v-136q109 164 318 164z" />
    <glyph glyph-name="o" unicode="o" horiz-adv-x="1171" 
d="M580 108q134 0 208 101.5t74 284.5t-74 282t-208 99t-208 -99t-74 -282t74 -284.5t208 -101.5zM580 -28q-222 0 -348.5 139t-126.5 383t126.5 380.5t348.5 136.5t348.5 -136.5t126.5 -380.5t-126.5 -383t-348.5 -139z" />
    <glyph glyph-name="p" unicode="p" horiz-adv-x="1171" 
d="M331 492q0 -386 268 -386q135 0 207 102t72 286t-72 283.5t-202 99.5t-201.5 -100.5t-71.5 -284.5zM150 983h181v-128l14 18q109 138 303 138t303.5 -136.5t109.5 -380.5t-111.5 -383t-307.5 -139t-309 139l-2 2v-480h-181v1350z" />
    <glyph glyph-name="q" unicode="q" horiz-adv-x="1171" 
d="M567 877q-128 0 -198.5 -99.5t-70.5 -283.5t70.5 -286t198.5 -102t198.5 101t70.5 285t-70.5 284.5t-198.5 100.5zM518 -28q-192 0 -302 139t-110 383t112 380.5t308 136.5t308 -138l2 -2v112h181v-1350h-181v497l-15 -19q-111 -139 -303 -139z" />
    <glyph glyph-name="r" unicode="r" horiz-adv-x="718" 
d="M148 0v983h181v-100q106 129 275 128l49 -2v-169l-37 2q-151 0 -219 -81.5t-68 -260.5v-500h-181z" />
    <glyph glyph-name="s" unicode="s" horiz-adv-x="1020" 
d="M712 718q0 73 -53 115t-147 42t-147 -35.5t-53 -89.5t28 -84t89 -46l200 -54q153 -42 219 -106t67 -171q0 -148 -108.5 -232.5t-304.5 -84.5t-300 82.5t-104 240.5h187q0 -88 59.5 -137.5t165.5 -49.5t166 43t60 122q0 90 -151 131l-200 54q-136 37 -196 99
q-59 62 -59 182t102 196t282 76t282.5 -78t102.5 -215h-187z" />
    <glyph glyph-name="t" unicode="t" horiz-adv-x="755" 
d="M492 -28q-102 0 -172.5 56t-70.5 137v687h-204v131h204v177l181 75v-252h241v-131h-241v-645q0 -52 37 -85.5t204 -0.5v-135q-77 -14 -179 -14z" />
    <glyph glyph-name="u" unicode="u" horiz-adv-x="1171" 
d="M320 983v-589q0 -151 57 -219t195 -68t204 76t58 243v557h181v-983h-168v128l-20 -26q-113 -131 -307 -131t-287.5 105.5t-93.5 330.5v576h181z" />
    <glyph glyph-name="v" unicode="v" horiz-adv-x="1133" 
d="M871 983h195l-400 -983h-204l-399 983h100l406 -849z" />
    <glyph glyph-name="w" unicode="w" horiz-adv-x="1775" 
d="M1501 983h177l-321 -983h-102l-366 862l-251 -862h-204l-330 983h95l341 -819l238 819h115l370 -819z" />
    <glyph glyph-name="x" unicode="x" horiz-adv-x="1133" 
d="M94 983h238l255 -363l259 363h208l-369 -471l385 -512h-229l-282 398l-280 -398h-212l396 503z" />
    <glyph glyph-name="y" unicode="y" horiz-adv-x="1133" 
d="M513 -363h-182l150 359l-415 987h195l317 -779l299 779h192z" />
    <glyph glyph-name="z" unicode="z" horiz-adv-x="982" 
d="M124 848v135h742v-155l-565 -693h579v-135h-782v155l565 693h-539z" />
    <glyph glyph-name="braceleft" unicode="{" horiz-adv-x="907" 
d="M761 -477q-219 0 -298.5 79.5t-79.5 298.5v266q0 137 -49.5 214t-136.5 77v176q87 0 136.5 77t49.5 214v266q0 219 79.5 298.5t298.5 79.5v-154q-100 0 -141 -48t-51 -176v-266q-19 -242 -97 -330q-26 -29 -65 -49q39 -20 65 -49q78 -88 97 -330v-266q10 -128 51 -176
t141 -48v-154z" />
    <glyph glyph-name="bar" unicode="|" horiz-adv-x="1020" 
d="M458 -512v2048h105v-2048h-105z" />
    <glyph glyph-name="braceright" unicode="}" horiz-adv-x="907" 
d="M145 -477v154q100 0 141 48t51 176v266q19 242 97 330q26 29 65 49q-39 20 -65 49q-78 88 -97 330v266q-10 128 -51 176t-141 48v154q219 0 298.5 -79.5t79.5 -298.5v-266q0 -137 49.5 -214t136.5 -77v-176q-87 0 -136.5 -77t-49.5 -214v-266q1 -219 -79 -299t-299 -79z
" />
    <glyph glyph-name="asciitilde" unicode="~" horiz-adv-x="2039" 
d="M722 766q112 0 377 -68q266 -68 320 -67q117 0 231 130l34 -36q-63 -134 -136 -189t-192 -55q-119 1 -347 67q-227 66 -300 66q-72 0 -132 -27.5t-132 -94.5l-31 33q93 133 166 187t142 54z" />
    <glyph glyph-name="uni00A0" unicode="&#xa0;" horiz-adv-x="680" 
 />
    <glyph glyph-name="exclamdown" unicode="&#xa1;" horiz-adv-x="680" 
d="M442 776h-196v202h196v-202zM407 624l42 -1057h-210l42 1057h126z" />
    <glyph glyph-name="cent" unicode="&#xa2;" 
d="M601 1465h189v-234q130 -16 211 -85q105 -89 105 -245h-193q0 93 -53.5 145.5t-147.5 52.5q-141 0 -204.5 -90t-63.5 -292t63.5 -294t204.5 -92q99 0 155.5 60t56.5 166h182q0 -169 -105 -266q-80 -73 -211 -92v-257h-189v263q-137 29 -227 130q-123 139 -123 383
t123 381q91 99 227 126v240z" />
    <glyph glyph-name="sterling" unicode="&#xa3;" 
d="M1173 0h-896v138h103v575h-150v131h150v172q0 198 116 310.5t300 112.5t280.5 -84t96.5 -226h-189q0 78 -51 126t-147 48t-156.5 -76.5t-60.5 -210.5v-172h284v-131h-284v-575h604v-138z" />
    <glyph glyph-name="currency" unicode="&#xa4;" 
d="M1094 730q0 -158 -92 -276l137 -137l-79 -79l-137 137q-117 -91 -275 -91t-275 91l-137 -137l-79 79l137 137q-90 117 -90 275t91 274l-138 138l79 79l138 -138q117 92 274 92t274 -92l138 138l79 -79l-138 -138q93 -115 93 -273zM974 728q0 137 -94.5 231.5t-231.5 94.5
t-231 -94.5t-94 -231.5t94 -231t231 -94t231.5 94t94.5 231z" />
    <glyph glyph-name="yen" unicode="&#xa5;" 
d="M227 354v95h319v125l-544 837h236l419 -690l420 690h204l-542 -836v-126h319v-95h-319v-109h319v-95h-319v-150h-193v150h-319v95h319v109h-319z" />
    <glyph glyph-name="brokenbar" unicode="&#xa6;" horiz-adv-x="1020" 
d="M458 564v919h105v-919h-105zM458 -461v919h105v-919h-105z" />
    <glyph glyph-name="section" unicode="&#xa7;" 
d="M856 735q0 60 -41.5 100t-127.5 68q-60 -11 -112 -54q-75 -59 -75 -122t42 -102t125 -61q67 9 128 60t61 111zM576 938q-204 78 -204 232q0 126 88 198t252 71q163 0 234 -37v-136q-78 39 -241 39q-71 0 -111 -36.5t-40 -91.5t41.5 -90.5t127.5 -63.5l88 -28
q202 -67 202 -238q0 -172 -218 -229q218 -71 218 -254q0 -143 -98 -224.5t-260 -81.5t-276 37v145q145 -48 249 -48t153.5 44.5t49.5 109.5t-43 102t-132 61l-95 26q-222 59 -222 243q0 111 106 189q59 43 131 61z" />
    <glyph glyph-name="dieresis" unicode="&#xa8;" 
d="M723 1375h192v-208h-192v208zM362 1375h192v-208h-192v208z" />
    <glyph glyph-name="copyright" unicode="&#xa9;" horiz-adv-x="1020" 
d="M946 1051q0 173 -120 293t-293 120t-293 -120t-119 -293q-1 -173 119 -293t293 -119q173 -1 293 119t120 293zM534 1529q200 -1 338 -139t139 -338q-1 -200 -139 -340q-138 -138 -338 -138t-340 138q-138 138 -138 340q0 200 138 338q140 138 340 139zM567 786
q-111 0 -187 80t-76 194q0 116 76 196t184 79q58 0 114 -22t80 -54l-58 -62q-18 27 -58 45t-78 18q-78 0 -132 -58t-53 -142t55 -142t133 -57q37 -1 77 19t61 48l58 -62q-24 -34 -81 -57t-115 -23z" />
    <glyph glyph-name="ordfeminine" unicode="&#xaa;" horiz-adv-x="831" 
d="M387 848q147 0 151 183v55h-94q-174 0 -174 -129q0 -50 32 -79.5t85 -29.5zM538 1214q0 121 -110 121t-116 -86h-158q8 98 71.5 144t187.5 46t197 -62t73 -163l1 -438h-123q-8 12 -16 87l-23 -34q-66 -81 -170 -81t-167.5 57t-63.5 154t86.5 159.5t226.5 62.5h104v33z
" />
    <glyph glyph-name="guillemotleft" unicode="&#xab;" horiz-adv-x="1133" 
d="M962 862l-224 -373l224 -373h-155l-262 373l262 373h155zM582 862l-224 -373l224 -373h-155l-262 373l262 373h155z" />
    <glyph glyph-name="logicalnot" unicode="&#xac;" horiz-adv-x="2039" 
d="M1540 759h-1096v120h1216v-630h-120v510z" />
    <glyph glyph-name="uni00AD" unicode="&#xad;" horiz-adv-x="680" 
d="M93 597h486v-133h-486v133z" />
    <glyph glyph-name="registered" unicode="&#xae;" horiz-adv-x="1020" 
d="M946 1046q0 173 -120 293t-293 120t-293 -120t-119 -293q-1 -172 119 -292t293 -120t293 120t120 292zM534 1524q200 0 338 -138t139 -340q-1 -200 -139 -338t-338 -139q-200 1 -340 139q-138 138 -138 338t138 340q140 138 340 138zM625 1166q0 30 -21 51t-51 21h-112
v-144h112q30 0 51 21t21 51zM366 807v506h187q63 -1 105 -43t42 -104t-43 -105q-20 -20 -46 -31l89 -223h-91l-84 212h-84v-212h-75z" />
    <glyph glyph-name="macron" unicode="&#xaf;" horiz-adv-x="1020" 
d="M0 1526v105h1020v-105h-1020z" />
    <glyph glyph-name="degree" unicode="&#xb0;" 
d="M888 1062q0 122 -57.5 191t-159.5 69t-159.5 -69t-57.5 -191t57.5 -191t159.5 -69t159.5 69t57.5 191zM671 1432q171 0 267 -98t96 -272t-96 -272t-267 -98t-267 98t-96 272t96 272t267 98z" />
    <glyph glyph-name="plusminus" unicode="&#xb1;" horiz-adv-x="2039" 
d="M478 121h1146v-120h-1146v120zM991 634h-513v120h513v416h120v-416h513v-120h-513v-416h-120v416z" />
    <glyph glyph-name="uni00B2" unicode="&#xb2;" horiz-adv-x="793" 
d="M673 1228q0 -190 -382 -438h398v-113h-563v118q183 120 296 233.5t113 171.5t-33.5 90t-89.5 32t-90 -32.5t-34 -84.5h-140q0 105 71 167.5t190 62.5t191 -57t73 -150z" />
    <glyph glyph-name="uni00B3" unicode="&#xb3;" horiz-adv-x="793" 
d="M394 778q70 0 112 33t42 85t-45.5 79t-121.5 27h-48v110h41q66 0 112 30t46 78q0 46 -38 74t-96 28t-96 -30.5t-46 -79.5h-134q0 102 74 162.5t198 60.5t200 -56.5t76 -150.5t-62 -133q-37 -23 -108 -33q80 -9 121 -36q66 -40 66 -140t-81.5 -160.5t-214.5 -60.5
t-203.5 55.5t-89.5 175.5h142q31 -118 154 -118z" />
    <glyph glyph-name="acute" unicode="&#xb4;" 
d="M534 1103l190 300h245l-263 -300h-172z" />
    <glyph glyph-name="mu" unicode="&#xb5;" horiz-adv-x="1133" 
d="M473 112q206 0 330 425l128 443h190l-153 -529q-30 -103 -50 -234t-18 -217h-185q-1 77 7 168l-265 -196q-110 0 -165 88q-23 39 -31 81l-176 -478h-210q164 394 209 553l222 764h200l-193 -642q-29 -99 15 -162.5t145 -63.5z" />
    <glyph glyph-name="paragraph" unicode="&#xb6;" 
d="M240 1057q0 204 161.5 336.5t425.5 132.5h260v-80h-138v-1772h-80v1772h-98v-1772h-80v892q-215 39 -333 163t-118 328z" />
    <glyph glyph-name="periodcentered" unicode="&#xb7;" horiz-adv-x="680" 
d="M237 824h218v-238h-218v238z" />
    <glyph glyph-name="cedilla" unicode="&#xb8;" 
d="M487 -391l172 263h161l-117 -263h-216z" />
    <glyph glyph-name="uni00B9" unicode="&#xb9;" horiz-adv-x="793" 
d="M510 1435v-758h-138v619l-59 -39q-52 -29 -131 -54v122q106 37 190 110h138z" />
    <glyph glyph-name="ordmasculine" unicode="&#xba;" horiz-adv-x="831" 
d="M428 848q79 0 122.5 65t43.5 182t-43.5 180.5t-122.5 63.5t-122.5 -63.5t-43.5 -180.5t43.5 -182t122.5 -65zM424 748q-149 0 -233.5 93t-84.5 255t84.5 252.5t233.5 90.5t234 -90.5t85 -252.5t-85 -255t-234 -93z" />
    <glyph glyph-name="guillemotright" unicode="&#xbb;" horiz-adv-x="1133" 
d="M545 116l224 373l-224 373h155l262 -373l-262 -373h-155zM165 116l224 373l-224 373h155l262 -373l-262 -373h-155z" />
    <glyph glyph-name="onequarter" unicode="&#xbc;" horiz-adv-x="2039" 
d="M1426 1425l-848 -1503h-128l848 1503h128zM682 1435v-758h-138v619l-59 -39q-52 -29 -131 -54v122q106 37 190 110h138zM1403 176h-344v118l344 440h138v-445h144v-113h-144v-176h-138v176z" />
    <glyph glyph-name="onehalf" unicode="&#xbd;" horiz-adv-x="2039" 
d="M1419 1425l-848 -1503h-128l848 1503h128zM690 1435v-758h-138v619l-59 -39q-52 -29 -131 -54v122q106 37 190 110h138zM1676 551q0 -190 -382 -438h398v-113h-563v118q183 120 296 233t113 171t-34 91q-34 32 -89 32q-56 -1 -90 -33t-34 -84h-140q0 106 71 168t190 62
q120 0 192 -57t72 -150z" />
    <glyph glyph-name="threequarters" unicode="&#xbe;" horiz-adv-x="2039" 
d="M1549 1425l-848 -1503h-128l848 1503h128zM633 778q70 0 112 33t42 85q1 52 -45 78q-46 28 -122 28h-48v110h41q67 0 113 30t45 78q0 46 -38 74q-39 28 -97 28t-96 -30t-45 -80h-134q0 102 74 162t198 61q124 0 200 -57q76 -56 76 -150t-62 -133q-37 -23 -108 -33
q80 -9 121 -36q66 -40 66 -140t-82 -160t-214 -61q-134 -1 -204 55t-89 176h142q31 -118 154 -118zM1503 176h-344v118l344 440h138v-445h144v-113h-144v-176h-138v176z" />
    <glyph glyph-name="questiondown" unicode="&#xbf;" horiz-adv-x="1057" 
d="M767 768h-196v202h196v-202zM220 -120q0 123 116 261q66 77 191 187q62 55 62 120v165h160v-226q0 -47 -47 -89q-154 -136 -222 -222t-67 -179q-1 -93 69 -149t202 -57q132 0 211 26v-144q-133 -42 -250 -42q-199 0 -312 93t-113 256z" />
    <glyph glyph-name="Agrave" unicode="&#xc0;" horiz-adv-x="1511" 
d="M646 1411h212l579 -1411h-210l-142 368h-664l-140 -368h-214zM713 1531l-232 264h253l163 -264h-184z" />
    <glyph glyph-name="Aacute" unicode="&#xc1;" horiz-adv-x="1511" 
d="M646 1411h212l579 -1411h-210l-142 368h-664l-140 -368h-214zM644 1531l163 264h253l-238 -264h-178z" />
    <glyph glyph-name="Acircumflex" unicode="&#xc2;" horiz-adv-x="1511" 
d="M646 1411h212l579 -1411h-210l-142 368h-664l-140 -368h-214zM637 1792h230l193 -264h-187l-124 156l-124 -156h-181z" />
    <glyph glyph-name="Atilde" unicode="&#xc3;" horiz-adv-x="1511" 
d="M646 1411h212l579 -1411h-210l-142 368h-664l-140 -368h-214zM569 1783q54 -1 93 -13t127 -58q88 -47 129 -47q40 0 58 26t21 94h125q-4 -255 -196 -255q-56 0 -94 12t-122 58t-121 46t-56 -26t-26 -92h-125q8 255 187 255z" />
    <glyph glyph-name="Adieresis" unicode="&#xc4;" horiz-adv-x="1511" 
d="M646 1411h212l579 -1411h-210l-142 368h-664l-140 -368h-214zM829 1767h192v-209h-192v209zM462 1767h192v-209h-192v209z" />
    <glyph glyph-name="Aring" unicode="&#xc5;" horiz-adv-x="1511" 
d="M646 1411h212l579 -1411h-210l-142 368h-664l-140 -368h-214zM752 1621q52 -1 89 37q36 38 36 93t-36 93q-37 38 -89 38t-88 -38t-36 -93t36 -93t88 -37zM752 1489q-108 0 -182 76t-75 186q1 111 75 187t182 76t183 -76t75 -187q0 -110 -75 -186t-183 -76z" />
    <glyph glyph-name="AE" unicode="&#xc6;" horiz-adv-x="2001" 
d="M935 1294l-405 -749h539zM1873 1411v-160h-735l78 -445h621v-160h-593l86 -486h543v-160h-711l-68 385h-650l-206 -385h-202l795 1411h1042z" />
    <glyph glyph-name="Ccedilla" unicode="&#xc7;" horiz-adv-x="1435" 
d="M772 -28q-295 0 -463 194t-168 536q0 343 168 540t463 197q247 0 393 -109t146 -293h-198q-1 107 -89 173t-232 66q-216 0 -334 -145t-119 -417q1 -272 117 -427q116 -154 327 -154q140 0 228 64t102 177h198q-5 -180 -154 -291t-385 -111zM521 -391l171 263h161
l-116 -263h-216z" />
    <glyph glyph-name="Egrave" unicode="&#xc8;" horiz-adv-x="1171" 
d="M184 0v1411h860v-160h-667v-445h641v-160h-641v-486h685v-160h-878zM532 1531l-232 264h253l163 -264h-184z" />
    <glyph glyph-name="Eacute" unicode="&#xc9;" horiz-adv-x="1171" 
d="M184 0v1411h860v-160h-667v-445h641v-160h-641v-486h685v-160h-878zM463 1531l163 264h253l-238 -264h-178z" />
    <glyph glyph-name="Ecircumflex" unicode="&#xca;" horiz-adv-x="1171" 
d="M184 0v1411h860v-160h-667v-445h641v-160h-641v-486h685v-160h-878zM456 1792h230l193 -264h-187l-124 156l-124 -156h-181z" />
    <glyph glyph-name="Edieresis" unicode="&#xcb;" horiz-adv-x="1171" 
d="M184 0v1411h860v-160h-667v-445h641v-160h-641v-486h685v-160h-878zM690 1767h192v-209h-192v209zM323 1767h192v-209h-192v209z" />
    <glyph glyph-name="Igrave" unicode="&#xcc;" horiz-adv-x="566" 
d="M214 0v1411h193v-1411h-193zM271 1531l-232 264h253l163 -264h-184z" />
    <glyph glyph-name="Iacute" unicode="&#xcd;" horiz-adv-x="566" 
d="M189 0v1411h193v-1411h-193zM177 1531l163 264h253l-238 -264h-178z" />
    <glyph glyph-name="Icircumflex" unicode="&#xce;" horiz-adv-x="566" 
d="M192 0v1411h193v-1411h-193zM173 1792h230l193 -264h-187l-124 156l-124 -156h-181z" />
    <glyph glyph-name="Idieresis" unicode="&#xcf;" horiz-adv-x="566" 
d="M199 0v1411h193v-1411h-193zM372 1767h192v-209h-192v209zM5 1767h192v-209h-192v209z" />
    <glyph glyph-name="Eth" unicode="&#xd0;" horiz-adv-x="1473" 
d="M380 1251v-470h291v-150h-291v-471h291q247 0 362 133.5t115 412.5t-127 412t-388 133h-253zM1340 685q0 -685 -669 -685h-484v631h-144v150h144v630h446q707 0 707 -726z" />
    <glyph glyph-name="Ntilde" unicode="&#xd1;" horiz-adv-x="1473" 
d="M361 0h-192v1411h125l815 -1183v1183h192v-1411h-129l-811 1170v-1170zM552 1783q54 -1 93 -13t127 -58t129 -47q41 0 59 26t20 94h125q-4 -255 -196 -255q-57 0 -95 12t-121 58q-84 46 -121 46t-56 -26t-26 -92h-125q8 255 187 255z" />
    <glyph glyph-name="Ograve" unicode="&#xd2;" horiz-adv-x="1548" 
d="M768 132q210 0 324 152q115 152 115 424q0 274 -115 422q-114 148 -324 149q-210 -1 -325 -149t-115 -422t115 -424q115 -152 325 -152zM768 -28q-296 0 -464 198t-169 540q1 343 169 536t464 193t464 -193t168 -536q0 -342 -168 -540t-464 -198zM728 1531l-232 264h253
l163 -264h-184z" />
    <glyph glyph-name="Oacute" unicode="&#xd3;" horiz-adv-x="1548" 
d="M768 132q210 0 324 152q115 152 115 424q0 274 -115 422q-114 148 -324 149q-210 -1 -325 -149t-115 -422t115 -424q115 -152 325 -152zM768 -28q-296 0 -464 198t-169 540q1 343 169 536t464 193t464 -193t168 -536q0 -342 -168 -540t-464 -198zM659 1531l163 264h253
l-238 -264h-178z" />
    <glyph glyph-name="Ocircumflex" unicode="&#xd4;" horiz-adv-x="1548" 
d="M768 132q210 0 324 152q115 152 115 424q0 274 -115 422q-114 148 -324 149q-210 -1 -325 -149t-115 -422t115 -424q115 -152 325 -152zM768 -28q-296 0 -464 198t-169 540q1 343 169 536t464 193t464 -193t168 -536q0 -342 -168 -540t-464 -198zM652 1792h230l193 -264
h-187l-124 156l-124 -156h-181z" />
    <glyph glyph-name="Otilde" unicode="&#xd5;" horiz-adv-x="1548" 
d="M768 132q210 0 324 152q115 152 115 424q0 274 -115 422q-114 148 -324 149q-210 -1 -325 -149t-115 -422t115 -424q115 -152 325 -152zM768 -28q-296 0 -464 198t-169 540q1 343 169 536t464 193t464 -193t168 -536q0 -342 -168 -540t-464 -198zM584 1783q54 -1 93 -13
t127 -58t129 -47q41 0 59 26t20 94h125q-4 -255 -196 -255q-57 0 -95 12t-121 58q-84 46 -121 46t-56 -26t-26 -92h-125q8 255 187 255z" />
    <glyph glyph-name="Odieresis" unicode="&#xd6;" horiz-adv-x="1548" 
d="M768 132q210 0 324 152q115 152 115 424q0 274 -115 422q-114 148 -324 149q-210 -1 -325 -149t-115 -422t115 -424q115 -152 325 -152zM768 -28q-296 0 -464 198t-169 540q1 343 169 536t464 193t464 -193t168 -536q0 -342 -168 -540t-464 -198zM844 1767h192v-209h-192
v209zM477 1767h192v-209h-192v209z" />
    <glyph glyph-name="multiply" unicode="&#xd7;" horiz-adv-x="2039" 
d="M1050 480l-427 -428l-85 85l428 427l-428 427l85 85l427 -428l427 428l85 -85l-428 -427l428 -427l-85 -85z" />
    <glyph glyph-name="Oslash" unicode="&#xd8;" horiz-adv-x="1548" 
d="M1074 1154q-112 124 -314 124t-317 -148t-115 -418q1 -211 66 -350zM750 1439q278 0 440 -150l129 150l92 -75l-142 -165q131 -185 131 -509t-168 -521t-465 -197q-258 1 -422 151l-130 -151l-92 75l145 168q-134 190 -134 514t169 517t447 193zM776 132
q200 0 315.5 151.5t115.5 428.5q0 203 -65 339l-681 -792q115 -127 315 -127z" />
    <glyph glyph-name="Ugrave" unicode="&#xd9;" horiz-adv-x="1473" 
d="M1296 532q0 -262 -148 -411t-412 -149q-262 0 -411 149t-149 411v879h193v-837q1 -210 97 -326t271 -116t271 116t96 326v837h192v-879zM697 1531l-232 264h253l163 -264h-184z" />
    <glyph glyph-name="Uacute" unicode="&#xda;" horiz-adv-x="1473" 
d="M1296 532q0 -262 -148 -411t-412 -149q-262 0 -411 149t-149 411v879h193v-837q1 -210 97 -326t271 -116t271 116t96 326v837h192v-879zM628 1531l163 264h253l-238 -264h-178z" />
    <glyph glyph-name="Ucircumflex" unicode="&#xdb;" horiz-adv-x="1473" 
d="M1296 532q0 -262 -148 -411t-412 -149q-262 0 -411 149t-149 411v879h193v-837q1 -210 97 -326t271 -116t271 116t96 326v837h192v-879zM621 1792h230l193 -264h-187l-124 156l-124 -156h-181z" />
    <glyph glyph-name="Udieresis" unicode="&#xdc;" horiz-adv-x="1473" 
d="M1296 532q0 -262 -148 -411t-412 -149q-262 0 -411 149t-149 411v879h193v-837q1 -210 97 -326t271 -116t271 116t96 326v837h192v-879zM813 1767h192v-209h-192v209zM446 1767h192v-209h-192v209z" />
    <glyph glyph-name="Yacute" unicode="&#xdd;" horiz-adv-x="1397" 
d="M787 0h-193v574l-541 837h236l415 -689l418 689h204l-539 -836v-575zM581 1531l163 264h253l-238 -264h-178z" />
    <glyph glyph-name="Thorn" unicode="&#xde;" horiz-adv-x="1208" 
d="M971 750q0 116 -77.5 177.5t-224.5 61.5h-302v-484h302q144 0 223 64.5t79 180.5zM668 1149q496 0 496 -398q0 -190 -132 -298t-364 -108h-301v-345h-193v1411h193v-262h301z" />
    <glyph glyph-name="germandbls" unicode="&#xdf;" horiz-adv-x="1246" 
d="M330 980v-980h-181v980q0 233 101.5 332t319.5 99t331 -77t113 -212q0 -70 -38.5 -128t-133.5 -129q-71 -55 -71 -114q1 -51 155 -127t220.5 -152.5t66.5 -174.5q0 -152 -112.5 -238.5t-286.5 -86.5t-266 80.5t-103 222.5h189q6 -78 59 -122.5t141 -44.5t139 46t51 115
t-39 114t-155 102q-248 122 -248 256q0 113 144 221q67 50 83 79t16 70q0 77 -66 120.5t-184 43.5q-117 0 -181 -76t-64 -219z" />
    <glyph glyph-name="agrave" unicode="&#xe0;" horiz-adv-x="1095" 
d="M505 108q264 0 266 296v74h-166q-307 0 -307 -200q0 -82 54 -126t153 -44zM771 695q0 180 -202 180t-214 -149h-190q11 148 106 216t279 69q184 0 294 -87q108 -87 108 -229v-342q0 -301 27 -353l-189 66q-5 35 -7 84q-100 -178 -308 -178q-169 0 -265 82t-95 231
q0 151 131 239t361 88h164v83zM540 1103l-265 300h248l188 -300h-171z" />
    <glyph glyph-name="aacute" unicode="&#xe1;" horiz-adv-x="1095" 
d="M505 108q264 0 266 296v74h-166q-307 0 -307 -200q0 -82 54 -126t153 -44zM771 695q0 180 -202 180t-214 -149h-190q11 148 106 216t279 69q184 0 294 -87q108 -87 108 -229v-342q0 -301 27 -353l-189 66q-5 35 -7 84q-100 -178 -308 -178q-169 0 -265 82t-95 231
q0 151 131 239t361 88h164v83zM433 1103l190 300h245l-263 -300h-172z" />
    <glyph glyph-name="acircumflex" unicode="&#xe2;" horiz-adv-x="1095" 
d="M505 108q264 0 266 296v74h-166q-307 0 -307 -200q0 -82 54 -126t153 -44zM771 695q0 180 -202 180t-214 -149h-190q11 148 106 216t279 69q184 0 294 -87q108 -87 108 -229v-342q0 -301 27 -353l-189 66q-5 35 -7 84q-100 -178 -308 -178q-169 0 -265 82t-95 231
q0 151 131 239t361 88h164v83zM464 1396h190l213 -293h-151l-157 181l-157 -181h-151z" />
    <glyph glyph-name="atilde" unicode="&#xe3;" horiz-adv-x="1095" 
d="M505 108q264 0 266 296v74h-166q-307 0 -307 -200q0 -82 54 -126t153 -44zM771 695q0 180 -202 180t-214 -149h-190q11 148 106 216t279 69q184 0 294 -87q108 -87 108 -229v-342q0 -301 27 -353l-189 66q-5 35 -7 84q-100 -178 -308 -178q-169 0 -265 82t-95 231
q0 151 131 239t361 88h164v83zM566 1371q102 -52 137 -52q35 -1 51 21t26 78h117q-7 -128 -51 -187t-131 -59q-45 0 -79 11t-115 53q-82 42 -111 41q-29 1 -45 -21t-27 -79h-117q18 128 62 187t113 59q68 0 170 -52z" />
    <glyph glyph-name="adieresis" unicode="&#xe4;" horiz-adv-x="1095" 
d="M505 108q264 0 266 296v74h-166q-307 0 -307 -200q0 -82 54 -126t153 -44zM771 695q0 180 -202 180t-214 -149h-190q11 148 106 216t279 69q184 0 294 -87q108 -87 108 -229v-342q0 -301 27 -353l-189 66q-5 35 -7 84q-100 -178 -308 -178q-169 0 -265 82t-95 231
q0 151 131 239t361 88h164v83zM644 1375h192v-208h-192v208zM283 1375h192v-208h-192v208z" />
    <glyph glyph-name="aring" unicode="&#xe5;" horiz-adv-x="1095" 
d="M505 108q264 0 266 296v74h-166q-307 0 -307 -200q0 -82 54 -126t153 -44zM771 695q0 180 -202 180t-214 -149h-190q11 148 106 216t279 69q184 0 294 -87q108 -87 108 -229v-342q0 -301 27 -353l-189 66q-5 35 -7 84q-100 -178 -308 -178q-169 0 -265 82t-95 231
q0 151 131 239t361 88h164v83zM559 1229q51 0 85 32t34 79q0 48 -34 80t-85 32q-50 0 -84 -32t-34 -80q0 -47 34 -79t84 -32zM559 1096q-99 0 -167 71t-68 173t68 174q68 71 167 71t167 -71q68 -72 69 -174q-1 -102 -69 -173t-167 -71z" />
    <glyph glyph-name="ae" unicode="&#xe6;" horiz-adv-x="1737" 
d="M1199 875q-231 0 -261 -288h505q-8 143 -61 215t-183 73zM496 108q259 0 259 291v70h-162q-300 0 -300 -196q0 -79 53 -122t150 -43zM755 667q0 208 -204 208q-188 0 -201 -159h-190q12 153 106.5 224t285.5 71q245 0 331 -154q133 154 331 154t306 -123.5t108 -359.5
l-2 -76h-688q8 -160 67 -252t195 -92q96 0 158 55t74 152h187q-21 -167 -126.5 -255t-291.5 -88t-319 147l-41 51q-101 -198 -313 -198t-315 80t-103 228t128.5 235.5t355.5 87.5h161v64z" />
    <glyph glyph-name="ccedilla" unicode="&#xe7;" horiz-adv-x="1095" 
d="M582 1011q180 0 286 -91t111 -252h-185q-2 97 -64 152t-182 55q-248 0 -248 -379q0 -204 62 -296t190 -92t186 54t68 172h182q-28 -362 -406 -362q-472 0 -474 512q0 254 126 390t348 137zM330 -391l172 263h161l-117 -263h-216z" />
    <glyph glyph-name="egrave" unicode="&#xe8;" horiz-adv-x="1095" 
d="M560 875q-134 0 -203 -93q-52 -70 -64 -185h515q-9 135 -56 198q-58 80 -192 80zM102 483q0 243 124 385t336 143t322 -123t110 -360l-2 -66h-701q7 -168 68 -261t201 -93q98 0 162 55t76 152h187q-43 -343 -437 -343q-200 0 -323 134t-123 377zM547 1103l-265 300h248
l188 -300h-171z" />
    <glyph glyph-name="eacute" unicode="&#xe9;" horiz-adv-x="1095" 
d="M560 875q-134 0 -203 -93q-52 -70 -64 -185h515q-9 135 -56 198q-58 80 -192 80zM102 483q0 243 124 385t336 143t322 -123t110 -360l-2 -66h-701q7 -168 68 -261t201 -93q98 0 162 55t76 152h187q-43 -343 -437 -343q-200 0 -323 134t-123 377zM440 1103l190 300h245
l-263 -300h-172z" />
    <glyph glyph-name="ecircumflex" unicode="&#xea;" horiz-adv-x="1095" 
d="M560 875q-134 0 -203 -93q-52 -70 -64 -185h515q-9 135 -56 198q-58 80 -192 80zM102 483q0 243 124 385t336 143t322 -123t110 -360l-2 -66h-701q7 -168 68 -261t201 -93q98 0 162 55t76 152h187q-43 -343 -437 -343q-200 0 -323 134t-123 377zM471 1396h190l213 -293
h-151l-157 181l-157 -181h-151z" />
    <glyph glyph-name="edieresis" unicode="&#xeb;" horiz-adv-x="1095" 
d="M560 875q-134 0 -203 -93q-52 -70 -64 -185h515q-9 135 -56 198q-58 80 -192 80zM102 483q0 243 124 385t336 143t322 -123t110 -360l-2 -66h-701q7 -168 68 -261t201 -93q98 0 162 55t76 152h187q-43 -343 -437 -343q-200 0 -323 134t-123 377zM651 1375h192v-208h-192
v208zM290 1375h192v-208h-192v208z" />
    <glyph glyph-name="igrave" unicode="&#xec;" horiz-adv-x="491" 
d="M158 0v983h181v-983h-181zM257 1103l-265 300h248l188 -300h-171z" />
    <glyph glyph-name="iacute" unicode="&#xed;" horiz-adv-x="491" 
d="M159 0v983h181v-983h-181zM137 1103l190 300h245l-263 -300h-172z" />
    <glyph glyph-name="icircumflex" unicode="&#xee;" horiz-adv-x="491" 
d="M156 0v983h181v-983h-181zM151 1396h190l213 -293h-151l-157 181l-157 -181h-151z" />
    <glyph glyph-name="idieresis" unicode="&#xef;" horiz-adv-x="491" 
d="M151 0v983h181v-983h-181zM326 1375h192v-208h-192v208zM-35 1375h192v-208h-192v208z" />
    <glyph glyph-name="eth" unicode="&#xf0;" horiz-adv-x="1171" 
d="M585 873q-135 0 -209 -99q-74 -100 -75 -282q0 -182 74.5 -283t209.5 -101t209.5 101t74.5 283t-74.5 281.5t-209.5 99.5zM1062 485q0 -231 -131 -372t-350 -141t-346 140t-127 382t127 378.5t350 136.5q80 0 154 -33l-3 3q-58 97 -143 182l-236 -88l-38 111l175 65
q-71 61 -158 113l154 63q90 -54 165 -116l198 74l38 -111l-136 -51q308 -302 307 -732v-4z" />
    <glyph glyph-name="ntilde" unicode="&#xf1;" horiz-adv-x="1171" 
d="M633 1011q209 0 300 -103t91 -322v-586h-181v583q0 151 -57 219t-192 68q-134 0 -200 -74t-66 -240v-556h-181v983h168v-136q109 164 318 164zM592 1371q102 -52 137 -52q35 -1 51 21t26 78h117q-7 -128 -51 -187t-131 -59q-45 0 -79 11t-115 53q-82 42 -111 41
q-29 1 -45 -21t-27 -79h-117q18 128 62 187t113 59q68 0 170 -52z" />
    <glyph glyph-name="ograve" unicode="&#xf2;" horiz-adv-x="1171" 
d="M580 108q134 0 208 102t74 284q0 183 -74 282t-208 99t-208 -99t-74 -282q0 -182 74 -284t208 -102zM580 -28q-222 0 -348 140t-127 382q1 244 127 380t348 137q222 -1 349 -137q126 -136 126 -380t-126 -382q-127 -140 -349 -140zM561 1103l-265 300h248l188 -300h-171z
" />
    <glyph glyph-name="oacute" unicode="&#xf3;" horiz-adv-x="1171" 
d="M580 108q134 0 208 102t74 284q0 183 -74 282t-208 99t-208 -99t-74 -282q0 -182 74 -284t208 -102zM580 -28q-222 0 -348 140t-127 382q1 244 127 380t348 137q222 -1 349 -137q126 -136 126 -380t-126 -382q-127 -140 -349 -140zM454 1103l190 300h245l-263 -300h-172z
" />
    <glyph glyph-name="ocircumflex" unicode="&#xf4;" horiz-adv-x="1171" 
d="M580 108q134 0 208 102t74 284q0 183 -74 282t-208 99t-208 -99t-74 -282q0 -182 74 -284t208 -102zM580 -28q-222 0 -348 140t-127 382q1 244 127 380t348 137q222 -1 349 -137q126 -136 126 -380t-126 -382q-127 -140 -349 -140zM485 1396h190l213 -293h-151l-157 181
l-157 -181h-151z" />
    <glyph glyph-name="otilde" unicode="&#xf5;" horiz-adv-x="1171" 
d="M580 108q134 0 208 102t74 284q0 183 -74 282t-208 99t-208 -99t-74 -282q0 -182 74 -284t208 -102zM580 -28q-222 0 -348 140t-127 382q1 244 127 380t348 137q222 -1 349 -137q126 -136 126 -380t-126 -382q-127 -140 -349 -140zM587 1371q102 -52 137 -52q34 -1 50 21
t27 78h117q-8 -128 -52 -187t-130 -59q-44 0 -78 11t-116 53t-111 41q-29 1 -45 -21t-27 -79h-117q18 128 62 187t113 59q68 0 170 -52z" />
    <glyph glyph-name="odieresis" unicode="&#xf6;" horiz-adv-x="1171" 
d="M580 108q134 0 208 102t74 284q0 183 -74 282t-208 99t-208 -99t-74 -282q0 -182 74 -284t208 -102zM580 -28q-222 0 -348 140t-127 382q1 244 127 380t348 137q222 -1 349 -137q126 -136 126 -380t-126 -382q-127 -140 -349 -140zM665 1375h192v-208h-192v208zM304 1375
h192v-208h-192v208z" />
    <glyph glyph-name="divide" unicode="&#xf7;" horiz-adv-x="2039" 
d="M1047 952q40 0 68 -28t28 -68t-28 -68t-68 -28t-68 28t-28 68t28 68t68 28zM472 624h1150v-120h-1150v120zM1047 368q40 0 68 -28t28 -68t-28 -68t-68 -28t-68 28t-28 68t28 68t68 28z" />
    <glyph glyph-name="oslash" unicode="&#xf8;" horiz-adv-x="1171" 
d="M582 875q-130 0 -204 -99t-74 -280q1 -117 29 -204l453 494q-74 89 -204 89zM603 -28q-206 0 -329 103l-95 -104l-75 71l101 111q-94 133 -94 359t126.5 363t333.5 137t328 -103l94 103l75 -71l-99 -108q92 -129 92 -355t-126 -366t-332 -140zM868 496q0 113 -29 195
l-453 -494q74 -89 204 -89t204 101.5t74 286.5z" />
    <glyph glyph-name="ugrave" unicode="&#xf9;" horiz-adv-x="1171" 
d="M320 983v-589q0 -151 57 -219t195 -68t204 76t58 243v557h181v-983h-168v128l-20 -26q-113 -131 -307 -131q-194 -1 -288 105t-93 331v576h181zM558 1103l-265 300h248l188 -300h-171z" />
    <glyph glyph-name="uacute" unicode="&#xfa;" horiz-adv-x="1171" 
d="M320 983v-589q0 -151 57 -219t195 -68t204 76t58 243v557h181v-983h-168v128l-20 -26q-113 -131 -307 -131q-194 -1 -288 105t-93 331v576h181zM451 1103l190 300h245l-263 -300h-172z" />
    <glyph glyph-name="ucircumflex" unicode="&#xfb;" horiz-adv-x="1171" 
d="M320 983v-589q0 -151 57 -219t195 -68t204 76t58 243v557h181v-983h-168v128l-20 -26q-113 -131 -307 -131q-194 -1 -288 105t-93 331v576h181zM482 1396h190l213 -293h-151l-157 181l-157 -181h-151z" />
    <glyph glyph-name="udieresis" unicode="&#xfc;" horiz-adv-x="1171" 
d="M320 983v-589q0 -151 57 -219t195 -68t204 76t58 243v557h181v-983h-168v128l-20 -26q-113 -131 -307 -131q-194 -1 -288 105t-93 331v576h181zM662 1375h192v-208h-192v208zM301 1375h192v-208h-192v208z" />
    <glyph glyph-name="yacute" unicode="&#xfd;" horiz-adv-x="1133" 
d="M513 -363h-182l150 359l-415 987h195l317 -779l299 779h192zM441 1103l190 300h245l-263 -300h-172z" />
    <glyph glyph-name="thorn" unicode="&#xfe;" horiz-adv-x="1171" 
d="M604 106q130 0 202 102t72 286t-72 283.5t-202 99.5t-201.5 -100.5t-71.5 -284.5t71.5 -285t201.5 -101zM150 1411h181v-556l14 18q109 138 303 138t303.5 -136.5t109.5 -380.5t-111.5 -383t-307.5 -139t-309 139l-2 2v-480h-181v1778z" />
    <glyph glyph-name="ydieresis" unicode="&#xff;" horiz-adv-x="1133" 
d="M513 -363h-182l150 359l-415 987h195l317 -779l299 779h192zM652 1375h192v-208h-192v208zM291 1375h192v-208h-192v208z" />
    <glyph glyph-name="Amacron" unicode="&#x100;" horiz-adv-x="1511" 
d="M646 1411h212l579 -1411h-210l-142 368h-664l-140 -368h-214zM421 1675h662v-126h-662v126z" />
    <glyph glyph-name="amacron" unicode="&#x101;" horiz-adv-x="1095" 
d="M505 108q264 0 266 296v74h-166q-307 0 -307 -200q0 -82 54 -126t153 -44zM771 695q0 180 -202 180t-214 -149h-190q11 148 106 216t279 69q184 0 294 -87q108 -87 108 -229v-342q0 -301 27 -353l-189 66q-5 35 -7 84q-100 -178 -308 -178q-169 0 -265 82t-95 231
q0 151 131 239t361 88h164v83zM220 1303h678v-138h-678v138z" />
    <glyph glyph-name="Abreve" unicode="&#x102;" horiz-adv-x="1511" 
d="M646 1411h212l579 -1411h-210l-142 368h-664l-140 -368h-214zM752 1522q-142 0 -224 70q-81 70 -87 200h136q7 -79 49 -114t120 -35q80 0 126 39t55 110h136q-9 -132 -89 -201t-222 -69z" />
    <glyph glyph-name="abreve" unicode="&#x103;" horiz-adv-x="1095" 
d="M505 108q264 0 266 296v74h-166q-307 0 -307 -200q0 -82 54 -126t153 -44zM771 695q0 180 -202 180t-214 -149h-190q11 148 106 216t279 69q184 0 294 -87q108 -87 108 -229v-342q0 -301 27 -353l-189 66q-5 35 -7 84q-100 -178 -308 -178q-169 0 -265 82t-95 231
q0 151 131 239t361 88h164v83zM562 1097q-148 1 -229 77t-85 217h136q7 -93 48 -133q42 -40 126 -40t130 46t46 127h136q0 -144 -80 -219t-228 -75z" />
    <glyph glyph-name="Aogonek" unicode="&#x104;" horiz-adv-x="1511" 
d="M1131 -137q0 93 84 167l-130 338h-664l-140 -368h-214l579 1411h212l579 -1411h-105h-28q-40 -51 -40 -105q0 -53 38 -83t104 -31q4 0 36 1v-132h-37q-115 0 -195 60q-79 60 -79 153z" />
    <glyph glyph-name="aogonek" unicode="&#x105;" horiz-adv-x="1095" 
d="M505 108q264 0 266 296v74h-166q-307 0 -307 -200q0 -82 54 -126t153 -44zM771 695q0 180 -202 180t-214 -149h-190q11 148 106 216t279 69q184 0 294 -87q108 -87 108 -229v-342q0 -301 27 -353q-67 5 -110 15q-30 -88 -30 -125q1 -36 27 -60t60 -24q33 0 69 3v-173h-82
q-89 0 -139 46t-51 126q0 126 92 226q-23 13 -26 40q-4 27 -6 76q-100 -178 -308 -178q-169 0 -265 82t-95 231q0 151 131 239t361 88h164v83z" />
    <glyph glyph-name="Cacute" unicode="&#x106;" horiz-adv-x="1435" 
d="M772 -28q-295 0 -463 194t-168 536q0 343 168 540t463 197q247 0 393 -109t146 -293h-198q-1 107 -89 173t-232 66q-216 0 -334 -145t-119 -417q1 -272 117 -427q116 -154 327 -154q140 0 228 64t102 177h198q-5 -180 -154 -291t-385 -111zM664 1531l163 264h253
l-238 -264h-178z" />
    <glyph glyph-name="cacute" unicode="&#x107;" horiz-adv-x="1095" 
d="M582 1011q180 0 286 -91t111 -252h-185q-2 97 -64 152t-182 55q-248 0 -248 -379q0 -204 62 -296t190 -92t186 54t68 172h182q-28 -362 -406 -362q-472 0 -474 512q0 254 126 390t348 137zM456 1103l190 300h245l-263 -300h-172z" />
    <glyph glyph-name="Ccaron" unicode="&#x10c;" horiz-adv-x="1435" 
d="M772 -28q-295 0 -463 194t-168 536q0 343 168 540t463 197q247 0 393 -109t146 -293h-198q-1 107 -89 173t-232 66q-216 0 -334 -145t-119 -417q1 -272 117 -427q116 -154 327 -154q140 0 228 64t102 177h198q-5 -180 -154 -291t-385 -111zM887 1531h-230l-194 264h187
l125 -156l125 156h181z" />
    <glyph glyph-name="ccaron" unicode="&#x10d;" horiz-adv-x="1095" 
d="M582 1011q180 0 286 -91t111 -252h-185q-2 97 -64 152t-182 55q-248 0 -248 -379q0 -204 62 -296t190 -92t186 54t68 172h182q-28 -362 -406 -362q-472 0 -474 512q0 254 126 390t348 137zM677 1104h-190l-213 293h151l157 -181l157 181h151z" />
    <glyph glyph-name="Dcaron" unicode="&#x10e;" horiz-adv-x="1473" 
d="M379 160h293q248 0 364 134t115 412q0 279 -128 412t-390 133h-254v-1091zM1343 685q0 -685 -672 -685h-485v1411h447q710 0 710 -726zM820 1531h-230l-194 264h187l125 -156l125 156h181z" />
    <glyph glyph-name="dcaron" unicode="&#x10f;" horiz-adv-x="1360" 
d="M555 877q-129 1 -199 -99t-70 -284t70 -286t199 -102t199 101t70 285t-70 284t-199 101zM506 -28q-192 0 -302 140t-110 382q0 244 112 380t308 137q196 0 308 -138l2 -2v540h181v-1411h-181v130l-15 -19q-111 -139 -303 -139zM1125 1094l116 423h199l-201 -423h-114z
" />
    <glyph glyph-name="Dcroat" unicode="&#x110;" horiz-adv-x="1473" 
d="M380 1251v-470h291v-150h-291v-471h291q247 0 362 133.5t115 412.5t-127 412t-388 133h-253zM1340 685q0 -685 -669 -685h-484v631h-144v150h144v630h446q707 0 707 -726z" />
    <glyph glyph-name="dcroat" unicode="&#x111;" horiz-adv-x="1171" 
d="M555 877q-128 0 -198.5 -99.5t-70.5 -283.5t70.5 -286t198.5 -102t198.5 101t70.5 285t-70.5 284.5t-198.5 100.5zM506 -28q-192 0 -302 139t-110 383t112 380.5t308 136.5t308 -138l2 -2v243h-208v114h208v183h181v-183h121v-114h-121v-1114h-181v130l-15 -19
q-111 -139 -303 -139z" />
    <glyph glyph-name="Emacron" unicode="&#x112;" horiz-adv-x="1171" 
d="M184 0v1411h860v-160h-667v-445h641v-160h-641v-486h685v-160h-878zM282 1675h662v-126h-662v126z" />
    <glyph glyph-name="emacron" unicode="&#x113;" horiz-adv-x="1095" 
d="M560 875q-134 0 -203 -93q-52 -70 -64 -185h515q-9 135 -56 198q-58 80 -192 80zM102 483q0 243 124 385t336 143t322 -123t110 -360l-2 -66h-701q7 -168 68 -261t201 -93q98 0 162 55t76 152h187q-43 -343 -437 -343q-200 0 -323 134t-123 377zM227 1303h678v-138h-678
v138z" />
    <glyph glyph-name="Edotaccent" unicode="&#x116;" horiz-adv-x="1171" 
d="M184 0v1411h860v-160h-667v-445h641v-160h-641v-486h685v-160h-878zM560 1760h192v-210h-192v210z" />
    <glyph glyph-name="edotaccent" unicode="&#x117;" horiz-adv-x="1095" 
d="M560 875q-134 0 -203 -93q-52 -70 -64 -185h515q-9 135 -56 198q-58 80 -192 80zM102 483q0 243 124 385t336 143t322 -123t110 -360l-2 -66h-701q7 -168 68 -261t201 -93q98 0 162 55t76 152h187q-43 -343 -437 -343q-200 0 -323 134t-123 377zM470 1375h192v-210h-192
v210z" />
    <glyph glyph-name="Eogonek" unicode="&#x118;" horiz-adv-x="1171" 
d="M790 -147q0 83 55 147h-661v1411h860v-160h-667v-445h641v-160h-641v-486h685v-160h-99q-40 -51 -40 -105q-1 -53 37 -83t105 -31q4 0 36 1v-132h-37q-115 0 -195 60q-79 60 -79 143z" />
    <glyph glyph-name="eogonek" unicode="&#x119;" horiz-adv-x="1095" 
d="M560 875q-134 0 -203 -93q-52 -70 -64 -185h515q-9 135 -56 198q-58 80 -192 80zM880 -194q34 0 69 3v-173h-82q-89 0 -139 46t-51 137q0 92 61 178q-76 -25 -173 -25q-217 0 -340 134t-123 377t124 385t336 143t322 -123t110 -360l-2 -66h-701q7 -168 68 -261t201 -93
q98 0 162 55t76 152h187q-23 -186 -153 -273q-39 -108 -39 -148q1 -40 27 -64t60 -24z" />
    <glyph glyph-name="Ecaron" unicode="&#x11a;" horiz-adv-x="1171" 
d="M184 0v1411h860v-160h-667v-445h641v-160h-641v-486h685v-160h-878zM757 1531h-230l-194 264h187l125 -156l125 156h181z" />
    <glyph glyph-name="ecaron" unicode="&#x11b;" horiz-adv-x="1095" 
d="M560 875q-134 0 -203 -93q-52 -70 -64 -185h515q-9 135 -56 198q-58 80 -192 80zM102 483q0 243 124 385t336 143t322 -123t110 -360l-2 -66h-701q7 -168 68 -261t201 -93q98 0 162 55t76 152h187q-43 -343 -437 -343q-200 0 -323 134t-123 377zM661 1104h-190l-213 293
h151l157 -181l157 181h151z" />
    <glyph glyph-name="Gbreve" unicode="&#x11e;" horiz-adv-x="1511" 
d="M800 -28q-316 0 -492 190t-177 532q1 343 181 544t496 201q238 0 380 -105t142 -283h-193q-8 101 -99 163t-230 62q-230 0 -357 -148t-127 -424t124 -424t360 -148q186 1 329 42v427h-316v168h509v-714q-214 -83 -530 -83zM808 1522q-142 0 -224 70q-81 70 -87 200h136
q7 -79 49 -114t120 -35q80 0 126 39t55 110h136q-9 -132 -89 -201t-222 -69z" />
    <glyph glyph-name="gbreve" unicode="&#x11f;" horiz-adv-x="1171" 
d="M293 516q0 -368 269 -368q128 0 198 96t71 269q-1 174 -71 269t-198 95q-128 -1 -198 -95t-71 -266zM578 -259q130 0 192 72t61 245v131l-30 -42q-109 -133 -295 -133t-296 134t-109 360q-1 226 121 364t307 139q185 0 287 -133l15 -19v124h181v-925q0 -236 -110 -344
t-331 -109q-223 0 -319 77t-96 242h189q0 -95 52 -139q51 -44 181 -44zM580 1097q-148 1 -230 77q-81 76 -85 217h136q7 -93 48 -133t125 -40t131 46q46 46 46 127h136q1 -144 -79 -219t-228 -75z" />
    <glyph glyph-name="uni0122" unicode="&#x122;" horiz-adv-x="1511" 
d="M800 -28q-316 0 -492 190t-177 532q1 343 181 544t496 201q238 0 380 -105t142 -283h-193q-8 101 -99 163t-230 62q-230 0 -357 -148t-127 -424t124 -424t360 -148q186 1 329 42v427h-316v168h509v-714q-214 -83 -530 -83zM543 -391l171 263h161l-116 -263h-216z" />
    <glyph glyph-name="uni0123" unicode="&#x123;" horiz-adv-x="1171" 
d="M293 516q0 -368 269 -368q128 0 198 96t71 269q-1 174 -71 269t-198 95q-128 -1 -198 -95t-71 -266zM578 -259q130 0 192 72t61 245v131l-30 -42q-109 -133 -295 -133t-296 134t-109 360q-1 226 121 364t307 139q185 0 287 -133l15 -19v124h181v-925q0 -236 -110 -344
t-331 -109q-223 0 -319 77t-96 242h189q0 -95 52 -139q51 -44 181 -44zM734 1362l-117 -259h-216l173 259h160z" />
    <glyph glyph-name="Imacron" unicode="&#x12a;" horiz-adv-x="566" 
d="M190 0v1411h193v-1411h-193zM-45 1675h662v-126h-662v126z" />
    <glyph glyph-name="imacron" unicode="&#x12b;" horiz-adv-x="491" 
d="M146 0v983h181v-983h-181zM-103 1303h678v-138h-678v138z" />
    <glyph glyph-name="Iogonek" unicode="&#x12e;" horiz-adv-x="566" 
d="M165 -147q0 83 55 147h-27v1411h193v-1411h-48q-40 -51 -40 -105q0 -53 38 -83t104 -31q4 0 36 1v-132h-37q-115 0 -195 60q-79 60 -79 143z" />
    <glyph glyph-name="iogonek" unicode="&#x12f;" horiz-adv-x="491" 
d="M145 1411h198v-185h-198v185zM336 -364q-90 0 -140 46t-50 138q0 93 63 180h-55v983h181v-983h-48q-25 -77 -25 -111q0 -35 26 -59t60 -24q33 0 70 3v-173h-82z" />
    <glyph glyph-name="Idotaccent" unicode="&#x130;" horiz-adv-x="566" 
d="M188 0v1411h193v-1411h-193zM188 1760h192v-210h-192v210z" />
    <glyph glyph-name="dotlessi" unicode="&#x131;" horiz-adv-x="491" 
d="M153 0v983h181v-983h-181z" />
    <glyph glyph-name="uni0136" unicode="&#x136;" horiz-adv-x="1360" 
d="M399 0h-193v1411h193v-613l577 613h247l-614 -629l668 -782h-255l-623 754v-754zM459 -391l171 263h161l-116 -263h-216z" />
    <glyph glyph-name="uni0137" unicode="&#x137;" horiz-adv-x="1095" 
d="M361 0h-181v1411h181v-836l386 408h229l-423 -415l492 -568h-244l-440 541v-541zM330 -391l171 263h161l-116 -263h-216z" />
    <glyph glyph-name="Lacute" unicode="&#x139;" horiz-adv-x="1095" 
d="M191 0v1411h193v-1251h666v-160h-859zM179 1531l163 264h253l-238 -264h-178z" />
    <glyph glyph-name="lacute" unicode="&#x13a;" horiz-adv-x="491" 
d="M137 0v1411h181v-1411h-181zM119 1531l163 264h253l-238 -264h-178z" />
    <glyph glyph-name="uni013B" unicode="&#x13b;" horiz-adv-x="1095" 
d="M179 0v1411h193v-1251h666v-160h-859zM357 -391l171 263h161l-116 -263h-216z" />
    <glyph glyph-name="uni013C" unicode="&#x13c;" horiz-adv-x="491" 
d="M139 0v1411h181v-1411h-181zM-22 -391l171 263h161l-116 -263h-216z" />
    <glyph glyph-name="Lcaron" unicode="&#x13d;" horiz-adv-x="1095" 
d="M179 0v1411h193v-1251h666v-160h-859zM492 1094l116 423h199l-201 -423h-114z" />
    <glyph glyph-name="lcaron" unicode="&#x13e;" horiz-adv-x="680" 
d="M150 0v1411h181v-1411h-181zM450 1094l116 423h199l-201 -423h-114z" />
    <glyph glyph-name="Lslash" unicode="&#x141;" horiz-adv-x="1095" 
d="M177 0v614l-136 -109v167l136 109v630h193v-474l146 117v-167l-146 -117v-610h666v-160h-859z" />
    <glyph glyph-name="lslash" unicode="&#x142;" horiz-adv-x="491" 
d="M150 0v648l-117 -83v145l117 83v618h181v-490l116 83v-145l-116 -82v-777h-181z" />
    <glyph glyph-name="Nacute" unicode="&#x143;" horiz-adv-x="1473" 
d="M361 0h-192v1411h125l815 -1183v1183h192v-1411h-129l-811 1170v-1170zM627 1531l163 264h253l-238 -264h-178z" />
    <glyph glyph-name="nacute" unicode="&#x144;" horiz-adv-x="1171" 
d="M633 1011q209 0 300 -103t91 -322v-586h-181v583q0 151 -57 219t-192 68q-134 0 -200 -74t-66 -240v-556h-181v983h168v-136q109 164 318 164zM459 1103l190 300h245l-263 -300h-172z" />
    <glyph glyph-name="uni0145" unicode="&#x145;" horiz-adv-x="1473" 
d="M361 0h-192v1411h125l815 -1183v1183h192v-1411h-129l-811 1170v-1170zM484 -391l171 263h161l-116 -263h-216z" />
    <glyph glyph-name="uni0146" unicode="&#x146;" horiz-adv-x="1171" 
d="M633 1011q209 0 300 -103t91 -322v-586h-181v583q0 151 -57 219t-192 68q-134 0 -200 -74t-66 -240v-556h-181v983h168v-136q109 164 318 164zM334 -391l171 263h161l-116 -263h-216z" />
    <glyph glyph-name="Ncaron" unicode="&#x147;" horiz-adv-x="1473" 
d="M361 0h-192v1411h125l815 -1183v1183h192v-1411h-129l-811 1170v-1170zM850 1531h-230l-194 264h187l125 -156l125 156h181z" />
    <glyph glyph-name="ncaron" unicode="&#x148;" horiz-adv-x="1171" 
d="M633 1011q209 0 300 -103t91 -322v-586h-181v583q0 151 -57 219t-192 68q-134 0 -200 -74t-66 -240v-556h-181v983h168v-136q109 164 318 164zM680 1104h-190l-213 293h151l157 -181l157 181h151z" />
    <glyph glyph-name="Omacron" unicode="&#x14c;" horiz-adv-x="1548" 
d="M768 132q210 0 324 152q115 152 115 424q0 274 -115 422q-114 148 -324 149q-210 -1 -325 -149t-115 -422t115 -424q115 -152 325 -152zM768 -28q-296 0 -464 198t-169 540q1 343 169 536t464 193t464 -193t168 -536q0 -342 -168 -540t-464 -198zM436 1675h662v-126h-662
v126z" />
    <glyph glyph-name="omacron" unicode="&#x14d;" horiz-adv-x="1171" 
d="M580 108q134 0 208 102t74 284q0 183 -74 282t-208 99t-208 -99t-74 -282q0 -182 74 -284t208 -102zM580 -28q-222 0 -348 140t-127 382q1 244 127 380t348 137q222 -1 349 -137q126 -136 126 -380t-126 -382q-127 -140 -349 -140zM241 1303h678v-138h-678v138z" />
    <glyph glyph-name="Ohungarumlaut" unicode="&#x150;" horiz-adv-x="1548" 
d="M768 132q210 0 324 152q115 152 115 424q0 274 -115 422q-114 148 -324 149q-210 -1 -325 -149t-115 -422t115 -424q115 -152 325 -152zM768 -28q-296 0 -464 198t-169 540q1 343 169 536t464 193t464 -193t168 -536q0 -342 -168 -540t-464 -198zM841 1520l163 264h253
l-227 -264h-189zM491 1520l163 264h253l-227 -264h-189z" />
    <glyph glyph-name="ohungarumlaut" unicode="&#x151;" horiz-adv-x="1171" 
d="M580 108q134 0 208 102t74 284q0 183 -74 282t-208 99t-208 -99t-74 -282q0 -182 74 -284t208 -102zM580 -28q-222 0 -348 140t-127 382q1 244 127 380t348 137q222 -1 349 -137q126 -136 126 -380t-126 -382q-127 -140 -349 -140zM679 1100l190 300h245l-263 -300h-172z
M313 1100l190 300h245l-263 -300h-172z" />
    <glyph glyph-name="OE" unicode="&#x152;" horiz-adv-x="2039" 
d="M871 1258q-275 0 -409 -134.5t-134 -406.5t142 -418t401 -146q89 1 163 16v1072q-74 18 -163 17zM134 710q0 334 188 521t520 187l281 -7h789v-160h-685v-445h641v-160h-641v-486h685v-160h-878l-163 -7q-344 0 -540.5 191.5t-196.5 525.5z" />
    <glyph glyph-name="oe" unicode="&#x153;" horiz-adv-x="1850" 
d="M1306 875q-128 0 -194 -93q-48 -70 -62 -185h496q-9 135 -54 198q-58 80 -186 80zM576 875q-133 0 -205.5 -99t-72.5 -282t72.5 -284.5t205.5 -101.5t206 101.5t73 284.5t-73 282t-206 99zM105 494q0 244 123 380t339 137q216 0 339 -137q32 -35 55 -77q121 214 368 214
q197 0 300 -123.5t103 -359.5v-66h-683q6 -168 65 -261t194 -93q95 0 156 55t73 152h187q-21 -167 -122 -255t-273 -88q-255 0 -373 211q-117 -211 -390 -211q-215 0 -338 139t-123 383z" />
    <glyph glyph-name="Racute" unicode="&#x154;" horiz-adv-x="1322" 
d="M374 792h336q142 0 220 57t78 173t-82 172q-82 57 -267 57h-285v-459zM181 0v1411h562q214 -1 336 -97t122 -267t-131 -269q-62 -47 -148 -72q95 -11 139 -49q65 -53 85 -199t37 -234l11 -62q24 -118 47 -161h-205q-34 101 -74 360l-9 59q-18 116 -77 164t-184 48h-318
v-632h-193zM532 1531l163 264h253l-238 -264h-178z" />
    <glyph glyph-name="racute" unicode="&#x155;" horiz-adv-x="718" 
d="M148 0v983h181v-100q106 129 275 128l49 -2v-169l-37 2q-151 0 -219 -82t-68 -260v-500h-181zM274 1103l190 300h245l-263 -300h-172z" />
    <glyph glyph-name="uni0156" unicode="&#x156;" horiz-adv-x="1322" 
d="M374 792h336q142 0 220 57t78 173t-82 172q-82 57 -267 57h-285v-459zM181 0v1411h562q214 -1 336 -97t122 -267t-131 -269q-62 -47 -148 -72q95 -11 139 -49q65 -53 85 -199t37 -234l11 -62q24 -118 47 -161h-205q-34 101 -74 360l-9 59q-18 116 -77 164t-184 48h-318
v-632h-193zM452 -391l171 263h161l-116 -263h-216z" />
    <glyph glyph-name="uni0157" unicode="&#x157;" horiz-adv-x="718" 
d="M149 0v983h181v-100q106 129 275 128l49 -2v-169l-37 2q-151 0 -219 -82t-68 -260v-500h-181zM-12 -391l171 263h161l-116 -263h-216z" />
    <glyph glyph-name="Rcaron" unicode="&#x158;" horiz-adv-x="1322" 
d="M374 792h336q142 0 220 57t78 173t-82 172q-82 57 -267 57h-285v-459zM181 0v1411h562q214 -1 336 -97t122 -267t-131 -269q-62 -47 -148 -72q95 -11 139 -49q65 -53 85 -199t37 -234l11 -62q24 -118 47 -161h-205q-34 101 -74 360l-9 59q-18 116 -77 164t-184 48h-318
v-632h-193zM755 1531h-230l-194 264h187l125 -156l125 156h181z" />
    <glyph glyph-name="rcaron" unicode="&#x159;" horiz-adv-x="718" 
d="M147 0v983h181v-100q106 129 275 128l49 -2v-169l-37 2q-151 0 -219 -82t-68 -260v-500h-181zM494 1104h-190l-213 293h151l157 -181l157 181h151z" />
    <glyph glyph-name="Sacute" unicode="&#x15a;" horiz-adv-x="1322" 
d="M666 1275q-142 0 -230 -60t-88 -169q0 -141 204 -191l284 -68q198 -48 286 -135t87 -236q-1 -208 -143 -326t-391 -118q-499 0 -539 437h194q5 -141 89 -209t251 -68q166 0 256 70t90 198q0 148 -222 201l-284 68q-190 45 -274 131t-84 232q0 191 141 299t379 108
q238 1 362 -97q126 -98 138 -284h-196q-6 97 -87 157t-223 60zM574 1531l163 264h253l-238 -264h-178z" />
    <glyph glyph-name="sacute" unicode="&#x15b;" horiz-adv-x="1020" 
d="M712 718q0 73 -52 115t-148 42q-94 0 -147 -35q-53 -36 -53 -90t28 -84t89 -46l200 -54q153 -42 219 -106t67 -171q-1 -149 -109 -233t-304 -84t-300 82t-104 241h187q0 -87 59 -137q60 -50 166 -50t166 43t60 122q0 90 -151 131l-200 54q-136 37 -196 99q-59 62 -59 182
t102 196t282 76t282 -78t103 -215h-187zM388 1103l190 300h245l-263 -300h-172z" />
    <glyph glyph-name="Scedilla" unicode="&#x15e;" horiz-adv-x="1322" 
d="M666 1275q-142 0 -230 -60t-88 -169q0 -141 204 -191l284 -68q198 -48 286 -135t87 -236q-1 -208 -143 -326t-391 -118q-499 0 -539 437h194q5 -141 89 -209t251 -68q166 0 256 70t90 198q0 148 -222 201l-284 68q-190 45 -274 131t-84 232q0 191 141 299t379 108
q238 1 362 -97q126 -98 138 -284h-196q-6 97 -87 157t-223 60zM422 -391l171 263h161l-116 -263h-216z" />
    <glyph glyph-name="scedilla" unicode="&#x15f;" horiz-adv-x="1020" 
d="M712 718q0 73 -52 115t-148 42q-94 0 -147 -35q-53 -36 -53 -90t28 -84t89 -46l200 -54q153 -42 219 -106t67 -171q-1 -149 -109 -233t-304 -84t-300 82t-104 241h187q0 -87 59 -137q60 -50 166 -50t166 43t60 122q0 90 -151 131l-200 54q-136 37 -196 99q-59 62 -59 182
t102 196t282 76t282 -78t103 -215h-187zM255 -391l172 263h161l-117 -263h-216z" />
    <glyph glyph-name="Scaron" unicode="&#x160;" horiz-adv-x="1322" 
d="M666 1275q-142 0 -230 -60t-88 -169q0 -141 204 -191l284 -68q198 -48 286 -135t87 -236q-1 -208 -143 -326t-391 -118q-499 0 -539 437h194q5 -141 89 -209t251 -68q166 0 256 70t90 198q0 148 -222 201l-284 68q-190 45 -274 131t-84 232q0 191 141 299t379 108
q238 1 362 -97q126 -98 138 -284h-196q-6 97 -87 157t-223 60zM797 1531h-230l-194 264h187l125 -156l125 156h181z" />
    <glyph glyph-name="scaron" unicode="&#x161;" horiz-adv-x="1020" 
d="M712 718q0 73 -52 115t-148 42q-94 0 -147 -35q-53 -36 -53 -90t28 -84t89 -46l200 -54q153 -42 219 -106t67 -171q-1 -149 -109 -233t-304 -84t-300 82t-104 241h187q0 -87 59 -137q60 -50 166 -50t166 43t60 122q0 90 -151 131l-200 54q-136 37 -196 99q-59 62 -59 182
t102 196t282 76t282 -78t103 -215h-187zM609 1104h-190l-213 293h151l157 -181l157 181h151z" />
    <glyph glyph-name="uni0162" unicode="&#x162;" 
d="M545 0v1251h-473v160h1139v-160h-473v-1251h-193zM436 -391l171 263h161l-116 -263h-216z" />
    <glyph glyph-name="uni0163" unicode="&#x163;" horiz-adv-x="755" 
d="M492 -28q-102 0 -172 56q-71 56 -71 137v687h-204v131h204v177l181 75v-252h241v-131h-241v-645q0 -51 26 -75q48 -44 215 -11v-135q-77 -14 -179 -14zM231 -391l172 263h161l-117 -263h-216z" />
    <glyph glyph-name="Tcaron" unicode="&#x164;" 
d="M545 0v1251h-473v160h1139v-160h-473v-1251h-193zM756 1531h-230l-194 264h187l125 -156l125 156h181z" />
    <glyph glyph-name="tcaron" unicode="&#x165;" horiz-adv-x="831" 
d="M492 -28q-102 0 -172 56q-71 56 -71 137v687h-204v131h204v177l181 75v-252h241v-131h-241v-645q0 -51 26 -75q48 -44 215 -11v-135q-77 -14 -179 -14zM549 1109l116 423h199l-201 -423h-114z" />
    <glyph glyph-name="Umacron" unicode="&#x16a;" horiz-adv-x="1473" 
d="M1296 532q0 -262 -148 -411t-412 -149q-262 0 -411 149t-149 411v879h193v-837q1 -210 97 -326t271 -116t271 116t96 326v837h192v-879zM405 1675h662v-126h-662v126z" />
    <glyph glyph-name="umacron" unicode="&#x16b;" horiz-adv-x="1171" 
d="M320 983v-589q0 -151 57 -219t195 -68t204 76t58 243v557h181v-983h-168v128l-20 -26q-113 -131 -307 -131q-194 -1 -288 105t-93 331v576h181zM238 1303h678v-138h-678v138z" />
    <glyph glyph-name="Uring" unicode="&#x16e;" horiz-adv-x="1473" 
d="M1296 532q0 -262 -148 -411t-412 -149q-262 0 -411 149t-149 411v879h193v-837q1 -210 97 -326t271 -116t271 116t96 326v837h192v-879zM736 1565q52 -1 89 37q36 38 36 93t-36 93q-37 38 -89 38t-88 -38t-36 -93t36 -93t88 -37zM736 1433q-108 0 -182 76t-75 186
q1 111 75 187t182 76t183 -76t75 -187q0 -110 -75 -186t-183 -76z" />
    <glyph glyph-name="uring" unicode="&#x16f;" horiz-adv-x="1171" 
d="M320 983v-589q0 -151 57 -219t195 -68t204 76t58 243v557h181v-983h-168v128l-20 -26q-113 -131 -307 -131q-194 -1 -288 105t-93 331v576h181zM577 1229q51 0 85 32t34 79q0 48 -34 80t-85 32q-50 0 -84 -32t-34 -80q0 -47 34 -79t84 -32zM577 1096q-99 0 -167 71
t-68 173t68 174q68 71 167 71t167 -71q68 -72 69 -174q-1 -102 -69 -173t-167 -71z" />
    <glyph glyph-name="Uhungarumlaut" unicode="&#x170;" horiz-adv-x="1473" 
d="M1296 532q0 -262 -148 -411t-412 -149q-262 0 -411 149t-149 411v879h193v-837q1 -210 97 -326t271 -116t271 116t96 326v837h192v-879zM810 1520l163 264h253l-227 -264h-189zM460 1520l163 264h253l-227 -264h-189z" />
    <glyph glyph-name="uhungarumlaut" unicode="&#x171;" horiz-adv-x="1171" 
d="M320 983v-589q0 -151 57 -219t195 -68t204 76t58 243v557h181v-983h-168v128l-20 -26q-113 -131 -307 -131q-194 -1 -288 105t-93 331v576h181zM676 1100l190 300h245l-263 -300h-172zM310 1100l190 300h245l-263 -300h-172z" />
    <glyph glyph-name="Uogonek" unicode="&#x172;" horiz-adv-x="1473" 
d="M1296 532q0 -262 -148 -411q-48 -48 -96 -75t-72 -69q-24 -43 -25 -89t37 -76t105 -31q4 0 36 1v-132h-37q-115 0 -195 60q-79 60 -79 138t40 134q-59 -10 -126 -10q-262 0 -411 149t-149 411v879h193v-837q1 -210 97 -326t271 -116t271 116t96 326v837h192v-879z" />
    <glyph glyph-name="uogonek" unicode="&#x173;" horiz-adv-x="1171" 
d="M976 -364q-90 0 -140 46t-50 138q0 93 63 180h-2v128l-20 -26q-113 -131 -307 -131q-194 -1 -288 105t-93 331v576h181v-589q0 -151 57 -219t195 -68t204 76t58 243v557h181v-983h-84h-4q-25 -77 -25 -111q0 -35 26 -59t60 -24q33 0 70 3v-173h-82z" />
    <glyph glyph-name="Ydieresis" unicode="&#x178;" horiz-adv-x="1397" 
d="M787 0h-193v574l-541 837h236l415 -689l418 689h204l-539 -836v-575zM766 1767h192v-209h-192v209zM399 1767h192v-209h-192v209z" />
    <glyph glyph-name="Zacute" unicode="&#x179;" horiz-adv-x="1246" 
d="M124 1251v160h1003v-191l-810 -1060h829v-160h-1045v181l811 1070h-788zM517 1531l163 264h253l-238 -264h-178z" />
    <glyph glyph-name="zacute" unicode="&#x17a;" horiz-adv-x="982" 
d="M124 848v135h742v-155l-565 -693h579v-135h-782v155l565 693h-539zM369 1103l190 300h245l-263 -300h-172z" />
    <glyph glyph-name="Zdotaccent" unicode="&#x17b;" horiz-adv-x="1246" 
d="M124 1251v160h1003v-191l-810 -1060h829v-160h-1045v181l811 1070h-788zM529 1760h192v-210h-192v210z" />
    <glyph glyph-name="zdotaccent" unicode="&#x17c;" horiz-adv-x="982" 
d="M124 848v135h742v-155l-565 -693h579v-135h-782v155l565 693h-539zM399 1375h192v-210h-192v210z" />
    <glyph glyph-name="Zcaron" unicode="&#x17d;" horiz-adv-x="1246" 
d="M124 1251v160h1003v-191l-810 -1060h829v-160h-1045v181l811 1070h-788zM740 1531h-230l-194 264h187l125 -156l125 156h181z" />
    <glyph glyph-name="zcaron" unicode="&#x17e;" horiz-adv-x="982" 
d="M124 848v135h742v-155l-565 -693h579v-135h-782v155l565 693h-539zM590 1104h-190l-213 293h151l157 -181l157 181h151z" />
    <glyph glyph-name="florin" unicode="&#x192;" 
d="M1019 1425q74 0 134 -19l-36 -125q-31 8 -70 8q-89 0 -137.5 -43t-79.5 -149l-33 -114h229l-38 -131h-229l-247 -852h-181l247 852h-192l38 131h192l33 114q54 184 135 256t235 72z" />
    <glyph glyph-name="circumflex" unicode="&#x2c6;" 
d="M559 1396h190l213 -293h-151l-157 181l-157 -181h-151z" />
    <glyph glyph-name="caron" unicode="&#x2c7;" 
d="M727 1104h-190l-213 293h151l157 -181l157 181h151z" />
    <glyph glyph-name="uni02C9" unicode="&#x2c9;" 
d="M306 1303h678v-138h-678v138z" />
    <glyph glyph-name="breve" unicode="&#x2d8;" 
d="M636 1097q-148 0 -229.5 76.5t-85.5 217.5h136q7 -92 48 -132.5t125 -40.5t130.5 45.5t46.5 127.5h136q0 -144 -79.5 -219t-227.5 -75z" />
    <glyph glyph-name="dotaccent" unicode="&#x2d9;" 
d="M567 1375h192v-210h-192v210z" />
    <glyph glyph-name="ring" unicode="&#x2da;" 
d="M647 1229q50 0 84.5 32t34.5 79t-34.5 79.5t-84.5 32.5t-84 -32.5t-34 -79.5t34 -79t84 -32zM647 1096q-99 0 -167 71t-68 173t68 173.5t167 71.5t167.5 -71.5t68.5 -173.5t-68.5 -173t-167.5 -71z" />
    <glyph glyph-name="ogonek" unicode="&#x2db;" 
d="M1022 -194q34 0 69 3v-173h-82q-89 0 -139 46t-51 130q0 174 183 301q-67 -158 -67 -208q0 -51 26.5 -75t60.5 -24z" />
    <glyph glyph-name="tilde" unicode="&#x2dc;" 
d="M667 1371q102 -52 137 -52t50.5 21.5t26.5 77.5h117q-8 -128 -51.5 -187t-130.5 -59q-45 0 -78.5 11t-115.5 53t-111 41q-29 0 -45 -21.5t-27 -78.5h-117q18 128 62 187t113 59q68 0 170 -52z" />
    <glyph glyph-name="hungarumlaut" unicode="&#x2dd;" 
d="M719 1100l190 300h245l-263 -300h-172zM353 1100l190 300h245l-263 -300h-172z" />
    <glyph glyph-name="pi" unicode="&#x3c0;" horiz-adv-x="1246" 
d="M669 206q0 180 101 599h-148l-116 -652q-18 -105 -45 -141.5t-89 -36.5t-73 45t28 165l211 620h-94q-75 0 -130.5 -31.5t-140.5 -121.5l-61 40q91 160 171.5 213.5t229.5 53.5l338 1q236 0 337 9l-30 -164h-301q-61 -325 14 -660q22 -99 7 -134.5t-78 -35.5
q-131 0 -131 231z" />
    <glyph glyph-name="endash" unicode="&#x2013;" 
d="M154 575h974v-109h-974v109z" />
    <glyph glyph-name="emdash" unicode="&#x2014;" horiz-adv-x="2039" 
d="M287 585h1464v-109h-1464v109z" />
    <glyph glyph-name="quoteleft" unicode="&#x2018;" horiz-adv-x="680" 
d="M502 1411l-135 -476h-220l223 476h132z" />
    <glyph glyph-name="quoteright" unicode="&#x2019;" horiz-adv-x="680" 
d="M161 935l135 476h220l-223 -476h-132z" />
    <glyph glyph-name="quotesinglbase" unicode="&#x201a;" horiz-adv-x="680" 
d="M161 -238l135 476h220l-223 -476h-132z" />
    <glyph glyph-name="quotedblleft" unicode="&#x201c;" horiz-adv-x="1020" 
d="M908 1411l-135 -476h-220l223 476h132zM558 1411l-135 -476h-220l223 476h132z" />
    <glyph glyph-name="quotedblright" unicode="&#x201d;" horiz-adv-x="1020" 
d="M559 935l135 476h220l-223 -476h-132zM209 935l135 476h220l-223 -476h-132z" />
    <glyph glyph-name="quotedblbase" unicode="&#x201e;" horiz-adv-x="1020" 
d="M559 -238l135 476h220l-223 -476h-132zM209 -238l135 476h220l-223 -476h-132z" />
    <glyph glyph-name="dagger" unicode="&#x2020;" 
d="M304 1108h291v303h154v-303h292v-129h-292v-979h-154v979h-291v129z" />
    <glyph glyph-name="daggerdbl" unicode="&#x2021;" 
d="M304 1110h291v301h154v-301h292v-132h-292v-547h292v-131h-292v-300h-154v300h-291v131h291v547h-291v132z" />
    <glyph glyph-name="bullet" unicode="&#x2022;" horiz-adv-x="1020" 
d="M510 1103q155 0 262.5 -107.5t107.5 -262.5t-107.5 -262.5t-262.5 -107.5t-262.5 107.5t-107.5 262.5t107.5 262.5t262.5 107.5z" />
    <glyph glyph-name="ellipsis" unicode="&#x2026;" horiz-adv-x="2039" 
d="M1576 214h218v-214h-218v214zM904 214h218v-214h-218v214zM233 214h218v-214h-218v214z" />
    <glyph glyph-name="perthousand" unicode="&#x2030;" horiz-adv-x="2039" 
d="M1678 641q-68 0 -107 -73.5t-39 -199.5t39 -201.5t107 -75.5t106 72.5t38 204.5t-38 202.5t-106 70.5zM1677 -26q-129 0 -209 109t-80 285t80 283t209 107t209 -107t80 -283t-80 -285t-209 -109zM1036 641q-68 0 -107 -73.5t-39 -199.5t39 -201.5t107 -75.5t106 72.5
t38 204.5t-38 202.5t-106 70.5zM1035 -26q-129 0 -209 109t-80 285t80 283t209 107t209 -107t80 -283t-80 -285t-209 -109zM206 -69l843 1518h130l-843 -1518h-130zM374 1317q-68 0 -107.5 -73.5t-39.5 -199.5t39.5 -201.5t107.5 -75.5t105.5 72.5t37.5 204.5t-37.5 202.5
t-105.5 70.5zM372 650q-129 0 -209 109t-80 285t80 283t209 107t209 -107t80 -283t-80 -285t-209 -109z" />
    <glyph glyph-name="guilsinglleft" unicode="&#x2039;" horiz-adv-x="755" 
d="M582 862l-224 -373l224 -373h-155l-262 373l262 373h155z" />
    <glyph glyph-name="guilsinglright" unicode="&#x203a;" horiz-adv-x="755" 
d="M167 116l224 373l-224 373h155l262 -373l-262 -373h-155z" />
    <glyph glyph-name="fraction" unicode="&#x2044;" horiz-adv-x="113" 
d="M532 1425l-848 -1503h-128l848 1503h128z" />
    <glyph glyph-name="uni2074" unicode="&#x2074;" horiz-adv-x="793" 
d="M436 853h-344v118l344 440h138v-445h144v-113h-144v-176h-138v176z" />
    <glyph glyph-name="Euro" unicode="&#x20ac;" 
d="M760 -32q-266 0 -418 193q-99 128 -134 316h-178l40 160h121v57q-1 35 2 67h-163l40 160h140q38 189 139 315q157 196 434 196q217 0 345 -107t128 -288h-198q0 104 -76 168t-200 64q-187 0 -290 -145q-58 -81 -84 -203h511l-40 -160h-490v-44l1 -80h461l-40 -160h-399
q26 -112 80 -194q103 -154 290 -154q115 0 188 65t88 180h198q-6 -182 -143 -294t-353 -112z" />
    <glyph glyph-name="trademark" unicode="&#x2122;" horiz-adv-x="1248" 
d="M51 1388h393v-89h-152v-518h-89v518h-152v89zM507 781v607h160l112 -486l112 486h160v-607h-89v559l-129 -559h-108l-129 559v-559h-89z" />
    <glyph glyph-name="Omega" unicode="&#x2126;" horiz-adv-x="1246" 
d="M101 952q0 209 149.5 334.5t397.5 127.5t404 -127t156 -328q0 -168 -141 -399q-81 -133 -199 -345h79q75 -1 112 42.5t64 164.5l73 -12l-74 -410h-412q127 352 167 479q88 285 88 460t-86.5 279.5t-224.5 108.5q-138 -4 -224 -107t-86 -265q0 -78 39.5 -284t215.5 -671
h-413l-74 410l74 12q33 -138 61.5 -171t114.5 -36h79q-81 154 -172 303q-168 271 -168 434z" />
    <glyph glyph-name="partialdiff" unicode="&#x2202;" horiz-adv-x="1020" 
d="M683 654q0 246 -156 247q-107 0 -181.5 -167.5t-74.5 -409.5q0 -114 44 -193t108 -79q108 0 184 178t76 424zM545 1434q393 0 391 -620q0 -372 -145.5 -609t-372.5 -237q-148 0 -242.5 117t-94.5 300q0 234 139.5 416.5t317.5 182.5q92 0 201 -66q21 190 -16.5 302
t-122.5 112q-28 0 -60.5 -29t-56.5 -81t-44.5 -71.5t-70.5 -19.5t-76 48.5t4 108.5t102.5 103t146.5 43z" />
    <glyph glyph-name="Delta" unicode="&#x2206;" horiz-adv-x="1360" 
d="M667 1077l-446 -883h799zM740 1391l582 -1391h-1285z" />
    <glyph glyph-name="product" unicode="&#x220f;" horiz-adv-x="2039" 
d="M197 -315v65q151 17 197.5 88.5t46.5 289.5v901q3 217 -43.5 288.5t-200.5 88.5v65h1645v-65q-151 -17 -197.5 -88.5t-46.5 -288.5v-901q0 -218 46.5 -289.5t197.5 -88.5v-65h-704v65q157 17 202 87t42 291v1262h-725v-1262q0 -218 46.5 -289.5t197.5 -88.5v-65h-704z
" />
    <glyph glyph-name="summation" unicode="&#x2211;" horiz-adv-x="2039" 
d="M1110 1389h-403l370 -740l-451 -756h524q138 0 219 51t149 180l22 41l70 -21l-117 -459h-1077l491 838l-482 948h1119l46 -366l-70 -14l-17 39q-54 142 -142.5 200.5t-250.5 58.5z" />
    <glyph glyph-name="minus" unicode="&#x2212;" horiz-adv-x="2039" 
d="M472 624h1150v-120h-1150v120z" />
    <glyph glyph-name="uni2215" unicode="&#x2215;" horiz-adv-x="113" 
d="M532 1425l-848 -1503h-128l848 1503h128z" />
    <glyph glyph-name="uni2219" unicode="&#x2219;" horiz-adv-x="680" 
d="M237 824h218v-238h-218v238z" />
    <glyph glyph-name="radical" unicode="&#x221a;" horiz-adv-x="1473" 
d="M1722 1529v-86h-281l-553 -1817h-74l-570 821l-145 -105l-43 96l298 194l506 -750l480 1647h382z" />
    <glyph glyph-name="infinity" unicode="&#x221e;" horiz-adv-x="2039" 
d="M1643 569q0 97 -59.5 156.5t-150.5 59.5t-153 -50.5t-122 -168.5q41 -100 111.5 -154t164.5 -54t151.5 57t57.5 154zM394 569q0 -109 69 -183t173 -74t189 73t160 232q-63 113 -138 163.5t-185 50.5t-189 -76.5t-79 -185.5zM1754 573q0 -164 -97 -271t-243 -107
q-105 0 -189 56.5t-135 161.5q-106 -156 -186.5 -210t-206.5 -54q-174 0 -294 121.5t-120 299.5t116.5 301t285.5 123q122 0 210.5 -60.5t175.5 -202.5q147 217 335 217q153 0 250.5 -105.5t97.5 -269.5z" />
    <glyph glyph-name="integral" unicode="&#x222b;" horiz-adv-x="2039" 
d="M1187 1321q-84 0 -84 77q0 10 16 72q2 8 -5.5 14t-20.5 6q-77 0 -80 -131t58 -453t75 -638t-14 -464t-79 -208t-127 -60t-125 42t-49 94t28 82t64 30t61 -25.5t25 -61.5l-9 -60q-1 -9 6 -15.5t19 -6.5q52 -1 69 87t-13 250q-80 427 -110 817q-63 800 231 800
q66 0 112 -42t46 -102q0 -104 -94 -104z" />
    <glyph glyph-name="approxequal" unicode="&#x2248;" horiz-adv-x="2039" 
d="M742 865q128 0 336 -67t292 -67q85 0 157 35.5t116 86.5l37 -22q-48 -115 -136 -182.5t-178 -67.5t-334 67t-313 67t-147 -35t-127 -86l-31 32q57 100 156.5 169.5t171.5 69.5zM742 514q128 0 336 -67t292 -67q85 0 157 35.5t116 86.5l37 -22q-48 -115 -136 -182.5
t-178 -67.5t-334 67t-313 67t-147 -35t-127 -86l-31 32q57 100 156.5 169.5t171.5 69.5z" />
    <glyph glyph-name="notequal" unicode="&#x2260;" horiz-adv-x="2039" 
d="M407 279v135h437l236 276h-673v135h788l317 367h164l-315 -367h312v-135h-427l-236 -276h663v-135h-779l-318 -372h-166l318 372h-321z" />
    <glyph glyph-name="lessequal" unicode="&#x2264;" horiz-adv-x="2039" 
d="M417 135h1266v-135h-1266v135zM1683 1235v-135l-1063 -410l1063 -309v-135l-1266 377v135z" />
    <glyph glyph-name="greaterequal" unicode="&#x2265;" horiz-adv-x="2039" 
d="M417 135h1266v-135h-1266v135zM417 1235l1266 -477v-135l-1266 -377v135l1063 309l-1063 410v135z" />
    <glyph glyph-name="lozenge" unicode="&#x25ca;" horiz-adv-x="1171" 
d="M585 1324l-349 -613l349 -615l349 615zM530 1423h110l404 -712l-404 -711h-110l-404 711z" />
    <glyph glyph-name="uniEFED" unicode="&#xefed;" 
d="M550 1760h192v-210h-192v210z" />
    <glyph glyph-name="uniEFEE" unicode="&#xefee;" 
d="M632 1522q-142 0 -223.5 70t-87.5 200h136q7 -79 48 -114t121 -35t126 39t55 110h136q-10 -132 -89.5 -201t-221.5 -69z" />
    <glyph glyph-name="uniEFEF" unicode="&#xefef;" 
d="M314 1675h662v-126h-662v126z" />
    <glyph glyph-name="uniEFF0" unicode="&#xeff0;" 
d="M711 1520l163 264h253l-227 -264h-189zM361 1520l163 264h253l-227 -264h-189z" />
    <glyph glyph-name="uniEFF1" unicode="&#xeff1;" 
d="M999 -134q0 96 96 174h122q-36 -21 -60.5 -63.5t-24.5 -88.5t37.5 -76.5t104.5 -30.5q4 0 36 1v-132h-37q-115 0 -195 60q-79 60 -79 156z" />
    <glyph glyph-name="uniEFF2" unicode="&#xeff2;" 
d="M457 -391l171 263h161l-116 -263h-216z" />
    <glyph glyph-name="uniEFF3" unicode="&#xeff3;" 
d="M650 1621q52 0 88 37.5t36 92.5t-36 93t-88 38t-88.5 -38t-36.5 -93t36.5 -92.5t88.5 -37.5zM649 1489q-108 0 -182.5 76t-74.5 186t74.5 186.5t182.5 76.5t183 -76.5t75 -186.5t-75 -186t-183 -76z" />
    <glyph glyph-name="uniEFF4" unicode="&#xeff4;" 
d="M762 1531h-230l-194 264h187l125 -156l125 156h181z" />
    <glyph glyph-name="uniEFF5" unicode="&#xeff5;" 
d="M474 1783q54 0 93 -12.5t127 -58.5q88 -47 129 -47q40 0 58.5 26t20.5 94h125q-4 -255 -196 -255q-57 0 -94.5 12t-121.5 58t-121 46t-56 -25.5t-26 -92.5h-125q8 255 187 255z" />
    <glyph glyph-name="uniEFF6" unicode="&#xeff6;" 
d="M730 1767h192v-209h-192v209zM363 1767h192v-209h-192v209z" />
    <glyph glyph-name="uniEFF7" unicode="&#xeff7;" 
d="M539 1792h230l193 -264h-187l-124 156l-124 -156h-181z" />
    <glyph glyph-name="uniEFF8" unicode="&#xeff8;" 
d="M629 1531l-232 264h253l163 -264h-184z" />
    <glyph glyph-name="uniEFF9" unicode="&#xeff9;" 
d="M536 1531l163 264h253l-238 -264h-178z" />
    <glyph glyph-name="uniF001" unicode="&#xf001;" horiz-adv-x="1246" 
d="M902 1411h198v-185h-198v185zM911 0v983h181v-983h-181zM448 852v-852h-181v852h-192v131h192v114q0 184 68.5 256t243.5 72q49 0 97 -10v-134q-33 8 -71 8q-87 0 -122 -43t-35 -149v-114h228v-131h-228z" />
    <glyph glyph-name="uniF002" unicode="&#xf002;" horiz-adv-x="1246" 
d="M903 0v1411h181v-1411h-181zM445 852v-852h-181v852h-192v131h192v114q0 184 68.5 256t243.5 72q49 0 97 -10v-134q-33 8 -71 8q-87 0 -122 -43t-35 -149v-114h228v-131h-228z" />
    <glyph glyph-name="uniFB01" unicode="&#xfb01;" horiz-adv-x="1246" 
d="M902 1411h198v-185h-198v185zM911 0v983h181v-983h-181zM448 852v-852h-181v852h-192v131h192v114q0 184 68.5 256t243.5 72q49 0 97 -10v-134q-33 8 -71 8q-87 0 -122 -43t-35 -149v-114h228v-131h-228z" />
    <glyph glyph-name="glyph106" horiz-adv-x="0" 
d="M412 1051q0 173 -120 293t-293 120t-292.5 -120t-119.5 -293t119.5 -292.5t292.5 -119.5t293 119.5t120 292.5zM0 1529q200 0 338.5 -138.5t138.5 -338.5t-138.5 -339t-338.5 -139t-339 139t-139 339t139 338.5t339 138.5z" />
    <glyph glyph-name="glyph107" horiz-adv-x="0" 
d="M19 786q-110 0 -186.5 79t-76.5 195t75.5 195.5t184.5 79.5q58 0 114.5 -22t79.5 -54l-58 -62q-19 26 -58.5 44.5t-77.5 18.5q-78 0 -131.5 -58t-53.5 -142t54.5 -141.5t133.5 -57.5q37 0 77 19.5t61 47.5l58 -62q-24 -34 -81 -57t-115 -23z" />
    <glyph glyph-name="glyph113" horiz-adv-x="0" 
d="M412 1046q0 173 -120 293t-293 120t-292.5 -120t-119.5 -293t119.5 -292.5t292.5 -119.5t293 119.5t120 292.5zM0 1524q200 0 338.5 -139t138.5 -339t-138.5 -338.5t-338.5 -138.5t-339 138.5t-139 338.5t139 339t339 139z" />
    <glyph glyph-name="glyph114" horiz-adv-x="0" 
d="M99 1166q0 30 -21 51t-51 21h-112v-144h112q30 0 51 21t21 51zM-160 807v506h187q62 0 104.5 -42.5t42.5 -104.5t-43 -105q-20 -20 -46 -31l89 -223h-91l-84 212h-84v-212h-75z" />
    <glyph glyph-name="glyph130" horiz-adv-x="793" 
d="M510 1435v-758h-138v619l-59 -39q-52 -29 -131 -54v122q106 37 190 110h138z" />
    <glyph glyph-name="glyph131" horiz-adv-x="793" 
d="M436 853h-344v118l344 440h138v-445h144v-113h-144v-176h-138v176z" />
    <glyph glyph-name="glyph133" horiz-adv-x="793" 
d="M510 1435v-758h-138v619l-59 -39q-52 -29 -131 -54v122q106 37 190 110h138z" />
    <glyph glyph-name="glyph134" horiz-adv-x="793" 
d="M673 1228q0 -190 -382 -438h398v-113h-563v118q183 120 296 233.5t113 171.5t-33.5 90t-89.5 32t-90 -32.5t-34 -84.5h-140q0 105 71 167.5t190 62.5t191 -57t73 -150z" />
    <glyph glyph-name="glyph136" horiz-adv-x="793" 
d="M394 778q70 0 112 33t42 85t-45.5 79t-121.5 27h-48v110h41q66 0 112 30t46 78q0 46 -38 74t-96 28t-96 -30.5t-46 -79.5h-134q0 102 74 162.5t198 60.5t200 -56.5t76 -150.5t-62 -133q-37 -23 -108 -33q80 -9 121 -36q66 -40 66 -140t-81.5 -160.5t-214.5 -60.5
t-203.5 55.5t-89.5 175.5h142q31 -118 154 -118z" />
    <glyph glyph-name="glyph137" horiz-adv-x="793" 
d="M436 853h-344v118l344 440h138v-445h144v-113h-144v-176h-138v176z" />
    <glyph glyph-name="glyph140" horiz-adv-x="0" 
d="M-39 0l-232 264h253l163 -264h-184z" />
    <glyph glyph-name="glyph142" horiz-adv-x="0" 
d="M-108 0l163 264h253l-238 -264h-178z" />
    <glyph glyph-name="glyph144" horiz-adv-x="0" 
d="M-115 261h230l193 -264h-187l-124 156l-124 -156h-181z" />
    <glyph glyph-name="glyph146" horiz-adv-x="0" 
d="M-183 252q54 0 93 -13t127 -59t129 -46q40 0 58.5 26t20.5 94h125q-4 -255 -196 -255q-57 0 -94.5 11.5t-121.5 57.5t-121 47q-37 0 -56 -25.5t-26 -92.5h-125q8 255 187 255z" />
    <glyph glyph-name="glyph148" horiz-adv-x="0" 
d="M77 236h192v-209h-192v209zM-290 236h192v-209h-192v209z" />
    <glyph glyph-name="glyph150" horiz-adv-x="0" 
d="M0 90q52 0 88.5 37.5t36.5 92.5t-36.5 93t-88.5 38t-88 -38t-36 -93t36 -92.5t88 -37.5zM0 -42q-108 0 -182.5 76t-74.5 186t74.5 186.5t182.5 76.5t183 -76.5t75 -186.5t-75 -186t-183 -76z" />
    <glyph glyph-name="glyph153" horiz-adv-x="0" 
d="M-251 -391l171 263h161l-116 -263h-216z" />
    <glyph glyph-name="glyph179" horiz-adv-x="0" 
d="M-19 0l-265 300h248l188 -300h-171z" />
    <glyph glyph-name="glyph181" horiz-adv-x="0" 
d="M-126 0l190 300h245l-263 -300h-172z" />
    <glyph glyph-name="glyph183" horiz-adv-x="0" 
d="M-95 293h190l213 -293h-151l-157 181l-157 -181h-151z" />
    <glyph glyph-name="glyph185" horiz-adv-x="0" 
d="M7 268q102 -52 137 -52t50.5 21.5t26.5 77.5h117q-8 -128 -51.5 -187t-130.5 -59q-45 0 -78.5 10.5t-115.5 52.5t-111 42t-45 -21.5t-27 -78.5h-117q18 128 62 187t113 59q68 0 170 -52z" />
    <glyph glyph-name="glyph187" horiz-adv-x="0" 
d="M85 272h192v-208h-192v208zM-276 272h192v-208h-192v208z" />
    <glyph glyph-name="glyph189" horiz-adv-x="0" 
d="M0 126q50 0 84.5 32t34.5 79t-34.5 79.5t-84.5 32.5t-84 -32.5t-34 -79.5t34 -79t84 -32zM0 -7q-99 0 -167 71.5t-68 173.5t68 173t167 71t167.5 -71t68.5 -173t-68.5 -173.5t-167.5 -71.5z" />
    <glyph glyph-name="glyph192" horiz-adv-x="0" 
d="M-252 -391l172 263h161l-117 -263h-216z" />
    <glyph glyph-name="glyph219" horiz-adv-x="0" 
d="M-331 144h662v-126h-662v126z" />
    <glyph glyph-name="glyph221" horiz-adv-x="0" 
d="M-339 200h678v-138h-678v138z" />
    <glyph glyph-name="glyph223" horiz-adv-x="0" 
d="M0 -9q-142 0 -223.5 70t-87.5 200h136q7 -79 48 -114t121 -35t126 39t55 110h136q-10 -132 -89.5 -201t-221.5 -69z" />
    <glyph glyph-name="glyph225" horiz-adv-x="0" 
d="M4 -6q-148 0 -229.5 76.5t-85.5 217.5h136q7 -92 48 -132.5t125 -40.5t130.5 45.5t46.5 127.5h136q0 -144 -79.5 -219t-227.5 -75z" />
    <glyph glyph-name="glyph227" horiz-adv-x="0" 
d="M-96 -134q0 96 96 174h122q-36 -21 -60.5 -63.5t-24.5 -88.5t37.5 -76.5t104.5 -30.5q4 0 36 1v-132h-37q-115 0 -195 60q-79 60 -79 156z" />
    <glyph glyph-name="glyph229" horiz-adv-x="0" 
d="M19 -194q33 0 70 3v-173h-82q-89 0 -139 46t-51 130q0 174 183 301q-67 -158 -67 -208q0 -51 26.5 -75t59.5 -24z" />
    <glyph glyph-name="glyph233" horiz-adv-x="0" 
d="M115 0h-230l-194 264h187l125 -156l125 156h181z" />
    <glyph glyph-name="glyph235" horiz-adv-x="0" 
d="M95 1h-190l-213 293h151l157 -181l157 181h151z" />
    <glyph glyph-name="glyph238" horiz-adv-x="0" 
d="M-269 877q-128 0 -198.5 -99.5t-70.5 -283.5t70.5 -286t198.5 -102t198.5 101t70.5 285t-70.5 284.5t-198.5 100.5zM-318 -28q-192 0 -302 139t-110 383t112 380.5t308 136.5t308 -138l2 -2v540h181v-1411h-181v130l-15 -19q-111 -139 -303 -139z" />
    <glyph glyph-name="glyph239" horiz-adv-x="0" 
d="M0 106l116 423h199l-201 -423h-114z" />
    <glyph glyph-name="glyph245" horiz-adv-x="0" 
d="M-96 229h192v-210h-192v210z" />
    <glyph glyph-name="glyph247" horiz-adv-x="0" 
d="M-96 272h192v-210h-192v210z" />
    <glyph glyph-name="glyph255" horiz-adv-x="0" 
d="M-251 -391l171 263h161l-116 -263h-216z" />
    <glyph glyph-name="glyph257" horiz-adv-x="0" 
d="M200 259l-117 -259h-216l173 259h160z" />
    <glyph glyph-name="glyph282" horiz-adv-x="0" 
d="M74 -11l163 264h253l-227 -264h-189zM-276 -11l163 264h253l-227 -264h-189z" />
    <glyph glyph-name="glyph284" horiz-adv-x="0" 
d="M99 -3l190 300h245l-263 -300h-172zM-267 -3l190 300h245l-263 -300h-172z" />
    <glyph glyph-name="glyph300" horiz-adv-x="0" 
d="M-251 -391l171 263h161l-116 -263h-216z" />
    <glyph glyph-name="glyph302" horiz-adv-x="0" 
d="M-252 -391l172 263h161l-117 -263h-216z" />
    <glyph glyph-name="glyph350" horiz-adv-x="0" 
d="M0 1388h393v-89h-152v-518h-89v518h-152v89z" />
    <glyph glyph-name="glyph351" horiz-adv-x="0" 
d="M0 781v607h160l112 -486l112 486h160v-607h-89v559l-129 -559h-108l-129 559v-559h-89z" />
  </font>
</defs>
</svg>
