<?xml version="1.0" standalone="no"?>
<!DOCTYPE svg PUBLIC "-//W3C//DTD SVG 1.1//EN" "http://www.w3.org/Graphics/SVG/1.1/DTD/svg11.dtd" >
<svg xmlns="http://www.w3.org/2000/svg">
<metadata>
Created by FontPrep 20130207 at Tue Aug 11 23:27:36 2015
 By Pixeloid
Copyright (c) 1992-97 Hewlett-Packard. All rights reserved.
</metadata>
<defs>
<font id="52e80f32d93b6aa874aa52ad12f6cc3e" horiz-adv-x='1024' >
  <font-face 
    font-family="Univers-Condensed-Bold"
    font-weight="700"
    font-stretch="condensed"
    units-per-em="2048"
    panose-1="2 11 7 6 3 5 2 5 2 4"
    ascent="1638"
    descent="-410"
    x-height="982"
    cap-height="1411"
    bbox="-478 -512 1937 1942"
    underline-thickness="105"
    underline-position="-355"
    unicode-range="U+0020-FB01"
  />
<missing-glyph horiz-adv-x="669" 
d="M100 1174v-1074h369v1074h-369zM0 1274h569v-1274h-569v1274z" />
    <glyph glyph-name=".notdef" horiz-adv-x="669" 
d="M100 1174v-1074h369v1074h-369zM0 1274h569v-1274h-569v1274z" />
    <glyph glyph-name="glyph1" horiz-adv-x="0" 
 />
    <glyph glyph-name="nonmarkingreturn" horiz-adv-x="682" 
 />
    <glyph glyph-name="space" unicode=" " horiz-adv-x="453" 
 />
    <glyph glyph-name="exclam" unicode="!" horiz-adv-x="604" 
d="M182 259h260v-259h-260v259zM213 391l-29 1020h257l-28 -1020h-200z" />
    <glyph glyph-name="quotedbl" unicode="&#x22;" horiz-adv-x="831" 
d="M518 945l-40 466h259l-38 -466h-181zM135 945l-40 466h259l-38 -466h-181z" />
    <glyph glyph-name="numbersign" unicode="#" 
d="M459 886l-99 -342h181l99 342h-181zM616 1425l-107 -370h180l107 370h188l-107 -370h130l-49 -169h-130l-99 -342h130l-49 -169h-130l-128 -440h-188l128 440h-180l-128 -440h-188l128 440h-151l49 169h151l99 342h-151l49 169h151l107 370h188z" />
    <glyph glyph-name="dollar" unicode="$" 
d="M593 474q0 62 -35 96t-161 89q-125 55 -183 125t-58 184t94 184q61 43 139 62v234h224v-233q101 -14 152 -56q74 -59 74 -197v-59h-262v42q2 114 -80 114q-77 0 -77 -86q0 -55 33 -87t157 -85q124 -54 183.5 -123t59.5 -176q0 -250 -240 -293v-263h-224v260
q-106 16 -162 61q-78 65 -78 216v53h263v-42q-2 -133 89.5 -133t91.5 113z" />
    <glyph glyph-name="percent" unicode="%" horiz-adv-x="1360" 
d="M1050 635q-42 0 -56.5 -24.5t-14.5 -91.5v-269q0 -91 13.5 -119t56.5 -28t56.5 28t13.5 119v269q0 72 -13.5 94t-55.5 22zM1049 -14q-137 0 -187 57.5t-50 215.5v269q0 121 55.5 174.5t181.5 53.5t181.5 -53.5t55.5 -174.5v-269q0 -158 -50 -215.5t-187 -57.5zM276 -70
l664 1523h146l-664 -1523h-146zM313 1316q-42 0 -56.5 -24.5t-14.5 -91.5v-269q0 -91 13.5 -119t56.5 -28t56.5 28t13.5 119v269q0 72 -13.5 94t-55.5 22zM312 667q-137 0 -187 57.5t-50 215.5v269q0 121 55.5 174.5t181.5 53.5t181.5 -53.5t55.5 -174.5v-269
q0 -158 -50 -215.5t-187 -57.5z" />
    <glyph glyph-name="ampersand" unicode="&#x26;" horiz-adv-x="1284" 
d="M661 1110q0 61 -31.5 98t-83.5 37t-84 -35t-32 -87q0 -53 28 -101t69 -105q134 89 134 193zM332 396q0 -104 67 -170t165 -66t158 34l51 36l-318 394q-44 -31 -70 -62q-53 -63 -53 -166zM184 1087q0 156 98 247t262 91t263.5 -80.5t99.5 -211.5q0 -201 -265 -365
l263 -337q31 96 27 351h212q22 -351 -94 -536l192 -246h-284l-70 86q-160 -107 -357 -107t-321 111.5t-124 277.5t60 246t186 167q-148 196 -148 306z" />
    <glyph glyph-name="quotesingle" unicode="'" horiz-adv-x="453" 
d="M135 945l-40 466h259l-38 -466h-181z" />
    <glyph glyph-name="parenleft" unicode="(" horiz-adv-x="453" 
d="M93 615q0 189 43 403.5t114 384.5h179q-57 -137 -91.5 -352t-34.5 -437t35 -447t91 -361h-179q-71 172 -114 396t-43 413z" />
    <glyph glyph-name="parenright" unicode=")" horiz-adv-x="453" 
d="M383 594q0 -188 -43.5 -402.5t-114.5 -385.5h-179q57 138 92 352t35 436t-35 447t-92 362h179q71 -173 115 -397t43 -412z" />
    <glyph glyph-name="asterisk" unicode="*" 
d="M720 1350l-132 -180l220 26v-164l-220 27l134 -175l-141 -84l-90 205l-86 -206l-143 81l132 180l-220 -26v164l220 -27l-134 175l141 84l90 -205l86 206z" />
    <glyph glyph-name="plus" unicode="+" horiz-adv-x="1360" 
d="M603 447h-390v150h390v390h150v-390h390v-150h-390v-390h-150v390z" />
    <glyph glyph-name="comma" unicode="," horiz-adv-x="453" 
d="M71 -189l56 458h255l-133 -458h-178z" />
    <glyph glyph-name="hyphen" unicode="-" horiz-adv-x="453" 
d="M81 598h296v-191h-296v191z" />
    <glyph glyph-name="period" unicode="." horiz-adv-x="453" 
d="M103 259h260v-259h-260v259z" />
    <glyph glyph-name="slash" unicode="/" horiz-adv-x="453" 
d="M415 1411l-173 -1594h-183l173 1594h183z" />
    <glyph glyph-name="zero" unicode="0" 
d="M494 172q78 0 98 48t20 233v563q0 129 -24.5 173.5t-93.5 44.5t-94 -46t-25 -172v-563q0 -180 20.5 -230.5t98.5 -50.5zM491 -21q-204 0 -294 93.5t-90 303.5v650q0 211 90 305t294 94t294 -93.5t90 -304.5v-650q0 -211 -90 -304.5t-294 -93.5z" />
    <glyph glyph-name="one" unicode="1" 
d="M420 0v1101l-36 -39q-57 -57 -161 -109v226q81 48 128 95t96 130h239v-1404h-266z" />
    <glyph glyph-name="two" unicode="2" 
d="M502 1228q-121 0 -103 -176v-42h-259v42q-40 365 365 365q194 0 280 -79t86 -268q-1 -189 -115 -376t-400 -500h522v-194h-753v238q255 308 368 508t113 345q0 71 -25 104t-79 33z" />
    <glyph glyph-name="three" unicode="3" 
d="M601 361v119q0 79 -35.5 121.5t-100.5 42.5h-111v188h81q93 0 129.5 40t36.5 142v64q0 88 -23.5 123t-82.5 35q-107 0 -105 -123v-42h-259v42q-5 165 80.5 238.5t281.5 73.5t282 -75t86 -245v-28q0 -210 -77 -286q-30 -29 -80 -47q45 -17 73 -41q84 -71 84 -244v-119
q0 -191 -87.5 -276t-288.5 -85t-286.5 82t-82.5 274v42h259v-42q-4 -167 97 -167q72 0 100.5 42.5t28.5 150.5z" />
    <glyph glyph-name="four" unicode="4" 
d="M531 303h-466v279l354 829h378v-914h150v-194h-150v-303h-266v303z" />
    <glyph glyph-name="five" unicode="5" 
d="M622 425v95q0 136 -20 179.5t-82 43.5t-89.5 -45t-30.5 -146h-268l13 859h700v-199h-457v-366l26 23q80 65 214 65t194 -85t60 -293v-143q0 -230 -89.5 -332t-293.5 -102t-291.5 76t-84.5 254v42h264v-42q-2 -141 113 -141q74 0 98 50t24 207z" />
    <glyph glyph-name="six" unicode="6" 
d="M381 375q0 -112 25.5 -157.5t89.5 -45.5t88.5 43.5t24.5 159.5v199q0 96 -24.5 132t-88.5 36t-89.5 -38.5t-25.5 -129.5v-199zM503 1235q-72 0 -97 -36.5t-25 -140.5v-141l1 -59q98 73 232 73t196 -88.5t62 -288.5v-142q0 -230 -89 -331.5t-297 -101.5t-289 95.5
t-81 348.5v579q0 233 90 328t292 95t286 -80t81 -254v-29h-263v29q8 144 -99 144z" />
    <glyph glyph-name="seven" unicode="7" 
d="M108 1212v199h744v-216l-350 -1195h-283l383 1195l5 17h-499z" />
    <glyph glyph-name="eight" unicode="8" 
d="M498 634q-74 0 -98.5 -36t-24.5 -140v-84q0 -133 20.5 -167.5t98.5 -34.5t98 34.5t20 167.5v84q0 116 -20 146t-94 30zM493 826q70 0 92.5 41t22.5 170v14q0 114 -23 150.5t-91 36.5t-91.5 -37t-23.5 -143v-28q0 -124 22 -164t92 -40zM875 421v-84q0 -190 -90 -274
t-292 -84t-291.5 84t-89.5 274v84q0 190 88 259q44 35 129 52q-67 20 -112 50q-101 71 -101 232v78q0 177 88.5 255t288.5 78t289 -80t89 -260v-64q0 -164 -89 -237q-40 -33 -104 -51q73 -20 116 -61q81 -77 81 -251z" />
    <glyph glyph-name="nine" unicode="9" 
d="M494 718q110 0 110 148v188q0 93 -26.5 135.5t-84.5 42.5t-83.5 -41t-25.5 -137v-188q0 -80 25.5 -114t84.5 -34zM472 -21q-205 0 -279.5 78.5t-71.5 285.5v29h263v-29q-5 -101 16.5 -137.5t87.5 -36.5t91 36.5t25 140.5v252q-98 -69 -232 -69t-196 83.5t-62 271.5v134
q0 216 89 311.5t293 95.5t288.5 -84t84.5 -290v-706q0 -190 -96 -278t-301 -88z" />
    <glyph glyph-name="colon" unicode=":" horiz-adv-x="453" 
d="M103 957h260v-259h-260v259zM103 259h260v-259h-260v259z" />
    <glyph glyph-name="semicolon" unicode=";" horiz-adv-x="453" 
d="M122 957h260v-259h-260v259zM71 -189l56 458h255l-133 -458h-178z" />
    <glyph glyph-name="less" unicode="&#x3c;" horiz-adv-x="2039" 
d="M410 553v150l1225 546v-192l-966 -429l966 -436v-192z" />
    <glyph glyph-name="equal" unicode="=" horiz-adv-x="1360" 
d="M215 759h926v-150h-926v150zM215 436h926v-150h-926v150z" />
    <glyph glyph-name="greater" unicode="&#x3e;" horiz-adv-x="2039" 
d="M1635 703v-150l-1225 -553v192l966 436l-966 429v192z" />
    <glyph glyph-name="question" unicode="?" horiz-adv-x="906" 
d="M304 259h260v-259h-260v259zM436 1432q346 0 346 -307q0 -100 -30.5 -178.5t-109.5 -208.5t-91 -177.5t-12 -175.5h-210q0 196 12.5 253.5t82.5 185.5t87 176t17 122t-19 104q-19 28 -68 28q-84 0 -82 -140v-42h-259v42q-10 318 336 318z" />
    <glyph glyph-name="at" unicode="@" horiz-adv-x="1360" 
d="M676 838q-44 0 -62 -29.5t-18 -99.5v-236q0 -97 15 -128t61 -31t64 39t18 134v178q0 97 -17 135t-61 38zM981 378q0 -74 43 -74q30 0 43 26.5t13 88.5v441q0 212 -92 302.5t-308 90.5t-308.5 -114t-92.5 -381v-337q0 -268 89.5 -382t300.5 -114q81 0 169.5 14t136.5 35
v-194q-33 -14 -131 -24t-206 -10q-311 0 -443 155t-131 520v337q1 364 142.5 519t473.5 155t474 -131.5t141 -440.5v-441q0 -154 -61.5 -219.5t-213.5 -65.5t-209 125q-54 -125 -198 -125q-235 0 -235 314v297q0 264 203 264q114 0 173 -77v56h227v-610z" />
    <glyph glyph-name="A" unicode="A" horiz-adv-x="1133" 
d="M402 1411h339l319 -1411h-279l-55 305h-308l-57 -305h-279z" />
    <glyph glyph-name="B" unicode="B" horiz-adv-x="1095" 
d="M422 613v-401h91q117 0 154 43t41 154q0 126 -39.5 165t-169.5 39h-77zM422 1199v-374h58q128 0 169 41t44 156q-2 99 -43 138q-40 39 -154 39h-74zM133 0v1411h427q243 0 328 -74t91 -264q0 -215 -95 -290q-57 -45 -179 -62q130 -18 193 -65q99 -75 99 -283
q-6 -213 -97 -293q-92 -80 -364 -80h-403z" />
    <glyph glyph-name="C" unicode="C" horiz-adv-x="1057" 
d="M559 191q134 0 130 247v42h287v-42q4 -248 -92 -353.5t-332 -105.5t-335.5 114.5t-99.5 393.5v435q0 281 99.5 395.5t342.5 114.5q410 0 408 -404v-69h-287v42q4 219 -121 219q-81 0 -117 -62.5t-36 -203.5v-435q0 -184 33.5 -256t119.5 -72z" />
    <glyph glyph-name="D" unicode="D" horiz-adv-x="1133" 
d="M430 212h76q136 0 183 55.5t47 214.5v466q0 143 -52.5 197t-192.5 54h-61v-987zM141 0v1411h380q272 0 388 -107.5t116 -359.5v-395q1 -318 -101.5 -433.5t-386.5 -115.5h-396z" />
    <glyph glyph-name="E" unicode="E" horiz-adv-x="944" 
d="M138 0v1411h705v-210h-416v-373h402v-210h-402v-408h424v-210h-713z" />
    <glyph glyph-name="F" unicode="F" horiz-adv-x="906" 
d="M136 0v1411h676v-210h-387v-384h366v-210h-366v-607h-289z" />
    <glyph glyph-name="G" unicode="G" horiz-adv-x="1133" 
d="M575 1220q-89 0 -124 -69.5t-35 -247.5v-334q0 -231 33.5 -304.5t137.5 -73.5q41 0 132 22v325h-133v210h422v-713q-229 -55 -459 -55t-325 126q-96 126 -97 447v334q1 289 110 417t355 128q430 0 416 -416v-42h-287v42q4 204 -146 204z" />
    <glyph glyph-name="H" unicode="H" horiz-adv-x="1133" 
d="M142 0v1411h289v-583h275v583h289v-1411h-289v618h-275v-618h-289z" />
    <glyph glyph-name="I" unicode="I" horiz-adv-x="529" 
d="M125 0v1411h289v-1411h-289z" />
    <glyph glyph-name="J" unicode="J" 
d="M457 193q107 0 107 145v1073h283v-1073q0 -183 -96 -271t-303 -88t-297 100.5t-86 337.5v42h288v-42q-2 -125 21 -174.5t83 -49.5z" />
    <glyph glyph-name="K" unicode="K" horiz-adv-x="1095" 
d="M434 0h-289v1411h289v-649l310 649h307l-307 -621l312 -790h-314l-308 762v-762z" />
    <glyph glyph-name="L" unicode="L" horiz-adv-x="868" 
d="M143 0v1411h289v-1201h367v-210h-656z" />
    <glyph glyph-name="M" unicode="M" horiz-adv-x="1511" 
d="M360 0h-237v1411h202l428 -1080l224 1080h403v-1411h-237v1185l-247 -1185h-288l-248 1190v-1190z" />
    <glyph glyph-name="N" unicode="N" horiz-adv-x="1171" 
d="M379 0h-237v1411h212l457 -1191v1191h237v-1411h-211l-458 1201v-1201z" />
    <glyph glyph-name="O" unicode="O" horiz-adv-x="1133" 
d="M719 1027q0 193 -150.5 193t-150.5 -193v-581q0 -143 33 -199t117 -56t117.5 56t33.5 199v581zM129 1039q0 393 439.5 393t439.5 -393v-581q0 -263 -99 -371t-341 -108t-340.5 108t-98.5 371v581z" />
    <glyph glyph-name="P" unicode="P" horiz-adv-x="1057" 
d="M417 774h82q116 0 155 43t39 169t-40.5 169.5t-153.5 43.5h-82v-425zM128 0v1411h428q230 0 328 -96t98 -336t-99 -328.5t-384 -88.5h-82v-562h-289z" />
    <glyph glyph-name="Q" unicode="Q" horiz-adv-x="1171" 
d="M427 911v-392q0 -184 33.5 -256t117.5 -72t117 75t33 267v406q0 157 -33 219t-116 60t-118 -68q-34 -66 -34 -239zM1100 0h-235l-288 -21q-263 0 -350.5 109t-88.5 436v392q1 284 99.5 400t335.5 116t340.5 -113t103.5 -367v-406q1 -239 -132 -368l215 14v-192z" />
    <glyph glyph-name="R" unicode="R" horiz-adv-x="1057" 
d="M412 792h80q112 0 149.5 41.5t37.5 161.5t-39.5 162t-147.5 42h-80v-407zM682 212v171q2 106 -40 149.5t-146 43.5h-84v-576h-289v1411h424q227 0 324 -84t97 -295t-98 -289q-49 -39 -151 -61h16q118 0 178.5 -77.5t53.5 -221.5q-11 -301 16 -382h-288q-13 43 -13 211z
" />
    <glyph glyph-name="S" unicode="S" horiz-adv-x="1095" 
d="M121 1023q0 409 443 409q228 0 319 -92t90 -293v-73h-285v42q2 112 -28 158t-105 46q-148 0 -148 -170q-1 -66 43 -113t153 -98q215 -102 301 -199t86 -238q0 -423 -443 -423q-242 0 -342.5 94.5t-100.5 308.5v55h285v-42q-4 -204 158 -204q157 0 157 185q0 69 -48 119
t-165 106q-206 97 -288 191t-82 231z" />
    <glyph glyph-name="T" unicode="T" horiz-adv-x="1020" 
d="M367 0v1201h-304v210h896v-210h-303v-1201h-289z" />
    <glyph glyph-name="U" unicode="U" horiz-adv-x="1133" 
d="M566 -21q-434 0 -434 417v1015h286v-1034q0 -105 32.5 -146.5t115.5 -41.5t115.5 41.5t32.5 146.5v1034h286v-1015q0 -417 -434 -417z" />
    <glyph glyph-name="V" unicode="V" horiz-adv-x="1057" 
d="M728 1411h276l-304 -1411h-339l-305 1411h143l341 -1094z" />
    <glyph glyph-name="W" unicode="W" horiz-adv-x="1586" 
d="M1289 1411h243l-235 -1411h-164l-349 1003l-164 -1003h-328l-239 1411h128l284 -1072l179 1072h147l345 -1089z" />
    <glyph glyph-name="X" unicode="X" horiz-adv-x="1133" 
d="M99 1411h296l186 -466l187 466h276l-305 -692l319 -719h-280l-211 495l-219 -495h-279l327 733z" />
    <glyph glyph-name="Y" unicode="Y" horiz-adv-x="1057" 
d="M672 0h-289v527l-330 884h309l166 -562l183 562h289l-328 -873v-538z" />
    <glyph glyph-name="Z" unicode="Z" horiz-adv-x="944" 
d="M90 1201v210h786v-271l-528 -930h523v-210h-803v271l528 930h-506z" />
    <glyph glyph-name="bracketleft" unicode="[" horiz-adv-x="453" 
d="M93 -194v1597h300v-135h-100v-1321h100v-141h-300z" />
    <glyph glyph-name="backslash" unicode="\" horiz-adv-x="453" 
d="M231 -183l-171 1594h184l171 -1594h-184z" />
    <glyph glyph-name="bracketright" unicode="]" horiz-adv-x="453" 
d="M368 -194h-301v141h101v1321h-101v135h301v-1597z" />
    <glyph glyph-name="asciicircum" unicode="^" horiz-adv-x="1020" 
d="M458 1536h106q68 -158 144 -252t216 -197v-94q-232 105 -368 219l-46 41l-44 -40q-136 -114 -367 -220v94q139 103 215 197t144 252z" />
    <glyph glyph-name="underscore" unicode="_" horiz-adv-x="1020" 
d="M0 -512v105h1020v-105h-1020z" />
    <glyph glyph-name="grave" unicode="`" 
d="M456 1103l-185 317h296l108 -317h-219z" />
    <glyph glyph-name="a" unicode="a" horiz-adv-x="906" 
d="M428 132q112 0 112 197v135h-34q-92 0 -130 -39t-38 -135v-60q0 -46 24 -72t66 -26zM458 848q-102 0 -96 -120v-29h-259v29q-2 143 81.5 209t263.5 66q180 1 266 -73l85 -930h-251v81l-11 -13q-73 -89 -203 -89t-193 69t-63 191v60q0 175 86 246.5t297 71.5h79v120
q0 111 -82 111z" />
    <glyph glyph-name="b" unicode="b" horiz-adv-x="906" 
d="M458 155q62 0 83 45.5t21 187.5v246q0 108 -23 150.5t-79 42.5t-81 -52t-25 -170v-228q2 -135 22 -179t82 -43zM581 1003q235 0 235 -308v-348q0 -202 -55 -285t-196 -83t-219 96v-75h-251v1411h259v-513l4 5q74 100 223 100z" />
    <glyph glyph-name="c" unicode="c" horiz-adv-x="831" 
d="M338 649v-276q0 -135 16 -178t65 -43t68 36.5t15 121.5v58h257v-58q6 -331 -339 -331q-180 0 -259.5 88t-79.5 286v276q0 198 79.5 286t259.5 88t259 -81q80 -81 80 -253v-41h-257v29q8 173 -79 173q-48 0 -66.5 -39t-18.5 -142z" />
    <glyph glyph-name="d" unicode="d" horiz-adv-x="906" 
d="M458 827q-60 0 -81 -40.5t-21 -152.5v-287q0 -104 23 -148t81 -44t78 52.5t20 216.5v134q0 164 -20 216.5t-80 52.5zM96 675q0 328 250 328q109 1 212 -93v501h259v-1411h-242v107l-11 -17q-73 -111 -212 -111t-197.5 82t-58.5 266v348z" />
    <glyph glyph-name="e" unicode="e" horiz-adv-x="868" 
d="M545 595v55q0 115 -22 156.5t-83 41.5t-83 -50t-22 -189v-14h210zM418 -21q-180 0 -260 90t-80 294v194q0 245 82 345.5t286 100.5t280 -87t76 -328v-143h-467v-30q0 -171 20.5 -226t82.5 -55t86.5 39.5t20.5 131.5v29h257v-29q6 -326 -384 -326z" />
    <glyph glyph-name="f" unicode="f" horiz-adv-x="642" 
d="M445 808v-808h-259v808h-137v174h137v159q0 144 66 213.5t203 69.5q73 0 137 -8v-169l-37 1q-60 0 -85 -24t-25 -83v-159h147v-174h-147z" />
    <glyph glyph-name="g" unicode="g" horiz-adv-x="906" 
d="M449 827q-94 0 -94 -171v-270q0 -128 18.5 -169t76.5 -41t76 42t18 173v221q0 131 -18.5 173t-76.5 42zM544 -74v185l-10 -13q-74 -98 -204 -98t-183 80t-53 276v270q0 377 245 377q127 0 221 -118v97h255v-1056q0 -315 -361 -315q-189 0 -272 64t-81 208v29h260v-29
q-6 -123 85 -123q54 0 76 37.5t22 128.5z" />
    <glyph glyph-name="h" unicode="h" horiz-adv-x="944" 
d="M116 0v1411h259v-514q86 106 239 106q100 0 161.5 -72t61.5 -189v-742h-259v714q0 60 -21.5 87t-76.5 27q-113 0 -105 -227v-601h-259z" />
    <glyph glyph-name="i" unicode="i" horiz-adv-x="491" 
d="M118 1399h260v-234h-260v234zM119 0v982h259v-982h-259z" />
    <glyph glyph-name="j" unicode="j" horiz-adv-x="491" 
d="M117 1399h260v-234h-260v234zM117 982h259v-1104q0 -128 -76 -197.5t-217 -69.5q-40 0 -92 11v165h2q74 0 99 28t25 111v1056z" />
    <glyph glyph-name="k" unicode="k" horiz-adv-x="906" 
d="M574 982h278l-209 -430l209 -552h-266l-209 535zM377 1411v-1411h-259v1411h259z" />
    <glyph glyph-name="l" unicode="l" horiz-adv-x="491" 
d="M120 0v1411h259v-1411h-259z" />
    <glyph glyph-name="m" unicode="m" horiz-adv-x="1360" 
d="M557 688q0 140 -93 140q-67 0 -92.5 -51t-21.5 -176v-601h-259v982h243v-95l1 1q76 115 225 115q179 0 232 -131q10 20 22 34q75 97 216 97q250 0 250 -293v-710h-259v690q0 66 -24 102t-68 36q-113 0 -113 -167v-661h-259v688z" />
    <glyph glyph-name="n" unicode="n" horiz-adv-x="944" 
d="M615 1003q221 0 221 -259v-744h-259v714q0 60 -21.5 87t-77.5 27t-82 -51t-22 -176v-601h-259v982h259v-92q84 113 241 113z" />
    <glyph glyph-name="o" unicode="o" horiz-adv-x="906" 
d="M455 134q63 0 83.5 47t20.5 193v276q0 109 -23.5 153.5t-80.5 44.5t-80 -44.5t-23 -153.5v-276q0 -146 20 -193t83 -47zM455 -21q-191 0 -275.5 88t-84.5 286v276q0 198 84.5 286t275.5 88t276 -88t85 -286v-276q0 -198 -85 -286t-276 -88z" />
    <glyph glyph-name="p" unicode="p" horiz-adv-x="906" 
d="M458 155q62 0 83 45.5t21 187.5v246q0 108 -23 150.5t-79 42.5t-81 -52t-25 -170v-228q2 -135 22 -178.5t82 -43.5zM581 1003q235 0 235 -308v-348q0 -202 -54 -285.5t-192 -83.5t-216 96v-462h-259v1370h259v-84l4 5q74 100 223 100z" />
    <glyph glyph-name="q" unicode="q" horiz-adv-x="906" 
d="M459 827q-59 0 -81.5 -43.5t-22.5 -149.5v-287q0 -104 23 -148t81 -44t78 52.5t20 216.5v134q0 164 -19.5 216.5t-78.5 52.5zM95 675q0 328 250 328q115 1 220 -100v79h251v-1370h-251v488l-7 -10q-77 -111 -232 -111q-122 0 -176.5 82t-54.5 266v348z" />
    <glyph glyph-name="r" unicode="r" horiz-adv-x="680" 
d="M119 0v982h247v-127q14 27 30 49q69 88 234 98v-220q-25 5 -56 4q-112 0 -156 -55t-40 -190v-541h-259z" />
    <glyph glyph-name="s" unicode="s" horiz-adv-x="831" 
d="M71 720q0 283 343 283q180 0 261.5 -68t81.5 -212v-36h-261v29q6 132 -81.5 132t-87.5 -97q0 -45 30 -77t104 -63q187 -81 249 -146t61 -182q0 -304 -353 -304q-190 0 -272 73t-82 232v40h258v-29q-4 -89 17.5 -125t78.5 -36q102 0 102 117q0 53 -32 89t-113 71
q-183 79 -243 141t-61 168z" />
    <glyph glyph-name="t" unicode="t" horiz-adv-x="642" 
d="M428 -21q-247 0 -247 291v538h-138v174h138v157l259 107v-264h161v-174h-161v-538q0 -71 18.5 -98.5t142.5 -10.5v-170q-76 -12 -173 -12z" />
    <glyph glyph-name="u" unicode="u" horiz-adv-x="944" 
d="M112 263v719h259v-688q0 -74 21.5 -107t79.5 -33t83.5 51t21.5 176v601h259v-982h-243v97q-103 -117 -238 -118q-243 0 -243 284z" />
    <glyph glyph-name="v" unicode="v" horiz-adv-x="906" 
d="M598 982h259l-230 -982h-336l-230 982h131l269 -729z" />
    <glyph glyph-name="w" unicode="w" horiz-adv-x="1435" 
d="M1144 982h257l-193 -982h-168l-313 763l-162 -763h-336l-197 982h130l247 -777l141 777h168l319 -770z" />
    <glyph glyph-name="x" unicode="x" horiz-adv-x="906" 
d="M76 982h259l128 -294l140 294h250l-251 -468l251 -514h-245l-148 317l-156 -317h-252l253 507z" />
    <glyph glyph-name="y" unicode="y" horiz-adv-x="906" 
d="M509 -365h-247l86 357l-294 990h259l146 -605l151 605h250z" />
    <glyph glyph-name="z" unicode="z" horiz-adv-x="755" 
d="M99 810v172h587v-204l-364 -606h370v-172h-622v227l368 583h-339z" />
    <glyph glyph-name="braceleft" unicode="{" horiz-adv-x="1020" 
d="M653 167v-264q0 -112 52 -152t191 -34v-190q-270 -13 -380.5 72t-110.5 304v264q0 127 -58.5 194.5t-185.5 87.5v190q244 39 244 282v264q0 231 103 310t388 66v-190q-148 7 -195.5 -29.5t-47.5 -156.5v-264q0 -271 -221 -378q221 -109 221 -376z" />
    <glyph glyph-name="bar" unicode="|" horiz-adv-x="1020" 
d="M458 -512v2048h105v-2048h-105z" />
    <glyph glyph-name="braceright" unicode="}" horiz-adv-x="1020" 
d="M615 921q0 -243 243 -282v-190q-126 -20 -184.5 -87.5t-58.5 -194.5v-264q-1 -219 -111 -304t-380 -72v190q139 -6 191 34t52 152v264q0 269 221 376q-63 31 -105 70q-116 107 -116 308v264q0 120 -47.5 156.5t-195.5 29.5v190q285 13 388 -66t103 -310v-264z" />
    <glyph glyph-name="asciitilde" unicode="~" horiz-adv-x="2039" 
d="M740 733q147 0 342 -73q162 -62 312 -62q68 0 144 36t109 88l37 -56q-35 -108 -130 -182t-190 -74t-326 68t-315 67q-84 0 -161 -35t-116 -86l-32 66q54 102 149 172.5t177 70.5z" />
    <glyph glyph-name="uni00A0" unicode="&#xa0;" horiz-adv-x="453" 
 />
    <glyph glyph-name="exclamdown" unicode="&#xa1;" horiz-adv-x="604" 
d="M442 723h-260v259h260v-259zM411 591l29 -1020h-257l28 1020h200z" />
    <glyph glyph-name="cent" unicode="&#xa2;" 
d="M614 -61h-217v266q-110 19 -161 73q-71 78 -71 294v275q0 198 80 286q54 59 152 79v240h217v-240q99 -19 153 -74q79 -80 79 -251v-41h-267v29q10 184 -69 184q-48 0 -63 -38t-15 -156v-275q0 -144 15 -190t61 -46t61 35.5t10 138.5v58h267v-58q5 -270 -232 -320v-269z
" />
    <glyph glyph-name="sterling" unicode="&#xa3;" 
d="M530 1223q-66 0 -66 -79v-290h207v-189h-207v-471h389v-194h-728v194h87v471h-87v189h87v290q0 281 321 281q179 0 252.5 -80.5t67.5 -270.5v-42h-258v42q1 82 -13.5 115.5t-51.5 33.5z" />
    <glyph glyph-name="currency" unicode="&#xa4;" 
d="M492 1184q154 0 272 -80l136 136l132 -132l-136 -136q80 -119 80 -272t-81 -271l137 -137l-132 -132l-136 136q-118 -80 -272 -80t-272 80l-136 -136l-132 132l136 136q-80 118 -79 272t78 273l-135 135l132 132l136 -136q118 80 272 80zM776 700q0 119 -82.5 201.5
t-201.5 82.5t-201.5 -82.5t-82.5 -201.5t82.5 -201.5t201.5 -82.5t201.5 82.5t82.5 201.5z" />
    <glyph glyph-name="yen" unicode="&#xa5;" 
d="M132 361v95h226v76l-320 879h308l157 -552l174 552h288l-318 -874v-81h226v-95h-226v-88h226v-95h-226v-178h-289v178h-226v95h226v88h-226z" />
    <glyph glyph-name="brokenbar" unicode="&#xa6;" horiz-adv-x="1020" 
d="M458 564v919h105v-919h-105zM458 -461v919h105v-919h-105z" />
    <glyph glyph-name="section" unicode="&#xa7;" 
d="M622 706q0 50 -32 84t-98 66q-52 -7 -92 -42q-40 -36 -40 -92t34 -90t101 -64q42 2 84.5 45t42.5 93zM193 1174q0 265 324 265q109 0 235 -35v-178q-134 35 -222 35q-139 0 -139 -60t40.5 -93.5t160.5 -85.5t176.5 -118t56.5 -176t-93 -181q-38 -30 -86 -47
q73 -40 112 -80q67 -68 67 -171q0 -293 -367 -293q-155 0 -265 31v177q148 -39 252 -39q182 0 182 112q0 40 -38.5 71t-132.5 69q-167 66 -235 138.5t-68 185.5q0 188 203 233q-42 29 -71 54q-92 82 -92 186z" />
    <glyph glyph-name="dieresis" unicode="&#xa8;" 
d="M548 1407h232v-230h-232v230zM216 1407h232v-230h-232v230z" />
    <glyph glyph-name="copyright" unicode="&#xa9;" horiz-adv-x="1020" 
d="M958 1051q0 173 -120 293t-293 120t-293 -120t-119 -293q-1 -173 119 -293t293 -119q173 -1 293 119t120 293zM546 1529q200 -1 338 -139t139 -338q-1 -200 -139 -340q-138 -138 -338 -138t-340 138q-138 138 -138 340q0 200 138 338q140 138 340 139zM579 786
q-111 0 -187 80t-76 194q0 116 76 196t184 79q58 0 114 -22t80 -54l-58 -62q-18 27 -58 45t-78 18q-78 0 -132 -58t-53 -142t55 -142t133 -57q37 -1 77 19t61 48l58 -62q-24 -34 -81 -57t-115 -23z" />
    <glyph glyph-name="ordfeminine" unicode="&#xaa;" horiz-adv-x="831" 
d="M398 895q81 0 90 92v87h-28q-74 0 -104 -24.5t-30 -85.5q0 -69 72 -69zM325 765q-180 0 -180 210q0 107 64 157t221 50h58v72q0 68 -72 68t-71 -71v-22h-182v22q3 90 63 132t187 42.5t189 -47.5l61 -599h-158v100q-12 -25 -32 -47q-60 -67 -148 -67z" />
    <glyph glyph-name="guillemotleft" unicode="&#xab;" horiz-adv-x="906" 
d="M834 864l-149 -370l149 -371h-203l-176 371l170 370h209zM448 864l-149 -370l149 -371h-203l-176 371l170 370h209z" />
    <glyph glyph-name="logicalnot" unicode="&#xac;" horiz-adv-x="1360" 
d="M991 652h-776v150h926v-540h-150v390z" />
    <glyph glyph-name="uni00AD" unicode="&#xad;" horiz-adv-x="453" 
d="M81 598h296v-191h-296v191z" />
    <glyph glyph-name="registered" unicode="&#xae;" horiz-adv-x="1020" 
d="M958 1046q0 173 -120 293t-293 120t-293 -120t-119 -293q-1 -172 119 -292t293 -120t293 120t120 292zM546 1524q200 0 338 -138t139 -340q-1 -200 -139 -338t-338 -139q-200 1 -340 139q-138 138 -138 338t138 340q140 138 340 138zM637 1166q0 30 -21 51t-51 21h-112
v-144h112q30 0 51 21t21 51zM378 807v506h187q63 -1 105 -43t42 -104t-43 -105q-20 -20 -46 -31l89 -223h-91l-84 212h-84v-212h-75z" />
    <glyph glyph-name="macron" unicode="&#xaf;" horiz-adv-x="1020" 
d="M0 1526v105h1020v-105h-1020z" />
    <glyph glyph-name="degree" unicode="&#xb0;" 
d="M654 1106q0 89 -43 139.5t-119 50.5t-119 -50.5t-43 -139.5t43 -139.5t119 -50.5t119 50.5t43 139.5zM492 1424q149 0 233.5 -84.5t84.5 -233.5t-84.5 -233.5t-233.5 -84.5t-233.5 84.5t-84.5 233.5t84.5 233.5t233.5 84.5z" />
    <glyph glyph-name="plusminus" unicode="&#xb1;" horiz-adv-x="1360" 
d="M213 -51h930v-150h-930v150zM603 447h-390v150h390v390h150v-390h390v-150h-390v-390h-150v390z" />
    <glyph glyph-name="uni00B2" unicode="&#xb2;" horiz-adv-x="642" 
d="M332 1307q-65 0 -57 -87v-22h-163v22q-22 205 222 205q118 -1 170 -45t52 -145t-67 -197t-212 -244h288v-117h-466v117q154 169 222 274t68 172t-57 67z" />
    <glyph glyph-name="uni00B3" unicode="&#xb3;" horiz-adv-x="642" 
d="M399 888q0 101 -81 101h-55v124h46q47 0 65.5 21t18.5 75v19q0 84 -60 84t-59 -67v-22h-163v22q-3 95 49 137.5t172 42.5t172.5 -42.5t52.5 -148.5t-47 -149q-24 -22 -72 -32q49 -10 76 -32q49 -39 49 -149t-54.5 -159.5t-178.5 -49.5t-177 46t-51 153v22h163v-22
q-2 -86 57 -86q43 0 60 24.5t17 87.5z" />
    <glyph glyph-name="acute" unicode="&#xb4;" 
d="M362 1103l120 317h284l-189 -317h-215z" />
    <glyph glyph-name="mu" unicode="&#xb5;" horiz-adv-x="1208" 
d="M528 179q84 0 134.5 48.5t80.5 153.5l174 599h304l-284 -980l-204 114q-83 -135 -251 -135q-140 0 -180 125l-135 -466h-290l389 1342h290l-160 -550q-30 -105 9 -178t123 -73z" />
    <glyph glyph-name="paragraph" unicode="&#xb6;" 
d="M114 1057q0 204 161.5 336.5t425.5 132.5h260v-80h-138v-1772h-80v1772h-98v-1772h-80v892q-215 39 -333 163t-118 328z" />
    <glyph glyph-name="periodcentered" unicode="&#xb7;" horiz-adv-x="453" 
d="M103 806h260v-259h-260v259z" />
    <glyph glyph-name="cedilla" unicode="&#xb8;" 
d="M275 -405l169 299h184l-101 -299h-252z" />
    <glyph glyph-name="uni00B9" unicode="&#xb9;" horiz-adv-x="642" 
d="M278 677v581l-36 -39q-33 -32 -99 -55v145q53 19 83 43t59 73h159v-748h-166z" />
    <glyph glyph-name="ordmasculine" unicode="&#xba;" horiz-adv-x="831" 
d="M334 1001q0 -106 81 -106q45 0 63 23.5t18 82.5v217q0 82 -81 82t-81 -82v-217zM420 765q-142 0 -203.5 52t-61.5 169v217q0 118 61 170t198 52t198 -52t61 -170v-217q0 -126 -55.5 -173.5t-197.5 -47.5z" />
    <glyph glyph-name="guillemotright" unicode="&#xbb;" horiz-adv-x="906" 
d="M456 123l149 370l-149 371h203l176 -371l-170 -370h-209zM70 123l149 370l-149 371h203l176 -371l-170 -370h-209z" />
    <glyph glyph-name="onequarter" unicode="&#xbc;" horiz-adv-x="1360" 
d="M1034 1453l-670 -1524h-146l670 1524h146zM278 677v581l-36 -39q-33 -32 -99 -55v145q53 19 83 43t59 73h159v-748h-166zM947 161h-264v144l191 429h235v-456h100v-117h-100v-161h-162v161z" />
    <glyph glyph-name="onehalf" unicode="&#xbd;" horiz-adv-x="1360" 
d="M1014 1453l-670 -1524h-146l670 1524h146zM252 677v581l-36 -39q-33 -32 -99 -55v145q53 19 83 43t59 73h159v-748h-166zM971 630q-65 0 -57 -87v-22h-163v22q-22 205 222 205q118 0 170 -44t52 -146q0 -100 -67 -196t-212 -245h288v-117h-466v117q154 169 222 274
t68 172t-57 67z" />
    <glyph glyph-name="threequarters" unicode="&#xbe;" horiz-adv-x="1360" 
d="M1097 1453l-670 -1524h-146l670 1524h146zM399 888q0 101 -81 101h-55v124h46q47 0 65 21t19 75v19q0 84 -60 84t-59 -67v-22h-163v22q-3 95 49 137t172 43q120 -1 172 -43t53 -148q0 -106 -47 -149q-24 -22 -72 -32q49 -10 76 -32q49 -39 49 -149q-1 -110 -55 -160
t-178 -49q-124 0 -177 46t-51 153v22h163v-22q-2 -86 57 -86q43 0 60 24t17 88zM1013 161h-264v144l191 429h235v-456h100v-117h-100v-161h-162v161z" />
    <glyph glyph-name="questiondown" unicode="&#xbf;" horiz-adv-x="906" 
d="M606 721h-260v259h260v-259zM474 -452q-346 0 -346 307q0 100 30.5 178.5t109.5 208.5t91 177.5t12 175.5h210q0 -196 -12.5 -253.5t-82.5 -185.5t-87 -176t-17 -122t19 -104q19 -28 68 -28q84 0 82 140v42h259v-42q10 -318 -336 -318z" />
    <glyph glyph-name="Agrave" unicode="&#xc0;" horiz-adv-x="1133" 
d="M402 1411h339l319 -1411h-279l-55 305h-308l-57 -305h-279zM507 1521l-257 269h303l169 -269h-215z" />
    <glyph glyph-name="Aacute" unicode="&#xc1;" horiz-adv-x="1133" 
d="M402 1411h339l319 -1411h-279l-55 305h-308l-57 -305h-279zM420 1521l176 269h297l-263 -269h-210z" />
    <glyph glyph-name="Acircumflex" unicode="&#xc2;" horiz-adv-x="1133" 
d="M402 1411h339l319 -1411h-279l-55 305h-308l-57 -305h-279zM424 1789h294l191 -268h-219l-116 170l-122 -170h-219z" />
    <glyph glyph-name="Atilde" unicode="&#xc3;" horiz-adv-x="1133" 
d="M402 1411h339l319 -1411h-279l-55 305h-308l-57 -305h-279zM688 1724q18 0 32 22t14 54h149q0 -141 -27 -192t-102 -51q-75 -1 -178 37q-102 38 -120 38t-33 -22t-15 -53h-149q-2 135 28 189t105 54t176 -38t120 -38z" />
    <glyph glyph-name="Adieresis" unicode="&#xc4;" horiz-adv-x="1133" 
d="M402 1411h339l319 -1411h-279l-55 305h-308l-57 -305h-279zM651 1753h228v-227h-228v227zM264 1753h228v-227h-228v227z" />
    <glyph glyph-name="Aring" unicode="&#xc5;" horiz-adv-x="1133" 
d="M402 1411h339l319 -1411h-279l-55 305h-308l-57 -305h-279zM571 1639q39 -1 67 27t28 67t-28 67t-67 27q-39 1 -67 -27t-28 -67t28 -67t67 -27zM571 1524q-89 0 -149 60t-60 149t60 149t149 60t149 -60t60 -149t-60 -149t-149 -60z" />
    <glyph glyph-name="AE" unicode="&#xc6;" horiz-adv-x="1586" 
d="M702 1140l-204 -625h281zM1494 1411v-210h-538l54 -373h464v-210h-433l59 -408h394v-210h-655l-37 305h-373l-99 -305h-298l518 1411h944z" />
    <glyph glyph-name="Ccedilla" unicode="&#xc7;" horiz-adv-x="1057" 
d="M559 191q134 0 130 247v42h287v-42q4 -248 -92 -354t-332 -105t-336 115t-99 393v435q-1 282 99 396t343 114q410 0 408 -404v-69h-287v42q4 219 -121 219q-81 0 -117 -62t-36 -204v-435q0 -184 34 -256t119 -72zM296 -428l169 296h188l-104 -296h-253z" />
    <glyph glyph-name="Egrave" unicode="&#xc8;" horiz-adv-x="944" 
d="M138 0v1411h705v-210h-416v-373h402v-210h-402v-408h424v-210h-713zM427 1521l-257 269h303l169 -269h-215z" />
    <glyph glyph-name="Eacute" unicode="&#xc9;" horiz-adv-x="944" 
d="M138 0v1411h705v-210h-416v-373h402v-210h-402v-408h424v-210h-713zM340 1521l176 269h297l-263 -269h-210z" />
    <glyph glyph-name="Ecircumflex" unicode="&#xca;" horiz-adv-x="944" 
d="M138 0v1411h705v-210h-416v-373h402v-210h-402v-408h424v-210h-713zM344 1789h294l191 -268h-219l-116 170l-122 -170h-219z" />
    <glyph glyph-name="Edieresis" unicode="&#xcb;" horiz-adv-x="944" 
d="M138 0v1411h705v-210h-416v-373h402v-210h-402v-408h424v-210h-713zM571 1753h228v-227h-228v227zM184 1753h228v-227h-228v227z" />
    <glyph glyph-name="Igrave" unicode="&#xcc;" horiz-adv-x="529" 
d="M112 0v1411h289v-1411h-289zM192 1521l-257 269h303l169 -269h-215z" />
    <glyph glyph-name="Iacute" unicode="&#xcd;" horiz-adv-x="529" 
d="M111 0v1411h289v-1411h-289zM104 1521l176 269h297l-263 -269h-210z" />
    <glyph glyph-name="Icircumflex" unicode="&#xce;" horiz-adv-x="529" 
d="M126 0v1411h289v-1411h-289zM123 1789h294l191 -268h-219l-116 170l-122 -170h-219z" />
    <glyph glyph-name="Idieresis" unicode="&#xcf;" horiz-adv-x="529" 
d="M118 0v1411h289v-1411h-289zM342 1753h228v-227h-228v227zM-45 1753h228v-227h-228v227z" />
    <glyph glyph-name="Eth" unicode="&#xd0;" horiz-adv-x="1133" 
d="M445 1199v-388h131v-210h-131v-389h72q130 0 175 55.5t45 214.5v466q0 143 -50.5 197t-183.5 54h-58zM156 0v601h-125v210h125v600h376q267 0 380.5 -107.5t113.5 -359.5v-395q1 -318 -100 -433.5t-379 -115.5h-391z" />
    <glyph glyph-name="Ntilde" unicode="&#xd1;" horiz-adv-x="1171" 
d="M379 0h-237v1411h212l457 -1191v1191h237v-1411h-211l-458 1201v-1201zM712 1724q18 0 32 22t14 54h149q0 -141 -27 -192t-102 -51q-75 -1 -178 37q-102 38 -120 38t-33 -22t-15 -53h-149q-2 135 28 189t105 54t176 -38t120 -38z" />
    <glyph glyph-name="Ograve" unicode="&#xd2;" horiz-adv-x="1133" 
d="M719 1027q-1 193 -151 193t-150 -193v-581q0 -143 33 -199t117 -56t118 56q33 56 33 199v581zM129 1039q-1 393 439 393t440 -393v-581q0 -263 -99 -371t-341 -108t-340 108q-99 108 -99 371v581zM504 1521l-257 269h303l169 -269h-215z" />
    <glyph glyph-name="Oacute" unicode="&#xd3;" horiz-adv-x="1133" 
d="M719 1027q-1 193 -151 193t-150 -193v-581q0 -143 33 -199t117 -56t118 56q33 56 33 199v581zM129 1039q-1 393 439 393t440 -393v-581q0 -263 -99 -371t-341 -108t-340 108q-99 108 -99 371v581zM417 1521l176 269h297l-263 -269h-210z" />
    <glyph glyph-name="Ocircumflex" unicode="&#xd4;" horiz-adv-x="1133" 
d="M719 1027q-1 193 -151 193t-150 -193v-581q0 -143 33 -199t117 -56t118 56q33 56 33 199v581zM129 1039q-1 393 439 393t440 -393v-581q0 -263 -99 -371t-341 -108t-340 108q-99 108 -99 371v581zM421 1789h294l191 -268h-219l-116 170l-122 -170h-219z" />
    <glyph glyph-name="Otilde" unicode="&#xd5;" horiz-adv-x="1133" 
d="M719 1027q-1 193 -151 193t-150 -193v-581q0 -143 33 -199t117 -56t118 56q33 56 33 199v581zM129 1039q-1 393 439 393t440 -393v-581q0 -263 -99 -371t-341 -108t-340 108q-99 108 -99 371v581zM685 1724q19 0 33 22t13 54h149q0 -141 -27 -192t-102 -51
q-75 -1 -178 37t-121 38t-32 -22q-15 -22 -15 -53h-149q-2 135 28 189t105 54t176 -38t120 -38z" />
    <glyph glyph-name="Odieresis" unicode="&#xd6;" horiz-adv-x="1133" 
d="M719 1027q-1 193 -151 193t-150 -193v-581q0 -143 33 -199t117 -56t118 56q33 56 33 199v581zM129 1039q-1 393 439 393t440 -393v-581q0 -263 -99 -371t-341 -108t-340 108q-99 108 -99 371v581zM648 1753h228v-227h-228v227zM261 1753h228v-227h-228v227z" />
    <glyph glyph-name="multiply" unicode="&#xd7;" horiz-adv-x="1360" 
d="M683 416l-318 -318l-106 106l318 318l-318 318l106 106l318 -318l318 318l106 -106l-318 -318l318 -318l-106 -106z" />
    <glyph glyph-name="Oslash" unicode="&#xd8;" horiz-adv-x="1133" 
d="M568 1220q-72 0 -111 -58t-39 -166v-613l258 795q-36 42 -108 42zM1008 458q0 -479 -440 -479q-101 0 -178 25l-52 -159l-86 27l55 170q-178 110 -178 416v581q0 393 439 393q104 0 184 -22l46 142l86 -27l-48 -149q35 -16 62 -42q110 -98 110 -295v-581zM577 191
q76 0 109 49.5t33 174.5v602l-256 -786q38 -40 114 -40z" />
    <glyph glyph-name="Ugrave" unicode="&#xd9;" horiz-adv-x="1133" 
d="M566 -21q-434 0 -434 417v1015h286v-1034q0 -105 32 -147t116 -41q84 -1 116 41t32 147v1034h286v-1015q0 -417 -434 -417zM502 1521l-257 269h303l169 -269h-215z" />
    <glyph glyph-name="Uacute" unicode="&#xda;" horiz-adv-x="1133" 
d="M566 -21q-434 0 -434 417v1015h286v-1034q0 -105 32 -147t116 -41q84 -1 116 41t32 147v1034h286v-1015q0 -417 -434 -417zM415 1521l176 269h297l-263 -269h-210z" />
    <glyph glyph-name="Ucircumflex" unicode="&#xdb;" horiz-adv-x="1133" 
d="M566 -21q-434 0 -434 417v1015h286v-1034q0 -105 32 -147t116 -41q84 -1 116 41t32 147v1034h286v-1015q0 -417 -434 -417zM419 1789h294l191 -268h-219l-116 170l-122 -170h-219z" />
    <glyph glyph-name="Udieresis" unicode="&#xdc;" horiz-adv-x="1133" 
d="M566 -21q-434 0 -434 417v1015h286v-1034q0 -105 32 -147t116 -41q84 -1 116 41t32 147v1034h286v-1015q0 -417 -434 -417zM646 1753h228v-227h-228v227zM259 1753h228v-227h-228v227z" />
    <glyph glyph-name="Yacute" unicode="&#xdd;" horiz-adv-x="1057" 
d="M672 0h-289v527l-330 884h309l166 -562l183 562h289l-328 -873v-538zM375 1521l176 269h297l-263 -269h-210z" />
    <glyph glyph-name="Thorn" unicode="&#xde;" horiz-adv-x="1057" 
d="M128 0v1403h289v-243h111q258 0 352 -86t101 -296q0 -266 -97.5 -366t-355.5 -100h-111v-312h-289zM503 948h-86v-424h86q117 0 155 47t40 176q-2 117 -40 159t-155 42z" />
    <glyph glyph-name="germandbls" unicode="&#xdf;" horiz-adv-x="1020" 
d="M503 1251q-127 0 -127 -154v-1097h-259v1097q0 167 98.5 247t303.5 80q361 0 361 -267q0 -92 -21.5 -144.5t-81.5 -112.5t-60 -93q-1 -69 95 -188t128 -185.5t32 -151.5q0 -303 -323 -303q-130 0 -189 11v172q50 -10 114 -10t102.5 37t38.5 93t-17.5 92t-95.5 134
t-110 156.5t-32 112.5t15 85.5t63 79.5t66.5 86t18.5 98t-32 92.5t-88 32.5z" />
    <glyph glyph-name="agrave" unicode="&#xe0;" horiz-adv-x="906" 
d="M428 132q112 0 112 197v135h-34q-92 0 -130 -39t-38 -135v-60q0 -46 24 -72t66 -26zM458 848q-102 0 -96 -120v-29h-259v29q-3 143 81 209t264 66q180 1 266 -73l85 -930h-251v81l-11 -13q-73 -89 -203 -89t-192 69q-64 69 -64 191v60q0 175 86 247t297 71h79v120
q0 111 -82 111zM371 1103l-185 317h296l108 -317h-219z" />
    <glyph glyph-name="aacute" unicode="&#xe1;" horiz-adv-x="906" 
d="M428 132q112 0 112 197v135h-34q-92 0 -130 -39t-38 -135v-60q0 -46 24 -72t66 -26zM458 848q-102 0 -96 -120v-29h-259v29q-3 143 81 209t264 66q180 1 266 -73l85 -930h-251v81l-11 -13q-73 -89 -203 -89t-192 69q-64 69 -64 191v60q0 175 86 247t297 71h79v120
q0 111 -82 111zM330 1103l120 317h284l-189 -317h-215z" />
    <glyph glyph-name="acircumflex" unicode="&#xe2;" horiz-adv-x="906" 
d="M428 132q112 0 112 197v135h-34q-92 0 -130 -39t-38 -135v-60q0 -46 24 -72t66 -26zM458 848q-102 0 -96 -120v-29h-259v29q-3 143 81 209t264 66q180 1 266 -73l85 -930h-251v81l-11 -13q-73 -89 -203 -89t-192 69q-64 69 -64 191v60q0 175 86 247t297 71h79v120
q0 111 -82 111zM319 1420h282l120 -317h-167l-94 181l-94 -181h-167z" />
    <glyph glyph-name="atilde" unicode="&#xe3;" horiz-adv-x="906" 
d="M428 132q112 0 112 197v135h-34q-92 0 -130 -39t-38 -135v-60q0 -46 24 -72t66 -26zM458 848q-102 0 -96 -120v-29h-259v29q-3 143 81 209t264 66q180 1 266 -73l85 -930h-251v81l-11 -13q-73 -89 -203 -89t-192 69q-64 69 -64 191v60q0 175 86 247t297 71h79v120
q0 111 -82 111zM547 1310q13 0 20 24t5 61h153q3 -163 -25 -223t-107 -60q-39 0 -173 74q-21 12 -39 12q-38 0 -33 -86h-153q-5 156 24 220t93 63q64 0 188 -73q18 -12 47 -12z" />
    <glyph glyph-name="adieresis" unicode="&#xe4;" horiz-adv-x="906" 
d="M428 132q112 0 112 197v135h-34q-92 0 -130 -39t-38 -135v-60q0 -46 24 -72t66 -26zM458 848q-102 0 -96 -120v-29h-259v29q-3 143 81 209t264 66q180 1 266 -73l85 -930h-251v81l-11 -13q-73 -89 -203 -89t-192 69q-64 69 -64 191v60q0 175 86 247t297 71h79v120
q0 111 -82 111zM510 1407h232v-230h-232v230zM178 1407h232v-230h-232v230z" />
    <glyph glyph-name="aring" unicode="&#xe5;" horiz-adv-x="906" 
d="M428 132q112 0 112 197v135h-34q-92 0 -130 -39t-38 -135v-60q0 -46 24 -72t66 -26zM458 848q-102 0 -96 -120v-29h-259v29q-3 143 81 209t264 66q180 1 266 -73l85 -930h-251v81l-11 -13q-73 -89 -203 -89t-192 69q-64 69 -64 191v60q0 175 86 247t297 71h79v120
q0 111 -82 111zM460 1221q37 -1 63 25t26 63t-26 63t-63 25q-37 1 -63 -25t-26 -63t26 -63t63 -25zM460 1106q-85 0 -144 59t-59 144t59 144t144 59t144 -59t59 -144t-59 -144t-144 -59z" />
    <glyph glyph-name="ae" unicode="&#xe6;" horiz-adv-x="1360" 
d="M998 605v45q0 115 -20.5 156.5t-76.5 41.5t-76.5 -50t-20.5 -189v-4h194zM432 132q108 0 114 175v149h-35q-94 0 -132 -44t-38 -152v-5q0 -58 24 -90.5t67 -32.5zM462 848q-107 0 -101 -130v-29h-259v29q-2 148 77 216.5t243 68.5t221 -79q20 -28 34 -72q13 29 28 51
q69 100 245 100t240.5 -87t64.5 -328v-133h-451v-40q0 -171 19 -226t77 -55t80.5 44t17.5 147v29h257v-29q6 -346 -329 -346q-154 0 -223 90q-26 35 -43 88q-19 -53 -48 -90q-72 -88 -218 -88t-229.5 75.5t-83.5 208.5v5q0 188 87 264.5t299 76.5h79v23q0 216 -84 216z" />
    <glyph glyph-name="ccedilla" unicode="&#xe7;" horiz-adv-x="831" 
d="M338 649v-276q0 -135 16 -178t65 -43t68 36t15 122v58h257v-58q6 -331 -339 -331q-180 0 -260 88t-79 286v276q-1 198 79 286t260 88t259 -81q80 -81 80 -253v-41h-257v29q8 173 -79 173q-49 0 -67 -39t-18 -142zM198 -405l169 299h184l-101 -299h-252z" />
    <glyph glyph-name="egrave" unicode="&#xe8;" horiz-adv-x="868" 
d="M545 595v55q0 114 -22 156t-83 42t-83 -50t-22 -189v-14h210zM418 -21q-180 0 -260 90t-80 294v194q0 245 82 345t286 101q204 0 280 -87t76 -328v-143h-467v-30q1 -171 21 -226t82 -55t87 40q24 40 20 131v29h257v-29q6 -326 -384 -326zM365 1103l-185 317h296l108 -317
h-219z" />
    <glyph glyph-name="eacute" unicode="&#xe9;" horiz-adv-x="868" 
d="M545 595v55q0 114 -22 156t-83 42t-83 -50t-22 -189v-14h210zM418 -21q-180 0 -260 90t-80 294v194q0 245 82 345t286 101q204 0 280 -87t76 -328v-143h-467v-30q1 -171 21 -226t82 -55t87 40q24 40 20 131v29h257v-29q6 -326 -384 -326zM324 1103l120 317h284l-189 -317
h-215z" />
    <glyph glyph-name="ecircumflex" unicode="&#xea;" horiz-adv-x="868" 
d="M545 595v55q0 114 -22 156t-83 42t-83 -50t-22 -189v-14h210zM418 -21q-180 0 -260 90t-80 294v194q0 245 82 345t286 101q204 0 280 -87t76 -328v-143h-467v-30q1 -171 21 -226t82 -55t87 40q24 40 20 131v29h257v-29q6 -326 -384 -326zM313 1420h282l120 -317h-167
l-94 181l-94 -181h-167z" />
    <glyph glyph-name="edieresis" unicode="&#xeb;" horiz-adv-x="868" 
d="M545 595v55q0 114 -22 156t-83 42t-83 -50t-22 -189v-14h210zM418 -21q-180 0 -260 90t-80 294v194q0 245 82 345t286 101q204 0 280 -87t76 -328v-143h-467v-30q1 -171 21 -226t82 -55t87 40q24 40 20 131v29h257v-29q6 -326 -384 -326zM504 1407h232v-230h-232v230z
M172 1407h232v-230h-232v230z" />
    <glyph glyph-name="igrave" unicode="&#xec;" horiz-adv-x="491" 
d="M118 0v982h259v-982h-259zM158 1103l-185 317h296l108 -317h-219z" />
    <glyph glyph-name="iacute" unicode="&#xed;" horiz-adv-x="491" 
d="M117 0v982h259v-982h-259zM116 1103l120 317h284l-189 -317h-215z" />
    <glyph glyph-name="icircumflex" unicode="&#xee;" horiz-adv-x="491" 
d="M110 0v982h259v-982h-259zM98 1420h282l120 -317h-167l-94 181l-94 -181h-167z" />
    <glyph glyph-name="idieresis" unicode="&#xef;" horiz-adv-x="491" 
d="M112 0v982h259v-982h-259zM291 1407h232v-230h-232v230zM-41 1407h232v-230h-232v230z" />
    <glyph glyph-name="eth" unicode="&#xf0;" horiz-adv-x="906" 
d="M567 648q0 183 -107.5 183t-107.5 -183v-275q0 -125 23.5 -174.5t83.5 -49.5t84 49.5t24 174.5v275zM816 345q0 -194 -85 -280t-276 -86t-275.5 87.5t-84.5 285.5v275q0 198 76 286t248 88q75 1 151 -42q-41 111 -108 206l-161 -76l-48 111l135 64q-42 51 -92 97l173 78
q56 -41 102 -88l189 89l48 -111l-156 -74q165 -217 164 -615v-295z" />
    <glyph glyph-name="ntilde" unicode="&#xf1;" horiz-adv-x="944" 
d="M615 1003q221 0 221 -259v-744h-259v714q1 60 -21 87t-78 27t-82 -51t-22 -176v-601h-259v982h259v-92q84 113 241 113zM562 1310q13 0 20 24t5 61h153q2 -163 -26 -223t-106 -60q-39 0 -173 74q-21 12 -39 12q-38 0 -33 -86h-153q-5 156 24 220t93 63q64 0 188 -73
q18 -12 47 -12z" />
    <glyph glyph-name="ograve" unicode="&#xf2;" horiz-adv-x="906" 
d="M455 134q63 0 83 47t21 193v276q1 110 -23 154t-81 44t-80 -44t-23 -154v-276q0 -146 20 -193t83 -47zM455 -21q-191 0 -275 88t-85 286v276q1 198 85 286t275 88t276 -88t85 -286v-276q0 -198 -85 -286t-276 -88zM366 1103l-185 317h296l108 -317h-219z" />
    <glyph glyph-name="oacute" unicode="&#xf3;" horiz-adv-x="906" 
d="M455 134q63 0 83 47t21 193v276q1 110 -23 154t-81 44t-80 -44t-23 -154v-276q0 -146 20 -193t83 -47zM455 -21q-191 0 -275 88t-85 286v276q1 198 85 286t275 88t276 -88t85 -286v-276q0 -198 -85 -286t-276 -88zM325 1103l120 317h284l-189 -317h-215z" />
    <glyph glyph-name="ocircumflex" unicode="&#xf4;" horiz-adv-x="906" 
d="M455 134q63 0 83 47t21 193v276q1 110 -23 154t-81 44t-80 -44t-23 -154v-276q0 -146 20 -193t83 -47zM455 -21q-191 0 -275 88t-85 286v276q1 198 85 286t275 88t276 -88t85 -286v-276q0 -198 -85 -286t-276 -88zM314 1420h282l120 -317h-167l-94 181l-94 -181h-167z
" />
    <glyph glyph-name="otilde" unicode="&#xf5;" horiz-adv-x="906" 
d="M455 134q63 0 83 47t21 193v276q1 110 -23 154t-81 44t-80 -44t-23 -154v-276q0 -146 20 -193t83 -47zM455 -21q-191 0 -275 88t-85 286v276q1 198 85 286t275 88t276 -88t85 -286v-276q0 -198 -85 -286t-276 -88zM542 1310q13 0 20 24t5 61h153q2 -163 -26 -223
t-106 -60q-39 0 -173 74q-21 12 -39 12q-38 0 -33 -86h-153q-5 156 24 220t93 63q64 0 188 -73q18 -12 47 -12z" />
    <glyph glyph-name="odieresis" unicode="&#xf6;" horiz-adv-x="906" 
d="M455 134q63 0 83 47t21 193v276q1 110 -23 154t-81 44t-80 -44t-23 -154v-276q0 -146 20 -193t83 -47zM455 -21q-191 0 -275 88t-85 286v276q1 198 85 286t275 88t276 -88t85 -286v-276q0 -198 -85 -286t-276 -88zM505 1407h232v-230h-232v230zM173 1407h232v-230h-232
v230z" />
    <glyph glyph-name="divide" unicode="&#xf7;" horiz-adv-x="1360" 
d="M682 935q48 0 81 -33.5t33 -81.5t-33 -81t-81 -33t-81 33t-33 81t33 81.5t81 33.5zM214 597h936v-150h-936v150zM682 338q48 0 81 -33.5t33 -81.5t-33 -81t-81 -33t-81 33t-33 81t33 81.5t81 33.5z" />
    <glyph glyph-name="oslash" unicode="&#xf8;" horiz-adv-x="906" 
d="M447 848q-55 0 -75 -38.5t-20 -159.5v-276q0 -73 5 -123l169 576q-24 21 -79 21zM455 -21q-60 0 -108 9l-46 -155l-62 18l45 152q-64 22 -105 64q-84 88 -84 286v276q0 198 84.5 286t275.5 88q66 0 119 -11l35 118l62 -18l-34 -116q56 -23 94 -61q85 -88 85 -286v-276
q0 -198 -85 -286t-276 -88zM455 134q63 0 83.5 47t20.5 193v276l-1 57l-164 -556q24 -17 61 -17z" />
    <glyph glyph-name="ugrave" unicode="&#xf9;" horiz-adv-x="944" 
d="M112 263v719h259v-688q0 -74 22 -107q21 -33 79 -33t84 51t21 176v601h259v-982h-243v97q-103 -117 -238 -118q-243 0 -243 284zM385 1103l-185 317h296l108 -317h-219z" />
    <glyph glyph-name="uacute" unicode="&#xfa;" horiz-adv-x="944" 
d="M112 263v719h259v-688q0 -74 22 -107q21 -33 79 -33t84 51t21 176v601h259v-982h-243v97q-103 -117 -238 -118q-243 0 -243 284zM344 1103l120 317h284l-189 -317h-215z" />
    <glyph glyph-name="ucircumflex" unicode="&#xfb;" horiz-adv-x="944" 
d="M112 263v719h259v-688q0 -74 22 -107q21 -33 79 -33t84 51t21 176v601h259v-982h-243v97q-103 -117 -238 -118q-243 0 -243 284zM333 1420h282l120 -317h-167l-94 181l-94 -181h-167z" />
    <glyph glyph-name="udieresis" unicode="&#xfc;" horiz-adv-x="944" 
d="M112 263v719h259v-688q0 -74 22 -107q21 -33 79 -33t84 51t21 176v601h259v-982h-243v97q-103 -117 -238 -118q-243 0 -243 284zM524 1407h232v-230h-232v230zM192 1407h232v-230h-232v230z" />
    <glyph glyph-name="yacute" unicode="&#xfd;" horiz-adv-x="906" 
d="M509 -365h-247l86 357l-294 990h259l146 -605l151 605h250zM327 1103l120 317h284l-189 -317h-215z" />
    <glyph glyph-name="thorn" unicode="&#xfe;" horiz-adv-x="906" 
d="M458 155q62 0 83 45.5t21 187.5v246q0 108 -23 150.5t-79 42.5t-81 -52t-25 -170v-228q2 -135 22 -178.5t82 -43.5zM581 1003q235 0 235 -308v-348q0 -202 -55 -284.5t-191 -82.5t-216 84v-452h-259v1799h259v-513l4 5q74 100 223 100z" />
    <glyph glyph-name="ydieresis" unicode="&#xff;" horiz-adv-x="906" 
d="M509 -365h-247l86 357l-294 990h259l146 -605l151 605h250zM507 1407h232v-230h-232v230zM175 1407h232v-230h-232v230z" />
    <glyph glyph-name="Amacron" unicode="&#x100;" horiz-adv-x="1133" 
d="M402 1411h339l319 -1411h-279l-55 305h-308l-57 -305h-279zM242 1714h658v-177h-658v177z" />
    <glyph glyph-name="amacron" unicode="&#x101;" horiz-adv-x="906" 
d="M428 132q112 0 112 197v135h-34q-92 0 -130 -39t-38 -135v-60q0 -46 24 -72t66 -26zM458 848q-102 0 -96 -120v-29h-259v29q-3 143 81 209t264 66q180 1 266 -73l85 -930h-251v81l-11 -13q-73 -89 -203 -89t-192 69q-64 69 -64 191v60q0 175 86 247t297 71h79v120
q0 111 -82 111zM131 1361h658v-183h-658v183z" />
    <glyph glyph-name="Abreve" unicode="&#x102;" horiz-adv-x="1133" 
d="M402 1411h339l319 -1411h-279l-55 305h-308l-57 -305h-279zM572 1521q-140 0 -214 72q-73 72 -73 210h190q-1 -81 21 -114t75 -33t75 33t22 114h190q0 -138 -73 -210t-213 -72z" />
    <glyph glyph-name="abreve" unicode="&#x103;" horiz-adv-x="906" 
d="M428 132q112 0 112 197v135h-34q-92 0 -130 -39t-38 -135v-60q0 -46 24 -72t66 -26zM458 848q-102 0 -96 -120v-29h-259v29q-3 143 81 209t264 66q180 1 266 -73l85 -930h-251v81l-11 -13q-73 -89 -203 -89t-192 69q-64 69 -64 191v60q0 175 86 247t297 71h79v120
q0 111 -82 111zM460 1097q-140 -1 -208 77t-67 240h177q0 -102 22 -144t76 -41q54 -1 76 41t22 144h177q1 -162 -67 -240t-208 -77z" />
    <glyph glyph-name="Aogonek" unicode="&#x104;" horiz-adv-x="1133" 
d="M663 -190q0 113 117 194l-54 301h-308l-57 -305h-279l320 1411h339l319 -1411h-139h-1q-86 -45 -86 -138q0 -37 28 -60t74 -23t50 1v-148q-40 -4 -87 -4q-111 0 -174 48q-62 48 -62 134z" />
    <glyph glyph-name="aogonek" unicode="&#x105;" horiz-adv-x="906" 
d="M428 132q112 0 112 197v135h-34q-92 0 -130 -39t-38 -135v-60q0 -46 24 -72t66 -26zM482 -152q0 84 96 152h-30v81l-11 -13q-73 -89 -203 -89t-192 69q-64 69 -64 191v60q0 175 86 247t297 71h79v120q0 111 -82 111q-102 0 -96 -120v-29h-259v29q-3 143 81 209t264 66
q180 1 266 -73l85 -930h-88q-78 -58 -78 -117q0 -31 28 -49t71 -19q43 0 52 1v-142q-32 -6 -82 -6q-99 0 -160 48q-60 48 -60 132z" />
    <glyph glyph-name="Cacute" unicode="&#x106;" horiz-adv-x="1057" 
d="M559 191q134 0 130 247v42h287v-42q4 -248 -92 -354t-332 -105t-336 115t-99 393v435q-1 282 99 396t343 114q410 0 408 -404v-69h-287v42q4 219 -121 219q-81 0 -117 -62t-36 -204v-435q0 -184 34 -256t119 -72zM464 1521l176 269h297l-263 -269h-210z" />
    <glyph glyph-name="cacute" unicode="&#x107;" horiz-adv-x="831" 
d="M338 649v-276q0 -135 16 -178t65 -43t68 36t15 122v58h257v-58q6 -331 -339 -331q-180 0 -260 88t-79 286v276q-1 198 79 286t260 88t259 -81q80 -81 80 -253v-41h-257v29q8 173 -79 173q-49 0 -67 -39t-18 -142zM290 1103l120 317h284l-189 -317h-215z" />
    <glyph glyph-name="Ccaron" unicode="&#x10c;" horiz-adv-x="1057" 
d="M559 191q134 0 130 247v42h287v-42q4 -248 -92 -354t-332 -105t-336 115t-99 393v435q-1 282 99 396t343 114q410 0 408 -404v-69h-287v42q4 219 -121 219q-81 0 -117 -62t-36 -204v-435q0 -184 34 -256t119 -72zM706 1521h-294l-191 268h219l116 -170l122 170h219z" />
    <glyph glyph-name="ccaron" unicode="&#x10d;" horiz-adv-x="831" 
d="M338 649v-276q0 -135 16 -178t65 -43t68 36t15 122v58h257v-58q6 -331 -339 -331q-180 0 -260 88t-79 286v276q-1 198 79 286t260 88t259 -81q80 -81 80 -253v-41h-257v29q8 173 -79 173q-49 0 -67 -39t-18 -142zM561 1104h-282l-120 317h167l94 -181l94 181h167z" />
    <glyph glyph-name="Dcaron" unicode="&#x10e;" horiz-adv-x="1133" 
d="M430 212h76q136 0 183 56t47 214v466q0 143 -52 197t-193 54h-61v-987zM141 0v1411h380q272 1 388 -107t116 -360v-395q1 -317 -101 -433t-387 -116h-396zM713 1521h-294l-191 268h219l116 -170l122 170h219z" />
    <glyph glyph-name="dcaron" unicode="&#x10f;" horiz-adv-x="1133" 
d="M458 827q-60 -1 -81 -41t-21 -152v-287q0 -104 23 -148t81 -44q58 1 78 53t20 216v134q0 164 -20 216t-80 53zM96 675q0 328 250 328q109 1 212 -93v501h259v-1411h-242v107l-11 -17q-73 -111 -212 -111q-140 0 -198 82t-58 266v348zM902 1067l42 344h189l-97 -344h-134z
" />
    <glyph glyph-name="Dcroat" unicode="&#x110;" horiz-adv-x="1133" 
d="M445 1199v-388h131v-210h-131v-389h72q130 0 175 55.5t45 214.5v466q0 143 -50.5 197t-183.5 54h-58zM156 0v601h-125v210h125v600h376q267 0 380.5 -107.5t113.5 -359.5v-395q1 -318 -100 -433.5t-379 -115.5h-391z" />
    <glyph glyph-name="dcroat" unicode="&#x111;" horiz-adv-x="906" 
d="M458 827q-60 0 -81 -40.5t-21 -152.5v-287q0 -104 23 -148t81 -44t78 52.5t20 216.5v134q0 164 -20 216.5t-80 52.5zM96 675q0 328 250 328q109 1 212 -93v171h-172v169h172v161h259v-161h102v-169h-102v-1081h-242v107l-11 -17q-73 -111 -212 -111t-197.5 82t-58.5 266
v348z" />
    <glyph glyph-name="Emacron" unicode="&#x112;" horiz-adv-x="944" 
d="M138 0v1411h705v-210h-416v-373h402v-210h-402v-408h424v-210h-713zM162 1714h658v-177h-658v177z" />
    <glyph glyph-name="emacron" unicode="&#x113;" horiz-adv-x="868" 
d="M545 595v55q0 114 -22 156t-83 42t-83 -50t-22 -189v-14h210zM418 -21q-180 0 -260 90t-80 294v194q0 245 82 345t286 101q204 0 280 -87t76 -328v-143h-467v-30q1 -171 21 -226t82 -55t87 40q24 40 20 131v29h257v-29q6 -326 -384 -326zM125 1361h658v-183h-658v183z
" />
    <glyph glyph-name="Edotaccent" unicode="&#x116;" horiz-adv-x="944" 
d="M138 0v1411h705v-210h-416v-373h402v-210h-402v-408h424v-210h-713zM364 1773h254v-237h-254v237z" />
    <glyph glyph-name="edotaccent" unicode="&#x117;" horiz-adv-x="868" 
d="M545 595v55q0 114 -22 156t-83 42t-83 -50t-22 -189v-14h210zM418 -21q-180 0 -260 90t-80 294v194q0 245 82 345t286 101q204 0 280 -87t76 -328v-143h-467v-30q1 -171 21 -226t82 -55t87 40q24 40 20 131v29h257v-29q6 -326 -384 -326zM325 1418h258v-240h-258v240z
" />
    <glyph glyph-name="Eogonek" unicode="&#x118;" horiz-adv-x="944" 
d="M727 -372q-236 0 -236 194q0 98 111 178h-464v1411h705v-210h-416v-373h402v-210h-402v-408h424v-210h-103q-86 -45 -86 -138q0 -37 28 -60t74 -23t50 1v-148q-40 -4 -87 -4z" />
    <glyph glyph-name="eogonek" unicode="&#x119;" horiz-adv-x="868" 
d="M545 595v55q0 114 -22 156t-83 42t-83 -50t-22 -189v-14h210zM560 -332q-99 0 -160 48q-60 48 -60 125t69 138q-173 2 -252 91t-79 293v194q0 245 82 345t286 101q204 0 280 -87t76 -328v-143h-467v-30q1 -171 21 -226t82 -55t87 40q24 40 20 131v29h257v-29
q5 -260 -243 -313q-68 -54 -68 -109q0 -31 28 -49t71 -19q43 0 52 1v-142q-32 -6 -82 -6z" />
    <glyph glyph-name="Ecaron" unicode="&#x11a;" horiz-adv-x="944" 
d="M138 0v1411h705v-210h-416v-373h402v-210h-402v-408h424v-210h-713zM638 1521h-294l-191 268h219l116 -170l122 170h219z" />
    <glyph glyph-name="ecaron" unicode="&#x11b;" horiz-adv-x="868" 
d="M545 595v55q0 114 -22 156t-83 42t-83 -50t-22 -189v-14h210zM418 -21q-180 0 -260 90t-80 294v194q0 245 82 345t286 101q204 0 280 -87t76 -328v-143h-467v-30q1 -171 21 -226t82 -55t87 40q24 40 20 131v29h257v-29q6 -326 -384 -326zM595 1104h-282l-120 317h167
l94 -181l94 181h167z" />
    <glyph glyph-name="Gbreve" unicode="&#x11e;" horiz-adv-x="1133" 
d="M575 1220q-89 0 -124 -70t-35 -247v-334q0 -231 34 -305t137 -73q41 0 132 22v325h-133v210h422v-713q-229 -55 -459 -55t-325 126q-96 126 -97 447v334q1 289 110 417t355 128q430 0 416 -416v-42h-287v42q4 204 -146 204zM592 1521q-140 0 -213 72t-73 210h190
q0 -81 22 -114t74 -33q53 0 75 33t22 114h190q0 -138 -73 -210q-74 -72 -214 -72z" />
    <glyph glyph-name="gbreve" unicode="&#x11f;" horiz-adv-x="906" 
d="M449 827q-94 0 -94 -171v-270q1 -128 19 -169t76 -41t76 42t18 173v221q0 131 -18 173t-77 42zM544 -74v185l-10 -13q-74 -98 -204 -98t-183 80t-53 276v270q0 377 245 377q127 0 221 -118v97h255v-1056q0 -315 -361 -315q-189 0 -272 64t-81 208v29h260v-29
q-6 -123 85 -123q54 0 76 38t22 128zM483 1097q-139 -1 -207 77t-68 240h177q0 -102 22 -144t76 -41q54 -1 76 41t22 144h177q0 -162 -68 -240t-207 -77z" />
    <glyph glyph-name="uni0122" unicode="&#x122;" horiz-adv-x="1133" 
d="M575 1220q-89 0 -124 -70t-35 -247v-334q0 -231 34 -305t137 -73q41 0 132 22v325h-133v210h422v-713q-229 -55 -459 -55t-325 126q-96 126 -97 447v334q1 289 110 417t355 128q430 0 416 -416v-42h-287v42q4 204 -146 204zM301 -428l169 296h188l-104 -296h-253z" />
    <glyph glyph-name="uni0123" unicode="&#x123;" horiz-adv-x="906" 
d="M449 827q-94 0 -94 -171v-270q1 -128 19 -169t76 -41t76 42t18 173v221q0 131 -18 173t-77 42zM544 -74v185l-10 -13q-74 -98 -204 -98t-183 80t-53 276v270q0 377 245 377q127 0 221 -118v97h255v-1056q0 -315 -361 -315q-189 0 -272 64t-81 208v29h260v-29
q-6 -123 85 -123q54 0 76 38t22 128zM695 1406l-97 -303h-257l167 303h187z" />
    <glyph glyph-name="Imacron" unicode="&#x12a;" horiz-adv-x="529" 
d="M130 0v1411h289v-1411h-289zM-55 1714h658v-177h-658v177z" />
    <glyph glyph-name="imacron" unicode="&#x12b;" horiz-adv-x="491" 
d="M120 0v982h259v-982h-259zM-80 1361h658v-183h-658v183z" />
    <glyph glyph-name="Iogonek" unicode="&#x12e;" horiz-adv-x="529" 
d="M361 -372q-236 0 -236 194q0 98 111 178h-109v1411h289v-1411h-34q-86 -45 -86 -138q0 -37 28 -60t74 -23t50 1v-148q-40 -4 -87 -4z" />
    <glyph glyph-name="iogonek" unicode="&#x12f;" horiz-adv-x="491" 
d="M116 1399h260v-234h-260v234zM108 -152q0 84 96 152h-87v982h259v-982h-39q-78 -58 -78 -117q0 -31 28 -49t71 -19q43 0 52 1v-142q-32 -6 -82 -6q-99 0 -160 48q-60 48 -60 132z" />
    <glyph glyph-name="Idotaccent" unicode="&#x130;" horiz-adv-x="529" 
d="M125 0v1411h289v-1411h-289zM142 1773h254v-237h-254v237z" />
    <glyph glyph-name="dotlessi" unicode="&#x131;" horiz-adv-x="491" 
d="M118 0v982h259v-982h-259z" />
    <glyph glyph-name="uni0136" unicode="&#x136;" horiz-adv-x="1095" 
d="M434 0h-289v1411h289v-649l310 649h307l-307 -621l312 -790h-314l-308 762v-762zM325 -428l169 296h188l-104 -296h-253z" />
    <glyph glyph-name="uni0137" unicode="&#x137;" horiz-adv-x="906" 
d="M218 -428l169 296h188l-104 -296h-253zM574 982h278l-209 -430l209 -552h-266l-209 535zM377 1411v-1411h-259v1411h259z" />
    <glyph glyph-name="Lacute" unicode="&#x139;" horiz-adv-x="868" 
d="M150 0v1411h289v-1201h367v-210h-656zM143 1521l176 269h297l-263 -269h-210z" />
    <glyph glyph-name="lacute" unicode="&#x13a;" horiz-adv-x="491" 
d="M142 0v1411h259v-1411h-259zM120 1521l176 269h297l-263 -269h-210z" />
    <glyph glyph-name="uni013B" unicode="&#x13b;" horiz-adv-x="868" 
d="M143 0v1411h289v-1201h367v-210h-656zM208 -428l169 296h188l-104 -296h-253z" />
    <glyph glyph-name="uni013C" unicode="&#x13c;" horiz-adv-x="491" 
d="M120 0v1411h259v-1411h-259zM-14 -428l169 296h188l-104 -296h-253z" />
    <glyph glyph-name="Lcaron" unicode="&#x13d;" horiz-adv-x="868" 
d="M143 0v1411h289v-1201h367v-210h-656zM553 1067l42 344h189l-97 -344h-134z" />
    <glyph glyph-name="lcaron" unicode="&#x13e;" horiz-adv-x="680" 
d="M120 0v1411h259v-1411h-259zM499 1067l42 344h189l-97 -344h-134z" />
    <glyph glyph-name="Lslash" unicode="&#x141;" horiz-adv-x="906" 
d="M166 0v493l-141 -145v289l141 144v630h289v-333l178 182v-289l-178 -182v-579h367v-210h-656z" />
    <glyph glyph-name="lslash" unicode="&#x142;" horiz-adv-x="529" 
d="M139 0v463l-123 -146v290l123 146v658h259v-349l122 145v-290l-122 -145v-772h-259z" />
    <glyph glyph-name="Nacute" unicode="&#x143;" horiz-adv-x="1171" 
d="M379 0h-237v1411h212l457 -1191v1191h237v-1411h-211l-458 1201v-1201zM486 1521l176 269h297l-263 -269h-210z" />
    <glyph glyph-name="nacute" unicode="&#x144;" horiz-adv-x="944" 
d="M615 1003q221 0 221 -259v-744h-259v714q1 60 -21 87t-78 27t-82 -51t-22 -176v-601h-259v982h259v-92q84 113 241 113zM345 1103l120 317h284l-189 -317h-215z" />
    <glyph glyph-name="uni0145" unicode="&#x145;" horiz-adv-x="1171" 
d="M379 0h-237v1411h212l457 -1191v1191h237v-1411h-211l-458 1201v-1201zM332 -428l169 296h188l-104 -296h-253z" />
    <glyph glyph-name="uni0146" unicode="&#x146;" horiz-adv-x="944" 
d="M615 1003q221 0 221 -259v-744h-259v714q1 60 -21 87t-78 27t-82 -51t-22 -176v-601h-259v982h259v-92q84 113 241 113zM212 -428l169 296h188l-104 -296h-253z" />
    <glyph glyph-name="Ncaron" unicode="&#x147;" horiz-adv-x="1171" 
d="M379 0h-237v1411h212l457 -1191v1191h237v-1411h-211l-458 1201v-1201zM770 1521h-294l-191 268h219l116 -170l122 170h219z" />
    <glyph glyph-name="ncaron" unicode="&#x148;" horiz-adv-x="944" 
d="M615 1003q221 0 221 -259v-744h-259v714q1 60 -21 87t-78 27t-82 -51t-22 -176v-601h-259v982h259v-92q84 113 241 113zM616 1104h-282l-120 317h167l94 -181l94 181h167z" />
    <glyph glyph-name="Omacron" unicode="&#x14c;" horiz-adv-x="1133" 
d="M719 1027q-1 193 -151 193t-150 -193v-581q0 -143 33 -199t117 -56t118 56q33 56 33 199v581zM129 1039q-1 393 439 393t440 -393v-581q0 -263 -99 -371t-341 -108t-340 108q-99 108 -99 371v581zM239 1714h658v-177h-658v177z" />
    <glyph glyph-name="omacron" unicode="&#x14d;" horiz-adv-x="906" 
d="M455 134q63 0 83 47t21 193v276q1 110 -23 154t-81 44t-80 -44t-23 -154v-276q0 -146 20 -193t83 -47zM455 -21q-191 0 -275 88t-85 286v276q1 198 85 286t275 88t276 -88t85 -286v-276q0 -198 -85 -286t-276 -88zM126 1361h658v-183h-658v183z" />
    <glyph glyph-name="Ohungarumlaut" unicode="&#x150;" horiz-adv-x="1133" 
d="M719 1027q-1 193 -151 193t-150 -193v-581q0 -143 33 -199t117 -56t118 56q33 56 33 199v581zM129 1039q-1 393 439 393t440 -393v-581q0 -263 -99 -371t-341 -108t-340 108q-99 108 -99 371v581zM683 1521l176 269h297l-263 -269h-210zM281 1521l176 269h297l-263 -269
h-210z" />
    <glyph glyph-name="ohungarumlaut" unicode="&#x151;" horiz-adv-x="906" 
d="M455 134q63 0 83 47t21 193v276q1 110 -23 154t-81 44t-80 -44t-23 -154v-276q0 -146 20 -193t83 -47zM455 -21q-191 0 -275 88t-85 286v276q1 198 85 286t275 88t276 -88t85 -286v-276q0 -198 -85 -286t-276 -88zM566 1097l120 317h284l-189 -317h-215zM203 1097
l120 317h284l-189 -317h-215z" />
    <glyph glyph-name="OE" unicode="&#x152;" horiz-adv-x="1586" 
d="M671 1210q-142 0 -198 -57t-56 -202v-428q0 -178 51.5 -248t165.5 -70t146 12v985q-30 8 -109 8zM128 464v428q1 314 110 422t422 108q109 0 128 -6t129 -5h576v-210h-424v-373h402v-210h-402v-408h424v-210h-576l-305 -7q-257 0 -370.5 110.5t-113.5 360.5z" />
    <glyph glyph-name="oe" unicode="&#x153;" horiz-adv-x="1360" 
d="M1011 595v55q0 115 -20.5 156.5t-76.5 41.5t-76.5 -50t-20.5 -189v-14h194zM561 630q-1 134 -21 176t-84 42t-84 -52.5t-20 -216.5v-133q0 -190 20 -251t84 -61t84.5 51t20.5 210v235zM95 373v235q1 209 75 302t241 93q218 0 282 -163q14 37 32 63q69 100 241 100
t237 -87t65 -328v-143h-451v-30q0 -171 19 -226t77 -55t80 39.5t18 131.5v29h257v-29q6 -326 -325 -326q-152 0 -220 90q-20 28 -34 64q-63 -154 -278 -154q-167 0 -241.5 92.5t-74.5 301.5z" />
    <glyph glyph-name="Racute" unicode="&#x154;" horiz-adv-x="1057" 
d="M412 792h80q112 0 150 42t37 161q1 120 -39 162t-148 42h-80v-407zM682 212v171q2 105 -40 149t-146 44h-84v-576h-289v1411h424q227 0 324 -84t97 -295t-98 -289q-49 -39 -151 -61h16q119 0 179 -78t53 -221q-11 -301 16 -382h-288q-13 43 -13 211zM352 1521l176 269
h297l-263 -269h-210z" />
    <glyph glyph-name="racute" unicode="&#x155;" horiz-adv-x="680" 
d="M119 0v982h247v-127q14 27 30 49q69 88 234 98v-220q-25 5 -56 4q-112 0 -156 -55t-40 -190v-541h-259zM244 1103l120 317h284l-189 -317h-215z" />
    <glyph glyph-name="uni0156" unicode="&#x156;" horiz-adv-x="1057" 
d="M412 792h80q112 0 150 42t37 161q1 120 -39 162t-148 42h-80v-407zM682 212v171q2 105 -40 149t-146 44h-84v-576h-289v1411h424q227 0 324 -84t97 -295t-98 -289q-49 -39 -151 -61h16q119 0 179 -78t53 -221q-11 -301 16 -382h-288q-13 43 -13 211zM290 -428l169 296
h188l-104 -296h-253z" />
    <glyph glyph-name="uni0157" unicode="&#x157;" horiz-adv-x="680" 
d="M65 0v982h247v-127q14 27 30 49q69 88 234 98v-220q-25 5 -56 4q-112 0 -156 -55t-40 -190v-541h-259zM-69 -428l169 296h188l-104 -296h-253z" />
    <glyph glyph-name="Rcaron" unicode="&#x158;" horiz-adv-x="1057" 
d="M412 792h80q112 0 150 42t37 161q1 120 -39 162t-148 42h-80v-407zM682 212v171q2 105 -40 149t-146 44h-84v-576h-289v1411h424q227 0 324 -84t97 -295t-98 -289q-49 -39 -151 -61h16q119 0 179 -78t53 -221q-11 -301 16 -382h-288q-13 43 -13 211zM650 1521h-294
l-191 268h219l116 -170l122 170h219z" />
    <glyph glyph-name="rcaron" unicode="&#x159;" horiz-adv-x="680" 
d="M112 0v982h247v-127q14 27 30 49q69 88 234 98v-220q-25 5 -56 4q-112 0 -156 -55t-40 -190v-541h-259zM508 1104h-282l-120 317h167l94 -181l94 181h167z" />
    <glyph glyph-name="Sacute" unicode="&#x15a;" horiz-adv-x="1095" 
d="M121 1023q0 409 443 409q228 0 319 -92t90 -293v-73h-285v42q2 112 -28 158t-105 46q-148 0 -148 -170q-1 -66 43 -113t153 -98q215 -102 301 -199t86 -238q0 -423 -443 -423q-243 1 -343 95t-100 308v55h285v-42q-4 -204 158 -204q157 0 157 185q0 69 -48 119t-165 106
q-206 97 -288 191t-82 231zM413 1521l176 269h297l-263 -269h-210z" />
    <glyph glyph-name="sacute" unicode="&#x15b;" horiz-adv-x="831" 
d="M71 720q0 283 343 283q180 0 262 -68t81 -212v-36h-261v29q6 132 -82 132t-87 -97q0 -45 30 -77t104 -63q187 -81 249 -146t61 -182q0 -304 -353 -304q-190 0 -272 73t-82 232v40h258v-29q-4 -89 18 -125t78 -36q102 0 102 117q0 53 -32 89t-113 71q-183 79 -243 141
t-61 168zM284 1103l120 317h284l-189 -317h-215z" />
    <glyph glyph-name="Scedilla" unicode="&#x15e;" horiz-adv-x="1095" 
d="M121 1023q0 409 443 409q228 0 319 -92t90 -293v-73h-285v42q2 112 -28 158t-105 46q-148 0 -148 -170q-1 -66 43 -113t153 -98q215 -102 301 -199t86 -238q0 -423 -443 -423q-243 1 -343 95t-100 308v55h285v-42q-4 -204 158 -204q157 0 157 185q0 69 -48 119t-165 106
q-206 97 -288 191t-82 231zM284 -428l169 296h188l-104 -296h-253z" />
    <glyph glyph-name="scedilla" unicode="&#x15f;" horiz-adv-x="831" 
d="M71 720q0 283 343 283q180 0 262 -68t81 -212v-36h-261v29q6 132 -82 132t-87 -97q0 -45 30 -77t104 -63q187 -81 249 -146t61 -182q0 -304 -353 -304q-190 0 -272 73t-82 232v40h258v-29q-4 -89 18 -125t78 -36q102 0 102 117q0 53 -32 89t-113 71q-183 79 -243 141
t-61 168zM196 -405l169 299h184l-101 -299h-252z" />
    <glyph glyph-name="Scaron" unicode="&#x160;" horiz-adv-x="1095" 
d="M121 1023q0 409 443 409q228 0 319 -92t90 -293v-73h-285v42q2 112 -28 158t-105 46q-148 0 -148 -170q-1 -66 43 -113t153 -98q215 -102 301 -199t86 -238q0 -423 -443 -423q-243 1 -343 95t-100 308v55h285v-42q-4 -204 158 -204q157 0 157 185q0 69 -48 119t-165 106
q-206 97 -288 191t-82 231zM711 1521h-294l-191 268h219l116 -170l122 170h219z" />
    <glyph glyph-name="scaron" unicode="&#x161;" horiz-adv-x="831" 
d="M71 720q0 283 343 283q180 0 262 -68t81 -212v-36h-261v29q6 132 -82 132t-87 -97q0 -45 30 -77t104 -63q187 -81 249 -146t61 -182q0 -304 -353 -304q-190 0 -272 73t-82 232v40h258v-29q-4 -89 18 -125t78 -36q102 0 102 117q0 53 -32 89t-113 71q-183 79 -243 141
t-61 168zM555 1104h-282l-120 317h167l94 -181l94 181h167z" />
    <glyph glyph-name="uni0162" unicode="&#x162;" horiz-adv-x="1020" 
d="M367 0v1201h-304v210h896v-210h-303v-1201h-289zM248 -428l169 296h188l-104 -296h-253z" />
    <glyph glyph-name="uni0163" unicode="&#x163;" horiz-adv-x="642" 
d="M428 -21q-247 0 -247 291v538h-138v174h138v157l259 107v-264h161v-174h-161v-538q0 -71 15 -93q22 -33 146 -16v-170q-76 -12 -173 -12zM156 -405l169 299h184l-101 -299h-252z" />
    <glyph glyph-name="Tcaron" unicode="&#x164;" horiz-adv-x="1020" 
d="M367 0v1201h-304v210h896v-210h-303v-1201h-289zM658 1521h-294l-191 268h219l116 -170l122 170h219z" />
    <glyph glyph-name="tcaron" unicode="&#x165;" horiz-adv-x="755" 
d="M428 -21q-247 0 -247 291v538h-138v174h138v157l259 107v-264h161v-174h-161v-538q0 -71 15 -93q22 -33 146 -16v-170q-76 -12 -173 -12zM538 1064l42 344h189l-97 -344h-134z" />
    <glyph glyph-name="Umacron" unicode="&#x16a;" horiz-adv-x="1133" 
d="M566 -21q-434 0 -434 417v1015h286v-1034q0 -105 32 -147t116 -41q84 -1 116 41t32 147v1034h286v-1015q0 -417 -434 -417zM237 1714h658v-177h-658v177z" />
    <glyph glyph-name="umacron" unicode="&#x16b;" horiz-adv-x="944" 
d="M112 263v719h259v-688q0 -74 22 -107q21 -33 79 -33t84 51t21 176v601h259v-982h-243v97q-103 -117 -238 -118q-243 0 -243 284zM145 1361h658v-183h-658v183z" />
    <glyph glyph-name="Uring" unicode="&#x16e;" horiz-adv-x="1133" 
d="M566 -21q-434 0 -434 417v1015h286v-1034q0 -105 32 -147t116 -41q84 -1 116 41t32 147v1034h286v-1015q0 -417 -434 -417zM566 1639q40 -1 68 27t27 67q1 39 -27 67t-68 27q-40 1 -68 -27t-27 -67q-1 -39 27 -67t68 -27zM566 1524q-88 0 -148 60t-61 149q1 89 61 149
t148 60t148 -60t61 -149q-1 -89 -61 -149t-148 -60z" />
    <glyph glyph-name="uring" unicode="&#x16f;" horiz-adv-x="944" 
d="M112 263v719h259v-688q0 -74 22 -107q21 -33 79 -33t84 51t21 176v601h259v-982h-243v97q-103 -117 -238 -118q-243 0 -243 284zM474 1221q37 -1 63 25t26 63t-26 63t-63 25q-37 1 -63 -25t-26 -63t26 -63t63 -25zM474 1106q-85 0 -144 59t-59 144t59 144t144 59t144 -59
t59 -144t-59 -144t-144 -59z" />
    <glyph glyph-name="Uhungarumlaut" unicode="&#x170;" horiz-adv-x="1133" 
d="M566 -21q-434 0 -434 417v1015h286v-1034q0 -105 32 -147t116 -41q84 -1 116 41t32 147v1034h286v-1015q0 -417 -434 -417zM681 1521l176 269h297l-263 -269h-210zM279 1521l176 269h297l-263 -269h-210z" />
    <glyph glyph-name="uhungarumlaut" unicode="&#x171;" horiz-adv-x="944" 
d="M112 263v719h259v-688q0 -74 22 -107q21 -33 79 -33t84 51t21 176v601h259v-982h-243v97q-103 -117 -238 -118q-243 0 -243 284zM585 1097l120 317h284l-189 -317h-215zM222 1097l120 317h284l-189 -317h-215z" />
    <glyph glyph-name="Uogonek" unicode="&#x172;" horiz-adv-x="1133" 
d="M132 396v1015h286v-1034q0 -105 32 -147t116 -41q84 -1 116 41t32 147v1034h286v-1015q0 -325 -263 -396q-85 -45 -85 -138q0 -37 28 -60t74 -23t50 1v-148q-40 -4 -87 -4q-111 0 -174 48q-62 48 -62 138t85 165q-434 0 -434 417z" />
    <glyph glyph-name="uogonek" unicode="&#x173;" horiz-adv-x="944" 
d="M112 263v719h259v-688q0 -74 22 -107q21 -33 79 -33t84 51t21 176v601h259v-982h-88q-78 -58 -78 -117q0 -31 28 -49t71 -19q43 0 52 1v-142q-32 -6 -82 -6q-99 0 -160 48q-60 48 -60 132t96 152h-22v97q-103 -117 -238 -118q-243 0 -243 284z" />
    <glyph glyph-name="Ydieresis" unicode="&#x178;" horiz-adv-x="1057" 
d="M672 0h-289v527l-330 884h309l166 -562l183 562h289l-328 -873v-538zM606 1753h228v-227h-228v227zM219 1753h228v-227h-228v227z" />
    <glyph glyph-name="Zacute" unicode="&#x179;" horiz-adv-x="944" 
d="M90 1201v210h786v-271l-528 -930h523v-210h-803v271l528 930h-506zM332 1521l176 269h297l-263 -269h-210z" />
    <glyph glyph-name="zacute" unicode="&#x17a;" horiz-adv-x="755" 
d="M99 810v172h587v-204l-364 -606h370v-172h-622v227l368 583h-339zM262 1103l120 317h284l-189 -317h-215z" />
    <glyph glyph-name="Zdotaccent" unicode="&#x17b;" horiz-adv-x="944" 
d="M90 1201v210h786v-271l-528 -930h523v-210h-803v271l528 930h-506zM356 1773h254v-237h-254v237z" />
    <glyph glyph-name="zdotaccent" unicode="&#x17c;" horiz-adv-x="755" 
d="M99 810v172h587v-204l-364 -606h370v-172h-622v227l368 583h-339zM263 1418h258v-240h-258v240z" />
    <glyph glyph-name="Zcaron" unicode="&#x17d;" horiz-adv-x="944" 
d="M90 1201v210h786v-271l-528 -930h523v-210h-803v271l528 930h-506zM630 1521h-294l-191 268h219l116 -170l122 170h219z" />
    <glyph glyph-name="zcaron" unicode="&#x17e;" horiz-adv-x="755" 
d="M99 810v172h587v-204l-364 -606h370v-172h-622v227l368 583h-339zM533 1104h-282l-120 317h167l94 -181l94 181h167z" />
    <glyph glyph-name="florin" unicode="&#x192;" 
d="M781 1424q76 0 141 -16l-48 -162q-150 26 -188 -105l-46 -159h149l-51 -174h-149l-234 -808h-271l234 808h-138l51 174h138l46 159q45 156 127.5 219.5t238.5 63.5z" />
    <glyph glyph-name="circumflex" unicode="&#x2c6;" 
d="M359 1420h282l120 -317h-167l-94 181l-94 -181h-167z" />
    <glyph glyph-name="caron" unicode="&#x2c7;" 
d="M641 1104h-282l-120 317h167l94 -181l94 181h167z" />
    <glyph glyph-name="uni02C9" unicode="&#x2c9;" 
d="M176 1361h658v-183h-658v183z" />
    <glyph glyph-name="breve" unicode="&#x2d8;" 
d="M496 1097q-140 0 -207.5 77.5t-67.5 239.5h177q0 -102 22 -143.5t76 -41.5t76 41.5t22 143.5h177q0 -162 -67.5 -239.5t-207.5 -77.5z" />
    <glyph glyph-name="dotaccent" unicode="&#x2d9;" 
d="M364 1418h258v-240h-258v240z" />
    <glyph glyph-name="ring" unicode="&#x2da;" 
d="M489 1221q37 0 63 25.5t26 62.5t-26 62.5t-63 25.5t-63 -25.5t-26 -62.5t26 -62.5t63 -25.5zM489 1106q-85 0 -144 59t-59 144t59 144t144 59t144 -59t59 -144t-59 -144t-144 -59z" />
    <glyph glyph-name="ogonek" unicode="&#x2db;" 
d="M758 -332q-99 0 -160 48q-60 48 -60 113q0 124 134 194h129q-112 -71 -112 -140q0 -31 28 -49.5t71 -18.5t52 1v-142q-32 -6 -82 -6z" />
    <glyph glyph-name="tilde" unicode="&#x2dc;" 
d="M604 1310q13 0 20 24.5t5 60.5h153q2 -164 -25.5 -223.5t-106.5 -59.5q-39 0 -173 74q-21 12 -39 12q-38 0 -33 -86h-153q-5 156 24 219.5t93 63.5t188 -73q18 -12 47 -12z" />
    <glyph glyph-name="hungarumlaut" unicode="&#x2dd;" 
d="M584 1097l120 317h284l-189 -317h-215zM221 1097l120 317h284l-189 -317h-215z" />
    <glyph glyph-name="pi" unicode="&#x3c0;" horiz-adv-x="1246" 
d="M669 206q0 180 101 599h-148l-116 -652q-18 -105 -45 -141.5t-89 -36.5t-73 45t28 165l211 620h-94q-75 0 -130.5 -31.5t-140.5 -121.5l-61 40q91 160 171.5 213.5t229.5 53.5l338 1q236 0 337 9l-30 -164h-301q-61 -325 14 -660q22 -99 7 -134.5t-78 -35.5
q-131 0 -131 231z" />
    <glyph glyph-name="endash" unicode="&#x2013;" 
d="M79 581h834v-171h-834v171z" />
    <glyph glyph-name="emdash" unicode="&#x2014;" horiz-adv-x="1360" 
d="M94 581h1174v-171h-1174v171z" />
    <glyph glyph-name="quoteleft" unicode="&#x2018;" horiz-adv-x="453" 
d="M384 1411l-56 -458h-255l133 458h178z" />
    <glyph glyph-name="quoteright" unicode="&#x2019;" horiz-adv-x="453" 
d="M88 953l56 458h255l-133 -458h-178z" />
    <glyph glyph-name="quotesinglbase" unicode="&#x201a;" horiz-adv-x="453" 
d="M88 -189l56 458h255l-133 -458h-178z" />
    <glyph glyph-name="quotedblleft" unicode="&#x201c;" horiz-adv-x="793" 
d="M715 1411l-56 -458h-255l133 458h178zM380 1411l-56 -458h-255l133 458h178z" />
    <glyph glyph-name="quotedblright" unicode="&#x201d;" horiz-adv-x="793" 
d="M419 953l56 458h255l-133 -458h-178zM84 953l56 458h255l-133 -458h-178z" />
    <glyph glyph-name="quotedblbase" unicode="&#x201e;" horiz-adv-x="793" 
d="M419 -189l56 458h255l-133 -458h-178zM84 -189l56 458h255l-133 -458h-178z" />
    <glyph glyph-name="dagger" unicode="&#x2020;" 
d="M141 1128h245v283h208v-283h245v-197h-245v-931h-208v931h-245v197z" />
    <glyph glyph-name="daggerdbl" unicode="&#x2021;" 
d="M142 1130h244v281h210v-281h244v-200h-244v-450h244v-200h-244v-280h-210v280h-244v200h244v450h-244v200z" />
    <glyph glyph-name="bullet" unicode="&#x2022;" horiz-adv-x="1020" 
d="M510 1103q155 0 262.5 -107.5t107.5 -262.5t-107.5 -262.5t-262.5 -107.5t-262.5 107.5t-107.5 262.5t107.5 262.5t262.5 107.5z" />
    <glyph glyph-name="ellipsis" unicode="&#x2026;" horiz-adv-x="1360" 
d="M1014 251h236v-251h-236v251zM563 251h236v-251h-236v251zM113 251h236v-251h-236v251z" />
    <glyph glyph-name="perthousand" unicode="&#x2030;" horiz-adv-x="2039" 
d="M1702 635q-42 0 -56.5 -24.5t-14.5 -91.5v-269q0 -91 13 -119t56 -28t56.5 28t13.5 119v269q0 72 -13 94t-55 22zM1700 -14q-137 0 -186.5 57.5t-49.5 215.5v269q0 121 55 174.5t181 53.5t181.5 -53.5t55.5 -174.5v-269q0 -158 -50 -215.5t-187 -57.5zM1098 635
q-42 0 -56.5 -24.5t-14.5 -91.5v-269q0 -91 13 -119t56 -28t56.5 28t13.5 119v269q0 72 -13 94t-55 22zM1096 -14q-137 0 -186.5 57.5t-49.5 215.5v269q0 121 55 174.5t181 53.5t181.5 -53.5t55.5 -174.5v-269q0 -158 -50 -215.5t-187 -57.5zM320 -70l664 1523h146
l-664 -1523h-146zM354 1316q-42 0 -56.5 -24.5t-14.5 -91.5v-269q0 -91 13 -119t56 -28t56.5 28t13.5 119v269q0 72 -13 94t-55 22zM352 667q-137 0 -186.5 57.5t-49.5 215.5v269q0 121 55 174.5t181 53.5t181.5 -53.5t55.5 -174.5v-269q0 -158 -50 -215.5t-187 -57.5z" />
    <glyph glyph-name="guilsinglleft" unicode="&#x2039;" horiz-adv-x="491" 
d="M448 864l-149 -370l149 -371h-203l-176 371l170 370h209z" />
    <glyph glyph-name="guilsinglright" unicode="&#x203a;" horiz-adv-x="491" 
d="M70 123l149 370l-149 371h203l176 -371l-170 -370h-209z" />
    <glyph glyph-name="fraction" unicode="&#x2044;" horiz-adv-x="227" 
d="M517 1453l-670 -1524h-146l670 1524h146z" />
    <glyph glyph-name="uni2074" unicode="&#x2074;" horiz-adv-x="642" 
d="M330 838h-264v144l191 429h235v-456h100v-117h-100v-161h-162v161z" />
    <glyph glyph-name="Euro" unicode="&#x20ac;" 
d="M545 191q130 0 126 219v42h259v-42q4 -233 -83 -332t-303 -99t-305 111t-93 369h-117l26 186h91v104h-117l26 186h91q2 264 92 377t313 113q372 0 370 -381v-70h-251v42q4 197 -125 197q-70 0 -96 -57t-26 -207v-14h226l-26 -186h-200v-104h185l-26 -186h-158
q2 -147 25 -207t96 -61z" />
    <glyph glyph-name="trademark" unicode="&#x2122;" horiz-adv-x="1246" 
d="M63 1388h393v-89h-152v-518h-89v518h-152v89zM519 781v607h160l112 -486l112 486h160v-607h-89v559l-129 -559h-108l-129 559v-559h-89z" />
    <glyph glyph-name="Omega" unicode="&#x2126;" horiz-adv-x="1246" 
d="M101 952q0 209 149.5 334.5t397.5 127.5t404 -127t156 -328q0 -168 -141 -399q-81 -133 -199 -345h79q75 -1 112 42.5t64 164.5l73 -12l-74 -410h-412q127 352 167 479q88 285 88 460t-86.5 279.5t-224.5 108.5q-138 -4 -224 -107t-86 -265q0 -78 39.5 -284t215.5 -671
h-413l-74 410l74 12q33 -138 61.5 -171t114.5 -36h79q-81 154 -172 303q-168 271 -168 434z" />
    <glyph glyph-name="partialdiff" unicode="&#x2202;" horiz-adv-x="1020" 
d="M683 654q0 246 -156 247q-107 0 -181.5 -167.5t-74.5 -409.5q0 -114 44 -193t108 -79q108 0 184 178t76 424zM545 1434q393 0 391 -620q0 -372 -145.5 -609t-372.5 -237q-148 0 -242.5 117t-94.5 300q0 234 139.5 416.5t317.5 182.5q92 0 201 -66q21 190 -16.5 302
t-122.5 112q-28 0 -60.5 -29t-56.5 -81t-44.5 -71.5t-70.5 -19.5t-76 48.5t4 108.5t102.5 103t146.5 43z" />
    <glyph glyph-name="Delta" unicode="&#x2206;" horiz-adv-x="1360" 
d="M667 1077l-446 -883h799zM740 1391l582 -1391h-1285z" />
    <glyph glyph-name="product" unicode="&#x220f;" horiz-adv-x="2039" 
d="M197 -315v65q151 17 197.5 88.5t46.5 289.5v901q3 217 -43.5 288.5t-200.5 88.5v65h1645v-65q-151 -17 -197.5 -88.5t-46.5 -288.5v-901q0 -218 46.5 -289.5t197.5 -88.5v-65h-704v65q157 17 202 87t42 291v1262h-725v-1262q0 -218 46.5 -289.5t197.5 -88.5v-65h-704z
" />
    <glyph glyph-name="summation" unicode="&#x2211;" horiz-adv-x="2039" 
d="M1110 1389h-403l370 -740l-451 -756h524q138 0 219 51t149 180l22 41l70 -21l-117 -459h-1077l491 838l-482 948h1119l46 -366l-70 -14l-17 39q-54 142 -142.5 200.5t-250.5 58.5z" />
    <glyph glyph-name="minus" unicode="&#x2212;" horiz-adv-x="1360" 
d="M215 597h926v-150h-926v150z" />
    <glyph glyph-name="uni2215" unicode="&#x2215;" horiz-adv-x="227" 
d="M517 1453l-670 -1524h-146l670 1524h146z" />
    <glyph glyph-name="uni2219" unicode="&#x2219;" horiz-adv-x="453" 
d="M103 806h260v-259h-260v259z" />
    <glyph glyph-name="radical" unicode="&#x221a;" horiz-adv-x="1473" 
d="M1722 1529v-86h-281l-553 -1817h-74l-570 821l-145 -105l-43 96l298 194l506 -750l480 1647h382z" />
    <glyph glyph-name="infinity" unicode="&#x221e;" horiz-adv-x="2039" 
d="M1643 569q0 97 -59.5 156.5t-150.5 59.5t-153 -50.5t-122 -168.5q41 -100 111.5 -154t164.5 -54t151.5 57t57.5 154zM394 569q0 -109 69 -183t173 -74t189 73t160 232q-63 113 -138 163.5t-185 50.5t-189 -76.5t-79 -185.5zM1754 573q0 -164 -97 -271t-243 -107
q-105 0 -189 56.5t-135 161.5q-106 -156 -186.5 -210t-206.5 -54q-174 0 -294 121.5t-120 299.5t116.5 301t285.5 123q122 0 210.5 -60.5t175.5 -202.5q147 217 335 217q153 0 250.5 -105.5t97.5 -269.5z" />
    <glyph glyph-name="integral" unicode="&#x222b;" horiz-adv-x="2039" 
d="M1187 1321q-84 0 -84 77q0 10 16 72q2 8 -5.5 14t-20.5 6q-77 0 -80 -131t58 -453t75 -638t-14 -464t-79 -208t-127 -60t-125 42t-49 94t28 82t64 30t61 -25.5t25 -61.5l-9 -60q-1 -9 6 -15.5t19 -6.5q52 -1 69 87t-13 250q-80 427 -110 817q-63 800 231 800
q66 0 112 -42t46 -102q0 -104 -94 -104z" />
    <glyph glyph-name="approxequal" unicode="&#x2248;" horiz-adv-x="2039" 
d="M742 865q128 0 336 -67t292 -67q85 0 157 35.5t116 86.5l37 -22q-48 -115 -136 -182.5t-178 -67.5t-334 67t-313 67t-147 -35t-127 -86l-31 32q57 100 156.5 169.5t171.5 69.5zM742 514q128 0 336 -67t292 -67q85 0 157 35.5t116 86.5l37 -22q-48 -115 -136 -182.5
t-178 -67.5t-334 67t-313 67t-147 -35t-127 -86l-31 32q57 100 156.5 169.5t171.5 69.5z" />
    <glyph glyph-name="notequal" unicode="&#x2260;" horiz-adv-x="2039" 
d="M407 279v135h437l236 276h-673v135h788l317 367h164l-315 -367h312v-135h-427l-236 -276h663v-135h-779l-318 -372h-166l318 372h-321z" />
    <glyph glyph-name="lessequal" unicode="&#x2264;" horiz-adv-x="2039" 
d="M417 135h1266v-135h-1266v135zM1683 1235v-135l-1063 -410l1063 -309v-135l-1266 377v135z" />
    <glyph glyph-name="greaterequal" unicode="&#x2265;" horiz-adv-x="2039" 
d="M417 135h1266v-135h-1266v135zM417 1235l1266 -477v-135l-1266 -377v135l1063 309l-1063 410v135z" />
    <glyph glyph-name="lozenge" unicode="&#x25ca;" horiz-adv-x="1171" 
d="M585 1324l-349 -613l349 -615l349 615zM530 1423h110l404 -712l-404 -711h-110l-404 711z" />
    <glyph glyph-name="uniEFED" unicode="&#xefed;" 
d="M364 1773h254v-237h-254v237z" />
    <glyph glyph-name="uniEFEE" unicode="&#xefee;" 
d="M504 1521q-140 0 -213.5 72t-73.5 210h190q0 -81 21.5 -114t74.5 -33t75 33t22 114h190q0 -138 -73 -210t-213 -72z" />
    <glyph glyph-name="uniEFEF" unicode="&#xefef;" 
d="M169 1714h658v-177h-658v177z" />
    <glyph glyph-name="uniEFF0" unicode="&#xeff0;" 
d="M573 1521l176 269h297l-263 -269h-210zM171 1521l176 269h297l-263 -269h-210z" />
    <glyph glyph-name="uniEFF1" unicode="&#xeff1;" 
d="M813 -372q-111 0 -174 48q-62 48 -62 136t77 160t203 100l11 -58q-56 -18 -88 -58.5t-32 -85.5t28 -68t74 -23t50 1v-148q-40 -4 -87 -4z" />
    <glyph glyph-name="uniEFF2" unicode="&#xeff2;" 
d="M310 -428l169 296h188l-104 -296h-253z" />
    <glyph glyph-name="uniEFF3" unicode="&#xeff3;" 
d="M512 1639q40 0 67.5 27.5t27.5 66.5t-27.5 66.5t-67.5 27.5t-67.5 -27.5t-27.5 -66.5t27.5 -66.5t67.5 -27.5zM512 1524q-88 0 -148.5 60.5t-60.5 148.5t60.5 148.5t148.5 60.5t148.5 -60.5t60.5 -148.5t-60.5 -148.5t-148.5 -60.5z" />
    <glyph glyph-name="uniEFF4" unicode="&#xeff4;" 
d="M644 1521h-294l-191 268h219l116 -170l122 170h219z" />
    <glyph glyph-name="uniEFF5" unicode="&#xeff5;" 
d="M665 1800h149q0 -141 -27 -192t-102 -51q-75 -1 -178 37t-121 38t-32.5 -21.5t-14.5 -53.5h-149q-2 134 28 188.5t105 54.5t176 -38t120 -38t32.5 22t13.5 54z" />
    <glyph glyph-name="uniEFF6" unicode="&#xeff6;" 
d="M568 1753h228v-227h-228v227zM181 1753h228v-227h-228v227z" />
    <glyph glyph-name="uniEFF7" unicode="&#xeff7;" 
d="M350 1789h294l191 -268h-219l-116 170l-122 -170h-219z" />
    <glyph glyph-name="uniEFF8" unicode="&#xeff8;" 
d="M459 1521l-257 269h303l169 -269h-215z" />
    <glyph glyph-name="uniEFF9" unicode="&#xeff9;" 
d="M330 1521l176 269h297l-263 -269h-210z" />
    <glyph glyph-name="uniF001" unicode="&#xf001;" horiz-adv-x="1095" 
d="M719 1399h260v-234h-260v234zM720 0v982h259v-982h-259zM444 808v-808h-259v808h-137v174h137v159q0 144 66 213.5t203 69.5q73 0 137 -8v-169l-37 1q-60 0 -85 -24t-25 -83v-159h147v-174h-147z" />
    <glyph glyph-name="uniF002" unicode="&#xf002;" horiz-adv-x="1095" 
d="M721 0v1411h259v-1411h-259zM445 808v-808h-259v808h-137v174h137v159q0 144 66 213.5t203 69.5q73 0 137 -8v-169l-37 1q-60 0 -85 -24t-25 -83v-159h147v-174h-147z" />
    <glyph glyph-name="uniFB01" unicode="&#xfb01;" horiz-adv-x="1095" 
d="M719 1399h260v-234h-260v234zM720 0v982h259v-982h-259zM444 808v-808h-259v808h-137v174h137v159q0 144 66 213.5t203 69.5q73 0 137 -8v-169l-37 1q-60 0 -85 -24t-25 -83v-159h147v-174h-147z" />
    <glyph glyph-name="glyph106" horiz-adv-x="0" 
d="M412 1051q0 173 -120 293t-293 120t-292.5 -120t-119.5 -293t119.5 -292.5t292.5 -119.5t293 119.5t120 292.5zM0 1529q200 0 338.5 -138.5t138.5 -338.5t-138.5 -339t-338.5 -139t-339 139t-139 339t139 338.5t339 138.5z" />
    <glyph glyph-name="glyph107" horiz-adv-x="0" 
d="M19 786q-110 0 -186.5 79t-76.5 195t75.5 195.5t184.5 79.5q58 0 114.5 -22t79.5 -54l-58 -62q-19 26 -58.5 44.5t-77.5 18.5q-78 0 -131.5 -58t-53.5 -142t54.5 -141.5t133.5 -57.5q37 0 77 19.5t61 47.5l58 -62q-24 -34 -81 -57t-115 -23z" />
    <glyph glyph-name="glyph113" horiz-adv-x="0" 
d="M412 1046q0 173 -120 293t-293 120t-292.5 -120t-119.5 -293t119.5 -292.5t292.5 -119.5t293 119.5t120 292.5zM0 1524q200 0 338.5 -139t138.5 -339t-138.5 -338.5t-338.5 -138.5t-339 138.5t-139 338.5t139 339t339 139z" />
    <glyph glyph-name="glyph114" horiz-adv-x="0" 
d="M99 1166q0 30 -21 51t-51 21h-112v-144h112q30 0 51 21t21 51zM-160 807v506h187q62 0 104.5 -42.5t42.5 -104.5t-43 -105q-20 -20 -46 -31l89 -223h-91l-84 212h-84v-212h-75z" />
    <glyph glyph-name="glyph130" horiz-adv-x="642" 
d="M278 677v581l-36 -39q-33 -32 -99 -55v145q53 19 83 43t59 73h159v-748h-166z" />
    <glyph glyph-name="glyph131" horiz-adv-x="642" 
d="M330 838h-264v144l191 429h235v-456h100v-117h-100v-161h-162v161z" />
    <glyph glyph-name="glyph133" horiz-adv-x="642" 
d="M278 677v581l-36 -39q-33 -32 -99 -55v145q53 19 83 43t59 73h159v-748h-166z" />
    <glyph glyph-name="glyph134" horiz-adv-x="642" 
d="M332 1307q-65 0 -57 -87v-22h-163v22q-22 205 222 205q118 -1 170 -45t52 -145t-67 -197t-212 -244h288v-117h-466v117q154 169 222 274t68 172t-57 67z" />
    <glyph glyph-name="glyph136" horiz-adv-x="642" 
d="M399 888q0 101 -81 101h-55v124h46q47 0 65.5 21t18.5 75v19q0 84 -60 84t-59 -67v-22h-163v22q-3 95 49 137.5t172 42.5t172.5 -42.5t52.5 -148.5t-47 -149q-24 -22 -72 -32q49 -10 76 -32q49 -39 49 -149t-54.5 -159.5t-178.5 -49.5t-177 46t-51 153v22h163v-22
q-2 -86 57 -86q43 0 60 24.5t17 87.5z" />
    <glyph glyph-name="glyph137" horiz-adv-x="642" 
d="M330 838h-264v144l191 429h235v-456h100v-117h-100v-161h-162v161z" />
    <glyph glyph-name="glyph140" horiz-adv-x="0" 
d="M-64 0l-257 269h303l169 -269h-215z" />
    <glyph glyph-name="glyph142" horiz-adv-x="0" 
d="M-151 0l176 269h297l-263 -269h-210z" />
    <glyph glyph-name="glyph144" horiz-adv-x="0" 
d="M-147 268h294l191 -268h-219l-116 170l-122 -170h-219z" />
    <glyph glyph-name="glyph146" horiz-adv-x="0" 
d="M117 203q19 0 32.5 22t13.5 54h149q0 -141 -27 -192t-102 -51t-178 38t-121 37q-18 0 -32.5 -21.5t-14.5 -53.5h-149q-2 134 28 188.5t105 54.5t176 -38t120 -38z" />
    <glyph glyph-name="glyph148" horiz-adv-x="0" 
d="M80 232h228v-227h-228v227zM-307 232h228v-227h-228v227z" />
    <glyph glyph-name="glyph150" horiz-adv-x="0" 
d="M0 118q40 0 67.5 27.5t27.5 66.5t-27.5 66.5t-67.5 27.5t-67.5 -27.5t-27.5 -66.5t27.5 -66.5t67.5 -27.5zM0 3q-88 0 -148.5 60.5t-60.5 148.5t60.5 148.5t148.5 60.5t148.5 -60.5t60.5 -148.5t-60.5 -148.5t-148.5 -60.5z" />
    <glyph glyph-name="glyph153" horiz-adv-x="0" 
d="M-263 -428l169 296h188l-104 -296h-253z" />
    <glyph glyph-name="glyph179" horiz-adv-x="0" 
d="M-89 0l-185 317h296l108 -317h-219z" />
    <glyph glyph-name="glyph181" horiz-adv-x="0" 
d="M-130 0l120 317h284l-189 -317h-215z" />
    <glyph glyph-name="glyph183" horiz-adv-x="0" 
d="M-141 317h282l120 -317h-167l-94 181l-94 -181h-167z" />
    <glyph glyph-name="glyph185" horiz-adv-x="0" 
d="M87 207q13 0 20 24.5t5 60.5h153q2 -164 -25.5 -223.5t-106.5 -59.5q-39 0 -173 74q-21 12 -39 12q-38 0 -33 -86h-153q-5 156 24 219.5t93 63.5t188 -73q18 -12 47 -12z" />
    <glyph glyph-name="glyph187" horiz-adv-x="0" 
d="M50 304h232v-230h-232v230zM-282 304h232v-230h-232v230z" />
    <glyph glyph-name="glyph189" horiz-adv-x="0" 
d="M0 118q37 0 63 25.5t26 62.5t-26 62.5t-63 25.5t-63 -25.5t-26 -62.5t26 -62.5t63 -25.5zM0 3q-85 0 -144 59t-59 144t59 144t144 59t144 -59t59 -144t-59 -144t-144 -59z" />
    <glyph glyph-name="glyph192" horiz-adv-x="0" 
d="M-222 -405l169 299h184l-101 -299h-252z" />
    <glyph glyph-name="glyph219" horiz-adv-x="0" 
d="M-329 193h658v-177h-658v177z" />
    <glyph glyph-name="glyph221" horiz-adv-x="0" 
d="M-329 258h658v-183h-658v183z" />
    <glyph glyph-name="glyph223" horiz-adv-x="0" 
d="M0 0q-140 0 -213 72t-73 210h190q0 -81 21.5 -114t74.5 -33t75 33t22 114h190q0 -138 -73.5 -210t-213.5 -72z" />
    <glyph glyph-name="glyph225" horiz-adv-x="0" 
d="M0 -6q-140 0 -207.5 77.5t-67.5 239.5h177q0 -102 22 -143.5t76 -41.5t76 41.5t22 143.5h177q0 -162 -67.5 -239.5t-207.5 -77.5z" />
    <glyph glyph-name="glyph227" horiz-adv-x="0" 
d="M118 -372q-111 0 -174 48q-62 48 -62 136t77 160t203 100l11 -58q-56 -18 -88 -58.5t-32 -85.5t27.5 -68t73.5 -23t51 1v-148q-40 -4 -87 -4z" />
    <glyph glyph-name="glyph229" horiz-adv-x="0" 
d="M110 -332q-99 0 -160 48q-60 48 -60 113q0 124 134 194h129q-112 -71 -112 -140q0 -31 28 -49.5t71 -18.5t52 1v-142q-32 -6 -82 -6z" />
    <glyph glyph-name="glyph233" horiz-adv-x="0" 
d="M147 0h-294l-191 268h219l116 -170l122 170h219z" />
    <glyph glyph-name="glyph235" horiz-adv-x="0" 
d="M141 1h-282l-120 317h167l94 -181l94 181h167z" />
    <glyph glyph-name="glyph238" horiz-adv-x="0" 
d="M-100 827q-60 0 -81 -40.5t-21 -152.5v-287q0 -104 23 -148t81 -44t78 52.5t20 216.5v134q0 164 -20 216.5t-80 52.5zM-462 675q0 328 250 328q109 1 212 -93v501h259v-1411h-242v107l-11 -17q-73 -111 -212 -111t-197.5 82t-58.5 266v348z" />
    <glyph glyph-name="glyph239" horiz-adv-x="0" 
d="M0 0l42 344h189l-97 -344h-134z" />
    <glyph glyph-name="glyph245" horiz-adv-x="0" 
d="M-127 252h254v-237h-254v237z" />
    <glyph glyph-name="glyph247" horiz-adv-x="0" 
d="M-129 315h258v-240h-258v240z" />
    <glyph glyph-name="glyph255" horiz-adv-x="0" 
d="M-263 -428l169 296h188l-104 -296h-253z" />
    <glyph glyph-name="glyph257" horiz-adv-x="0" 
d="M212 303l-97 -303h-257l167 303h187z" />
    <glyph glyph-name="glyph282" horiz-adv-x="0" 
d="M115 0l176 269h297l-263 -269h-210zM-287 0l176 269h297l-263 -269h-210z" />
    <glyph glyph-name="glyph284" horiz-adv-x="0" 
d="M111 -6l120 317h284l-189 -317h-215zM-252 -6l120 317h284l-189 -317h-215z" />
    <glyph glyph-name="glyph300" horiz-adv-x="0" 
d="M-263 -428l169 296h188l-104 -296h-253z" />
    <glyph glyph-name="glyph302" horiz-adv-x="0" 
d="M-222 -405l169 299h184l-101 -299h-252z" />
    <glyph glyph-name="glyph350" horiz-adv-x="0" 
d="M0 1388h393v-89h-152v-518h-89v518h-152v89z" />
    <glyph glyph-name="glyph351" horiz-adv-x="0" 
d="M0 781v607h160l112 -486l112 486h160v-607h-89v559l-129 -559h-108l-129 559v-559h-89z" />
  </font>
</defs>
</svg>
