<?xml version="1.0" standalone="no"?>
<!DOCTYPE svg PUBLIC "-//W3C//DTD SVG 1.1//EN" "http://www.w3.org/Graphics/SVG/1.1/DTD/svg11.dtd" >
<svg xmlns="http://www.w3.org/2000/svg">
<metadata>
Created by FontPrep 20130207 at Tue Aug 11 23:27:33 2015
 By Pixeloid
Copyright (c) 1992-97 Hewlett-Packard. All rights reserved.
</metadata>
<defs>
<font id="670ad4da042d9e7fa25a5205a19db1e2" horiz-adv-x='1024' >
  <font-face 
    font-family="Univers-Condensed-MediumItalic"
    font-weight="400"
    font-style="italic"
    font-stretch="condensed"
    units-per-em="2048"
    panose-1="2 11 6 6 3 5 2 12 2 4"
    ascent="1638"
    descent="-410"
    x-height="982"
    cap-height="1411"
    bbox="-478 -512 1842 1904"
    underline-thickness="105"
    underline-position="-355"
    slope="-16"
    unicode-range="U+0020-FB01"
  />
<missing-glyph horiz-adv-x="669" 
d="M100 1174v-1074h369v1074h-369zM0 1274h569v-1274h-569v1274z" />
    <glyph glyph-name=".notdef" horiz-adv-x="669" 
d="M100 1174v-1074h369v1074h-369zM0 1274h569v-1274h-569v1274z" />
    <glyph glyph-name="glyph1" horiz-adv-x="0" 
 />
    <glyph glyph-name="nonmarkingreturn" horiz-adv-x="682" 
 />
    <glyph glyph-name="space" unicode=" " horiz-adv-x="453" 
 />
    <glyph glyph-name="exclam" unicode="!" horiz-adv-x="604" 
d="M116 196h202l-60 -196h-202zM191 321l291 1094h193l-363 -1094h-121z" />
    <glyph glyph-name="quotedbl" unicode="&#x22;" horiz-adv-x="755" 
d="M591 967l102 444h203l-169 -444h-136zM287 967l102 444h203l-169 -444h-136z" />
    <glyph glyph-name="numbersign" unicode="#" 
d="M474 874l-89 -372h209l89 372h-209zM608 1425l-105 -438h207l105 438h129l-105 -438h123l-27 -113h-124l-89 -372h124l-27 -113h-124l-111 -460h-129l111 460h-207l-111 -460h-129l111 460h-128l27 113h128l89 372h-128l27 113h129l105 438h129z" />
    <glyph glyph-name="dollar" unicode="$" 
d="M648 1081q-110 0 -143 -112q-13 -46 7 -86.5t117 -128.5t119 -140t21 -96q0 -44 -15 -96q-30 -104 -106 -162.5t-174 -58.5l-64 -250h-184l85 264q-154 44 -152 179q-1 51 21 118h176q-27 -103 -7.5 -145.5t81.5 -42.5q114 0 154 138q12 44 -6 80t-114 124t-120 141
q-40 87 -10 190q56 189 265 212l57 225h184l-76 -233q144 -36 142 -181q0 -48 -15 -107h-174q23 92 6 130t-75 38z" />
    <glyph glyph-name="percent" unicode="%" horiz-adv-x="1360" 
d="M1064 628q-42 0 -69.5 -36.5t-51.5 -117.5l-59 -204q-26 -91 -21 -122t47 -31t69.5 34.5t51.5 118.5l59 204q27 92 21.5 123t-47.5 31zM904 21q-118 0 -158.5 58.5t-2.5 191.5l59 204q42 144 101 198t177 54t154.5 -58t-3.5 -194l-59 -204q-42 -145 -96 -197.5
t-172 -52.5zM154 -48l1005 1472h136l-1005 -1472h-136zM570 1298q-42 0 -69.5 -36.5t-50.5 -117.5l-59 -204q-27 -91 -21 -122t48 -31t68.5 34.5t51.5 118.5l59 204q27 92 21 123t-48 31zM410 691q-118 0 -158.5 58.5t-1.5 191.5l59 204q42 144 100.5 198t176.5 54t155 -58
t-3 -194l-59 -204q-42 -145 -96.5 -197.5t-172.5 -52.5z" />
    <glyph glyph-name="ampersand" unicode="&#x26;" horiz-adv-x="1246" 
d="M710 1272q-60 0 -110 -53t-51 -117q0 -64 14 -102q14 -39 51 -109q106 61 164 123t58 146q0 48 -33 80t-93 32zM282 374q0 -112 65 -176t157 -64q146 0 258 118l-241 452q-111 -62 -175 -140t-64 -190zM498 -20q-180 0 -295 100t-115 262t132 304q102 110 243 166
q-45 85 -65 142t-20 128q0 143 100 241.5t236 98.5t215 -68.5t79 -183.5q0 -114 -82 -206t-249 -191l192 -362q84 178 100 382h189q-13 -166 -66 -311t-130 -245l126 -237h-192l-58 108q-160 -128 -340 -128z" />
    <glyph glyph-name="quotesingle" unicode="'" horiz-adv-x="453" 
d="M287 967l98 444h203l-163 -444h-138z" />
    <glyph glyph-name="parenleft" unicode="(" horiz-adv-x="453" 
d="M48 -184q-5 226 18 446q22 220 68 368q46 147 167.5 384t235.5 394h129q-147 -254 -225.5 -423.5t-140.5 -370.5q-127 -416 -123 -798h-129z" />
    <glyph glyph-name="parenright" unicode=")" horiz-adv-x="453" 
d="M345 1408h129q3 -226 -20 -446t-68 -368q-45 -147 -166.5 -384t-234.5 -394h-129q146 254 224 423.5t140 370.5q125 405 125 798z" />
    <glyph glyph-name="asterisk" unicode="*" 
d="M843 1362l-138 -194l235 25v-125l-235 26l141 -189l-108 -65l-99 216l-94 -218l-110 62l138 194l-235 -25v125l235 -26l-141 189l108 65l99 -216l94 218z" />
    <glyph glyph-name="plus" unicode="+" horiz-adv-x="1360" 
d="M601 511h-337v124h337v337h124v-337h337v-124h-337v-337h-124v337z" />
    <glyph glyph-name="comma" unicode="," horiz-adv-x="453" 
d="M-119 -213l222 443h206l-299 -443h-129z" />
    <glyph glyph-name="hyphen" unicode="-" horiz-adv-x="453" 
d="M121 586h272l-46 -156h-272z" />
    <glyph glyph-name="period" unicode="." horiz-adv-x="453" 
d="M65 231h212l-67 -231h-212z" />
    <glyph glyph-name="slash" unicode="/" horiz-adv-x="453" 
d="M659 1411l-683 -1566h-142l683 1566h142z" />
    <glyph glyph-name="zero" unicode="0" 
d="M376 133q95 0 149 58t94 188l187 606q49 160 26.5 223.5t-117.5 63.5t-156 -76t-113 -246l-169 -548q-46 -150 -21 -209.5t120 -59.5zM402 -20q-350 0 -350 236q0 82 32 183l187 606q71 231 164.5 325.5t250.5 94.5q343 0 346 -259q-1 -71 -28 -161l-187 -606
q-69 -226 -164.5 -322.5t-250.5 -96.5z" />
    <glyph glyph-name="one" unicode="1" 
d="M454 0h-191l339 1170q-35 -29 -84 -62t-152 -70l59 204q88 30 146 66t130 103h162z" />
    <glyph glyph-name="two" unicode="2" 
d="M690 1425q304 0 302 -262v-2q0 -229 -191 -466q-164 -206 -573 -541h528l-44 -154h-742l49 169q786 640 786 979q0 67 -30.5 97t-101.5 30t-120.5 -55.5t-66.5 -157.5h-194q32 192 125.5 277.5t272.5 85.5z" />
    <glyph glyph-name="three" unicode="3" 
d="M690 1425q308 0 308 -235q-1 -68 -28 -162q-53 -183 -140 -250q-54 -40 -144 -56q84 -22 108 -66t24 -121t-46 -236q-92 -319 -387 -319q-232 0 -308.5 81.5t-31.5 281.5l16 56h196l-16 -56q-27 -116 0 -163t117 -47q177 0 252 265q43 147 -1 201t-208 54h-30l46 156h132
q83 0 136.5 55.5t88.5 178.5q36 124 9.5 178t-119.5 54q-148 0 -208 -211h-194q57 199 153.5 280t274.5 81z" />
    <glyph glyph-name="four" unicode="4" 
d="M795 1406h267l-279 -908h145l-48 -154h-145l-105 -344h-179l105 344h-529l64 207z" />
    <glyph glyph-name="five" unicode="5" 
d="M601 777q-134 0 -228 -196h-193l254 829h675l-45 -154h-493l-121 -415l28 19q105 70 225 70q164 0 203 -104q14 -37 14 -114t-46 -235l-14 -47q-77 -266 -168 -358q-92 -92 -296 -92t-284.5 86t-19.5 258l16 56h194l-16 -56q-26 -107 1 -149t121 -42t155 70.5t108 230.5
l13 47q50 171 32.5 233.5t-115.5 62.5z" />
    <glyph glyph-name="six" unicode="6" 
d="M380 135q99 0 150 51.5t92 186.5l42 135q37 122 17.5 177t-108.5 55t-161 -62t-107 -176l-42 -135q-39 -127 -10.5 -179.5t127.5 -52.5zM881 691q0 -78 -33 -186l-42 -135q-70 -226 -154 -304t-259 -79q-249 0 -315 110q-26 47 -26 138t49 252l180 584q62 201 153 274
t287 73t272 -99t8 -274h-176q28 125 1 172t-122 47t-149 -54t-93 -181l-71 -232q129 93 257 94q233 0 233 -200z" />
    <glyph glyph-name="seven" unicode="7" 
d="M91 0l823 1254l1 2h-572l45 154h751l-45 -156l-785 -1254h-218z" />
    <glyph glyph-name="eight" unicode="8" 
d="M251 248q0 -118 143 -118q92 0 147 62.5t109 225.5t-12 209q-36 26 -118 26t-139 -62.5t-93 -175.5t-37 -167zM847 1158q0 109 -133 109h-9q-139 -1 -189 -157q-40 -122 -40 -182q2 -119 134 -119q171 7 204 165.5t33 183.5zM711 1425q331 0 329 -235v-3q0 -83 -42 -212
q-70 -212 -236 -249l24 -15q81 -51 80 -145t-33 -195q-69 -211 -165.5 -301t-255.5 -90q-360 0 -362 235q0 65 29 156q82 251 173 322q49 38 144 56l-25 11q-84 45 -84 145q1 100 45 237q44 138 141 210.5t238 72.5z" />
    <glyph glyph-name="nine" unicode="9" 
d="M694 1264q-178 0 -246 -223l-41 -131q-67 -218 110 -218q191 0 260 224l41 131q66 217 -124 217zM346 -14q-208 0 -280 103t7 309h179q-47 -152 -20.5 -209t130.5 -57t161 56t97 187l77 250q-133 -84 -276 -84t-200 99q-56 100 -2 275l40 131q68 219 153.5 295t265.5 76
q246 0 316 -115q32 -54 32 -146t-45 -239l-180 -584q-63 -201 -155 -274t-300 -73z" />
    <glyph glyph-name="colon" unicode=":" horiz-adv-x="453" 
d="M281 977h212l-67 -231h-212zM65 231h212l-67 -231h-212z" />
    <glyph glyph-name="semicolon" unicode=";" horiz-adv-x="453" 
d="M275 977h212l-67 -231h-212zM-119 -213l216 444h206l-299 -444h-123z" />
    <glyph glyph-name="less" unicode="&#x3c;" horiz-adv-x="2039" 
d="M410 542v144l1225 549v-145l-1066 -475l1066 -479v-145z" />
    <glyph glyph-name="equal" unicode="=" horiz-adv-x="1360" 
d="M266 728h798v-125h-798v125zM266 509h798v-125h-798v125z" />
    <glyph glyph-name="greater" unicode="&#x3e;" horiz-adv-x="2039" 
d="M1635 686v-144l-1225 -551v145l1066 479l-1066 475v145z" />
    <glyph glyph-name="question" unicode="?" horiz-adv-x="868" 
d="M205 196h204l-56 -196h-204zM648 1287q-78 0 -122.5 -58.5t-70.5 -191.5h-182q43 216 132 304t263 88q346 0 250 -334q-30 -102 -98.5 -189t-277.5 -288q-44 -43 -65.5 -92t-61.5 -204h-142q47 192 76.5 267.5t79.5 128.5q193 204 243.5 265.5t65.5 111.5q30 104 9 148
t-99 44z" />
    <glyph glyph-name="at" unicode="@" horiz-adv-x="1360" 
d="M759 825q-104 0 -149 -155l-75 -259q-44 -154 33.5 -154t114.5 45t76 154l49 169q28 96 15.5 148t-64.5 52zM563 107q-151 0 -202 74.5t-6 230.5l75 259q90 308 299 308q104 0 146 -106l3 -7l27 93h173l-145 -500q-39 -133 -36.5 -169t50.5 -36q26 0 48 37.5t49 129.5
l114 393q75 257 19.5 362.5t-265.5 105.5q-417 0 -528 -385l-175 -604q-71 -243 -4 -342.5t301 -99.5q46 0 153 12t153 22l-53 -146q-29 -15 -136.5 -25t-236.5 -10q-220 0 -326 160t-38 392l200 690q142 483 682 483q610 0 430 -615l-114 -393q-50 -173 -113 -243t-166 -71
q-141 1 -166 141q-93 -141 -212 -141z" />
    <glyph glyph-name="A" unicode="A" horiz-adv-x="1057" 
d="M684 1411h245l-92 -1411h-198l26 317h-383l-161 -317h-199z" />
    <glyph glyph-name="B" unicode="B" horiz-adv-x="1020" 
d="M409 158q115 0 179 55.5t103 192.5t-1 189t-174 52h-163l-142 -489h198zM553 805q123 0 193 54.5t100 183.5q35 119 2 164.5t-156 45.5h-162l-131 -448h154zM750 1411q301 1 301 -231q0 -86 -36 -206q-69 -230 -324 -250q128 -18 176 -79q68 -84 0 -323
q-48 -164 -165 -243t-313 -79h-406l409 1411h358z" />
    <glyph glyph-name="C" unicode="C" horiz-adv-x="1020" 
d="M369 -20q-307 0 -307 253q0 80 31 187l147 507q81 281 194.5 391.5t321.5 110.5t271 -107t-6 -341h-195q49 168 26.5 229t-122.5 61q-100 -1 -165 -71t-106 -212l-169 -579q-79 -271 102 -271q192 0 263 246l16 56h189l-16 -56q-39 -214 -150 -309t-325 -95z" />
    <glyph glyph-name="D" unicode="D" horiz-adv-x="1057" 
d="M349 158q178 0 245 64.5t137 304.5l94 324q77 265 58 333.5t-169 68.5h-176l-319 -1095h130zM720 1411q263 0 333 -116t-17 -407l-94 -324q-102 -355 -209 -459.5t-370 -104.5h-382l409 1411h330z" />
    <glyph glyph-name="E" unicode="E" horiz-adv-x="868" 
d="M-19 0l409 1411h639l-48 -159h-444l-130 -448h418l-46 -159h-418l-141 -486h460l-48 -159h-651z" />
    <glyph glyph-name="F" unicode="F" horiz-adv-x="831" 
d="M183 0h-193l409 1411h602l-48 -159h-407l-130 -448h389l-46 -159h-389z" />
    <glyph glyph-name="G" unicode="G" horiz-adv-x="1057" 
d="M76 242q0 76 29 175l147 507q86 298 198 401.5t336 103.5t289.5 -99.5t-0.5 -324.5h-195q38 154 9 210t-140 56t-172 -65t-107 -223l-168 -579q-44 -150 -10 -211t140 -61t204 36l115 421h-204l46 159h408l-206 -708q-183 -59 -376 -60q-343 0 -343 262z" />
    <glyph glyph-name="H" unicode="H" horiz-adv-x="1057" 
d="M394 1411h193l-176 -607h413l176 607h193l-409 -1411h-193l187 645h-413l-187 -645h-193z" />
    <glyph glyph-name="I" unicode="I" horiz-adv-x="453" 
d="M390 1411h193l-409 -1411h-193z" />
    <glyph glyph-name="J" unicode="J" horiz-adv-x="868" 
d="M222 -17q-354 0 -264 322l31 111h192l-29 -111q-24 -93 -3 -131t102 -38t134.5 58.5t93.5 195.5l296 1021h193l-319 -1100q-53 -180 -151 -254t-276 -74z" />
    <glyph glyph-name="K" unicode="K" horiz-adv-x="1020" 
d="M942 1411h210l-543 -661l190 -750h-199l-188 762zM191 0h-193l409 1411h193z" />
    <glyph glyph-name="L" unicode="L" horiz-adv-x="793" 
d="M394 1411h193l-363 -1252h422l-48 -159h-613z" />
    <glyph glyph-name="M" unicode="M" horiz-adv-x="1397" 
d="M162 0h-183l409 1411h156l97 -1076l567 1076h313l-409 -1411h-193l366 1229l-649 -1229h-190l67 1211z" />
    <glyph glyph-name="N" unicode="N" horiz-adv-x="1095" 
d="M150 0h-175l409 1411h145l165 -1214l352 1214h175l-409 -1411h-147l-168 1197z" />
    <glyph glyph-name="O" unicode="O" horiz-adv-x="1057" 
d="M420 138q108 0 177 70.5t110 212.5l168 579q43 149 12.5 210t-138.5 61t-176.5 -70.5t-109.5 -212.5l-169 -579q-43 -149 -12.5 -210t138.5 -61zM761 1429q341 0 341 -264q0 -77 -29 -176l-147 -507q-86 -296 -192 -399t-325 -103q-342 0 -342 263q0 76 29 175l147 507
q86 297 192.5 400.5t325.5 103.5z" />
    <glyph glyph-name="P" unicode="P" 
d="M581 772q178 0 246 256q36 123 4 174t-145 51h-136l-140 -481h171zM734 1411q205 0 270 -104q32 -51 32 -128t-44 -235q-92 -330 -436 -330h-192l-178 -614h-193l409 1411h332z" />
    <glyph glyph-name="Q" unicode="Q" horiz-adv-x="1057" 
d="M746 1271q-108 0 -176.5 -70.5t-109.5 -212.5l-169 -579q-43 -149 -12 -210t139 -61t176.5 70.5t109.5 212.5l168 579q43 149 12.5 210t-138.5 61zM64 243q0 76 29 175l147 507q86 297 192.5 400.5t325.5 103.5q340 0 340 -266q0 -78 -29 -178l-148 -507
q-59 -208 -197 -336l200 14l-45 -156h-151l-322 -20q-342 0 -342 263z" />
    <glyph glyph-name="R" unicode="R" horiz-adv-x="1020" 
d="M617 805q193 0 263 226q39 128 0 175t-169 47h-152l-138 -448h196zM765 1411q207 0 285 -96q45 -55 45 -129t-28 -164q-48 -156 -136 -230t-225 -75q99 -19 141 -64q66 -72 11 -250q-34 -111 -53 -202l-5 -26q-22 -128 -24 -174h-197q7 57 28 160l9 41q19 90 57 212
t4 177.5t-159 55.5h-145l-199 -647h-189l434 1411h346z" />
    <glyph glyph-name="S" unicode="S" horiz-adv-x="982" 
d="M747 1429q293 0 296 -266q0 -69 -20 -154h-195q37 144 14 203t-118 59t-163.5 -56.5t-94.5 -143.5t8 -143q33 -56 139 -131q178 -127 221 -227q20 -47 20 -113t-26 -156q-44 -151 -170 -236t-324 -85q-308 0 -308 229q0 81 24 175l16 56h186l-16 -56
q-35 -135 -2.5 -190.5t138.5 -55.5q212 0 281 239q22 75 -7 131t-127 126q-184 131 -231 227q-46 94 -2 250q92 318 461 318z" />
    <glyph glyph-name="T" unicode="T" horiz-adv-x="982" 
d="M441 0h-193l363 1252h-346l48 159h882l-48 -159h-343z" />
    <glyph glyph-name="U" unicode="U" horiz-adv-x="1057" 
d="M373 -20q-302 0 -299 252q0 84 32 194l286 985h198l-294 -1013q-41 -147 -14 -203q26 -56 132 -56t177 74.5t115 224.5l282 973h193l-286 -985q-73 -250 -187 -348t-335 -98z" />
    <glyph glyph-name="V" unicode="V" 
d="M974 1411h198l-739 -1411h-233l130 1411h98l-49 -1207z" />
    <glyph glyph-name="W" unicode="W" horiz-adv-x="1397" 
d="M1415 1411h185l-645 -1411h-108l31 1101l-466 -1101h-216l122 1411h93l-22 -1089l458 1089h118l-11 -1059z" />
    <glyph glyph-name="X" unicode="X" horiz-adv-x="1057" 
d="M356 1411h196l93 -475l349 475h210l-508 -689l141 -722h-196l-101 525l-394 -525h-216l560 745z" />
    <glyph glyph-name="Y" unicode="Y" 
d="M312 1411h200l26 -633l407 633h209l-573 -851l-172 -560h-193l172 560z" />
    <glyph glyph-name="Z" unicode="Z" 
d="M-7 196l854 1056h-525l48 159h739l-56 -186l-862 -1066h562l-48 -159h-768z" />
    <glyph glyph-name="bracketleft" unicode="[" horiz-adv-x="453" 
d="M-105 -184l489 1592h299l-29 -92h-159l-432 -1408h159l-28 -92h-299z" />
    <glyph glyph-name="backslash" unicode="\" horiz-adv-x="604" 
d="M390 -155l-193 1566h137l193 -1566h-137z" />
    <glyph glyph-name="bracketright" unicode="]" horiz-adv-x="453" 
d="M107 -184h-299l28 92h159l432 1408h-159l29 92h299z" />
    <glyph glyph-name="asciicircum" unicode="^" horiz-adv-x="1020" 
d="M458 1536h106q68 -158 144 -252t216 -197v-94q-232 105 -368 219l-46 41l-44 -40q-136 -114 -367 -220v94q139 103 215 197t144 252z" />
    <glyph glyph-name="underscore" unicode="_" horiz-adv-x="1020" 
d="M0 -512v105h1020v-105h-1020z" />
    <glyph glyph-name="grave" unicode="`" 
d="M587 1103l-134 307h205l75 -307h-146z" />
    <glyph glyph-name="a" unicode="a" horiz-adv-x="831" 
d="M278 102q66 0 120.5 50t88.5 143l54 176q4 13 -64 11q-117 0 -174 -40t-89 -148q-33 -107 -17.5 -149.5t81.5 -42.5zM22 61q-15 33 -15 93t40 192q40 131 138 194t283 63q114 1 111 -10l29 96q35 102 18.5 145.5t-84.5 43.5t-106.5 -39t-65.5 -127h-182q35 139 124 214.5
t216 75.5q276 0 276 -210l-224 -792h-165l26 87q-88 -107 -234 -107t-185 81z" />
    <glyph glyph-name="b" unicode="b" horiz-adv-x="831" 
d="M319 102q127 0 189 216l100 345q35 119 21.5 168t-85.5 49t-124.5 -70.5t-104.5 -240.5l-23 -78q-76 -226 -70 -308q5 -81 97 -81zM635 1002q128 0 165 -83q38 -86 -16 -271l-115 -396q-41 -140 -114 -206t-199 -66t-185 124l-30 -104h-178l409 1411h187l-144 -496
q92 87 220 87z" />
    <glyph glyph-name="c" unicode="c" horiz-adv-x="793" 
d="M277 -20q-238 0 -238 215q0 72 28 168l86 296q52 178 138.5 260.5t232.5 82.5t205 -83q38 -51 38 -116t-16 -128h-180q59 203 -57 203q-61 0 -102.5 -54t-79.5 -186l-86 -296q-39 -133 -28 -185.5t72 -52.5t97.5 37t59.5 115l11 39h179l-11 -39q-30 -140 -116 -208
t-233 -68z" />
    <glyph glyph-name="d" unicode="d" horiz-adv-x="831" 
d="M514 877q-76 0 -126 -65q-49 -65 -95 -222l-58 -201q-50 -172 -39.5 -229.5t83.5 -57.5t122 61.5t101 210.5l67 231q45 155 33 213.5t-88 58.5zM469 1002q132 0 188 -95l146 504h187l-409 -1411h-174l24 86q-95 -106 -226 -106q-195 0 -192 186q-1 80 34 198l73 252
q62 212 139.5 299t209.5 87z" />
    <glyph glyph-name="e" unicode="e" horiz-adv-x="793" 
d="M516 878q-76 0 -122 -59q-47 -59 -88 -201l-18 -62h263l18 62q45 156 34 208t-87 52zM302 104q118 0 169 181h173q-36 -171 -116 -238t-251 -67q-254 0 -257 221q1 70 27 161l74 255q61 212 156.5 298.5t266.5 86.5q235 0 238 -217q0 -73 -28 -168l-54 -184h-448l-20 -70
q-45 -155 -31 -207t101 -52z" />
    <glyph glyph-name="f" unicode="f" horiz-adv-x="604" 
d="M700 1424q56 0 110 -12l-34 -115q-24 4 -54 3q-70 0 -106 -42t-71 -162l-33 -114h165l-39 -135h-164l-243 -847h-187l248 847h-135l39 135h136l33 114q57 197 124 262.5t211 65.5z" />
    <glyph glyph-name="g" unicode="g" horiz-adv-x="831" 
d="M498 873q-76 0 -127.5 -74t-103.5 -253l-59 -204q-60 -207 51 -207q82 0 137.5 59.5t105.5 199.5l64 220q42 137 25 198t-93 61zM202 14q-201 0 -201 179q1 57 22 133l59 204q81 278 159.5 375t212.5 97t204 -113l27 93h168l-274 -941q-71 -248 -164 -338t-260 -90
t-230 73.5t-23 198.5l11 39h162l-11 -39q-18 -77 5 -112.5t98 -35.5t126 67t99 237l16 53q-90 -80 -206 -80z" />
    <glyph glyph-name="h" unicode="h" horiz-adv-x="831" 
d="M371 1411h187l-147 -508q100 99 217 99t161.5 -74.5t9.5 -196.5l-212 -731h-179l209 722q46 155 -66 155q-80 0 -135.5 -75t-106.5 -251l-160 -551h-187z" />
    <glyph glyph-name="i" unicode="i" horiz-adv-x="378" 
d="M359 1407h192l-56 -193h-192zM239 982h187l-285 -982h-187z" />
    <glyph glyph-name="j" unicode="j" horiz-adv-x="378" 
d="M365 1407h192l-56 -193h-192zM-197 -387q-51 0 -89 5l39 122l48 -3q46 0 78 44t60 147l305 1054h187l-285 -979q-67 -250 -129 -320t-214 -70z" />
    <glyph glyph-name="k" unicode="k" horiz-adv-x="831" 
d="M171 0h-181l434 1411h181l-258 -840l352 411h202l-366 -427l117 -555h-181l-125 569z" />
    <glyph glyph-name="l" unicode="l" horiz-adv-x="378" 
d="M361 1411h187l-409 -1411h-187z" />
    <glyph glyph-name="m" unicode="m" horiz-adv-x="1246" 
d="M1028 1002q204 0 204 -112.5t-23 -191.5l-202 -698h-187l212 731q42 146 -62 146q-75 0 -128.5 -75t-104.5 -251l-160 -551h-183l212 730q42 147 -63 147q-76 0 -129.5 -75t-104.5 -251l-160 -551h-187l285 982h178l-28 -94l2 2q99 112 229 112t160 -89l8 -43q7 12 15 20
q94 112 217 112z" />
    <glyph glyph-name="n" unicode="n" horiz-adv-x="831" 
d="M639 1002q261 0 159 -331l-206 -671h-179l210 685q60 192 -55 192q-90 0 -147.5 -75t-103.5 -251l-169 -551h-187l302 982h178l-27 -87q97 107 225 107z" />
    <glyph glyph-name="o" unicode="o" horiz-adv-x="831" 
d="M314 104q78 0 124.5 58.5t87.5 200.5l74 255q44 151 29 205.5t-93 54.5t-125 -59t-88 -201l-74 -255q-44 -150 -28.5 -204.5t93.5 -54.5zM301 -20q-263 0 -263 224q-1 69 26 158l74 255q61 212 153.5 298.5t260.5 86.5t228 -98q32 -52 32 -124t-27 -163l-74 -255
q-61 -210 -153 -296t-257 -86z" />
    <glyph glyph-name="p" unicode="p" horiz-adv-x="831" 
d="M311 102q127 0 189 216l100 345q35 119 21.5 168t-85.5 49t-124.5 -70.5t-104.5 -240.5l-23 -78q-76 -226 -70.5 -307.5t97.5 -81.5zM615 1002q189 0 189 -195q0 -64 -28 -159l-115 -396q-41 -140 -114 -206t-195 -65t-187 101l-129 -449h-187l391 1349h174l-26 -88l2 2
q95 106 225 106z" />
    <glyph glyph-name="q" unicode="q" horiz-adv-x="831" 
d="M534 877q-74 0 -124.5 -69t-93.5 -218l-58 -201q-50 -172 -39.5 -229.5t88.5 -57.5t126.5 61.5t91.5 210.5l67 231q45 155 30.5 213.5t-88.5 58.5zM231 -20q-154 0 -193 87q-14 35 -14 101t37 196l73 252q62 212 140 299t218 87t194 -109l26 89h168l-391 -1349h-174
l119 413q-84 -66 -203 -66z" />
    <glyph glyph-name="r" unicode="r" horiz-adv-x="566" 
d="M596 818q-122 0 -181.5 -54.5t-109.5 -212.5l-160 -551h-183l285 982h174l-26 -105l13 13q109 109 249 110l-47 -182h-14z" />
    <glyph glyph-name="s" unicode="s" horiz-adv-x="755" 
d="M493 1002q264 0 264 -190q0 -54 -22 -125h-189q34 111 22 151t-70 40t-91 -32t-49 -86t4 -91q20 -39 114 -125q142 -132 143 -249q0 -40 -14 -89q-30 -106 -120 -166t-231 -60t-210 75q-43 49 -43 107t11 103l12 39h182l-12 -39q-18 -72 2.5 -116.5t75.5 -44.5
q111 0 153 144q13 48 -4 85t-109 122t-120 143q-43 92 -13 192q29 100 108.5 156t205.5 56z" />
    <glyph glyph-name="t" unicode="t" horiz-adv-x="604" 
d="M272 -20q-145 0 -180.5 69.5t18.5 253.5l158 544h-129l39 135h129l51 177l205 76l-73 -253h157l-39 -135h-157l-158 -544q-32 -107 -15.5 -153t85.5 -46q22 0 44 5l-38 -122q-47 -7 -97 -7z" />
    <glyph glyph-name="u" unicode="u" horiz-adv-x="831" 
d="M300 105q66 0 120 75t105 251l160 551h183l-285 -982h-172l33 104l-11 -12q-99 -112 -223 -112q-186 0 -186 173q0 56 21 127l204 702h187l-211 -727q-22 -75 -6.5 -112.5t81.5 -37.5z" />
    <glyph glyph-name="v" unicode="v" horiz-adv-x="793" 
d="M695 982h184l-511 -982h-233l53 982h88l25 -783z" />
    <glyph glyph-name="w" unicode="w" horiz-adv-x="1322" 
d="M1225 982h177l-488 -982h-119l-52 758l-379 -758h-233l61 982h84l29 -795l383 795h116l41 -783z" />
    <glyph glyph-name="x" unicode="x" horiz-adv-x="793" 
d="M213 982h170l57 -322l235 322h187l-367 -495l91 -487h-170l-61 331l-247 -331h-183l375 515z" />
    <glyph glyph-name="y" unicode="y" horiz-adv-x="831" 
d="M143 -367h-190l201 346l30 1003h180l-40 -742l404 742h189z" />
    <glyph glyph-name="z" unicode="z" horiz-adv-x="680" 
d="M-16 172l537 681h-339l38 129h521l-50 -172l-537 -681h339l-37 -129h-521z" />
    <glyph glyph-name="braceleft" unicode="{" horiz-adv-x="906" 
d="M548 -477q-223 -7 -284.5 81t-4.5 328l48 202q78 325 -105 325l40 169q101 0 160 73.5t102 252.5l48 202q64 265 153.5 341t331.5 68l-38 -160q-120 4 -168.5 -43.5t-86.5 -205.5l-48 -202q-65 -268 -158 -354q-44 -38 -116 -61q48 -26 74 -66q61 -98 3 -339l-48 -202
q-35 -145 -5.5 -198.5t140.5 -50.5z" />
    <glyph glyph-name="bar" unicode="|" horiz-adv-x="1020" 
d="M458 -512v2048h105v-2048h-105z" />
    <glyph glyph-name="braceright" unicode="}" horiz-adv-x="906" 
d="M-98 -477l38 160q111 -3 165.5 50.5t89.5 198.5l48 202q77 324 249 429q-25 24 -39 54q-65 123 -13 337l48 202q38 158 12.5 205.5t-147.5 43.5l38 160q203 6 272.5 -92t16.5 -317l-48 -202q-42 -175 -20 -253t119 -94l-36 -149q-190 -30 -260 -324l-48 -202
q-57 -240 -161 -328t-324 -81z" />
    <glyph glyph-name="asciitilde" unicode="~" horiz-adv-x="2039" 
d="M722 735q112 1 377 -67q266 -68 320 -68q117 0 231 130l34 -36q-63 -134 -136 -189t-192 -55t-347 66q-227 66 -300 67q-72 0 -132 -27.5t-132 -94.5l-31 33q93 133 166 187t142 54z" />
    <glyph glyph-name="uni00A0" unicode="&#xa0;" horiz-adv-x="453" 
 />
    <glyph glyph-name="exclamdown" unicode="&#xa1;" horiz-adv-x="604" 
d="M508 811h-202l60 196h202zM437 679l-292 -1086h-196l355 1086h133z" />
    <glyph glyph-name="cent" unicode="&#xa2;" 
d="M680 1087.5q-91 0.5 -133 -57.5t-83 -197l-72 -250q-41 -142 -31 -197.5t78 -55.5t105.5 33t61.5 118l12 39h179l-12 -39q-29 -141 -110 -201t-196 -72l-74 -257h-168l90 264q-149 42 -147 206q0 69 26 160l73 250q64 219 140 291t196 82l52 230h168l-68 -236
q138 -34 140 -193q-1 -54 -17 -121h-180q61 203 -30 203.5z" />
    <glyph glyph-name="sterling" unicode="&#xa3;" 
d="M805 1429q154 0 195.5 -75.5t-8.5 -246.5l-20 -70h-175l20 70q31 100 22 136t-61 36t-89 -49.5t-67 -153.5l-62 -215h176l-45 -155h-176l-161 -552h349l-44 -154h-597l44 154h69l161 552h-75l45 155h75l62 215q63 215 135.5 284t226.5 69z" />
    <glyph glyph-name="currency" unicode="&#xa4;" 
d="M1003 730q0 -158 -92 -276l137 -137l-79 -79l-137 137q-116 -91 -274 -91t-276 91l-137 -137l-79 79l137 137q-91 117 -91 275t92 274l-138 138l79 79l138 -138q117 92 274 92t274 -92l138 138l79 -79l-138 -138q93 -115 93 -273zM883 728q0 137 -94.5 231.5t-231.5 94.5
t-231 -94.5t-94 -231.5t94 -231t231 -94t231.5 94t94.5 231z" />
    <glyph glyph-name="yen" unicode="&#xa5;" 
d="M312 1397h201l27 -627l406 627h208l-569 -841l-40 -129h257l-31 -101h-257l-29 -94h257l-31 -101h-257l-40 -131h-193l40 131h-257l31 101h257l29 94h-257l31 101h257l40 129z" />
    <glyph glyph-name="brokenbar" unicode="&#xa6;" horiz-adv-x="1020" 
d="M458 564v919h105v-919h-105zM458 -461v919h105v-919h-105z" />
    <glyph glyph-name="section" unicode="&#xa7;" 
d="M684 714q0 60 -27 95.5t-111 77.5q-52 -11 -104 -49t-52 -98t34 -98q35 -37 124 -79l67 39q69 52 69 112zM219 717q0 192 215 234q-66 40 -99 74q-61 62 -61 144q0 133 80 197t245 63q94 0 165 -23v-131q-66 22 -165 22q-162 0 -162 -124q0 -43 40.5 -79t156.5 -96
t164.5 -116.5t48.5 -141.5q0 -184 -188 -232q77 -44 114 -82q61 -63 61 -158q0 -149 -89.5 -220.5t-275.5 -71.5q-103 0 -195 30v136q104 -34 196 -34q93 0 144 41t51 105t-37 101t-164 95t-186 118t-59 149z" />
    <glyph glyph-name="dieresis" unicode="&#xa8;" 
d="M761 1341h188l-53 -182h-188zM441 1341h188l-53 -182h-188z" />
    <glyph glyph-name="copyright" unicode="&#xa9;" horiz-adv-x="1020" 
d="M1199 1051q0 173 -120 293t-293 120q-172 0 -292 -120t-120 -293t120 -293t292 -119q173 -1 293 119t120 293zM786 1529q200 -1 340 -139q138 -138 138 -338t-138 -340q-138 -138 -340 -138q-200 0 -338 138t-139 340q1 200 139 338t338 139zM820 786q-110 0 -186 80
t-77 194q-1 116 75 196t185 79q59 0 115 -22t79 -54l-58 -62q-19 27 -59 45t-77 18q-77 0 -131 -58t-54 -142t54 -142t134 -57q37 -1 77 19t61 48l58 -62q-24 -34 -81 -57t-115 -23z" />
    <glyph glyph-name="ordfeminine" unicode="&#xaa;" horiz-adv-x="604" 
d="M491 1078q-46 0 -72.5 -24.5t-42.5 -80.5q-29 -106 37 -106q60 0 100 107l32 104h-54zM322 762q-128 0 -128 116q0 48 20 113l2 4q31 101 100 144t200 43h61l12 40q20 56 9 80t-56 24t-75 -95h-168q26 101 86 147.5t162 46.5q214 0 214 -145q1 -40 -17 -94l-95 -311
l-19 -99h-166l17 53q-77 -67 -159 -67z" />
    <glyph glyph-name="guillemotleft" unicode="&#xab;" horiz-adv-x="906" 
d="M868 869l-229 -367l27 -394h-123l-77 434l250 327h152zM537 869l-229 -367l27 -394h-123l-77 434l250 327h152z" />
    <glyph glyph-name="logicalnot" unicode="&#xac;" horiz-adv-x="1360" 
d="M937 667h-673v125h798v-460h-125v335z" />
    <glyph glyph-name="uni00AD" unicode="&#xad;" horiz-adv-x="453" 
d="M121 586h272l-46 -156h-272z" />
    <glyph glyph-name="registered" unicode="&#xae;" horiz-adv-x="1020" 
d="M1199 1046q0 173 -120 293t-293 120q-172 0 -292 -120t-120 -293q0 -172 120 -292t292 -120q173 0 293 120t120 292zM786 1524q200 0 340 -138q138 -138 138 -340q0 -200 -138 -338t-340 -139q-200 1 -338 139t-139 338q1 200 139 340q138 138 338 138zM878 1166
q0 30 -21 51t-51 21h-112v-144h112q30 0 51 21t21 51zM619 807v506h187q62 -1 104 -43t43 -104q0 -62 -43 -105q-20 -20 -46 -31l89 -223h-91l-84 212h-84v-212h-75z" />
    <glyph glyph-name="macron" unicode="&#xaf;" horiz-adv-x="1020" 
d="M0 1526v105h1020v-105h-1020z" />
    <glyph glyph-name="degree" unicode="&#xb0;" 
d="M807 1109q0 96 -44.5 150.5t-122.5 54.5t-122 -54.5t-44 -150.5t44 -150t122 -54t122.5 54t44.5 150zM640 1429q144 0 226 -85t82 -235t-82 -234.5t-226 -84.5t-225.5 84.5t-81.5 234.5t81.5 235t225.5 85z" />
    <glyph glyph-name="plusminus" unicode="&#xb1;" horiz-adv-x="1360" 
d="M267 88h798v-125h-798v125zM604 511h-337v124h337v337h124v-337h337v-124h-337v-337h-124v337z" />
    <glyph glyph-name="uni00B2" unicode="&#xb2;" horiz-adv-x="566" 
d="M526 1411q191 0 191 -146q0 -99 -99 -207t-326 -279h311l-30 -102h-448l38 129q197 157 308 274q110 117 109 169q0 58 -67 58t-80 -79h-137q16 97 70 140t160 43z" />
    <glyph glyph-name="uni00B3" unicode="&#xb3;" horiz-adv-x="566" 
d="M493 1307q-44 0 -68 -79h-130q22 101 71.5 142t151.5 41t146 -54q27 -33 27 -73q1 -40 -19 -106q-29 -99 -134 -136q40 -12 52 -33t13 -61t-23 -122q-46 -163 -211 -163q-129 0 -172.5 40.5t-20.5 140.5l8 28h136l-8 -28q-11 -48 -1.5 -67.5t43.5 -19.5t63.5 33.5
t48.5 99.5q18 65 -0.5 90t-87.5 25h-9l27 92h46q32 0 60 27t43 79q14 51 -1 77.5t-51 26.5z" />
    <glyph glyph-name="acute" unicode="&#xb4;" 
d="M542 1097l189 307h217l-261 -307h-145z" />
    <glyph glyph-name="mu" unicode="&#xb5;" horiz-adv-x="1133" 
d="M476 120q205 0 328 421l127 439h190l-153 -529q-30 -103 -50 -234t-18 -217h-185q0 82 15 184q-122 -204 -275 -204q-152 0 -192 168l-178 -485h-210q164 394 209 553l222 764h200l-190 -634q-29 -99 14.5 -162.5t145.5 -63.5z" />
    <glyph glyph-name="paragraph" unicode="&#xb6;" 
d="M149 1057q0 204 161.5 336.5t425.5 132.5h260v-80h-138v-1772h-80v1772h-98v-1772h-80v892q-215 39 -333 163t-118 328z" />
    <glyph glyph-name="periodcentered" unicode="&#xb7;" horiz-adv-x="453" 
d="M225 821h212l-67 -231h-212z" />
    <glyph glyph-name="cedilla" unicode="&#xb8;" 
d="M-42 -387l244 271h154l-183 -271h-215z" />
    <glyph glyph-name="uni00B9" unicode="&#xb9;" horiz-adv-x="566" 
d="M441 677h-146l161 554q-54 -38 -146 -71l41 141q58 17 96 41t83 69h124z" />
    <glyph glyph-name="ordmasculine" unicode="&#xba;" horiz-adv-x="604" 
d="M410 878q40 0 62.5 30.5t44.5 104.5l48 165q24 82 17.5 109t-46.5 27t-62.5 -30.5t-44.5 -105.5l-48 -165q-24 -81 -17.5 -108t46.5 -27zM555 1425q201 0 201 -155q0 -41 -16 -95l-48 -165q-40 -136 -106.5 -192t-190.5 -56q-197 0 -200 153q1 42 16 95l48 165
q40 138 106.5 194t189.5 56z" />
    <glyph glyph-name="guillemotright" unicode="&#xbb;" horiz-adv-x="906" 
d="M373 108l228 367l-26 394h123l77 -434l-250 -327h-152zM42 108l228 367l-26 394h123l77 -434l-250 -327h-152z" />
    <glyph glyph-name="onequarter" unicode="&#xbc;" horiz-adv-x="1360" 
d="M1265 1439l-991 -1510h-150l991 1510h150zM407 677h-146l161 554q-54 -38 -146 -71l41 141q58 17 96 41t83 69h124zM988 720h197l-144 -469h96l-31 -100h-96l-46 -151h-127l46 151h-280l41 132z" />
    <glyph glyph-name="onehalf" unicode="&#xbd;" horiz-adv-x="1360" 
d="M1231 1439l-991 -1510h-150l991 1510h150zM419 677h-146l161 554q-54 -38 -146 -71l41 141q58 17 96 41t83 69h124zM1040 734q191 0 191 -146q0 -98 -99 -206t-326 -280h311l-30 -102h-448l38 129q197 157 308 274q110 117 109 169q0 58 -67 58t-80 -79h-137
q16 97 70 140t160 43z" />
    <glyph glyph-name="threequarters" unicode="&#xbe;" horiz-adv-x="1360" 
d="M1330 1439l-991 -1510h-150l991 1510h150zM495 1307q-44 0 -68 -79h-130q21 101 71 142t152 41t146 -54q27 -33 27 -73q1 -40 -19 -106q-29 -99 -134 -136q40 -12 52 -33t13 -61t-23 -122q-46 -163 -211 -163q-129 1 -173 41t-20 140l8 28h136l-8 -28q-12 -48 -2 -68
t44 -19q34 0 63 34q30 34 49 99q18 65 0 90t-88 25h-9l27 92h46q32 0 60 27t43 79q14 51 -1 77t-51 27zM1065 720h197l-144 -469h96l-31 -100h-96l-46 -151h-127l46 151h-280l41 132z" />
    <glyph glyph-name="questiondown" unicode="&#xbf;" horiz-adv-x="868" 
d="M664 788h-204l57 196h204zM218 -317q78 0 122.5 58.5t71.5 191.5h182q-43 -216 -132.5 -304t-263.5 -88q-346 0 -252 323q28 98 96 186t281 303q47 48 68.5 98.5t63.5 210.5h142q-48 -195 -77.5 -271.5t-79.5 -131.5q-200 -221 -250 -284.5t-64 -110.5q-28 -98 -7 -140
t99 -41z" />
    <glyph glyph-name="Agrave" unicode="&#xc0;" horiz-adv-x="1057" 
d="M684 1411h245l-92 -1411h-198l26 317h-383l-161 -317h-199zM774 1532l-135 307h205l76 -307h-146z" />
    <glyph glyph-name="Aacute" unicode="&#xc1;" horiz-adv-x="1057" 
d="M684 1411h245l-92 -1411h-198l26 317h-383l-161 -317h-199zM707 1526l187 307h217l-259 -307h-145z" />
    <glyph glyph-name="Acircumflex" unicode="&#xc2;" horiz-adv-x="1057" 
d="M684 1411h245l-92 -1411h-198l26 317h-383l-161 -317h-199zM823 1811h200l75 -288h-132l-80 174l-161 -174h-143z" />
    <glyph glyph-name="Atilde" unicode="&#xc3;" horiz-adv-x="1057" 
d="M684 1411h245l-92 -1411h-198l26 317h-383l-161 -317h-199zM770 1622q-38 0 -76 -90h-114q55 140 87 184q33 44 71 44q60 0 143 -50t102 -50q36 0 69 88h114q-50 -136 -84 -181t-82 -45t-132 50t-98 50z" />
    <glyph glyph-name="Adieresis" unicode="&#xc4;" horiz-adv-x="1057" 
d="M684 1411h245l-92 -1411h-198l26 317h-383l-161 -317h-199zM976 1745h196l-59 -182h-196zM649 1745h196l-59 -182h-196z" />
    <glyph glyph-name="Aring" unicode="&#xc5;" horiz-adv-x="1057" 
d="M684 1411h245l-92 -1411h-198l26 317h-383l-161 -317h-199zM842 1622q40 0 66 26t26 66t-26 66t-66 26t-66 -26t-26 -66t26 -66t66 -26zM842 1524q-80 0 -135 55t-55 135t55 135t135 55t135 -55t55 -135t-55 -135t-135 -55z" />
    <glyph glyph-name="AE" unicode="&#xc6;" horiz-adv-x="1435" 
d="M849 1215l-442 -748h319zM132 0h-209l868 1411h773l-48 -159h-485l-72 -448h427l-46 -159h-406l-78 -486h384l-48 -159h-545l51 308h-385z" />
    <glyph glyph-name="Ccedilla" unicode="&#xc7;" horiz-adv-x="1020" 
d="M409 -20q-307 0 -307 253q0 80 31 187l147 507q81 281 194 391q114 110 322 111q208 0 271 -107t-6 -341h-195q49 168 27 229q-23 61 -123 61q-100 -1 -165 -71t-106 -212l-169 -579q-79 -271 102 -271q192 0 263 246l16 56h189l-16 -56q-39 -214 -150 -309t-325 -95z
M60 -387l244 271h154l-178 -271h-220z" />
    <glyph glyph-name="Egrave" unicode="&#xc8;" horiz-adv-x="868" 
d="M-19 0l409 1411h639l-48 -159h-444l-130 -448h418l-46 -159h-418l-141 -486h460l-48 -159h-651zM645 1532l-135 307h205l76 -307h-146z" />
    <glyph glyph-name="Eacute" unicode="&#xc9;" horiz-adv-x="868" 
d="M-19 0l409 1411h639l-48 -159h-444l-130 -448h418l-46 -159h-418l-141 -486h460l-48 -159h-651zM578 1526l187 307h217l-259 -307h-145z" />
    <glyph glyph-name="Ecircumflex" unicode="&#xca;" horiz-adv-x="868" 
d="M-19 0l409 1411h639l-48 -159h-444l-130 -448h418l-46 -159h-418l-141 -486h460l-48 -159h-651zM694 1811h200l75 -288h-132l-80 174l-161 -174h-143z" />
    <glyph glyph-name="Edieresis" unicode="&#xcb;" horiz-adv-x="868" 
d="M-19 0l409 1411h639l-48 -159h-444l-130 -448h418l-46 -159h-418l-141 -486h460l-48 -159h-651zM847 1745h196l-59 -182h-196zM520 1745h196l-59 -182h-196z" />
    <glyph glyph-name="Igrave" unicode="&#xcc;" horiz-adv-x="453" 
d="M390 1411h193l-409 -1411h-193zM454 1532l-135 307h205l76 -307h-146z" />
    <glyph glyph-name="Iacute" unicode="&#xcd;" horiz-adv-x="453" 
d="M390 1411h193l-409 -1411h-193zM387 1526l187 307h217l-259 -307h-145z" />
    <glyph glyph-name="Icircumflex" unicode="&#xce;" horiz-adv-x="453" 
d="M390 1411h193l-409 -1411h-193zM503 1811h200l75 -288h-132l-80 174l-161 -174h-143z" />
    <glyph glyph-name="Idieresis" unicode="&#xcf;" horiz-adv-x="453" 
d="M390 1411h193l-409 -1411h-193zM656 1745h196l-59 -182h-196zM329 1745h196l-59 -182h-196z" />
    <glyph glyph-name="Eth" unicode="&#xd0;" horiz-adv-x="1057" 
d="M350 158q180 0 247.5 65t137.5 305l94 324q77 265 58 333t-171 68h-178l-139 -476h204l-41 -143h-204l-139 -476h131zM722 1411q264 0 335 -115q32 -50 32 -148t-48 -259l-94 -324q-103 -356 -210.5 -460.5t-371.5 -104.5h-384l184 634h-95l41 143h95l184 634h332z" />
    <glyph glyph-name="Ntilde" unicode="&#xd1;" horiz-adv-x="1095" 
d="M150 0h-175l409 1411h145l165 -1214l352 1214h175l-409 -1411h-147l-168 1197zM877 1710q83 -50 102 -50q36 0 69 88h114q-50 -136 -84 -181t-82 -45t-132 50q-83 50 -98 50q-38 0 -76 -90h-114q55 140 87 184t81 44q50 0 133 -50z" />
    <glyph glyph-name="Ograve" unicode="&#xd2;" horiz-adv-x="1057" 
d="M420 138q108 0 177 70t110 213l168 579q43 149 13 210t-139 61q-109 -1 -177 -71t-109 -212l-169 -579q-43 -149 -12 -210q30 -61 138 -61zM761 1429q341 0 341 -264q0 -77 -29 -176l-147 -507q-86 -296 -192 -399t-325 -103q-342 0 -342 263q0 76 29 175l147 507
q87 297 193 401t325 103zM757 1532l-135 307h205l76 -307h-146z" />
    <glyph glyph-name="Oacute" unicode="&#xd3;" horiz-adv-x="1057" 
d="M420 138q108 0 177 70t110 213l168 579q43 149 13 210t-139 61q-109 -1 -177 -71t-109 -212l-169 -579q-43 -149 -12 -210q30 -61 138 -61zM761 1429q341 0 341 -264q0 -77 -29 -176l-147 -507q-86 -296 -192 -399t-325 -103q-342 0 -342 263q0 76 29 175l147 507
q87 297 193 401t325 103zM690 1526l187 307h217l-259 -307h-145z" />
    <glyph glyph-name="Ocircumflex" unicode="&#xd4;" horiz-adv-x="1057" 
d="M420 138q108 0 177 70t110 213l168 579q43 149 13 210t-139 61q-109 -1 -177 -71t-109 -212l-169 -579q-43 -149 -12 -210q30 -61 138 -61zM761 1429q341 0 341 -264q0 -77 -29 -176l-147 -507q-86 -296 -192 -399t-325 -103q-342 0 -342 263q0 76 29 175l147 507
q87 297 193 401t325 103zM806 1811h200l75 -288h-132l-80 174l-161 -174h-143z" />
    <glyph glyph-name="Otilde" unicode="&#xd5;" horiz-adv-x="1057" 
d="M420 138q108 0 177 70t110 213l168 579q43 149 13 210t-139 61q-109 -1 -177 -71t-109 -212l-169 -579q-43 -149 -12 -210q30 -61 138 -61zM761 1429q341 0 341 -264q0 -77 -29 -176l-147 -507q-86 -296 -192 -399t-325 -103q-342 0 -342 263q0 76 29 175l147 507
q87 297 193 401t325 103zM753 1622q-38 0 -76 -90h-114q55 140 87 184t70 44q60 0 144 -50q83 -50 102 -50q36 0 69 88h114q-50 -136 -84 -181t-82 -45t-132 50t-98 50z" />
    <glyph glyph-name="Odieresis" unicode="&#xd6;" horiz-adv-x="1057" 
d="M420 138q108 0 177 70t110 213l168 579q43 149 13 210t-139 61q-109 -1 -177 -71t-109 -212l-169 -579q-43 -149 -12 -210q30 -61 138 -61zM761 1429q341 0 341 -264q0 -77 -29 -176l-147 -507q-86 -296 -192 -399t-325 -103q-342 0 -342 263q0 76 29 175l147 507
q87 297 193 401t325 103zM959 1745h196l-59 -182h-196zM632 1745h196l-59 -182h-196z" />
    <glyph glyph-name="multiply" unicode="&#xd7;" horiz-adv-x="1360" 
d="M692 482l-277 -278l-92 92l278 277l-278 277l92 92l277 -278l277 278l92 -92l-278 -277l278 -277l-92 -92z" />
    <glyph glyph-name="Oslash" unicode="&#xd8;" horiz-adv-x="1057" 
d="M718 1271q-86 0 -154 -70.5t-109 -212.5l-169 -579q-31 -108 -23 -171l580 1010q-39 23 -125 23zM1094 1165q0 -77 -29 -176l-147 -507q-86 -296 -192 -399t-325 -103q-106 0 -182 26l-83 -147l-70 36l84 147q-91 65 -91 201q0 76 29 175l147 507q86 297 192.5 400.5
t325.5 103.5q107 0 180 -26l85 149l70 -35l-86 -150q92 -60 92 -202zM434 138q86 0 155 70.5t110 212.5l168 579q31 110 25 175l-583 -1012q39 -25 125 -25z" />
    <glyph glyph-name="Ugrave" unicode="&#xd9;" horiz-adv-x="1057" 
d="M373 -20q-302 0 -299 252q0 84 32 194l286 985h198l-294 -1013q-41 -147 -14 -203q26 -56 132 -56q106 1 177 75t115 224l282 973h193l-286 -985q-73 -250 -187 -348t-335 -98zM757 1532l-135 307h205l76 -307h-146z" />
    <glyph glyph-name="Uacute" unicode="&#xda;" horiz-adv-x="1057" 
d="M373 -20q-302 0 -299 252q0 84 32 194l286 985h198l-294 -1013q-41 -147 -14 -203q26 -56 132 -56q106 1 177 75t115 224l282 973h193l-286 -985q-73 -250 -187 -348t-335 -98zM690 1526l187 307h217l-259 -307h-145z" />
    <glyph glyph-name="Ucircumflex" unicode="&#xdb;" horiz-adv-x="1057" 
d="M373 -20q-302 0 -299 252q0 84 32 194l286 985h198l-294 -1013q-41 -147 -14 -203q26 -56 132 -56q106 1 177 75t115 224l282 973h193l-286 -985q-73 -250 -187 -348t-335 -98zM806 1811h200l75 -288h-132l-80 174l-161 -174h-143z" />
    <glyph glyph-name="Udieresis" unicode="&#xdc;" horiz-adv-x="1057" 
d="M373 -20q-302 0 -299 252q0 84 32 194l286 985h198l-294 -1013q-41 -147 -14 -203q26 -56 132 -56q106 1 177 75t115 224l282 973h193l-286 -985q-73 -250 -187 -348t-335 -98zM959 1745h196l-59 -182h-196zM632 1745h196l-59 -182h-196z" />
    <glyph glyph-name="Yacute" unicode="&#xdd;" 
d="M312 1411h200l26 -633l407 633h209l-573 -851l-172 -560h-193l172 560zM635 1526l187 307h217l-259 -307h-145z" />
    <glyph glyph-name="Thorn" unicode="&#xde;" 
d="M605 928h-150l-138 -474h124q221 0 281 226q40 136 13.5 192t-130.5 56zM669 1086q366 0 234 -450q-45 -171 -155.5 -255.5t-271.5 -84.5h-205l-85 -296h-193l409 1411h193l-94 -325h168z" />
    <glyph glyph-name="germandbls" unicode="&#xdf;" horiz-adv-x="906" 
d="M405 104q86 0 130 30t66 106t14.5 131t-71.5 153t-85.5 154t-7.5 104t41 80.5t78 63.5l68 42q52 33 77 66.5t47 107.5q45 158 -80 158q-76 0 -138 -55t-89 -149l-314 -1096h-187l321 1096q96 328 426 328q315 0 229 -296q-31 -107 -77 -165.5t-124 -106.5t-97 -64
q-18 -16 -24 -36q-6 -19 9 -51.5t85 -130.5t88 -171.5t-17 -193.5q-35 -121 -111 -175t-220 -54q-142 0 -210 20l35 123q52 -19 138 -19z" />
    <glyph glyph-name="agrave" unicode="&#xe0;" horiz-adv-x="831" 
d="M278 102q66 0 120 50t89 143l54 176q4 13 -64 11q-117 0 -174 -40t-89 -148q-33 -108 -18 -150q16 -42 82 -42zM22 61q-15 33 -15 93t40 192q40 131 138 194t283 63q114 1 111 -10l29 96q35 101 18 145q-16 44 -84 44t-106 -39t-66 -127h-182q35 138 124 214t216 76
q276 0 276 -210l-224 -792h-165l26 87q-88 -107 -234 -107t-185 81zM551 1103l-135 307h205l76 -307h-146z" />
    <glyph glyph-name="aacute" unicode="&#xe1;" horiz-adv-x="831" 
d="M278 102q66 0 120 50t89 143l54 176q4 13 -64 11q-117 0 -174 -40t-89 -148q-33 -108 -18 -150q16 -42 82 -42zM22 61q-15 33 -15 93t40 192q40 131 138 194t283 63q114 1 111 -10l29 96q35 101 18 145q-16 44 -84 44t-106 -39t-66 -127h-182q35 138 124 214t216 76
q276 0 276 -210l-224 -792h-165l26 87q-88 -107 -234 -107t-185 81zM551 1097l187 307h217l-259 -307h-145z" />
    <glyph glyph-name="acircumflex" unicode="&#xe2;" horiz-adv-x="831" 
d="M278 102q66 0 120 50t89 143l54 176q4 13 -64 11q-117 0 -174 -40t-89 -148q-33 -108 -18 -150q16 -42 82 -42zM22 61q-15 33 -15 93t40 192q40 131 138 194t283 63q114 1 111 -10l29 96q35 101 18 145q-16 44 -84 44t-106 -39t-66 -127h-182q35 138 124 214t216 76
q276 0 276 -210l-224 -792h-165l26 87q-88 -107 -234 -107t-185 81zM602 1391h200l75 -288h-132l-79 174l-162 -174h-143z" />
    <glyph glyph-name="atilde" unicode="&#xe3;" horiz-adv-x="831" 
d="M278 102q66 0 120 50t89 143l54 176q4 13 -64 11q-117 0 -174 -40t-89 -148q-33 -108 -18 -150q16 -42 82 -42zM22 61q-15 33 -15 93t40 192q40 131 138 194t283 63q114 1 111 -10l29 96q35 101 18 145q-16 44 -84 44t-106 -39t-66 -127h-182q35 138 124 214t216 76
q276 0 276 -210l-224 -792h-165l26 87q-88 -107 -234 -107t-185 81zM554 1223q-39 0 -75 -85h-114q57 140 91 184t75 45q41 0 167 -72q50 -26 72 -26q22 1 38 19t33 63h114q-51 -136 -85 -181t-78 -45q-43 0 -126 49t-112 49z" />
    <glyph glyph-name="adieresis" unicode="&#xe4;" horiz-adv-x="831" 
d="M278 102q66 0 120 50t89 143l54 176q4 13 -64 11q-117 0 -174 -40t-89 -148q-33 -108 -18 -150q16 -42 82 -42zM22 61q-15 33 -15 93t40 192q40 131 138 194t283 63q114 1 111 -10l29 96q35 101 18 145q-16 44 -84 44t-106 -39t-66 -127h-182q35 138 124 214t216 76
q276 0 276 -210l-224 -792h-165l26 87q-88 -107 -234 -107t-185 81zM754 1341h188l-53 -182h-188zM434 1341h188l-53 -182h-188z" />
    <glyph glyph-name="aring" unicode="&#xe5;" horiz-adv-x="831" 
d="M278 102q66 0 120 50t89 143l54 176q4 13 -64 11q-117 0 -174 -40t-89 -148q-33 -108 -18 -150q16 -42 82 -42zM22 61q-15 33 -15 93t40 192q40 131 138 194t283 63q114 1 111 -10l29 96q35 101 18 145q-16 44 -84 44t-106 -39t-66 -127h-182q35 138 124 214t216 76
q276 0 276 -210l-224 -792h-165l26 87q-88 -107 -234 -107t-185 81zM619 1193q39 1 65 27t27 65q-1 39 -27 65t-65 27q-39 -1 -65 -27t-27 -65q1 -39 27 -65t65 -27zM619 1095q-80 0 -135 55t-55 135t55 135t135 55t135 -55t55 -135t-55 -135t-135 -55z" />
    <glyph glyph-name="ae" unicode="&#xe6;" horiz-adv-x="1284" 
d="M982 878q-70 0 -111.5 -50t-77.5 -171l-23 -81h242l23 81q39 133 28 177t-81 44zM482 448q-110 0 -162.5 -36t-82.5 -134t-15.5 -137t76.5 -39t113.5 46t82.5 130l52 170h-64zM48 58q-20 36 -20 95t38 181q38 123 133 183.5t275 60.5h112q44 143 41 212q-4 88 -84 88
q-61 0 -101 -40t-68 -131h-182q37 142 124 218.5t211 76.5q179 0 226 -127l26 34q80 93 210 93q247 0 247 -220q0 -71 -27 -165l-48 -164h-427l-15 -51q-52 -179 -42 -238.5t92 -59.5q108 0 159 181h173q-36 -171 -110 -238t-228 -67q-191 0 -225 145q-99 -145 -296 -145
q-148 0 -194 78z" />
    <glyph glyph-name="ccedilla" unicode="&#xe7;" horiz-adv-x="793" 
d="M274 -20q-238 0 -238 215q0 72 28 168l86 296q52 179 138 261t232 82t206 -83q38 -51 38 -116t-16 -128h-180q59 203 -57 203q-61 0 -103 -54t-79 -186l-86 -296q-39 -134 -28 -186t72 -52t97 37t60 115l11 39h179l-11 -39q-29 -140 -115 -208t-234 -68zM-75 -387
l244 271h154l-183 -271h-215z" />
    <glyph glyph-name="egrave" unicode="&#xe8;" horiz-adv-x="793" 
d="M516 878q-76 0 -122 -59q-47 -59 -88 -201l-18 -62h263l18 62q45 156 34 208t-87 52zM302 104q118 0 169 181h173q-36 -171 -116 -238t-251 -67q-254 0 -257 221q1 70 27 161l74 255q61 213 157 299t266 86q235 0 238 -217q0 -73 -28 -168l-54 -184h-448l-20 -70
q-45 -155 -31 -207t101 -52zM523 1103l-135 307h205l76 -307h-146z" />
    <glyph glyph-name="eacute" unicode="&#xe9;" horiz-adv-x="793" 
d="M516 878q-76 0 -122 -59q-47 -59 -88 -201l-18 -62h263l18 62q45 156 34 208t-87 52zM302 104q118 0 169 181h173q-36 -171 -116 -238t-251 -67q-254 0 -257 221q1 70 27 161l74 255q61 213 157 299t266 86q235 0 238 -217q0 -73 -28 -168l-54 -184h-448l-20 -70
q-45 -155 -31 -207t101 -52zM523 1097l187 307h217l-259 -307h-145z" />
    <glyph glyph-name="ecircumflex" unicode="&#xea;" horiz-adv-x="793" 
d="M516 878q-76 0 -122 -59q-47 -59 -88 -201l-18 -62h263l18 62q45 156 34 208t-87 52zM302 104q118 0 169 181h173q-36 -171 -116 -238t-251 -67q-254 0 -257 221q1 70 27 161l74 255q61 213 157 299t266 86q235 0 238 -217q0 -73 -28 -168l-54 -184h-448l-20 -70
q-45 -155 -31 -207t101 -52zM574 1391h200l75 -288h-132l-79 174l-162 -174h-143z" />
    <glyph glyph-name="edieresis" unicode="&#xeb;" horiz-adv-x="793" 
d="M516 878q-76 0 -122 -59q-47 -59 -88 -201l-18 -62h263l18 62q45 156 34 208t-87 52zM302 104q118 0 169 181h173q-36 -171 -116 -238t-251 -67q-254 0 -257 221q1 70 27 161l74 255q61 213 157 299t266 86q235 0 238 -217q0 -73 -28 -168l-54 -184h-448l-20 -70
q-45 -155 -31 -207t101 -52zM726 1341h188l-53 -182h-188zM406 1341h188l-53 -182h-188z" />
    <glyph glyph-name="igrave" unicode="&#xec;" horiz-adv-x="453" 
d="M277 982h187l-285 -982h-187zM337 1103l-135 307h205l76 -307h-146z" />
    <glyph glyph-name="iacute" unicode="&#xed;" horiz-adv-x="453" 
d="M277 982h187l-285 -982h-187zM337 1097l187 307h217l-259 -307h-145z" />
    <glyph glyph-name="icircumflex" unicode="&#xee;" horiz-adv-x="453" 
d="M277 982h187l-285 -982h-187zM388 1391h200l75 -288h-132l-79 174l-162 -174h-143z" />
    <glyph glyph-name="idieresis" unicode="&#xef;" horiz-adv-x="453" 
d="M277 982h187l-285 -982h-187zM540 1341h188l-53 -182h-188zM220 1341h188l-53 -182h-188z" />
    <glyph glyph-name="eth" unicode="&#xf0;" horiz-adv-x="831" 
d="M304 104q80 0 126.5 58.5t87.5 200.5l74 255q45 156 31.5 208t-93.5 52t-127 -59t-88 -201l-74 -255q-45 -155 -31 -207t94 -52zM823 936q0 -161 -42 -303l-41 -144q-92 -316 -176.5 -412.5t-270.5 -96.5q-263 0 -263 224q-1 69 26 158l74 255q61 212 154 298.5t257 86.5
q65 0 113 -14q-11 120 -40 213l-169 -59l-31 96l164 57q-26 52 -60 92l154 52q35 -38 61 -91l137 48l31 -96l-127 -44q49 -159 49 -320z" />
    <glyph glyph-name="ntilde" unicode="&#xf1;" horiz-adv-x="831" 
d="M639 1002q261 0 159 -331l-206 -671h-179l210 685q60 192 -55 192q-90 0 -148 -75t-103 -251l-169 -551h-187l302 982h178l-27 -87q97 107 225 107zM550 1223q-39 0 -75 -85h-114q57 140 91 184t75 45q41 0 167 -72q50 -26 72 -26q22 1 38 19t33 63h114
q-51 -136 -85 -181t-78 -45q-43 0 -126 49t-112 49z" />
    <glyph glyph-name="ograve" unicode="&#xf2;" horiz-adv-x="831" 
d="M314 104q78 0 124 58t88 201l74 255q44 152 29 206t-93 54t-125 -59t-88 -201l-74 -255q-44 -151 -29 -205q16 -54 94 -54zM301 -20q-263 0 -263 224q-1 69 26 158l74 255q61 213 154 299q92 86 260 86t228 -98q32 -52 32 -124t-27 -163l-74 -255q-61 -210 -153 -296
t-257 -86zM534 1103l-135 307h205l76 -307h-146z" />
    <glyph glyph-name="oacute" unicode="&#xf3;" horiz-adv-x="831" 
d="M314 104q78 0 124 58t88 201l74 255q44 152 29 206t-93 54t-125 -59t-88 -201l-74 -255q-44 -151 -29 -205q16 -54 94 -54zM301 -20q-263 0 -263 224q-1 69 26 158l74 255q61 213 154 299q92 86 260 86t228 -98q32 -52 32 -124t-27 -163l-74 -255q-61 -210 -153 -296
t-257 -86zM534 1097l187 307h217l-259 -307h-145z" />
    <glyph glyph-name="ocircumflex" unicode="&#xf4;" horiz-adv-x="831" 
d="M314 104q78 0 124 58t88 201l74 255q44 152 29 206t-93 54t-125 -59t-88 -201l-74 -255q-44 -151 -29 -205q16 -54 94 -54zM301 -20q-263 0 -263 224q-1 69 26 158l74 255q61 213 154 299q92 86 260 86t228 -98q32 -52 32 -124t-27 -163l-74 -255q-61 -210 -153 -296
t-257 -86zM585 1391h200l75 -288h-132l-79 174l-162 -174h-143z" />
    <glyph glyph-name="otilde" unicode="&#xf5;" horiz-adv-x="831" 
d="M314 104q78 0 124 58t88 201l74 255q44 152 29 206t-93 54t-125 -59t-88 -201l-74 -255q-44 -151 -29 -205q16 -54 94 -54zM301 -20q-263 0 -263 224q-1 69 26 158l74 255q61 213 154 299q92 86 260 86t228 -98q32 -52 32 -124t-27 -163l-74 -255q-61 -210 -153 -296
t-257 -86zM537 1223q-39 0 -75 -85h-114q58 140 92 184t74 45q41 0 167 -72q50 -26 72 -26q21 1 37 19t34 63h114q-52 -136 -86 -181t-77 -45t-126 49t-112 49z" />
    <glyph glyph-name="odieresis" unicode="&#xf6;" horiz-adv-x="831" 
d="M314 104q78 0 124 58t88 201l74 255q44 152 29 206t-93 54t-125 -59t-88 -201l-74 -255q-44 -151 -29 -205q16 -54 94 -54zM301 -20q-263 0 -263 224q-1 69 26 158l74 255q61 213 154 299q92 86 260 86t228 -98q32 -52 32 -124t-27 -163l-74 -255q-61 -210 -153 -296
t-257 -86zM737 1341h188l-53 -182h-188zM417 1341h188l-53 -182h-188z" />
    <glyph glyph-name="divide" unicode="&#xf7;" horiz-adv-x="1360" 
d="M707 901q41 0 69.5 -28.5t28.5 -70.5t-28.5 -70t-69.5 -28t-69.5 28t-28.5 70t28.5 70.5t69.5 28.5zM308 636h798v-125h-798v125zM707 443q41 0 69.5 -28.5t28.5 -70.5t-28.5 -70t-69.5 -28t-69.5 28t-28.5 70t28.5 70.5t69.5 28.5z" />
    <glyph glyph-name="oslash" unicode="&#xf8;" horiz-adv-x="831" 
d="M522 878q-64 0 -110 -59q-47 -59 -88 -201l-74 -255q-32 -111 -35 -169l397 663q-26 21 -90 21zM302 -20q-74 0 -130 19l-87 -146l-55 31l84 143q-75 69 -75 177q-1 69 26 158l74 255q61 212 154 298.5t257 86.5q80 0 136 -22l72 120l56 -29l-72 -120q71 -71 70 -174
q1 -69 -26 -160l-74 -255q-61 -210 -153 -296t-257 -86zM635 772l-392 -652q28 -16 89 -16t107.5 58.5t87.5 200.5l74 255q28 97 34 154z" />
    <glyph glyph-name="ugrave" unicode="&#xf9;" horiz-adv-x="831" 
d="M300 105q66 0 120 75t105 251l160 551h183l-285 -982h-172l33 104l-11 -12q-99 -112 -223 -112q-186 0 -186 173q0 56 21 127l204 702h187l-211 -727q-23 -75 -7 -113t82 -37zM527 1103l-135 307h205l76 -307h-146z" />
    <glyph glyph-name="uacute" unicode="&#xfa;" horiz-adv-x="831" 
d="M300 105q66 0 120 75t105 251l160 551h183l-285 -982h-172l33 104l-11 -12q-99 -112 -223 -112q-186 0 -186 173q0 56 21 127l204 702h187l-211 -727q-23 -75 -7 -113t82 -37zM527 1097l187 307h217l-259 -307h-145z" />
    <glyph glyph-name="ucircumflex" unicode="&#xfb;" horiz-adv-x="831" 
d="M300 105q66 0 120 75t105 251l160 551h183l-285 -982h-172l33 104l-11 -12q-99 -112 -223 -112q-186 0 -186 173q0 56 21 127l204 702h187l-211 -727q-23 -75 -7 -113t82 -37zM578 1391h200l75 -288h-132l-79 174l-162 -174h-143z" />
    <glyph glyph-name="udieresis" unicode="&#xfc;" horiz-adv-x="831" 
d="M300 105q66 0 120 75t105 251l160 551h183l-285 -982h-172l33 104l-11 -12q-99 -112 -223 -112q-186 0 -186 173q0 56 21 127l204 702h187l-211 -727q-23 -75 -7 -113t82 -37zM730 1341h188l-53 -182h-188zM410 1341h188l-53 -182h-188z" />
    <glyph glyph-name="yacute" unicode="&#xfd;" horiz-adv-x="831" 
d="M143 -367h-190l201 346l30 1003h180l-40 -742l404 742h189zM517 1097l187 307h217l-259 -307h-145z" />
    <glyph glyph-name="thorn" unicode="&#xfe;" horiz-adv-x="831" 
d="M311 102q127 0 189 216l100 345q35 119 21.5 168t-85.5 49t-124.5 -70.5t-104.5 -240.5l-23 -78q-76 -226 -70.5 -307.5t97.5 -81.5zM622 1002q182 0 182 -195q0 -64 -28 -159l-115 -396q-41 -140 -114 -206t-195 -65t-187 101l-129 -449h-187l515 1778h187l-144 -496
q92 87 215 87z" />
    <glyph glyph-name="ydieresis" unicode="&#xff;" horiz-adv-x="831" 
d="M143 -367h-190l201 346l30 1003h180l-40 -742l404 742h189zM720 1341h188l-53 -182h-188zM400 1341h188l-53 -182h-188z" />
    <glyph glyph-name="Amacron" unicode="&#x100;" horiz-adv-x="1057" 
d="M684 1411h245l-92 -1411h-198l26 317h-383l-161 -317h-199zM673 1677h442l-50 -137h-442z" />
    <glyph glyph-name="amacron" unicode="&#x101;" horiz-adv-x="831" 
d="M278 102q66 0 120 50t89 143l54 176q4 13 -64 11q-117 0 -174 -40t-89 -148q-33 -108 -18 -150q16 -42 82 -42zM22 61q-15 33 -15 93t40 192q40 131 138 194t283 63q114 1 111 -10l29 96q35 101 18 145q-16 44 -84 44t-106 -39t-66 -127h-182q35 138 124 214t216 76
q276 0 276 -210l-224 -792h-165l26 87q-88 -107 -234 -107t-185 81zM395 1272h534l-35 -137h-534z" />
    <glyph glyph-name="Abreve" unicode="&#x102;" horiz-adv-x="1057" 
d="M684 1411h245l-92 -1411h-198l26 317h-383l-161 -317h-199zM1186 1811q-59 -291 -326 -291q-144 0 -198 77t-2 214h146q-74 -174 66 -174q64 -1 102 39t66 135h146z" />
    <glyph glyph-name="abreve" unicode="&#x103;" horiz-adv-x="831" 
d="M278 102q66 0 120 50t89 143l54 176q4 13 -64 11q-117 0 -174 -40t-89 -148q-33 -108 -18 -150q16 -42 82 -42zM22 61q-15 33 -15 93t40 192q40 131 138 194t283 63q114 1 111 -10l29 96q35 101 18 145q-16 44 -84 44t-106 -39t-66 -127h-182q35 138 124 214t216 76
q276 0 276 -210l-224 -792h-165l26 87q-88 -107 -234 -107t-185 81zM626 1097q-142 0 -190 77t2 214h146q-72 -174 67 -174q64 0 102 40t65 134h146q-44 -163 -120 -227t-218 -64z" />
    <glyph glyph-name="Aogonek" unicode="&#x104;" horiz-adv-x="1057" 
d="M653 -237q43 0 95 41l64 -84q-46 -42 -100 -66t-99 -24q-104 0 -147 56q-41 56 -16 142q38 131 192 215l23 274h-383l-161 -317h-199l762 1411h245l-92 -1411h-129q-32 -17 -71 -52q-39 -34 -52 -78t6 -76q19 -31 62 -31z" />
    <glyph glyph-name="aogonek" unicode="&#x105;" horiz-adv-x="831" 
d="M278 102q66 0 120 50t89 143l54 176q4 13 -64 11q-117 0 -174 -40t-89 -148q-33 -108 -18 -150q16 -42 82 -42zM22 61q-15 33 -15 93t40 192q40 131 138 194t283 63q114 1 111 -10l29 96q35 101 18 145q-16 44 -84 44t-106 -39t-66 -127h-182q35 138 124 214t216 76
q276 0 276 -210l-224 -792h-86q-90 -61 -106 -116q-16 -54 1 -85t58 -31t91 41l66 -82q-44 -41 -97 -65t-95 -25q-93 1 -136 57t-19 141t161 174l23 78q-88 -107 -234 -107t-185 81z" />
    <glyph glyph-name="Cacute" unicode="&#x106;" horiz-adv-x="1020" 
d="M369 -20q-307 0 -307 253q0 80 31 187l147 507q81 281 194 391q114 110 322 111q208 0 271 -107t-6 -341h-195q49 168 27 229q-23 61 -123 61q-100 -1 -165 -71t-106 -212l-169 -579q-79 -271 102 -271q192 0 263 246l16 56h189l-16 -56q-39 -214 -150 -309t-325 -95z
M717 1526l187 307h217l-259 -307h-145z" />
    <glyph glyph-name="cacute" unicode="&#x107;" horiz-adv-x="793" 
d="M277 -20q-238 0 -238 215q0 72 28 168l86 296q53 179 139 261t232 82t205 -83q38 -51 38 -116t-16 -128h-180q59 203 -57 203q-60 0 -102 -54t-80 -186l-86 -296q-39 -134 -28 -186t72 -52q62 0 98 37t59 115l11 39h179l-11 -39q-30 -140 -116 -208t-233 -68zM474 1097
l187 307h217l-259 -307h-145z" />
    <glyph glyph-name="Ccaron" unicode="&#x10c;" horiz-adv-x="1020" 
d="M369 -20q-307 0 -307 253q0 80 31 187l147 507q81 281 194 391q114 110 322 111q208 0 271 -107t-6 -341h-195q49 168 27 229q-23 61 -123 61q-100 -1 -165 -71t-106 -212l-169 -579q-79 -271 102 -271q192 0 263 246l16 56h189l-16 -56q-39 -214 -150 -309t-325 -95z
M881 1532h-200l-75 288h132l79 -174l162 174h143z" />
    <glyph glyph-name="ccaron" unicode="&#x10d;" horiz-adv-x="793" 
d="M277 -20q-238 0 -238 215q0 72 28 168l86 296q53 179 139 261t232 82t205 -83q38 -51 38 -116t-16 -128h-180q59 203 -57 203q-60 0 -102 -54t-80 -186l-86 -296q-39 -134 -28 -186t72 -52q62 0 98 37t59 115l11 39h179l-11 -39q-30 -140 -116 -208t-233 -68zM642 1103
h-200l-75 288h132l79 -174l162 174h143z" />
    <glyph glyph-name="Dcaron" unicode="&#x10e;" horiz-adv-x="1057" 
d="M349 158q178 0 245 64t137 305l94 324q77 265 58 333t-169 69h-176l-319 -1095h130zM720 1411q263 0 333 -116t-17 -407l-94 -324q-102 -356 -209 -460t-370 -104h-382l409 1411h330zM845 1532h-200l-75 288h132l79 -174l162 174h143z" />
    <glyph glyph-name="dcaron" unicode="&#x10f;" horiz-adv-x="1057" 
d="M514 877q-76 0 -126 -65q-49 -65 -95 -222l-58 -201q-49 -171 -39 -229t83 -58t122 62t101 210l67 231q45 155 33 213t-88 59zM469 1002q132 0 188 -95l146 504h187l-409 -1411h-174l24 86q-95 -106 -226 -106q-195 0 -192 186q-1 80 34 198l73 252q62 212 140 299
t209 87zM984 1067l175 344h164l-235 -344h-104z" />
    <glyph glyph-name="Dcroat" unicode="&#x110;" horiz-adv-x="1057" 
d="M350 158q180 0 247.5 65t137.5 305l94 324q77 265 58 333t-171 68h-178l-139 -476h204l-41 -143h-204l-139 -476h131zM722 1411q264 0 335 -115q32 -50 32 -148t-48 -259l-94 -324q-103 -356 -210.5 -460.5t-371.5 -104.5h-384l184 634h-95l41 143h95l184 634h332z" />
    <glyph glyph-name="dcroat" unicode="&#x111;" horiz-adv-x="831" 
d="M510 867q-76 0 -125 -64t-94 -219l-58 -199q-49 -169 -38 -226t84 -57t122 61t100 208l66 227q45 153 32 211t-89 58zM205 -20q-195 0 -192 185q-1 79 33 195l73 250q61 210 138 296t210 86t187 -95l58 201h-177l39 132h177l52 181h187l-52 -181h134l-39 -132h-134
l-318 -1098h-174l24 85l-10 -10q-92 -95 -216 -95z" />
    <glyph glyph-name="Emacron" unicode="&#x112;" horiz-adv-x="868" 
d="M-19 0l409 1411h639l-48 -159h-444l-130 -448h418l-46 -159h-418l-141 -486h460l-48 -159h-651zM544 1677h442l-50 -137h-442z" />
    <glyph glyph-name="emacron" unicode="&#x113;" horiz-adv-x="793" 
d="M516 878q-76 0 -122 -59q-47 -59 -88 -201l-18 -62h263l18 62q45 156 34 208t-87 52zM302 104q118 0 169 181h173q-36 -171 -116 -238t-251 -67q-254 0 -257 221q1 70 27 161l74 255q61 213 157 299t266 86q235 0 238 -217q0 -73 -28 -168l-54 -184h-448l-20 -70
q-45 -155 -31 -207t101 -52zM367 1272h534l-35 -137h-534z" />
    <glyph glyph-name="Edotaccent" unicode="&#x116;" horiz-adv-x="868" 
d="M-19 0l409 1411h639l-48 -159h-444l-130 -448h418l-46 -159h-418l-141 -486h460l-48 -159h-651zM674 1760h210l-57 -197h-210z" />
    <glyph glyph-name="edotaccent" unicode="&#x117;" horiz-adv-x="793" 
d="M516 878q-76 0 -122 -59q-47 -59 -88 -201l-18 -62h263l18 62q45 156 34 208t-87 52zM302 104q118 0 169 181h173q-36 -171 -116 -238t-251 -67q-254 0 -257 221q1 70 27 161l74 255q61 213 157 299t266 86q235 0 238 -217q0 -73 -28 -168l-54 -184h-448l-20 -70
q-45 -155 -31 -207t101 -52zM574 1343h188l-60 -185h-188z" />
    <glyph glyph-name="Eogonek" unicode="&#x118;" horiz-adv-x="868" 
d="M483 -237q43 0 95 41l64 -84q-46 -42 -100 -66t-99 -24q-104 0 -147 56q-41 56 -14 148t124 166h-425l409 1411h639l-48 -159h-444l-130 -448h418l-46 -159h-418l-141 -486h460l-48 -159h-94q-32 -17 -71 -52q-39 -34 -52 -78t6 -76q19 -31 62 -31z" />
    <glyph glyph-name="eogonek" unicode="&#x119;" horiz-adv-x="793" 
d="M516 878q-76 0 -122 -59q-47 -59 -88 -201l-18 -62h263l18 62q45 156 34 208t-87 52zM544 1002q235 0 238 -217q0 -73 -28 -168l-54 -184h-448l-20 -70q-45 -155 -31 -207t101 -52q118 0 169 181h173q-36 -171 -118 -238q-47 -40 -125 -56q-80 -59 -95 -110t2 -82t58 -31
t91 41l66 -82q-44 -41 -97 -65t-95 -25q-93 1 -136 57t-21 133t122 153h-19q-254 0 -257 221q1 70 27 161l74 255q61 213 157 299t266 86z" />
    <glyph glyph-name="Ecaron" unicode="&#x11a;" horiz-adv-x="868" 
d="M-19 0l409 1411h639l-48 -159h-444l-130 -448h418l-46 -159h-418l-141 -486h460l-48 -159h-651zM813 1532h-200l-75 288h132l79 -174l162 174h143z" />
    <glyph glyph-name="ecaron" unicode="&#x11b;" horiz-adv-x="793" 
d="M516 878q-76 0 -122 -59q-47 -59 -88 -201l-18 -62h263l18 62q45 156 34 208t-87 52zM302 104q118 0 169 181h173q-36 -171 -116 -238t-251 -67q-254 0 -257 221q1 70 27 161l74 255q61 213 157 299t266 86q235 0 238 -217q0 -73 -28 -168l-54 -184h-448l-20 -70
q-45 -155 -31 -207t101 -52zM691 1103h-200l-75 288h132l79 -174l162 174h143z" />
    <glyph glyph-name="Gbreve" unicode="&#x11e;" horiz-adv-x="1057" 
d="M76 242q0 76 29 175l147 507q86 298 198 402t336 103q224 1 290 -99t-1 -325h-195q38 154 9 210t-140 56t-172 -65t-107 -223l-168 -579q-44 -150 -10 -212t140 -60q106 0 204 36l115 421h-204l46 159h408l-206 -708q-183 -59 -376 -60q-343 0 -343 262zM1171 1811
q-59 -291 -326 -291q-143 0 -197 77t-3 214h146q-74 -174 66 -174q64 -1 102 39t66 135h146z" />
    <glyph glyph-name="gbreve" unicode="&#x11f;" horiz-adv-x="831" 
d="M498 873q-76 0 -128 -74q-51 -74 -103 -253l-59 -204q-60 -207 51 -207q81 -1 137 59t106 200l64 220q42 137 25 198t-93 61zM202 14q-201 0 -201 179q1 57 22 133l59 204q82 278 160 375t212 97t204 -113l27 93h168l-274 -941q-71 -248 -164 -338t-260 -90
q-167 -1 -230 73t-23 199l11 39h162l-11 -39q-18 -77 5 -113t98 -35q75 0 126 67t99 237l16 53q-90 -80 -206 -80zM570 1097q-142 0 -190 77t2 214h146q-72 -174 67 -174q64 0 102 40t65 134h146q-44 -163 -120 -227t-218 -64z" />
    <glyph glyph-name="uni0122" unicode="&#x122;" horiz-adv-x="1057" 
d="M82 242q0 76 29 175l147 507q86 298 198 402t336 103q224 1 290 -99t-1 -325h-195q38 154 9 210t-140 56t-172 -65t-107 -223l-168 -579q-44 -150 -10 -212t140 -60q106 0 204 36l115 421h-204l46 159h408l-206 -708q-183 -59 -376 -60q-343 0 -343 262zM76 -387l244 271
h154l-178 -271h-220z" />
    <glyph glyph-name="uni0123" unicode="&#x123;" horiz-adv-x="831" 
d="M498 873q-76 0 -128 -74q-51 -74 -103 -253l-59 -204q-60 -207 51 -207q81 -1 137 59t106 200l64 220q42 137 25 198t-93 61zM202 14q-201 0 -201 179q1 57 22 133l59 204q82 278 160 375t212 97t204 -113l27 93h168l-274 -941q-71 -248 -164 -338t-260 -90
q-167 -1 -230 73t-23 199l11 39h162l-11 -39q-18 -77 5 -113t98 -35q75 0 126 67t99 237l16 53q-90 -80 -206 -80zM807 1380l-183 -277h-223l259 277h147z" />
    <glyph glyph-name="Imacron" unicode="&#x12a;" horiz-adv-x="453" 
d="M390 1411h193l-409 -1411h-193zM353 1677h442l-50 -137h-442z" />
    <glyph glyph-name="imacron" unicode="&#x12b;" horiz-adv-x="378" 
d="M239 982h187l-285 -982h-187zM143 1272h534l-35 -137h-534z" />
    <glyph glyph-name="Iogonek" unicode="&#x12e;" horiz-adv-x="453" 
d="M64 -237q43 0 95 41l64 -84q-45 -42 -99 -66t-100 -24q-104 0 -147 56q-41 56 -14 148t124 166h-5l409 1411h193l-409 -1411h-56q-32 -17 -71 -52q-39 -34 -52 -78t6 -76q19 -31 62 -31z" />
    <glyph glyph-name="iogonek" unicode="&#x12f;" horiz-adv-x="378" 
d="M377 1407h192l-56 -193h-192zM78 -232q41 0 91 41l66 -82q-44 -41 -97 -65t-95 -25q-93 1 -136 57t-19 139t147 167h-63l285 982h187l-285 -982h-34q-90 -61 -106 -116q-16 -54 1 -85t58 -31z" />
    <glyph glyph-name="Idotaccent" unicode="&#x130;" horiz-adv-x="453" 
d="M390 1411h193l-409 -1411h-193zM483 1760h210l-57 -197h-210z" />
    <glyph glyph-name="dotlessi" unicode="&#x131;" horiz-adv-x="453" 
d="M277 982h187l-285 -982h-187z" />
    <glyph glyph-name="uni0136" unicode="&#x136;" horiz-adv-x="1020" 
d="M942 1411h210l-543 -661l190 -750h-199l-188 762zM191 0h-193l409 1411h193zM41 -387l244 271h154l-178 -271h-220z" />
    <glyph glyph-name="uni0137" unicode="&#x137;" horiz-adv-x="831" 
d="M-10 -387l244 271h154l-178 -271h-220zM194 0h-181l434 1411h181l-258 -840l352 411h202l-366 -427l117 -555h-181l-125 569z" />
    <glyph glyph-name="Lacute" unicode="&#x139;" horiz-adv-x="793" 
d="M394 1411h193l-363 -1252h422l-48 -159h-613zM462 1526l187 307h217l-259 -307h-145z" />
    <glyph glyph-name="lacute" unicode="&#x13a;" horiz-adv-x="378" 
d="M361 1411h187l-409 -1411h-187zM426 1526l187 307h217l-259 -307h-145z" />
    <glyph glyph-name="uni013B" unicode="&#x13b;" horiz-adv-x="793" 
d="M442 1411h193l-363 -1252h422l-48 -159h-613zM-15 -387l244 271h154l-178 -271h-220z" />
    <glyph glyph-name="uni013C" unicode="&#x13c;" horiz-adv-x="378" 
d="M370 1411h187l-409 -1411h-187zM-300 -387l244 271h154l-178 -271h-220z" />
    <glyph glyph-name="Lcaron" unicode="&#x13d;" horiz-adv-x="793" 
d="M394 1411h193l-363 -1252h422l-48 -159h-613zM619 1067l175 344h164l-235 -344h-104z" />
    <glyph glyph-name="lcaron" unicode="&#x13e;" horiz-adv-x="604" 
d="M361 1411h187l-409 -1411h-187zM537 1067l175 344h164l-235 -344h-104z" />
    <glyph glyph-name="Lslash" unicode="&#x141;" horiz-adv-x="793" 
d="M399 1411h193l-154 -530l219 67l-63 -196l-212 -65l-153 -528h422l-48 -159h-613l180 621l-193 -59l45 191l205 63z" />
    <glyph glyph-name="lslash" unicode="&#x142;" horiz-adv-x="378" 
d="M361 1411h187l-160 -552l123 47l-58 -197l-122 -47l-192 -662h-187l168 581l-116 -45l57 197l117 45z" />
    <glyph glyph-name="Nacute" unicode="&#x143;" horiz-adv-x="1095" 
d="M150 0h-175l409 1411h145l165 -1214l352 1214h175l-409 -1411h-147l-168 1197zM703 1526l187 307h217l-259 -307h-145z" />
    <glyph glyph-name="nacute" unicode="&#x144;" horiz-adv-x="831" 
d="M639 1002q261 0 159 -331l-206 -671h-179l210 685q60 192 -55 192q-90 0 -148 -75t-103 -251l-169 -551h-187l302 982h178l-27 -87q97 107 225 107zM505 1097l187 307h217l-259 -307h-145z" />
    <glyph glyph-name="uni0145" unicode="&#x145;" horiz-adv-x="1095" 
d="M150 0h-175l409 1411h145l165 -1214l352 1214h175l-409 -1411h-147l-168 1197zM39 -387l244 271h154l-178 -271h-220z" />
    <glyph glyph-name="uni0146" unicode="&#x146;" horiz-adv-x="831" 
d="M678 1002q261 0 159 -331l-206 -671h-179l210 685q60 192 -55 192q-89 0 -147 -75t-104 -251l-169 -551h-187l302 982h178l-27 -87q97 107 225 107zM-39 -387l244 271h154l-178 -271h-220z" />
    <glyph glyph-name="Ncaron" unicode="&#x147;" horiz-adv-x="1095" 
d="M150 0h-175l409 1411h145l165 -1214l352 1214h175l-409 -1411h-147l-168 1197zM938 1532h-200l-75 288h132l79 -174l162 174h143z" />
    <glyph glyph-name="ncaron" unicode="&#x148;" horiz-adv-x="831" 
d="M639 1002q261 0 159 -331l-206 -671h-179l210 685q60 192 -55 192q-90 0 -148 -75t-103 -251l-169 -551h-187l302 982h178l-27 -87q97 107 225 107zM715 1103h-200l-75 288h132l79 -174l162 174h143z" />
    <glyph glyph-name="Omacron" unicode="&#x14c;" horiz-adv-x="1057" 
d="M420 138q108 0 177 70t110 213l168 579q43 149 13 210t-139 61q-109 -1 -177 -71t-109 -212l-169 -579q-43 -149 -12 -210q30 -61 138 -61zM761 1429q341 0 341 -264q0 -77 -29 -176l-147 -507q-86 -296 -192 -399t-325 -103q-342 0 -342 263q0 76 29 175l147 507
q87 297 193 401t325 103zM656 1677h442l-50 -137h-442z" />
    <glyph glyph-name="omacron" unicode="&#x14d;" horiz-adv-x="831" 
d="M314 104q78 0 124 58t88 201l74 255q44 152 29 206t-93 54t-125 -59t-88 -201l-74 -255q-44 -151 -29 -205q16 -54 94 -54zM301 -20q-263 0 -263 224q-1 69 26 158l74 255q61 213 154 299q92 86 260 86t228 -98q32 -52 32 -124t-27 -163l-74 -255q-61 -210 -153 -296
t-257 -86zM378 1272h534l-35 -137h-534z" />
    <glyph glyph-name="Ohungarumlaut" unicode="&#x150;" horiz-adv-x="1057" 
d="M420 138q108 0 177 70t110 213l168 579q43 149 13 210t-139 61q-109 -1 -177 -71t-109 -212l-169 -579q-43 -149 -12 -210q30 -61 138 -61zM761 1429q341 0 341 -264q0 -77 -29 -176l-147 -507q-86 -296 -192 -399t-325 -103q-342 0 -342 263q0 76 29 175l147 507
q87 297 193 401t325 103zM889 1520l187 307h217l-259 -307h-145zM603 1520l187 307h217l-259 -307h-145z" />
    <glyph glyph-name="ohungarumlaut" unicode="&#x151;" horiz-adv-x="831" 
d="M314 104q78 0 124 58t88 201l74 255q44 152 29 206t-93 54t-125 -59t-88 -201l-74 -255q-44 -151 -29 -205q16 -54 94 -54zM301 -20q-263 0 -263 224q-1 69 26 158l74 255q61 213 154 299q92 86 260 86t228 -98q32 -52 32 -124t-27 -163l-74 -255q-61 -210 -153 -296
t-257 -86zM693 1097l187 307h217l-259 -307h-145zM410 1097l187 307h217l-259 -307h-145z" />
    <glyph glyph-name="OE" unicode="&#x152;" horiz-adv-x="1397" 
d="M740 1259q-126 0 -192.5 -64.5t-109.5 -210.5l-165 -569q-42 -145 -12 -204t161 -59t157 26l310 1067q-23 14 -149 14zM762 0l-379 -6q-433 0 -309 429l145 498q91 312 192 404t355 92l405 -6h349l-48 -159h-398l-130 -448h398l-46 -159h-398l-141 -486h412l-48 -159
h-359z" />
    <glyph glyph-name="oe" unicode="&#x153;" horiz-adv-x="1284" 
d="M962 878q-72 0 -118 -59t-87 -201l-18 -62h251l18 62q45 156 35.5 208t-81.5 52zM514 878q-80 0 -126 -59q-47 -59 -88 -201l-74 -255q-45 -155 -31 -207t94 -52t126.5 58.5t87.5 200.5l74 255q45 156 30 208q-13 52 -93 52zM1001 1002q303 0 192 -385l-54 -184h-436
l-20 -70q-45 -155 -32 -207t97 -52q112 0 163 181h173q-36 -171 -111 -238t-231 -67t-210 98l-8 17l-26 -29q-88 -86 -244 -86t-212 97.5t-1 284.5l74 255q61 213 149 299t246 86q156 0 211 -98l10 -20l29 32q89 86 241 86z" />
    <glyph glyph-name="Racute" unicode="&#x154;" horiz-adv-x="1020" 
d="M617 805q193 0 263 226q39 128 0 175t-169 47h-152l-138 -448h196zM765 1411q207 0 285 -96q45 -55 45 -129t-28 -164q-48 -156 -136 -230t-225 -75q99 -19 141 -64q66 -72 11 -250q-34 -111 -53 -202l-5 -26q-22 -128 -24 -174h-197q7 57 28 160l9 41q19 90 57 212
t4 178q-34 55 -159 55h-145l-199 -647h-189l434 1411h346zM667 1526l187 307h217l-259 -307h-145z" />
    <glyph glyph-name="racute" unicode="&#x155;" horiz-adv-x="566" 
d="M596 818q-122 0 -182 -54t-109 -213l-160 -551h-183l285 982h174l-26 -105l13 13q109 109 249 110l-47 -182h-14zM419 1097l187 307h217l-259 -307h-145z" />
    <glyph glyph-name="uni0156" unicode="&#x156;" horiz-adv-x="1020" 
d="M617 805q193 0 263 226q39 128 0 175t-169 47h-152l-138 -448h196zM765 1411q207 0 285 -96q45 -55 45 -129t-28 -164q-48 -156 -136 -230t-225 -75q99 -19 141 -64q66 -72 11 -250q-34 -111 -53 -202l-5 -26q-22 -128 -24 -174h-197q7 57 28 160l9 41q19 90 57 212
t4 178q-34 55 -159 55h-145l-199 -647h-189l434 1411h346zM25 -387l244 271h154l-178 -271h-220z" />
    <glyph glyph-name="uni0157" unicode="&#x157;" horiz-adv-x="566" 
d="M597 818q-121 0 -181 -54t-110 -213l-160 -551h-183l285 982h174l-26 -105l13 13q109 109 249 110l-47 -182h-14zM-300 -387l244 271h154l-178 -271h-220z" />
    <glyph glyph-name="Rcaron" unicode="&#x158;" horiz-adv-x="1020" 
d="M617 805q193 0 263 226q39 128 0 175t-169 47h-152l-138 -448h196zM765 1411q207 0 285 -96q45 -55 45 -129t-28 -164q-48 -156 -136 -230t-225 -75q99 -19 141 -64q66 -72 11 -250q-34 -111 -53 -202l-5 -26q-22 -128 -24 -174h-197q7 57 28 160l9 41q19 90 57 212
t4 178q-34 55 -159 55h-145l-199 -647h-189l434 1411h346zM902 1532h-200l-75 288h132l79 -174l162 174h143z" />
    <glyph glyph-name="rcaron" unicode="&#x159;" horiz-adv-x="566" 
d="M596 818q-122 0 -182 -54t-109 -213l-160 -551h-183l285 982h174l-26 -105l13 13q109 109 249 110l-47 -182h-14zM587 1103h-200l-75 288h132l79 -174l162 174h143z" />
    <glyph glyph-name="Sacute" unicode="&#x15a;" horiz-adv-x="982" 
d="M747 1429q293 0 296 -266q0 -69 -20 -154h-195q37 144 14 203t-118 59q-96 -1 -164 -57t-94 -143t8 -143q33 -56 139 -131q178 -127 221 -227q20 -47 20 -113t-26 -156q-44 -151 -170 -236t-324 -85q-308 0 -308 229q0 81 24 175l16 56h186l-16 -56q-34 -134 -2 -190
t138 -56q212 0 281 239q22 75 -7 131t-127 126q-184 131 -231 227q-46 94 -2 250q92 318 461 318zM642 1526l187 307h217l-259 -307h-145z" />
    <glyph glyph-name="sacute" unicode="&#x15b;" horiz-adv-x="755" 
d="M493 1002q264 0 264 -190q0 -54 -22 -125h-189q34 111 22 151t-70 40t-92 -32t-48 -86q-16 -54 4 -91q20 -39 114 -125q142 -132 143 -249q0 -40 -14 -89q-30 -106 -120 -166t-231 -60t-210 75q-43 49 -43 107t11 103l12 39h182l-12 -39q-18 -73 2 -117t76 -44
q111 0 153 144q13 48 -4 85t-109 122t-120 143q-43 92 -13 192q29 100 109 156t205 56zM454 1097l187 307h217l-259 -307h-145z" />
    <glyph glyph-name="Scedilla" unicode="&#x15e;" horiz-adv-x="982" 
d="M771 1429q293 0 296 -266q0 -69 -20 -154h-195q37 144 14 203t-118 59q-96 -1 -164 -57t-94 -143t8 -143q33 -56 139 -131q178 -127 221 -227q20 -47 20 -113t-26 -156q-44 -151 -170 -236t-324 -85q-308 0 -308 229q0 81 24 175l16 56h186l-16 -56q-34 -134 -2 -190
t138 -56q212 0 281 239q22 75 -7 131t-127 126q-184 131 -231 227q-46 94 -2 250q92 318 461 318zM26 -387l244 271h154l-178 -271h-220z" />
    <glyph glyph-name="scedilla" unicode="&#x15f;" horiz-adv-x="755" 
d="M484 1002q264 0 264 -190q0 -54 -22 -125h-189q34 111 22 151t-70 40q-57 0 -91 -32t-50 -86t6 -91q20 -39 114 -125q142 -132 142 -249q0 -40 -14 -89q-30 -106 -120 -166t-231 -60t-210 75q-43 49 -43 107t11 103l12 39h182l-12 -39q-17 -73 3 -117t75 -44
q111 0 153 144q13 48 -4 85q-16 37 -108 122t-120 143q-43 92 -14 192q28 100 108 156t206 56zM-74 -387l244 271h154l-183 -271h-215z" />
    <glyph glyph-name="Scaron" unicode="&#x160;" horiz-adv-x="982" 
d="M747 1429q293 0 296 -266q0 -69 -20 -154h-195q37 144 14 203t-118 59q-96 -1 -164 -57t-94 -143t8 -143q33 -56 139 -131q178 -127 221 -227q20 -47 20 -113t-26 -156q-44 -151 -170 -236t-324 -85q-308 0 -308 229q0 81 24 175l16 56h186l-16 -56q-34 -134 -2 -190
t138 -56q212 0 281 239q22 75 -7 131t-127 126q-184 131 -231 227q-46 94 -2 250q92 318 461 318zM877 1532h-200l-75 288h132l79 -174l162 174h143z" />
    <glyph glyph-name="scaron" unicode="&#x161;" horiz-adv-x="755" 
d="M493 1002q264 0 264 -190q0 -54 -22 -125h-189q34 111 22 151t-70 40t-92 -32t-48 -86q-16 -54 4 -91q20 -39 114 -125q142 -132 143 -249q0 -40 -14 -89q-30 -106 -120 -166t-231 -60t-210 75q-43 49 -43 107t11 103l12 39h182l-12 -39q-18 -73 2 -117t76 -44
q111 0 153 144q13 48 -4 85t-109 122t-120 143q-43 92 -13 192q29 100 109 156t205 56zM622 1103h-200l-75 288h132l79 -174l162 174h143z" />
    <glyph glyph-name="uni0162" unicode="&#x162;" horiz-adv-x="982" 
d="M464 0h-193l363 1252h-346l48 159h882l-48 -159h-343zM13 -387l244 271h154l-178 -271h-220z" />
    <glyph glyph-name="uni0163" unicode="&#x163;" horiz-adv-x="604" 
d="M286 -20q-144 0 -180 70t18 253l158 544h-129l39 135h129l51 177l205 76l-73 -253h157l-39 -135h-157l-158 -544q-31 -107 -15 -153t85 -46q22 0 44 5l-38 -122q-47 -7 -97 -7zM-119 -387l244 271h154l-183 -271h-215z" />
    <glyph glyph-name="Tcaron" unicode="&#x164;" horiz-adv-x="982" 
d="M441 0h-193l363 1252h-346l48 159h882l-48 -159h-343zM889 1532h-200l-75 288h132l79 -174l162 174h143z" />
    <glyph glyph-name="tcaron" unicode="&#x165;" horiz-adv-x="680" 
d="M272 -20q-144 0 -180 70t18 253l158 544h-129l39 135h129l51 177l205 76l-73 -253h157l-39 -135h-157l-158 -544q-31 -107 -15 -153t85 -46q22 0 44 5l-38 -122q-47 -7 -97 -7zM592 1064l175 344h164l-235 -344h-104z" />
    <glyph glyph-name="Umacron" unicode="&#x16a;" horiz-adv-x="1057" 
d="M373 -20q-302 0 -299 252q0 84 32 194l286 985h198l-294 -1013q-41 -147 -14 -203q26 -56 132 -56q106 1 177 75t115 224l282 973h193l-286 -985q-73 -250 -187 -348t-335 -98zM656 1677h442l-50 -137h-442z" />
    <glyph glyph-name="umacron" unicode="&#x16b;" horiz-adv-x="831" 
d="M300 105q66 0 120 75t105 251l160 551h183l-285 -982h-172l33 104l-11 -12q-99 -112 -223 -112q-186 0 -186 173q0 56 21 127l204 702h187l-211 -727q-23 -75 -7 -113t82 -37zM371 1272h534l-35 -137h-534z" />
    <glyph glyph-name="Uring" unicode="&#x16e;" horiz-adv-x="1057" 
d="M373 -20q-302 0 -299 252q0 84 32 194l286 985h198l-294 -1013q-41 -147 -14 -203q26 -56 132 -56q106 1 177 75t115 224l282 973h193l-286 -985q-73 -250 -187 -348t-335 -98zM825 1622q39 0 65 26t27 66q-1 40 -27 66t-65 26t-65 -26t-27 -66q1 -40 27 -66t65 -26z
M825 1524q-80 0 -135 55t-55 135t55 135t135 55t135 -55t55 -135t-55 -135t-135 -55z" />
    <glyph glyph-name="uring" unicode="&#x16f;" horiz-adv-x="831" 
d="M300 105q66 0 120 75t105 251l160 551h183l-285 -982h-172l33 104l-11 -12q-99 -112 -223 -112q-186 0 -186 173q0 56 21 127l204 702h187l-211 -727q-23 -75 -7 -113t82 -37zM595 1193q39 1 65 27t27 65q-1 39 -27 65t-65 27q-39 -1 -65 -27t-27 -65q1 -39 27 -65
t65 -27zM595 1095q-80 0 -135 55t-55 135t55 135t135 55t135 -55t55 -135t-55 -135t-135 -55z" />
    <glyph glyph-name="Uhungarumlaut" unicode="&#x170;" horiz-adv-x="1057" 
d="M373 -20q-302 0 -299 252q0 84 32 194l286 985h198l-294 -1013q-41 -147 -14 -203q26 -56 132 -56q106 1 177 75t115 224l282 973h193l-286 -985q-73 -250 -187 -348t-335 -98zM889 1520l187 307h217l-259 -307h-145zM603 1520l187 307h217l-259 -307h-145z" />
    <glyph glyph-name="uhungarumlaut" unicode="&#x171;" horiz-adv-x="831" 
d="M300 105q66 0 120 75t105 251l160 551h183l-285 -982h-172l33 104l-11 -12q-99 -112 -223 -112q-186 0 -186 173q0 56 21 127l204 702h187l-211 -727q-23 -75 -7 -113t82 -37zM686 1097l187 307h217l-259 -307h-145zM403 1097l187 307h217l-259 -307h-145z" />
    <glyph glyph-name="Uogonek" unicode="&#x172;" horiz-adv-x="1057" 
d="M414 139q106 1 177 75t115 224l282 973h193l-286 -985q-72 -250 -188 -348q-53 -46 -130 -70q-41 -19 -83 -57q-42 -37 -55 -81t6 -76q19 -31 62 -31t95 41l64 -84q-46 -42 -100 -66t-99 -24q-104 0 -147 56q-41 56 -16 142t102 153q-16 -1 -33 -1q-302 0 -299 252
q0 84 32 194l286 985h198l-294 -1013q-41 -147 -14 -203q26 -56 132 -56z" />
    <glyph glyph-name="uogonek" unicode="&#x173;" horiz-adv-x="831" 
d="M450 -232q41 0 91 41l66 -82q-44 -41 -97 -65t-95 -25q-93 1 -136 57t-19 140t152 169l32 101l-11 -12q-99 -112 -223 -112q-186 0 -186 173q0 56 21 127l204 702h187l-211 -727q-44 -150 63 -150q78 0 132 75t105 251l160 551h183l-285 -982h-86q-90 -61 -106 -116
q-16 -54 1 -85t58 -31z" />
    <glyph glyph-name="Ydieresis" unicode="&#x178;" 
d="M312 1411h200l26 -633l407 633h209l-573 -851l-172 -560h-193l172 560zM904 1745h196l-59 -182h-196zM577 1745h196l-59 -182h-196z" />
    <glyph glyph-name="Zacute" unicode="&#x179;" 
d="M-7 196l854 1056h-525l48 159h739l-56 -186l-862 -1066h562l-48 -159h-768zM639 1526l187 307h217l-259 -307h-145z" />
    <glyph glyph-name="zacute" unicode="&#x17a;" horiz-adv-x="680" 
d="M-16 172l537 681h-339l38 129h521l-50 -172l-537 -681h339l-37 -129h-521zM421 1097l187 307h217l-259 -307h-145z" />
    <glyph glyph-name="Zdotaccent" unicode="&#x17b;" 
d="M-7 196l854 1056h-525l48 159h739l-56 -186l-862 -1066h562l-48 -159h-768zM735 1760h210l-57 -197h-210z" />
    <glyph glyph-name="zdotaccent" unicode="&#x17c;" horiz-adv-x="680" 
d="M-16 172l537 681h-339l38 129h521l-50 -172l-537 -681h339l-37 -129h-521zM472 1343h188l-60 -185h-188z" />
    <glyph glyph-name="Zcaron" unicode="&#x17d;" 
d="M-7 196l854 1056h-525l48 159h739l-56 -186l-862 -1066h562l-48 -159h-768zM874 1532h-200l-75 288h132l79 -174l162 174h143z" />
    <glyph glyph-name="zcaron" unicode="&#x17e;" horiz-adv-x="680" 
d="M-16 172l537 681h-339l38 129h521l-50 -172l-537 -681h339l-37 -129h-521zM589 1103h-200l-75 288h132l79 -174l162 174h143z" />
    <glyph glyph-name="florin" unicode="&#x192;" 
d="M861 1424q68 0 108 -17l-35 -123q-24 4 -55 3q-70 0 -105 -39t-68 -152l-33 -114h158l-39 -135h-157l-243 -847h-187l248 847h-128l39 135h129l33 114q57 197 124 262.5t211 65.5z" />
    <glyph glyph-name="circumflex" unicode="&#x2c6;" 
d="M633 1391h200l74 -288h-132l-79 174l-162 -174h-143z" />
    <glyph glyph-name="caron" unicode="&#x2c7;" 
d="M722 1103h-200l-74 288h132l78 -174l163 174h143z" />
    <glyph glyph-name="uni02C9" unicode="&#x2c9;" 
d="M404 1272h534l-35 -137h-534z" />
    <glyph glyph-name="breve" unicode="&#x2d8;" 
d="M626 1097q-142 0 -189.5 77t3.5 214h146q-74 -174 66 -174q64 0 102 39.5t66 134.5h146q-45 -163 -121.5 -227t-218.5 -64z" />
    <glyph glyph-name="dotaccent" unicode="&#x2d9;" 
d="M632 1343h188l-60 -185h-188z" />
    <glyph glyph-name="ring" unicode="&#x2da;" 
d="M670 1193q39 0 65.5 26.5t26.5 65.5t-26.5 65.5t-65.5 26.5t-65.5 -26.5t-26.5 -65.5t26.5 -65.5t65.5 -26.5zM670 1095q-80 0 -135 55t-55 135t55 135t135 55t135 -55t55 -135t-55 -135t-135 -55z" />
    <glyph glyph-name="ogonek" unicode="&#x2db;" 
d="M456 -232q41 0 91 41l66 -82q-44 -41 -97 -65.5t-95 -24.5q-93 1 -136 57t-17 145q15 54 86.5 116t175.5 111l14 -42q-51 -26 -95 -69t-56 -84t5 -72t58 -31z" />
    <glyph glyph-name="tilde" unicode="&#x2dc;" 
d="M797 1269q39 0 70 82h114q-51 -136 -85.5 -181t-77.5 -45t-126 49t-108 49q-24 0 -41 -19t-38 -66h-114q59 140 92.5 184.5t73.5 44.5t128 -49q87 -49 112 -49z" />
    <glyph glyph-name="hungarumlaut" unicode="&#x2dd;" 
d="M686 1097l189 307h217l-261 -307h-145zM403 1097l189 307h217l-261 -307h-145z" />
    <glyph glyph-name="pi" unicode="&#x3c0;" horiz-adv-x="1246" 
d="M669 206q0 180 101 599h-148l-116 -652q-18 -105 -45 -141.5t-89 -36.5t-73 45t28 165l211 620h-94q-75 0 -130.5 -31.5t-140.5 -121.5l-61 40q91 160 171.5 213.5t229.5 53.5l338 1q236 0 337 9l-30 -164h-301q-61 -325 14 -660q22 -99 7 -134.5t-78 -35.5
q-131 0 -131 231z" />
    <glyph glyph-name="endash" unicode="&#x2013;" 
d="M81 571h806l-40 -140h-806z" />
    <glyph glyph-name="emdash" unicode="&#x2014;" horiz-adv-x="1360" 
d="M116 571h1118l-40 -140h-1118z" />
    <glyph glyph-name="quoteleft" unicode="&#x2018;" horiz-adv-x="453" 
d="M646 1411l-223 -444h-206l300 444h129z" />
    <glyph glyph-name="quoteright" unicode="&#x2019;" horiz-adv-x="453" 
d="M217 967l223 444h206l-300 -444h-129z" />
    <glyph glyph-name="quotesinglbase" unicode="&#x201a;" horiz-adv-x="453" 
d="M-156 -213l220 443h206l-297 -443h-129z" />
    <glyph glyph-name="quotedblleft" unicode="&#x201c;" horiz-adv-x="718" 
d="M956 1411l-223 -444h-206l300 444h129zM646 1411l-223 -444h-206l300 444h129z" />
    <glyph glyph-name="quotedblright" unicode="&#x201d;" horiz-adv-x="718" 
d="M527 967l223 444h206l-300 -444h-129zM217 967l223 444h206l-300 -444h-129z" />
    <glyph glyph-name="quotedblbase" unicode="&#x201e;" horiz-adv-x="718" 
d="M178 -213l223 444h206l-300 -444h-129zM-132 -213l223 444h206l-300 -444h-129z" />
    <glyph glyph-name="dagger" unicode="&#x2020;" 
d="M245 1055h253v356h123v-356h255v-123h-255v-932h-123v932h-253v123z" />
    <glyph glyph-name="daggerdbl" unicode="&#x2021;" 
d="M245 1055h253v356h123v-356h255v-123h-255v-455h255v-123h-255v-354h-123v354h-253v123h253v455h-253v123z" />
    <glyph glyph-name="bullet" unicode="&#x2022;" horiz-adv-x="1020" 
d="M510 1103q155 0 262.5 -107.5t107.5 -262.5t-107.5 -262.5t-262.5 -107.5t-262.5 107.5t-107.5 262.5t107.5 262.5t262.5 107.5z" />
    <glyph glyph-name="ellipsis" unicode="&#x2026;" horiz-adv-x="1360" 
d="M909 180h166v-180h-166v180zM473 180h166v-180h-166v180zM38 180h166v-180h-166v180z" />
    <glyph glyph-name="perthousand" unicode="&#x2030;" horiz-adv-x="1737" 
d="M1540 628q-42 0 -71 -36q-28 -36 -52 -118l-59 -204q-26 -91 -20.5 -122t48.5 -31t70.5 34.5t51.5 118.5l59 204q27 92 21 123t-48 31zM1380 21q-119 0 -160 58.5t-3 191.5l59 204q42 144 100 198t178 54t157 -58t-3 -194l-59 -204q-42 -145 -96 -197.5t-173 -52.5z
M988 628q-42 0 -70 -36t-52 -118l-59 -204q-26 -91 -20.5 -122t48.5 -31t70.5 34.5t51.5 118.5l59 204q27 92 20.5 123t-48.5 31zM829 21q-119 0 -160 58.5t-3 191.5l59 204q42 144 100.5 198t178.5 54t156.5 -58t-3.5 -194l-59 -204q-42 -145 -96 -197.5t-173 -52.5z
M81 -48l1005 1472h136l-1005 -1472h-136zM500 1298q-42 0 -70.5 -36.5t-51.5 -117.5l-59 -204q-27 -91 -21 -122t49 -31t70 34.5t52 118.5l59 204q27 92 20.5 123t-48.5 31zM340 691q-119 0 -160 58.5t-2 191.5l59 204q42 144 99.5 198t177.5 54t157.5 -58t-2.5 -194
l-59 -204q-42 -145 -96.5 -197.5t-173.5 -52.5z" />
    <glyph glyph-name="guilsinglleft" unicode="&#x2039;" horiz-adv-x="491" 
d="M518 869l-229 -367l27 -394h-123l-77 434l250 327h152z" />
    <glyph glyph-name="guilsinglright" unicode="&#x203a;" horiz-adv-x="491" 
d="M33 108l228 367l-26 394h123l77 -434l-250 -327h-152z" />
    <glyph glyph-name="fraction" unicode="&#x2044;" horiz-adv-x="227" 
d="M737 1439l-991 -1510h-150l991 1510h150z" />
    <glyph glyph-name="uni2074" unicode="&#x2074;" horiz-adv-x="566" 
d="M524 1397h197l-144 -469h96l-31 -100h-96l-46 -151h-127l46 151h-280l41 132z" />
    <glyph glyph-name="Euro" unicode="&#x20ac;" 
d="M395 -20q-189 0 -249 111q-27 53 -27 134t33 197l20 67h-127l74 159h99l31 108h-127l74 159h99l4 12q81 279 186 388.5t302 109.5t258 -106q29 -51 29 -135t-38 -213h-189q48 166 28.5 231t-109.5 65t-153 -70q-62 -70 -103 -211l-21 -71h273l-74 -159h-245l-31 -108h227
l-74 -159h-199l-24 -80q-79 -271 76 -271q187 0 258 242l16 56h184l-16 -56q-64 -220 -170 -310t-295 -90z" />
    <glyph glyph-name="trademark" unicode="&#x2122;" horiz-adv-x="1246" 
d="M299 1388h393v-89h-152v-518h-89v518h-152v89zM755 781v607h160l112 -486l112 486h160v-607h-89v559l-129 -559h-108l-129 559v-559h-89z" />
    <glyph glyph-name="Omega" unicode="&#x2126;" horiz-adv-x="1246" 
d="M101 952q0 209 149.5 334.5t397.5 127.5t404 -127t156 -328q0 -168 -141 -399q-81 -133 -199 -345h79q75 -1 112 42.5t64 164.5l73 -12l-74 -410h-412q127 352 167 479q88 285 88 460t-86.5 279.5t-224.5 108.5q-138 -4 -224 -107t-86 -265q0 -78 39.5 -284t215.5 -671
h-413l-74 410l74 12q33 -138 61.5 -171t114.5 -36h79q-81 154 -172 303q-168 271 -168 434z" />
    <glyph glyph-name="partialdiff" unicode="&#x2202;" horiz-adv-x="1020" 
d="M683 654q0 246 -156 247q-107 0 -181.5 -167.5t-74.5 -409.5q0 -114 44 -193t108 -79q108 0 184 178t76 424zM545 1434q393 0 391 -620q0 -372 -145.5 -609t-372.5 -237q-148 0 -242.5 117t-94.5 300q0 234 139.5 416.5t317.5 182.5q92 0 201 -66q21 190 -16.5 302
t-122.5 112q-28 0 -60.5 -29t-56.5 -81t-44.5 -71.5t-70.5 -19.5t-76 48.5t4 108.5t102.5 103t146.5 43z" />
    <glyph glyph-name="Delta" unicode="&#x2206;" horiz-adv-x="1360" 
d="M667 1077l-446 -883h799zM740 1391l582 -1391h-1285z" />
    <glyph glyph-name="product" unicode="&#x220f;" horiz-adv-x="2039" 
d="M197 -315v65q151 17 197.5 88.5t46.5 289.5v901q3 217 -43.5 288.5t-200.5 88.5v65h1645v-65q-151 -17 -197.5 -88.5t-46.5 -288.5v-901q0 -218 46.5 -289.5t197.5 -88.5v-65h-704v65q157 17 202 87t42 291v1262h-725v-1262q0 -218 46.5 -289.5t197.5 -88.5v-65h-704z
" />
    <glyph glyph-name="summation" unicode="&#x2211;" horiz-adv-x="2039" 
d="M1110 1389h-403l370 -740l-451 -756h524q138 0 219 51t149 180l22 41l70 -21l-117 -459h-1077l491 838l-482 948h1119l46 -366l-70 -14l-17 39q-54 142 -142.5 200.5t-250.5 58.5z" />
    <glyph glyph-name="minus" unicode="&#x2212;" horiz-adv-x="1360" 
d="M264 635h798v-124h-798v124z" />
    <glyph glyph-name="uni2215" unicode="&#x2215;" horiz-adv-x="227" 
d="M737 1439l-991 -1510h-150l991 1510h150z" />
    <glyph glyph-name="uni2219" unicode="&#x2219;" horiz-adv-x="453" 
d="M225 821h212l-67 -231h-212z" />
    <glyph glyph-name="radical" unicode="&#x221a;" horiz-adv-x="1473" 
d="M1722 1529v-86h-281l-553 -1817h-74l-570 821l-145 -105l-43 96l298 194l506 -750l480 1647h382z" />
    <glyph glyph-name="infinity" unicode="&#x221e;" horiz-adv-x="2039" 
d="M1643 569q0 97 -59.5 156.5t-150.5 59.5t-153 -50.5t-122 -168.5q41 -100 111.5 -154t164.5 -54t151.5 57t57.5 154zM394 569q0 -109 69 -183t173 -74t189 73t160 232q-63 113 -138 163.5t-185 50.5t-189 -76.5t-79 -185.5zM1754 573q0 -164 -97 -271t-243 -107
q-105 0 -189 56.5t-135 161.5q-106 -156 -186.5 -210t-206.5 -54q-174 0 -294 121.5t-120 299.5t116.5 301t285.5 123q122 0 210.5 -60.5t175.5 -202.5q147 217 335 217q153 0 250.5 -105.5t97.5 -269.5z" />
    <glyph glyph-name="integral" unicode="&#x222b;" horiz-adv-x="2039" 
d="M1187 1321q-84 0 -84 77q0 10 16 72q2 8 -5.5 14t-20.5 6q-77 0 -80 -131t58 -453t75 -638t-14 -464t-79 -208t-127 -60t-125 42t-49 94t28 82t64 30t61 -25.5t25 -61.5l-9 -60q-1 -9 6 -15.5t19 -6.5q52 -1 69 87t-13 250q-80 427 -110 817q-63 800 231 800
q66 0 112 -42t46 -102q0 -104 -94 -104z" />
    <glyph glyph-name="approxequal" unicode="&#x2248;" horiz-adv-x="2039" 
d="M742 865q128 0 336 -67t292 -67q85 0 157 35.5t116 86.5l37 -22q-48 -115 -136 -182.5t-178 -67.5t-334 67t-313 67t-147 -35t-127 -86l-31 32q57 100 156.5 169.5t171.5 69.5zM742 514q128 0 336 -67t292 -67q85 0 157 35.5t116 86.5l37 -22q-48 -115 -136 -182.5
t-178 -67.5t-334 67t-313 67t-147 -35t-127 -86l-31 32q57 100 156.5 169.5t171.5 69.5z" />
    <glyph glyph-name="notequal" unicode="&#x2260;" horiz-adv-x="2039" 
d="M407 279v135h437l236 276h-673v135h788l317 367h164l-315 -367h312v-135h-427l-236 -276h663v-135h-779l-318 -372h-166l318 372h-321z" />
    <glyph glyph-name="lessequal" unicode="&#x2264;" horiz-adv-x="2039" 
d="M417 135h1266v-135h-1266v135zM1683 1235v-135l-1063 -410l1063 -309v-135l-1266 377v135z" />
    <glyph glyph-name="greaterequal" unicode="&#x2265;" horiz-adv-x="2039" 
d="M417 135h1266v-135h-1266v135zM417 1235l1266 -477v-135l-1266 -377v135l1063 309l-1063 410v135z" />
    <glyph glyph-name="lozenge" unicode="&#x25ca;" horiz-adv-x="1171" 
d="M585 1324l-349 -613l349 -615l349 615zM530 1423h110l404 -712l-404 -711h-110l-404 711z" />
    <glyph glyph-name="uniEFED" unicode="&#xefed;" 
d="M759 1760h210l-57 -197h-210z" />
    <glyph glyph-name="uniEFEE" unicode="&#xefee;" 
d="M1116 1811q-59 -291 -327 -291q-144 0 -197 77t-2 214h146q-74 -174 66 -174q64 0 102 39.5t66 134.5h146z" />
    <glyph glyph-name="uniEFEF" unicode="&#xefef;" 
d="M592 1677h442l-49 -137h-442z" />
    <glyph glyph-name="uniEFF0" unicode="&#xeff0;" 
d="M826 1520l189 307h217l-261 -307h-145zM540 1520l189 307h217l-261 -307h-145z" />
    <glyph glyph-name="uniEFF1" unicode="&#xeff1;" 
d="M555 -237q43 0 95 41l64 -84q-45 -41 -99.5 -65.5t-99.5 -24.5q-104 0 -147 56q-41 56 -16 142t101.5 152t181.5 102l22 -62q-59 -19 -108 -62.5t-62 -87.5t6 -75.5t62 -31.5z" />
    <glyph glyph-name="uniEFF2" unicode="&#xeff2;" 
d="M23 -387l244 271h154l-178 -271h-220z" />
    <glyph glyph-name="uniEFF3" unicode="&#xeff3;" 
d="M804 1622q39 0 65.5 26.5t26.5 65.5t-26.5 65.5t-65.5 26.5t-65.5 -26.5t-26.5 -65.5t26.5 -65.5t65.5 -26.5zM804 1524q-80 0 -135 55t-55 135t55 135t135 55t135 -55t55 -135t-55 -135t-135 -55z" />
    <glyph glyph-name="uniEFF4" unicode="&#xeff4;" 
d="M856 1532h-200l-75 288h132l79 -174l162 174h143z" />
    <glyph glyph-name="uniEFF5" unicode="&#xeff5;" 
d="M687 1622q-38 0 -76 -90h-114q55 139 87 183.5t70 44.5q60 0 144 -50q83 -50 102 -50q36 0 69 88h114q-50 -136 -84.5 -181t-82.5 -45t-131 50q-84 50 -98 50z" />
    <glyph glyph-name="uniEFF6" unicode="&#xeff6;" 
d="M897 1745h196l-59 -182h-196zM570 1745h196l-59 -182h-196z" />
    <glyph glyph-name="uniEFF7" unicode="&#xeff7;" 
d="M752 1811h200l74 -288h-132l-79 174l-162 -174h-143z" />
    <glyph glyph-name="uniEFF8" unicode="&#xeff8;" 
d="M699 1532l-134 307h205l75 -307h-146z" />
    <glyph glyph-name="uniEFF9" unicode="&#xeff9;" 
d="M636 1526l189 307h217l-261 -307h-145z" />
    <glyph glyph-name="uniF001" unicode="&#xf001;" horiz-adv-x="982" 
d="M916 1407h192l-56 -193h-192zM796 982h187l-285 -982h-187zM696 1424q56 0 110 -12l-34 -115q-24 4 -54 3q-70 0 -106 -42t-71 -162l-33 -114h165l-39 -135h-164l-243 -847h-187l248 847h-135l39 135h136l33 114q57 197 124 262.5t211 65.5z" />
    <glyph glyph-name="uniF002" unicode="&#xf002;" horiz-adv-x="982" 
d="M919 1411h187l-409 -1411h-187zM700 1424q56 0 110 -12l-34 -115q-24 4 -54 3q-70 0 -106 -42t-71 -162l-33 -114h165l-39 -135h-164l-243 -847h-187l248 847h-135l39 135h136l33 114q57 197 124 262.5t211 65.5z" />
    <glyph glyph-name="uniFB01" unicode="&#xfb01;" horiz-adv-x="982" 
d="M916 1407h192l-56 -193h-192zM796 982h187l-285 -982h-187zM696 1424q56 0 110 -12l-34 -115q-24 4 -54 3q-70 0 -106 -42t-71 -162l-33 -114h165l-39 -135h-164l-243 -847h-187l248 847h-135l39 135h136l33 114q57 197 124 262.5t211 65.5z" />
    <glyph glyph-name="glyph106" horiz-adv-x="0" 
d="M412 1051q0 173 -120 293t-293 120t-292.5 -120t-119.5 -293t119.5 -292.5t292.5 -119.5t293 119.5t120 292.5zM0 1529q200 0 338.5 -138.5t138.5 -338.5t-138.5 -339t-338.5 -139t-339 139t-139 339t139 338.5t339 138.5z" />
    <glyph glyph-name="glyph107" horiz-adv-x="0" 
d="M19 786q-110 0 -186.5 79t-76.5 195t75.5 195.5t184.5 79.5q58 0 114.5 -22t79.5 -54l-58 -62q-19 26 -58.5 44.5t-77.5 18.5q-78 0 -131.5 -58t-53.5 -142t54.5 -141.5t133.5 -57.5q37 0 77 19.5t61 47.5l58 -62q-24 -34 -81 -57t-115 -23z" />
    <glyph glyph-name="glyph113" horiz-adv-x="0" 
d="M412 1046q0 173 -120 293t-293 120t-292.5 -120t-119.5 -293t119.5 -292.5t292.5 -119.5t293 119.5t120 292.5zM0 1524q200 0 338.5 -139t138.5 -339t-138.5 -338.5t-338.5 -138.5t-339 138.5t-139 338.5t139 339t339 139z" />
    <glyph glyph-name="glyph114" horiz-adv-x="0" 
d="M99 1166q0 30 -21 51t-51 21h-112v-144h112q30 0 51 21t21 51zM-160 807v506h187q62 0 104.5 -42.5t42.5 -104.5t-43 -105q-20 -20 -46 -31l89 -223h-91l-84 212h-84v-212h-75z" />
    <glyph glyph-name="glyph130" horiz-adv-x="566" 
d="M441 677h-146l161 554q-54 -38 -146 -71l41 141q58 17 96 41t83 69h124z" />
    <glyph glyph-name="glyph131" horiz-adv-x="566" 
d="M524 1397h197l-144 -469h96l-31 -100h-96l-46 -151h-127l46 151h-280l41 132z" />
    <glyph glyph-name="glyph133" horiz-adv-x="566" 
d="M441 677h-146l161 554q-54 -38 -146 -71l41 141q58 17 96 41t83 69h124z" />
    <glyph glyph-name="glyph134" horiz-adv-x="566" 
d="M526 1411q191 0 191 -146q0 -99 -99 -207t-326 -279h311l-30 -102h-448l38 129q197 157 308 274q110 117 109 169q0 58 -67 58t-80 -79h-137q16 97 70 140t160 43z" />
    <glyph glyph-name="glyph136" horiz-adv-x="566" 
d="M493 1307q-44 0 -68 -79h-130q22 101 71.5 142t151.5 41t146 -54q27 -33 27 -73q1 -40 -19 -106q-29 -99 -134 -136q40 -12 52 -33t13 -61t-23 -122q-46 -163 -211 -163q-129 0 -172.5 40.5t-20.5 140.5l8 28h136l-8 -28q-11 -48 -1.5 -67.5t43.5 -19.5t63.5 33.5
t48.5 99.5q18 65 -0.5 90t-87.5 25h-9l27 92h46q32 0 60 27t43 79q14 51 -1 77.5t-51 26.5z" />
    <glyph glyph-name="glyph137" horiz-adv-x="566" 
d="M524 1397h197l-144 -469h96l-31 -100h-96l-46 -151h-127l46 151h-280l41 132z" />
    <glyph glyph-name="glyph140" horiz-adv-x="0" 
d="M-68 0l-135 307h205l76 -307h-146z" />
    <glyph glyph-name="glyph142" horiz-adv-x="0" 
d="M-135 -6l187 307h217l-259 -307h-145z" />
    <glyph glyph-name="glyph144" horiz-adv-x="0" 
d="M-19 279h200l75 -288h-132l-80 174l-161 -174h-143z" />
    <glyph glyph-name="glyph146" horiz-adv-x="0" 
d="M-72 90q-38 0 -76 -90h-114q55 139 87.5 183.5t70.5 44.5q60 0 143 -50t102 -50q36 0 69 88h114q-50 -136 -84 -181t-82 -45t-132 50t-98 50z" />
    <glyph glyph-name="glyph148" horiz-adv-x="0" 
d="M134 213h196l-59 -182h-196zM-193 213h196l-59 -182h-196z" />
    <glyph glyph-name="glyph150" horiz-adv-x="0" 
d="M0 90q39 0 65.5 26.5t26.5 65.5t-26.5 65.5t-65.5 26.5t-65.5 -26.5t-26.5 -65.5t26.5 -65.5t65.5 -26.5zM0 -8q-80 0 -135 55t-55 135t55 135t135 55t135 -55t55 -135t-55 -135t-135 -55z" />
    <glyph glyph-name="glyph153" horiz-adv-x="0" 
d="M-354 -387l244 271h154l-178 -271h-220z" />
    <glyph glyph-name="glyph179" horiz-adv-x="0" 
d="M-68 0l-135 307h205l76 -307h-146z" />
    <glyph glyph-name="glyph181" horiz-adv-x="0" 
d="M-68 -6l187 307h217l-259 -307h-145z" />
    <glyph glyph-name="glyph183" horiz-adv-x="0" 
d="M-17 288h200l75 -288h-132l-79 174l-162 -174h-143z" />
    <glyph glyph-name="glyph185" horiz-adv-x="0" 
d="M-65 120q-39 0 -75 -85h-114q58 140 91.5 184.5t74.5 44.5t167 -72q50 -26 72 -26t37.5 18.5t33.5 63.5h114q-51 -136 -85.5 -181t-77.5 -45t-126 49t-112 49z" />
    <glyph glyph-name="glyph187" horiz-adv-x="0" 
d="M135 238h188l-53 -182h-188zM-185 238h188l-53 -182h-188z" />
    <glyph glyph-name="glyph189" horiz-adv-x="0" 
d="M0 90q39 0 65.5 26.5t26.5 65.5t-26.5 65.5t-65.5 26.5t-65.5 -26.5t-26.5 -65.5t26.5 -65.5t65.5 -26.5zM0 -8q-80 0 -135 55t-55 135t55 135t135 55t135 -55t55 -135t-55 -135t-135 -55z" />
    <glyph glyph-name="glyph192" horiz-adv-x="0" 
d="M-354 -387l244 271h154l-183 -271h-215z" />
    <glyph glyph-name="glyph219" horiz-adv-x="0" 
d="M-169 145h442l-50 -137h-442z" />
    <glyph glyph-name="glyph221" horiz-adv-x="0" 
d="M-224 169h534l-35 -137h-534z" />
    <glyph glyph-name="glyph223" horiz-adv-x="0" 
d="M344 279q-59 -291 -326 -291q-144 0 -197.5 77t-2.5 214h146q-74 -174 66 -174q64 0 102 39.5t66 134.5h146z" />
    <glyph glyph-name="glyph225" horiz-adv-x="0" 
d="M7 -6q-142 0 -190.5 77t2.5 214h146q-72 -174 67 -174q64 0 102 39.5t65 134.5h146q-44 -163 -120 -227t-218 -64z" />
    <glyph glyph-name="glyph227" horiz-adv-x="0" 
d="M14 -237q43 0 95 41l64 -84q-45 -41 -99.5 -65.5t-99.5 -24.5q-104 0 -147 56q-41 56 -16 142t101.5 152t181.5 102l22 -62q-59 -19 -108 -62.5t-62 -87.5t6 -75.5t62 -31.5z" />
    <glyph glyph-name="glyph229" horiz-adv-x="0" 
d="M13 -232q41 0 91 41l66 -82q-44 -41 -97 -65.5t-95 -24.5q-93 1 -136 57t-17 145q15 54 86.5 116t175.5 111l14 -42q-51 -26 -95 -69t-56 -84t5 -72t58 -31z" />
    <glyph glyph-name="glyph233" horiz-adv-x="0" 
d="M100 0h-200l-75 288h132l79 -174l162 174h143z" />
    <glyph glyph-name="glyph235" horiz-adv-x="0" 
d="M100 0h-200l-75 288h132l79 -174l162 174h143z" />
    <glyph glyph-name="glyph238" horiz-adv-x="0" 
d="M120 877q-76 0 -126 -65q-49 -65 -95 -222l-58 -201q-50 -172 -39.5 -229.5t83.5 -57.5t122 61.5t101 210.5l67 231q45 155 33 213.5t-88 58.5zM-189 -20q-195 0 -192 186q-1 80 34 198l73 252q62 212 139.5 299t209.5 87t188 -95l146 504h187l-409 -1411h-174l24 86
q-95 -106 -226 -106z" />
    <glyph glyph-name="glyph239" horiz-adv-x="0" 
d="M0 0l175 344h164l-235 -344h-104z" />
    <glyph glyph-name="glyph245" horiz-adv-x="0" 
d="M-39 228h210l-57 -197h-210z" />
    <glyph glyph-name="glyph247" horiz-adv-x="0" 
d="M-17 240h188l-60 -185h-188z" />
    <glyph glyph-name="glyph255" horiz-adv-x="0" 
d="M-354 -387l244 271h154l-178 -271h-220z" />
    <glyph glyph-name="glyph257" horiz-adv-x="0" 
d="M244 277l-183 -277h-223l259 277h147z" />
    <glyph glyph-name="glyph282" horiz-adv-x="0" 
d="M64 -12l187 307h217l-259 -307h-145zM-222 -12l187 307h217l-259 -307h-145z" />
    <glyph glyph-name="glyph284" horiz-adv-x="0" 
d="M91 -6l187 307h217l-259 -307h-145zM-192 -6l187 307h217l-259 -307h-145z" />
    <glyph glyph-name="glyph300" horiz-adv-x="0" 
d="M-354 -387l244 271h154l-178 -271h-220z" />
    <glyph glyph-name="glyph302" horiz-adv-x="0" 
d="M-354 -387l244 271h154l-183 -271h-215z" />
    <glyph glyph-name="glyph350" horiz-adv-x="0" 
d="M0 1388h393v-89h-152v-518h-89v518h-152v89z" />
    <glyph glyph-name="glyph351" horiz-adv-x="0" 
d="M0 781v607h160l112 -486l112 486h160v-607h-89v559l-129 -559h-108l-129 559v-559h-89z" />
  </font>
</defs>
</svg>
