<?xml version="1.0" standalone="no"?>
<!DOCTYPE svg PUBLIC "-//W3C//DTD SVG 1.1//EN" "http://www.w3.org/Graphics/SVG/1.1/DTD/svg11.dtd" >
<svg xmlns="http://www.w3.org/2000/svg">
<metadata>
Created by FontPrep 20130207 at Tue Aug 11 23:27:38 2015
 By Pixeloid
Copyright (c) 1992-97 Hewlett-Packard. All rights reserved.
</metadata>
<defs>
<font id="a84a5f08c34018e04c44df95375766ea" horiz-adv-x='1024' >
  <font-face 
    font-family="Univers-Condensed-BoldItalic"
    font-weight="700"
    font-style="italic"
    font-stretch="condensed"
    units-per-em="2048"
    panose-1="2 11 7 6 3 5 2 11 2 4"
    ascent="1638"
    descent="-410"
    x-height="982"
    cap-height="1411"
    bbox="-478 -512 1973.93 1929.02"
    underline-thickness="105"
    underline-position="-355"
    slope="-16"
    unicode-range="U+0020-FB01"
  />
<missing-glyph horiz-adv-x="669" 
d="M100 1174v-1074h369v1074h-369zM0 1274h569v-1274h-569v1274z" />
    <glyph glyph-name=".notdef" horiz-adv-x="669" 
d="M100 1174v-1074h369v1074h-369zM0 1274h569v-1274h-569v1274z" />
    <glyph glyph-name="glyph1" horiz-adv-x="0" 
 />
    <glyph glyph-name="nonmarkingreturn" horiz-adv-x="682" 
 />
    <glyph glyph-name="space" unicode=" " horiz-adv-x="453" 
 />
    <glyph glyph-name="exclam" unicode="!" horiz-adv-x="604" 
d="M101 262h264l-76 -262h-264zM179 393l265 1011h254l-321 -1011h-198z" />
    <glyph glyph-name="quotedbl" unicode="&#x22;" horiz-adv-x="831" 
d="M649 945l100 466h255l-169 -466h-186zM267 945l100 466h255l-169 -466h-186z" />
    <glyph glyph-name="numbersign" unicode="#" 
d="M532 881l-94 -328h182l95 328h-183zM691 1425l-108 -374h181l108 374h185l-108 -374h146l-49 -170h-147l-95 -328h147l-49 -170h-147l-118 -406h-185l118 406h-181l-118 -406h-185l118 406h-155l49 170h155l95 328h-155l49 170h156l108 374h185z" />
    <glyph glyph-name="dollar" unicode="$" 
d="M656 1056q-48 0 -73.5 -25t-38.5 -70q-12 -45 8 -76t76 -59q173 -85 217 -156q25 -39 25 -90t-18 -111q-42 -145 -143 -207q-70 -43 -179 -55l-56 -247h-260l85 210l11 37q-186 34 -186 191q-1 61 26 138h262q-29 -90 -17.5 -130t67.5 -40q109 0 145 126q11 38 -13 70
q-25 32 -90 64q-164 81 -209 145q-44 66 -10 177q43 148 141 211q66 42 170 56l61 247h244l-78 -210l-11 -38q173 -35 171 -190q1 -56 -22 -128h-252q23 90 9 125t-62 35z" />
    <glyph glyph-name="percent" unicode="%" horiz-adv-x="1360" 
d="M1128 643q-38 0 -58.5 -25t-41.5 -98l-85 -292q-20 -67 -12.5 -94.5t45.5 -27.5t59.5 25t42.5 97l85 292q19 68 11 95.5t-46 27.5zM956 -7q-115 0 -162 62t-13 176l84 292q36 124 104 181.5t183 57.5t161.5 -62t12.5 -177l-84 -292q-36 -124 -103.5 -181t-182.5 -57z
M84 -77l1122 1509h161l-1122 -1509h-161zM518 1313q-38 0 -59.5 -25t-42.5 -98l-85 -292q-19 -67 -12 -94.5t45 -27.5t59.5 25t42.5 97l85 292q20 68 12.5 95.5t-45.5 27.5zM344 663q-115 0 -161.5 62t-13.5 176l85 292q36 124 104 181.5t183 57.5t161 -62t13 -177l-85 -292
q-36 -124 -103.5 -181t-182.5 -57z" />
    <glyph glyph-name="ampersand" unicode="&#x26;" horiz-adv-x="1284" 
d="M634 1187q-29 -32 -29 -98t40 -157q69 40 117 85t49 123q0 35 -29 57t-74 22t-74 -32zM358 387q0 -87 50 -143t123 -55q72 0 158 48l30 17l-201 400q-160 -89 -160 -267zM360 1128q0 135 99 219.5t261 84.5t249 -71t87 -209t-78 -218t-249 -170l170 -334q99 158 112 334
h223q-6 -116 -76 -278t-152 -265l113 -221h-273l-35 70l-42 -21q-149 -70 -267 -70q-197 0 -317 105.5t-120 290.5t118 310q88 91 245 151q-68 157 -68 292z" />
    <glyph glyph-name="quotesingle" unicode="'" horiz-adv-x="453" 
d="M267 945l100 466h255l-169 -466h-186z" />
    <glyph glyph-name="parenleft" unicode="(" horiz-adv-x="453" 
d="M44 -187q-18 516 101 921q78 270 364 677h190q-163 -266 -237.5 -411.5t-128.5 -329.5t-86 -414.5t-24 -442.5h-179z" />
    <glyph glyph-name="parenright" unicode=")" horiz-adv-x="453" 
d="M498 1411q18 -510 -101 -921q-79 -270 -364 -677h-190q162 266 237 411.5t110 265.5q145 501 129 921h179z" />
    <glyph glyph-name="asterisk" unicode="*" 
d="M920 1350l-146 -190l236 35v-165l-235 33l149 -183l-142 -85l-92 220l-86 -222l-144 81l146 190l-236 -35v165l235 -33l-149 183l142 85l92 -220l86 222z" />
    <glyph glyph-name="plus" unicode="+" horiz-adv-x="1360" 
d="M606 457h-393v148h393v393h148v-393h393v-148h-393v-393h-148v393z" />
    <glyph glyph-name="comma" unicode="," horiz-adv-x="453" 
d="M-134 -182l203 450h272l-277 -450h-198z" />
    <glyph glyph-name="hyphen" unicode="-" horiz-adv-x="453" 
d="M115 600h296l-58 -189h-296z" />
    <glyph glyph-name="period" unicode="." horiz-adv-x="453" 
d="M31 268h260l-77 -268h-260z" />
    <glyph glyph-name="slash" unicode="/" horiz-adv-x="453" 
d="M683 1411l-652 -1594h-192l652 1594h192z" />
    <glyph glyph-name="zero" unicode="0" 
d="M404 171q70 0 102.5 46t83.5 210l168 546q49 160 38.5 209t-86.5 49t-110 -46.5t-85 -211.5l-168 -546q-43 -138 -28 -197t85 -59zM721 1425q346 0 343 -255q1 -81 -34 -192l-168 -546q-79 -259 -177.5 -352.5t-302.5 -93.5t-285 116q-44 64 -44 149t29 181l168 546
q80 259 179 353t292 94z" />
    <glyph glyph-name="one" unicode="1" 
d="M547 0h-266l312 1077l-5 -5q-95 -74 -249 -142l74 255q98 43 158 91t127 135h258z" />
    <glyph glyph-name="two" unicode="2" 
d="M1061 1193v-9q1 -216 -185 -444t-582 -548h505l-55 -192h-780l69 240q435 396 598 594t164 324q0 35 -26.5 55t-74.5 20t-79.5 -46t-56.5 -153h-263q40 207 136.5 299t272.5 92q176 1 266 -59t91 -173z" />
    <glyph glyph-name="three" unicode="3" 
d="M854 569q0 -51 -19 -117l-34 -117q-53 -182 -159.5 -265.5t-297.5 -83.5t-272.5 103t-22.5 286h258q-27 -112 -10.5 -157.5t76.5 -45.5q115 0 166 178l34 117q52 178 -133 178h-68l56 192h72q116 0 159.5 38t75.5 153t21 160q-10 45 -70 45t-94 -38.5t-56 -129.5h-263
q40 202 130.5 281t283.5 79q249 0 311 -93t-5 -335q-51 -176 -159 -230q-34 -17 -87 -29q107 -44 107 -169z" />
    <glyph glyph-name="four" unicode="4" 
d="M695 1410h364l-264 -908h151l-55 -192h-151l-90 -310h-266l90 310h-471l73 252z" />
    <glyph glyph-name="five" unicode="5" 
d="M690 952q204 0 207 -197q-1 -62 -24 -145l-85 -291q-51 -177 -159 -259t-299 -81q-191 0 -254.5 90.5t-14.5 303.5h250q-24 -108 -8.5 -156t71.5 -48t90 34t58 114l95 330q15 51 -4 82.5t-71 31.5q-104 0 -163 -210h-266l262 859h678l-56 -192h-422l-109 -358
q135 92 224 92z" />
    <glyph glyph-name="six" unicode="6" 
d="M404 171q119 0 162 151l80 276q25 84 4 112q-20 28 -68 38t-100.5 -33.5t-74.5 -119.5l-59 -204q-37 -128 -22.5 -174t78.5 -46zM745 1425q211 0 284.5 -86t18.5 -272h-254q26 89 6 130.5t-96 41.5t-122 -99q-32 -67 -103 -305q123 101 253 101t176 -96t-6 -276l-60 -209
q-60 -209 -158 -289t-296 -80q-245 0 -304 106q-59 107 27 397l142 489q75 259 178 353t314 94z" />
    <glyph glyph-name="seven" unicode="7" 
d="M78 0l748 1218h-508l56 192h756l-67 -230l-661 -1180h-324z" />
    <glyph glyph-name="eight" unicode="8" 
d="M406 171h2q57 0 88.5 40.5t65.5 157.5l27 95q32 109 17 154t-77 45t-93 -41q-32 -41 -66 -158l-27 -95q-32 -109 -18 -153.5t81 -44.5zM706 1240h-3q-54 0 -84 -37t-61 -143l-18 -62q-28 -98 -12 -138.5t77 -39.5t92 41t66 158l5 20q32 110 18.5 155.5t-80.5 45.5z
M404 -14h-6q-207 0 -292 99q-82 96 -30 281l27 95q70 238 255 298q-94 46 -96 155q1 43 16 96l32 110q46 159 146.5 232t273.5 73h6q197 0 276 -99q46 -58 46 -132t-22 -150l-16 -55q-42 -145 -131 -200q-52 -32 -139 -45q130 -57 130 -194q-1 -46 -16 -101l-28 -95
q-61 -210 -153.5 -289t-278.5 -79z" />
    <glyph glyph-name="nine" unicode="9" 
d="M686 1239q-62 0 -98.5 -35.5t-56.5 -104.5l-78 -267q-22 -77 -1.5 -108.5t91.5 -31.5h13q37 0 72.5 35t49.5 85l81 277q25 87 7 118.5t-80 31.5zM355 -15q-214 0 -288.5 93t-27.5 295h254q-30 -119 -12.5 -160.5t93.5 -41.5t117.5 70t117.5 331q-119 -72 -245 -71
t-172 95q-47 89 4 267l59 202q59 205 155.5 282t305.5 77t279 -102q67 -105 1 -331l-170 -587q-76 -260 -166 -340t-305 -79z" />
    <glyph glyph-name="colon" unicode=":" horiz-adv-x="453" 
d="M237 977h260l-78 -268h-260zM31 268h260l-77 -268h-260z" />
    <glyph glyph-name="semicolon" unicode=";" horiz-adv-x="453" 
d="M223 977h260l-78 -268h-260zM-134 -182l196 450h272l-270 -450h-198z" />
    <glyph glyph-name="less" unicode="&#x3c;" horiz-adv-x="2039" 
d="M410 553v150l1225 546v-192l-966 -429l966 -436v-192z" />
    <glyph glyph-name="equal" unicode="=" horiz-adv-x="1360" 
d="M215 767h934v-148h-934v148zM215 444h934v-148h-934v148z" />
    <glyph glyph-name="greater" unicode="&#x3e;" horiz-adv-x="2039" 
d="M1635 703v-150l-1225 -553v192l966 436l-966 429v192z" />
    <glyph glyph-name="question" unicode="?" horiz-adv-x="906" 
d="M235 262h260l-76 -262h-260zM656 1256q-40 0 -63.5 -37t-57.5 -154h-268q53 217 133 292t260 75t264.5 -90.5t41.5 -239.5q-30 -103 -88 -185.5t-189 -207.5q-69 -67 -101.5 -126.5t-71.5 -194.5h-218q65 223 101.5 302.5t126.5 179.5t125 152t53 114t5 91t-53 29z" />
    <glyph glyph-name="at" unicode="@" horiz-adv-x="1360" 
d="M765 849q-88 0 -137 -168l-56 -193q-22 -78 -11.5 -122.5t51.5 -44.5q77 0 152 206l33 116q28 97 20 151.5t-52 54.5zM958 314q28 0 61 52t55 128l83 286q79 272 21.5 375t-281.5 103t-349.5 -101t-191.5 -329l-122 -420q-77 -266 -6 -374.5t320 -108.5q80 0 175 11
t100 22l-62 -178q0 -10 -84 -22t-155 -12q-310 0 -450 171t-59 451l147 504q86 294 253 424.5t458 130.5q357 0 471 -152.5t14 -495.5l-83 -285q-58 -198 -134 -279t-205 -81q-166 0 -190 126l-19 -21q-89 -91 -209 -91t-161 90t5 249l56 193q51 174 126 258t180 84
t156 -101l23 80h207l-145 -500q-32 -111 -33 -149q0 -38 28 -38zM823 -42z" />
    <glyph glyph-name="A" unicode="A" horiz-adv-x="1133" 
d="M618 1411h394l-69 -1411h-275l22 303h-344l-139 -303h-295z" />
    <glyph glyph-name="B" unicode="B" horiz-adv-x="1095" 
d="M432 213q167 0 228 213q20 88 -5 137q-26 49 -115 49h-70l-116 -399h78zM615 825q150 0 199 168l10 36q27 90 -13 129.5t-156 39.5h-14l-109 -373h83zM677 1411q296 0 394 -98q58 -57 58 -162q0 -61 -19 -137q-52 -180 -164 -245q-66 -38 -184 -54q110 -20 154 -70
q80 -89 18 -295q-64 -200 -173 -275q-110 -75 -371 -75h-393l409 1411h271z" />
    <glyph glyph-name="C" unicode="C" horiz-adv-x="1057" 
d="M447 -21q-371 0 -374 280q0 77 29 177l131 450q94 322 207.5 434t347.5 112t307 -118q37 -56 37 -150t-41 -226h-272q72 281 -71 281q-77 0 -121.5 -59t-93.5 -230l-131 -450q-46 -158 -29 -223t93 -65q150 0 210 281h280q-33 -252 -158 -373t-351 -121z" />
    <glyph glyph-name="D" unicode="D" horiz-adv-x="1133" 
d="M420 213q128 0 190.5 49t100.5 180l147 507q40 137 7 193t-154 56h-81l-280 -985h70zM792 1411q385 0 382 -297q0 -97 -38 -226l-106 -366q-93 -324 -203 -423t-376 -99h-457l409 1411h389z" />
    <glyph glyph-name="E" unicode="E" horiz-adv-x="944" 
d="M-10 0l409 1411h703l-61 -213h-407l-107 -368h378l-62 -213h-378l-118 -404h422l-61 -213h-718z" />
    <glyph glyph-name="F" unicode="F" horiz-adv-x="906" 
d="M275 0h-296l409 1411h671l-61 -213h-375l-107 -368h354l-62 -213h-354z" />
    <glyph glyph-name="G" unicode="G" horiz-adv-x="1133" 
d="M496 -21q-406 0 -403 319q-1 95 35 218l110 377q93 318 213.5 428.5t374.5 110.5q198 0 295 -110.5t46 -277.5l-21 -70h-284l21 70q23 89 -4 132t-107 43t-132.5 -71.5t-105.5 -253.5l-109 -377q-52 -179 -30 -252t130 -73q50 1 107 19l98 324h-153l62 213h442l-205 -706
q-163 -63 -380 -63z" />
    <glyph glyph-name="H" unicode="H" horiz-adv-x="1133" 
d="M392 1411h296l-168 -581h289l168 581h296l-409 -1411h-296l179 617h-289l-179 -617h-296z" />
    <glyph glyph-name="I" unicode="I" horiz-adv-x="529" 
d="M384 1411h296l-409 -1411h-296z" />
    <glyph glyph-name="J" unicode="J" 
d="M308 -21q-202 0 -275 102t-13 322l16 56h288l-16 -56q-79 -213 28 -213q54 0 88 33t57 101l315 1087h296l-308 -1063q-68 -203 -171 -286t-305 -83z" />
    <glyph glyph-name="K" unicode="K" horiz-adv-x="1095" 
d="M967 1411h292l-449 -663l95 -748h-283l-109 762zM292 0h-296l409 1411h296z" />
    <glyph glyph-name="L" unicode="L" horiz-adv-x="868" 
d="M396 1411h296l-335 -1156h388l-74 -255h-684z" />
    <glyph glyph-name="M" unicode="M" horiz-adv-x="1511" 
d="M248 0h-266l433 1411h213l82 -1041l493 1041h433l-409 -1411h-266l368 1191l-574 -1191h-300l143 1217z" />
    <glyph glyph-name="N" unicode="N" horiz-adv-x="1171" 
d="M247 0h-256l409 1411h177l174 -1027l298 1027h256l-409 -1411h-182l-178 996z" />
    <glyph glyph-name="O" unicode="O" horiz-adv-x="1133" 
d="M488 192q88 0 137.5 66.5t105.5 258.5l109 377q52 179 36 252t-104 73q-88 -1 -138 -67q-49 -66 -105 -258l-109 -377q-52 -179 -36 -252t104 -73zM795 1432q379 0 379 -310q1 -99 -38 -229l-110 -377q-91 -317 -206 -427t-359 -110q-372 0 -375 312q0 97 37 225l110 377
q93 318 208.5 428.5t353.5 110.5z" />
    <glyph glyph-name="P" unicode="P" horiz-adv-x="1057" 
d="M601 774q173 0 220 161l10 34q36 124 8 176.5t-130 52.5h-80l-124 -424h96zM749 1411q265 0 350 -116q44 -60 44 -156t-42 -239q-57 -197 -159.5 -268t-327.5 -71h-171l-162 -561h-296l409 1411h355z" />
    <glyph glyph-name="Q" unicode="Q" horiz-adv-x="1171" 
d="M772 1219q-88 -1 -137 -67t-105 -258l-109 -377q-52 -179 -35.5 -252t104.5 -73t137 66.5t105 258.5l109 377q52 179 35.5 252t-104.5 73zM796 1432q379 0 379 -310q1 -99 -38 -229l-110 -377q-57 -200 -199 -340l216 12l-54 -188h-169l-355 -21q-248 0 -334 134
q-85 136 -8 403l110 377q93 318 208.5 428.5t353.5 110.5z" />
    <glyph glyph-name="R" unicode="R" horiz-adv-x="1057" 
d="M553 797q183 0 228 154l8 29q34 118 5 168t-133 50h-41l-117 -401h50zM729 1411q247 0 328 -102q43 -55 43 -139t-38 -218q-69 -239 -357 -266q119 -17 170 -68q74 -73 27 -233q-24 -81 -48 -201t-24 -183h-293q-1 96 23 195q24 98 54 200t-0.5 145t-142.5 43h-30
l-169 -584h-290l409 1411h338z" />
    <glyph glyph-name="S" unicode="S" horiz-adv-x="1095" 
d="M813 1432q346 0 343 -263q1 -77 -31 -181h-288q35 136 19 183.5t-82 47.5q-136 0 -178 -142t61 -207l107 -69q153 -100 195 -200q19 -47 19 -111t-23 -144q-57 -195 -182 -281t-351 -86q-355 0 -358 281q1 84 32 192h286q-72 -260 79 -260q74 0 127.5 44.5t75.5 119.5
t4 130t-84 98l-107 69q-141 93 -178 188q-17 44 -17 104t23 142q53 183 172.5 264t335.5 81z" />
    <glyph glyph-name="T" unicode="T" horiz-adv-x="1020" 
d="M518 0h-296l348 1198h-311l61 213h918l-61 -213h-311z" />
    <glyph glyph-name="U" unicode="U" horiz-adv-x="1133" 
d="M456 -21q-212 0 -305 124q-92 126 -32 326l285 982h296l-292 -1007q-18 -59 -18 -97q0 -115 113 -115q67 0 111.5 47t73.5 149l297 1023h294l-294 -1014q-63 -217 -191 -317q-126 -100 -338 -101z" />
    <glyph glyph-name="V" unicode="V" horiz-adv-x="1057" 
d="M992 1411h295l-713 -1411h-347l105 1411h136l29 -1045z" />
    <glyph glyph-name="W" unicode="W" horiz-adv-x="1586" 
d="M1515 1411h277l-648 -1411h-168l-39 951l-441 -951h-340l180 1411h135l-7 -969l440 969h170l33 -949z" />
    <glyph glyph-name="X" unicode="X" horiz-adv-x="1133" 
d="M342 1411h279l80 -465l317 465h315l-531 -713l147 -698h-276l-90 503l-349 -503h-326l575 754z" />
    <glyph glyph-name="Y" unicode="Y" horiz-adv-x="1057" 
d="M328 1411h276l11 -611l358 611h310l-591 -868l-157 -543h-296l162 558z" />
    <glyph glyph-name="Z" unicode="Z" horiz-adv-x="944" 
d="M4 256l696 942h-422l61 213h729l-74 -256l-696 -942h504l-61 -213h-811z" />
    <glyph glyph-name="bracketleft" unicode="[" horiz-adv-x="453" 
d="M-99 -187l463 1598h301l-37 -128h-103l-389 -1342h103l-37 -128h-301z" />
    <glyph glyph-name="backslash" unicode="\" horiz-adv-x="642" 
d="M400 -183l-168 1594h184l168 -1594h-184z" />
    <glyph glyph-name="bracketright" unicode="]" horiz-adv-x="453" 
d="M161 -187h-301l37 128h103l389 1342h-103l37 128h301z" />
    <glyph glyph-name="asciicircum" unicode="^" horiz-adv-x="1020" 
d="M458 1536h106q68 -158 144 -252t216 -197v-94q-232 105 -368 219l-46 41l-44 -40q-136 -114 -367 -220v94q139 103 215 197t144 252z" />
    <glyph glyph-name="underscore" unicode="_" horiz-adv-x="1020" 
d="M0 -512v105h1020v-105h-1020z" />
    <glyph glyph-name="grave" unicode="`" 
d="M610 1098l-100 312h280l30 -312h-210z" />
    <glyph glyph-name="a" unicode="a" horiz-adv-x="906" 
d="M506 466q-96 0 -137 -30.5t-68 -122.5l-9 -31q-36 -130 65 -130q50 0 82.5 43t77.5 172l29 99h-40zM215 -21q-130 0 -178 87q-24 46 -24 106t21 135q53 183 150.5 249t313.5 66h93l27 92q31 112 -57 112q-43 0 -65.5 -25.5t-51.5 -105.5h-269q42 170 128.5 236.5
t263.5 66.5t263 -78q58 -54 58 -133q1 -33 -11 -73l-126 -432q-44 -152 -60 -282l-237 87l-14 -14q-95 -94 -225 -94z" />
    <glyph glyph-name="b" unicode="b" horiz-adv-x="906" 
d="M558 827q-48 0 -81.5 -38t-62.5 -131l-97 -337q-57 -169 45 -169q96 0 157 209l75 256q61 210 -36 210zM713 1003q183 0 181 -219q0 -72 -37 -197l-57 -195q-64 -223 -147 -318t-221 -95t-193 91l-8 14l-24 -84h-254l409 1411h273l-141 -487q90 79 219 79z" />
    <glyph glyph-name="c" unicode="c" horiz-adv-x="831" 
d="M301 -21q-276 0 -276 236q0 79 31 187l51 175q71 243 167 334.5t281 91.5t243 -92q29 -47 29 -120t-28 -172h-257q35 118 27 162.5t-55 44.5t-79 -68t-95 -284l-51 -175q-43 -149 37 -149q40 0 71 47t68 157h264q-53 -203 -149 -289t-279 -86z" />
    <glyph glyph-name="d" unicode="d" horiz-adv-x="906" 
d="M549 830q-100 0 -155 -191l-86 -298q-26 -89 -14 -139t62 -50t83 41.5t73 155.5l96 332q21 70 5.5 109.5t-64.5 39.5zM214 -21q-194 1 -193 223q0 70 31 175l66 226q59 204 138.5 302t201.5 98t200 -89l14 -15l148 512h264l-409 -1411h-238l28 97l-26 -28
q-95 -90 -225 -90z" />
    <glyph glyph-name="e" unicode="e" horiz-adv-x="868" 
d="M545 826q-58 0 -86 -38t-74 -188h191q42 125 34.5 175.5t-65.5 50.5zM348 156q50 0 81 41t63 137h258q-50 -192 -147 -274t-279 -81q-182 0 -258 103q-43 60 -43 134t22 151l36 123q86 292 187 402t282 111q311 0 311 -240q1 -70 -26 -160l-48 -164h-449l-21 -72
q-37 -127 -28 -169t59 -42z" />
    <glyph glyph-name="f" unicode="f" horiz-adv-x="642" 
d="M718 1424q79 0 151 -15l-51 -165q-26 4 -64 4q-79 -1 -101 -73l-59 -193h154l-53 -170h-154l-249 -812h-264l249 812h-132l53 170h132l59 193q42 137 116 193t213 56z" />
    <glyph glyph-name="g" unicode="g" horiz-adv-x="906" 
d="M534 830q-52 0 -85.5 -40t-58.5 -123l-98 -317q-26 -84 -14 -123t64 -39q105 0 158 193l78 256q33 106 20.5 149.5t-64.5 43.5zM234 -230q52 0 86 60t95 261q-93 -78 -221 -77t-173 90q-21 42 -21 102t26 143l97 317q104 336 336 338q116 0 209 -107l27 85h251
l-336 -1093q-84 -277 -397 -277q-408 0 -304 306h266q-18 -74 -5.5 -111t64.5 -37z" />
    <glyph glyph-name="h" unicode="h" horiz-adv-x="944" 
d="M583 829q-93 0 -164 -228l-174 -601h-273l409 1411h273l-149 -513q111 106 230 106t162 -70t7 -194l-214 -740h-264l210 725q30 104 -53 104z" />
    <glyph glyph-name="i" unicode="i" horiz-adv-x="491" 
d="M381 1411h266l-69 -239h-266zM254 982h273l-285 -982h-273z" />
    <glyph glyph-name="j" unicode="j" horiz-adv-x="491" 
d="M383 1411h266l-69 -239h-266zM255 982h273l-306 -1055q-55 -189 -129 -252t-241 -63q-61 1 -108 6l49 172l42 -4q70 0 99 88z" />
    <glyph glyph-name="k" unicode="k" horiz-adv-x="906" 
d="M245 0h-267l409 1411h267l-246 -850l300 421h271l-323 -446l53 -536h-252l-50 559z" />
    <glyph glyph-name="l" unicode="l" horiz-adv-x="491" 
d="M376 1411h273l-409 -1411h-273z" />
    <glyph glyph-name="m" unicode="m" horiz-adv-x="1360" 
d="M1137 1003q134 0 180 -75q26 -41 26 -94t-18 -114l-209 -720h-264l210 724q30 105 -54 105q-95 0 -166 -228l-174 -601h-259l209 720q30 109 -56 109q-99 0 -170 -228l-174 -601h-259l285 982h233l-28 -95l7 6q116 110 242 110t172 -74l19 -40q114 114 248 114z" />
    <glyph glyph-name="n" unicode="n" horiz-adv-x="944" 
d="M730 1003q122 0 165.5 -70t7.5 -195l-214 -738h-264l210 724q29 105 -55 105q-95 0 -165 -228l-174 -601h-273l285 982h265l-24 -92q114 113 236 113z" />
    <glyph glyph-name="o" unicode="o" horiz-adv-x="906" 
d="M360 156q60 0 92 43t71 178l66 226q39 134 32 178.5t-67 44.5t-92 -43.5t-71 -179.5l-66 -226q-39 -133 -32 -177t67 -44zM588 1003q300 0 300 -227q0 -77 -27 -173l-66 -226q-66 -227 -167 -313t-293 -85q-192 0 -265 106q-41 59 -41 135t24 157l66 226
q66 228 167.5 314t301.5 86z" />
    <glyph glyph-name="p" unicode="p" horiz-adv-x="906" 
d="M354 152q95 0 140 155l98 338q52 182 -52 182q-52 0 -91.5 -60.5t-83.5 -209.5l-67 -236q-24 -79 -9 -124t65 -45zM426 -21q-133 0 -195 107l-130 -453h-264l391 1349h238l-32 -110l19 21q99 110 244 110q186 0 186 -204q0 -88 -36 -212l-57 -195q-64 -223 -147.5 -318
t-216.5 -95z" />
    <glyph glyph-name="q" unicode="q" horiz-adv-x="906" 
d="M542 830q-100 0 -155 -191l-86 -298q-26 -89 -14.5 -139t61.5 -50t83.5 41.5t73.5 155.5l96 332q21 70 5.5 109.5t-64.5 39.5zM202 -21q-125 0 -169 106q-19 47 -19 117t31 175l66 226q59 204 139 302t202 98t199 -89l18 -20l26 88h251l-391 -1349h-264l121 419
q-85 -73 -210 -73z" />
    <glyph glyph-name="r" unicode="r" horiz-adv-x="680" 
d="M656 736q-121 0 -185.5 -68t-113.5 -247l-122 -421h-264l285 982h246l-35 -120q140 142 289 141l35 -1l-84 -275q-22 9 -51 9z" />
    <glyph glyph-name="s" unicode="s" horiz-adv-x="831" 
d="M546 1003q264 0 264 -208q1 -52 -16 -117h-266q22 87 16.5 117.5t-41.5 30.5q-69 0 -93 -94t46 -128q159 -82 210 -153q50 -67 25 -172q-43 -168 -134.5 -234t-283.5 -66q-275 0 -278 208q1 61 23 137h265q-26 -106 -19.5 -137t48.5 -31t66 27t38 81t-2 88t-62 58
q-134 68 -176 128t-41 104q0 42 7 71q38 148 137 219t267 71z" />
    <glyph glyph-name="t" unicode="t" horiz-adv-x="642" 
d="M296 -21q-168 0 -220.5 84.5t4.5 268.5l147 480h-128l53 170h128l48 157l298 80l-73 -237h149l-53 -170h-149l-147 -480q-35 -113 -17.5 -144.5t116.5 -31.5l23 1l-51 -168q-62 -10 -128 -10z" />
    <glyph glyph-name="u" unicode="u" horiz-adv-x="944" 
d="M228 -21q-192 0 -192 161q-1 46 16 102l215 740h264l-211 -725q-30 -104 53 -104q93 0 164 228l175 601h273l-285 -982h-254l27 98l-10 -9q-111 -110 -235 -110z" />
    <glyph glyph-name="v" unicode="v" horiz-adv-x="906" 
d="M724 982h268l-525 -982h-323l44 982h129l70 -700z" />
    <glyph glyph-name="w" unicode="w" horiz-adv-x="1435" 
d="M1268 982h264l-474 -982h-161l-119 683l-340 -683h-323l84 982h129l20 -720l351 720h161l86 -750z" />
    <glyph glyph-name="x" unicode="x" horiz-adv-x="906" 
d="M212 982h258l46 -284l188 284h270l-372 -488l108 -494h-270l-48 317l-217 -317h-269l393 511z" />
    <glyph glyph-name="y" unicode="y" horiz-adv-x="906" 
d="M216 -368h-268l239 400l17 950h255l-47 -591l324 591h272z" />
    <glyph glyph-name="z" unicode="z" horiz-adv-x="755" 
d="M-2 236l484 577h-316l49 169h578l-69 -236l-483 -577h347l-49 -169h-609z" />
    <glyph glyph-name="braceleft" unicode="{" horiz-adv-x="1020" 
d="M684 -466q-295 -10 -374.5 65t-22.5 310l62 264q27 111 -24.5 188t-152.5 77l49 206q133 0 198 60t103 219l63 264q55 226 177 304.5t407 69.5l-44 -184q-140 5 -203 -36t-91 -154l-63 -264q-64 -269 -163 -339q-40 -28 -114 -44q29 -23 52 -48q101 -115 52 -319
l-62 -264q-31 -127 4.5 -161.5t190.5 -29.5z" />
    <glyph glyph-name="bar" unicode="|" horiz-adv-x="1020" 
d="M458 -512v2048h105v-2048h-105z" />
    <glyph glyph-name="braceright" unicode="}" horiz-adv-x="1020" 
d="M-170 -466l44 184q153 -5 204.5 29.5t82.5 161.5l62 264q49 204 206 319q35 25 74 48q-66 16 -92 44q-65 70 -1 339l63 264q28 113 -16 154t-186 36l44 184q289 9 374 -69.5t30 -304.5l-63 -264q-38 -159 -2 -219t169 -60l-49 -206q-101 0 -189.5 -77t-115.5 -188
l-62 -264q-57 -235 -173 -310t-404 -65z" />
    <glyph glyph-name="asciitilde" unicode="~" horiz-adv-x="2039" 
d="M740 743q147 0 342 -73q162 -62 312 -62q68 0 144 36t109 88l37 -56q-35 -108 -130 -182t-190 -74t-326 68t-315 67q-84 0 -161 -35t-116 -86l-32 66q54 102 149 172.5t177 70.5z" />
    <glyph glyph-name="uni00A0" unicode="&#xa0;" horiz-adv-x="453" 
 />
    <glyph glyph-name="exclamdown" unicode="&#xa1;" horiz-adv-x="604" 
d="M491 716h-264l76 262h264zM413 585l-265 -1011h-254l321 1011h198z" />
    <glyph glyph-name="cent" unicode="&#xa2;" 
d="M991 1004q0 -69 -26 -159h-256q34 117 25.5 161t-62.5 44t-83.5 -45t-70.5 -186l-65 -226q-40 -138 -36.5 -184t51.5 -46t79 42.5t72 164.5h266q-53 -203 -156 -289q-75 -63 -199 -81l-56 -241h-251l90 248q-93 23 -127 77q-65 103 -5 309l65 226q66 227 164 313
q73 64 199 80l57 243h251l-91 -248q165 -39 165 -203z" />
    <glyph glyph-name="sterling" unicode="&#xa3;" 
d="M830 1432q172 0 220.5 -93t-12.5 -295h-245q30 118 28 157t-39 39t-62 -30.5t-46 -102.5l-71 -246h194l-57 -195h-194l-138 -474h382l-55 -192h-730l55 192h90l138 474h-82l57 195h82l71 246q51 176 146.5 250.5t267.5 74.5z" />
    <glyph glyph-name="currency" unicode="&#xa4;" 
d="M555 1184q154 0 272 -80l136 136l132 -132l-136 -136q81 -119 81 -272t-82 -271l137 -137l-132 -132l-136 136q-117 -80 -271 -80t-273 80l-136 -136l-132 132l136 136q-80 118 -79 272t78 273l-135 135l132 132l136 -136q118 80 272 80zM839 700q0 119 -82.5 201.5
t-201.5 82.5t-201.5 -82.5t-82.5 -201.5t82.5 -201.5t201.5 -82.5t201.5 82.5t82.5 201.5z" />
    <glyph glyph-name="yen" unicode="&#xa5;" 
d="M305 1397h277l11 -600l351 600h311l-585 -859l-25 -87h232l-27 -93h-232l-26 -88h232l-27 -93h-232l-51 -177h-296l51 177h-232l27 93h232l26 88h-232l27 93h232l29 102z" />
    <glyph glyph-name="brokenbar" unicode="&#xa6;" horiz-adv-x="1020" 
d="M458 564v919h105v-919h-105zM458 -461v919h105v-919h-105z" />
    <glyph glyph-name="section" unicode="&#xa7;" 
d="M685 712q0 56 -25 86t-97 63l-21 10l-25 -13q-89 -48 -89 -114t32 -98t121 -68q15 15 28 22q76 56 76 112zM518 149q83 0 128.5 32.5t45.5 76.5t-34 71t-168 79t-201 124t-67 192t134 188q27 14 58 24q-62 39 -94 72q-61 64 -61 174q-1 110 91 180t221 70t245 -39v-170
q-117 35 -200 35q-151 0 -151 -76q0 -40 35.5 -70t157.5 -85t177.5 -120t55.5 -163q0 -164 -162 -230q72 -38 108 -73q61 -61 61 -181t-103 -202.5t-243 -82.5t-293 40v170q176 -36 259 -36z" />
    <glyph glyph-name="dieresis" unicode="&#xa8;" 
d="M810 1401h232l-68 -233h-232zM479 1401h232l-68 -233h-232z" />
    <glyph glyph-name="copyright" unicode="&#xa9;" horiz-adv-x="1020" 
d="M1212 1051q0 173 -120 293t-293 120t-293 -120t-119 -293q-1 -173 119 -293t293 -119q173 -1 293 119t120 293zM800 1529q200 -1 338 -139t139 -338q-1 -200 -139 -340q-138 -138 -338 -138t-340 138q-138 138 -138 340q0 200 138 338q140 138 340 139zM833 786
q-111 0 -187 80t-76 194q0 116 76 196t184 79q58 0 114 -22t80 -54l-58 -62q-18 27 -58 45t-78 18q-78 0 -132 -58t-53 -142t55 -142t133 -57q37 -1 77 19t61 48l58 -62q-24 -34 -81 -57t-115 -23z" />
    <glyph glyph-name="ordfeminine" unicode="&#xaa;" horiz-adv-x="831" 
d="M607 1090q-58 0 -93.5 -39t-34.5 -98t48 -58q68 0 108 134l18 61h-46zM424 769q-88 0 -123 65q-19 35 -19 72t22 117q45 165 252 165h126l14 49q25 86 -47 86q-30 0 -45 -14.5t-31 -60.5h-185q24 95 82 132.5t184 37.5t180 -43t52 -96q1 -19 -6 -42l-50 -172
q-55 -191 -67 -282l-163 78q-11 -17 -25 -29q-63 -63 -151 -63z" />
    <glyph glyph-name="guillemotleft" unicode="&#xab;" horiz-adv-x="906" 
d="M931 854l-216 -370l-2 -368h-215l-24 384l223 354h234zM535 854l-216 -370l-2 -368h-215l-24 384l223 354h234z" />
    <glyph glyph-name="logicalnot" unicode="&#xac;" horiz-adv-x="1360" 
d="M1001 649h-786v148h934v-542h-148v394z" />
    <glyph glyph-name="uni00AD" unicode="&#xad;" horiz-adv-x="453" 
d="M115 600h296l-58 -189h-296z" />
    <glyph glyph-name="registered" unicode="&#xae;" horiz-adv-x="1020" 
d="M1212 1046q0 173 -120 293t-293 120t-293 -120t-119 -293q-1 -172 119 -292t293 -120t293 120t120 292zM800 1524q200 0 338 -138t139 -340q-1 -200 -139 -338t-338 -139q-200 1 -340 139q-138 138 -138 338t138 340q140 138 340 138zM891 1166q0 30 -21 51t-51 21h-112
v-144h112q30 0 51 21t21 51zM632 807v506h187q63 -1 105 -43t42 -104t-43 -105q-20 -20 -46 -31l89 -223h-91l-84 212h-84v-212h-75z" />
    <glyph glyph-name="macron" unicode="&#xaf;" horiz-adv-x="1020" 
d="M0 1526v105h1020v-105h-1020z" />
    <glyph glyph-name="degree" unicode="&#xb0;" 
d="M831 1105q0 92 -43.5 144t-119.5 52t-119 -52t-43 -144t43 -143.5t119 -51.5t119.5 51.5t43.5 143.5zM668 1424q150 0 234.5 -84t84.5 -234t-84.5 -234.5t-234.5 -84.5t-234 84.5t-84 234.5t84 234t234 84z" />
    <glyph glyph-name="plusminus" unicode="&#xb1;" horiz-adv-x="1360" 
d="M213 -45h934v-148h-934v148zM606 457h-393v148h393v393h148v-393h393v-148h-393v-393h-148v393z" />
    <glyph glyph-name="uni00B2" unicode="&#xb2;" horiz-adv-x="642" 
d="M550 1432q206 0 208 -151v-2q0 -121 -106 -235t-308 -259h293l-34 -115h-468l31 106q241 221 333 327q91 106 92 160t-38 53q-39 0 -58 -23t-23 -78h-170q4 104 73 160.5t175 56.5z" />
    <glyph glyph-name="uni00B3" unicode="&#xb3;" horiz-adv-x="642" 
d="M357 635q-118 0 -166.5 65.5t-7.5 181.5h157q-20 -70 -10 -99t48 -29t60.5 25t38.5 79l7 25q30 104 -103 104h-8l41 116h60q66 0 91 87q23 73 15 99.5t-41 26.5t-50 -21t-30 -70h-163q22 110 80 158.5t180 48.5q188 0 189 -145q-1 -39 -23 -122q-23 -83 -86 -110
q-18 -8 -48 -14q64 -27 64 -106q1 -25 -13 -80q-33 -114 -98.5 -167t-183.5 -53z" />
    <glyph glyph-name="acute" unicode="&#xb4;" 
d="M509 1098l201 312h310l-285 -312h-226z" />
    <glyph glyph-name="mu" unicode="&#xb5;" horiz-adv-x="1208" 
d="M528 179q84 0 134.5 48.5t80.5 153.5l174 599h304l-284 -980l-204 114q-83 -135 -251 -135q-140 0 -180 125l-135 -466h-290l389 1342h290l-160 -550q-30 -105 9 -178t123 -73z" />
    <glyph glyph-name="paragraph" unicode="&#xb6;" 
d="M196 1057q0 204 161.5 336.5t425.5 132.5h260v-80h-138v-1772h-80v1772h-98v-1772h-80v892q-215 39 -333 163t-118 328z" />
    <glyph glyph-name="periodcentered" unicode="&#xb7;" horiz-adv-x="453" 
d="M195 839h260l-78 -268h-260z" />
    <glyph glyph-name="cedilla" unicode="&#xb8;" 
d="M68 -406l196 295h203l-140 -295h-259z" />
    <glyph glyph-name="uni00B9" unicode="&#xb9;" horiz-adv-x="642" 
d="M468 670h-166l163 562q-50 -42 -157 -70l45 156q63 12 103 36t85 78h149z" />
    <glyph glyph-name="ordmasculine" unicode="&#xba;" horiz-adv-x="831" 
d="M643 1308q-38 0 -58.5 -26.5t-47.5 -109.5l-53 -163q-21 -65 -10 -92t54 -27t63 27q21 26 48 108l52 163q39 120 -46 120h-2zM295 938q0 56 26 135l53 163q31 94 105 144.5t182 50.5h2q130 0 188 -68q35 -41 35 -89t-14 -90l-53 -163q-47 -145 -109.5 -195t-204.5 -50
t-188 72q-22 34 -22 90z" />
    <glyph glyph-name="guillemotright" unicode="&#xbb;" horiz-adv-x="906" 
d="M356 116l216 370l2 368h215l24 -384l-223 -354h-234zM-40 116l216 370l2 368h215l24 -384l-223 -354h-234z" />
    <glyph glyph-name="onequarter" unicode="&#xbc;" horiz-adv-x="1360" 
d="M1307 1425l-1115 -1510h-166l1115 1510h166zM384 670h-166l163 562q-50 -42 -157 -70l45 156q63 12 103 36t85 78h149zM1013 727h230l-133 -458h100l-33 -116h-100l-45 -153h-164l49 153h-268l45 158z" />
    <glyph glyph-name="onehalf" unicode="&#xbd;" horiz-adv-x="1360" 
d="M1271 1425l-1115 -1510h-166l1115 1510h166zM351 670h-166l163 562q-50 -42 -157 -70l45 156q64 12 104 36t84 78h149zM1082 762q206 0 209 -151v-2q1 -121 -105 -235t-309 -259h293l-34 -115h-468l31 106q241 221 333 327q91 106 92 159t-36 54q-41 0 -60 -23t-23 -78
h-170q5 105 73 161t174 56z" />
    <glyph glyph-name="threequarters" unicode="&#xbe;" horiz-adv-x="1360" 
d="M1396 1425l-1115 -1510h-166l1115 1510h166zM340 635q-118 -1 -166 65t-8 182h157q-20 -70 -10 -99t48 -29q39 0 61 25t38 79l7 25q30 104 -103 104h-8l41 116h60q66 0 91 87q23 73 15 100q-8 26 -41 26t-50 -21t-30 -70h-163q22 111 80 159q59 48 181 48q188 0 188 -145
q-1 -39 -23 -122q-23 -83 -86 -110q-18 -8 -48 -14q64 -27 64 -106q1 -25 -13 -80q-32 -114 -98 -167t-184 -53zM1064 727h230l-133 -458h100l-33 -116h-100l-45 -153h-164l49 153h-268l45 158z" />
    <glyph glyph-name="questiondown" unicode="&#xbf;" horiz-adv-x="906" 
d="M657 726h-260l77 262h260zM236 -268q40 0 64 37t58 154h268q-53 -217 -132.5 -292t-259.5 -75t-265 90.5t-42 239.5q30 103 87.5 185.5t188.5 207.5q69 67 101.5 126.5t71.5 194.5h218q-65 -223 -101.5 -302.5t-126.5 -179.5t-124 -152t-52 -114t-6 -91t52 -29z" />
    <glyph glyph-name="Agrave" unicode="&#xc0;" horiz-adv-x="1133" 
d="M618 1411h394l-69 -1411h-275l22 303h-344l-139 -303h-295zM775 1520l-178 268h297l100 -268h-219z" />
    <glyph glyph-name="Aacute" unicode="&#xc1;" horiz-adv-x="1133" 
d="M618 1411h394l-69 -1411h-275l22 303h-344l-139 -303h-295zM725 1520l218 268h302l-306 -268h-214z" />
    <glyph glyph-name="Acircumflex" unicode="&#xc2;" horiz-adv-x="1133" 
d="M618 1411h394l-69 -1411h-275l22 303h-344l-139 -303h-295zM761 1788h320l73 -268h-187l-67 159l-137 -159h-221z" />
    <glyph glyph-name="Atilde" unicode="&#xc3;" horiz-adv-x="1133" 
d="M618 1411h394l-69 -1411h-275l22 303h-344l-139 -303h-295zM670 1764q83 0 193 -40t122 -39q12 0 25 20t18 49h156q-24 -112 -69 -173t-95 -61t-90 10t-94 34q-54 22 -76 28t-38 7t-31 -19t-20 -48h-156q21 112 63 172t92 60z" />
    <glyph glyph-name="Adieresis" unicode="&#xc4;" horiz-adv-x="1133" 
d="M618 1411h394l-69 -1411h-275l22 303h-344l-139 -303h-295zM1007 1800h232l-68 -233h-232zM619 1800h232l-68 -233h-232z" />
    <glyph glyph-name="Aring" unicode="&#xc5;" horiz-adv-x="1133" 
d="M618 1411h394l-69 -1411h-275l22 303h-344l-139 -303h-295zM848 1637q36 0 62 25t26 62q0 36 -26 62t-62 26q-37 0 -62 -26t-25 -62q0 -37 25 -62t62 -25zM848 1520q-86 0 -145 59t-59 145t59 146t145 59q86 1 146 -59t59 -146q1 -86 -59 -145t-146 -59z" />
    <glyph glyph-name="AE" unicode="&#xc6;" horiz-adv-x="1586" 
d="M850 1152l-379 -636h279zM164 0h-306l909 1411h952l-61 -213h-541l-52 -368h466l-62 -213h-434l-58 -404h414l-61 -213h-661l48 303h-373z" />
    <glyph glyph-name="Ccedilla" unicode="&#xc7;" horiz-adv-x="1057" 
d="M447 -21q-371 0 -374 280q0 77 29 177l131 450q94 322 207 434q114 112 348 112t307 -118q37 -56 37 -150t-41 -226h-272q72 281 -71 281q-78 0 -122 -59t-93 -230l-131 -450q-46 -158 -29 -223t93 -65q150 0 210 281h280q-33 -252 -158 -373t-351 -121zM124 -406
l196 295h203l-140 -295h-259z" />
    <glyph glyph-name="Egrave" unicode="&#xc8;" horiz-adv-x="944" 
d="M-10 0l409 1411h703l-61 -213h-407l-107 -368h378l-62 -213h-378l-118 -404h422l-61 -213h-718zM675 1520l-178 268h297l100 -268h-219z" />
    <glyph glyph-name="Eacute" unicode="&#xc9;" horiz-adv-x="944" 
d="M-10 0l409 1411h703l-61 -213h-407l-107 -368h378l-62 -213h-378l-118 -404h422l-61 -213h-718zM625 1520l218 268h302l-306 -268h-214z" />
    <glyph glyph-name="Ecircumflex" unicode="&#xca;" horiz-adv-x="944" 
d="M-10 0l409 1411h703l-61 -213h-407l-107 -368h378l-62 -213h-378l-118 -404h422l-61 -213h-718zM661 1788h320l73 -268h-187l-67 159l-137 -159h-221z" />
    <glyph glyph-name="Edieresis" unicode="&#xcb;" horiz-adv-x="944" 
d="M-10 0l409 1411h703l-61 -213h-407l-107 -368h378l-62 -213h-378l-118 -404h422l-61 -213h-718zM907 1800h232l-68 -233h-232zM519 1800h232l-68 -233h-232z" />
    <glyph glyph-name="Igrave" unicode="&#xcc;" horiz-adv-x="529" 
d="M384 1411h296l-409 -1411h-296zM492 1520l-178 268h297l100 -268h-219z" />
    <glyph glyph-name="Iacute" unicode="&#xcd;" horiz-adv-x="529" 
d="M384 1411h296l-409 -1411h-296zM442 1520l218 268h302l-306 -268h-214z" />
    <glyph glyph-name="Icircumflex" unicode="&#xce;" horiz-adv-x="529" 
d="M384 1411h296l-409 -1411h-296zM478 1788h320l73 -268h-187l-67 159l-137 -159h-221z" />
    <glyph glyph-name="Idieresis" unicode="&#xcf;" horiz-adv-x="529" 
d="M384 1411h296l-409 -1411h-296zM724 1800h232l-68 -233h-232zM336 1800h232l-68 -233h-232z" />
    <glyph glyph-name="Eth" unicode="&#xd0;" horiz-adv-x="1133" 
d="M420 213q128 0 191 49t101 180l147 507q40 137 7 193t-154 56h-82l-110 -386h146l-61 -213h-145l-110 -386h70zM793 1411q385 0 382 -297q0 -97 -38 -226l-106 -366q-93 -324 -203 -423t-377 -99h-457l174 599h-126l61 213h126l174 599h390z" />
    <glyph glyph-name="Ntilde" unicode="&#xd1;" horiz-adv-x="1171" 
d="M247 0h-256l409 1411h177l174 -1027l298 1027h256l-409 -1411h-182l-178 996zM708 1764q83 0 192 -40q110 -40 122 -39q12 0 25 20t18 49h156q-24 -112 -69 -173t-95 -61t-90 10q-41 10 -95 34q-54 22 -76 28t-37 7q-16 1 -31 -19t-20 -48h-156q20 112 62 172
q44 60 94 60z" />
    <glyph glyph-name="Ograve" unicode="&#xd2;" horiz-adv-x="1133" 
d="M488 192q88 0 138 66q49 66 105 259l109 377q52 179 36 252t-104 73q-88 -1 -138 -67q-49 -66 -105 -258l-109 -377q-52 -179 -36 -252t104 -73zM795 1432q379 0 379 -310q1 -99 -38 -229l-110 -377q-91 -317 -206 -427t-359 -110q-372 0 -375 312q0 97 37 225l110 377
q93 319 209 429t353 110zM794 1520l-178 268h297l100 -268h-219z" />
    <glyph glyph-name="Oacute" unicode="&#xd3;" horiz-adv-x="1133" 
d="M488 192q88 0 138 66q49 66 105 259l109 377q52 179 36 252t-104 73q-88 -1 -138 -67q-49 -66 -105 -258l-109 -377q-52 -179 -36 -252t104 -73zM795 1432q379 0 379 -310q1 -99 -38 -229l-110 -377q-91 -317 -206 -427t-359 -110q-372 0 -375 312q0 97 37 225l110 377
q93 319 209 429t353 110zM744 1520l218 268h302l-306 -268h-214z" />
    <glyph glyph-name="Ocircumflex" unicode="&#xd4;" horiz-adv-x="1133" 
d="M488 192q88 0 138 66q49 66 105 259l109 377q52 179 36 252t-104 73q-88 -1 -138 -67q-49 -66 -105 -258l-109 -377q-52 -179 -36 -252t104 -73zM795 1432q379 0 379 -310q1 -99 -38 -229l-110 -377q-91 -317 -206 -427t-359 -110q-372 0 -375 312q0 97 37 225l110 377
q93 319 209 429t353 110zM780 1788h320l73 -268h-187l-67 159l-137 -159h-221z" />
    <glyph glyph-name="Otilde" unicode="&#xd5;" horiz-adv-x="1133" 
d="M488 192q88 0 138 66q49 66 105 259l109 377q52 179 36 252t-104 73q-88 -1 -138 -67q-49 -66 -105 -258l-109 -377q-52 -179 -36 -252t104 -73zM795 1432q379 0 379 -310q1 -99 -38 -229l-110 -377q-91 -317 -206 -427t-359 -110q-372 0 -375 312q0 97 37 225l110 377
q93 319 209 429t353 110zM690 1764q83 0 192 -40q110 -40 122 -39q12 0 25 20t18 49h156q-24 -112 -69 -173t-95 -61t-90 10q-41 10 -95 34q-54 22 -76 28t-37 7q-16 1 -31 -19t-20 -48h-156q20 112 62 172q44 60 94 60z" />
    <glyph glyph-name="Odieresis" unicode="&#xd6;" horiz-adv-x="1133" 
d="M488 192q88 0 138 66q49 66 105 259l109 377q52 179 36 252t-104 73q-88 -1 -138 -67q-49 -66 -105 -258l-109 -377q-52 -179 -36 -252t104 -73zM795 1432q379 0 379 -310q1 -99 -38 -229l-110 -377q-91 -317 -206 -427t-359 -110q-372 0 -375 312q0 97 37 225l110 377
q93 319 209 429t353 110zM1026 1800h232l-68 -233h-232zM638 1800h232l-68 -233h-232z" />
    <glyph glyph-name="multiply" unicode="&#xd7;" horiz-adv-x="1360" 
d="M720 427l-324 -325l-105 105l325 324l-325 324l105 105l324 -325l324 325l105 -105l-325 -324l325 -324l-105 -105z" />
    <glyph glyph-name="Oslash" unicode="&#xd8;" horiz-adv-x="1133" 
d="M858 1183q-26 37 -100 37t-124 -68q-49 -66 -105 -258l-109 -377q-26 -89 -36 -154zM465 -21q-111 0 -193 27l-83 -147l-73 40l83 145q-111 72 -113 247q0 97 37 225l110 377q93 318 208.5 428.5t353.5 110.5q113 1 190 -28l86 148l73 -40l-83 -142q113 -86 113 -248
q1 -99 -38 -229l-110 -377q-91 -317 -206 -427t-355 -110zM876 1049l-476 -823q29 -34 103 -34t123 66.5t105 258.5l109 377q27 91 36 155z" />
    <glyph glyph-name="Ugrave" unicode="&#xd9;" horiz-adv-x="1133" 
d="M456 -21q-212 0 -305 124q-92 126 -32 326l285 982h296l-292 -1007q-18 -59 -18 -97q0 -115 113 -115q67 0 111 47t74 149l297 1023h294l-294 -1014q-63 -217 -191 -317q-126 -100 -338 -101zM801 1520l-178 268h297l100 -268h-219z" />
    <glyph glyph-name="Uacute" unicode="&#xda;" horiz-adv-x="1133" 
d="M456 -21q-212 0 -305 124q-92 126 -32 326l285 982h296l-292 -1007q-18 -59 -18 -97q0 -115 113 -115q67 0 111 47t74 149l297 1023h294l-294 -1014q-63 -217 -191 -317q-126 -100 -338 -101zM751 1520l218 268h302l-306 -268h-214z" />
    <glyph glyph-name="Ucircumflex" unicode="&#xdb;" horiz-adv-x="1133" 
d="M456 -21q-212 0 -305 124q-92 126 -32 326l285 982h296l-292 -1007q-18 -59 -18 -97q0 -115 113 -115q67 0 111 47t74 149l297 1023h294l-294 -1014q-63 -217 -191 -317q-126 -100 -338 -101zM787 1788h320l73 -268h-187l-67 159l-137 -159h-221z" />
    <glyph glyph-name="Udieresis" unicode="&#xdc;" horiz-adv-x="1133" 
d="M456 -21q-212 0 -305 124q-92 126 -32 326l285 982h296l-292 -1007q-18 -59 -18 -97q0 -115 113 -115q67 0 111 47t74 149l297 1023h294l-294 -1014q-63 -217 -191 -317q-126 -100 -338 -101zM1033 1800h232l-68 -233h-232zM645 1800h232l-68 -233h-232z" />
    <glyph glyph-name="Yacute" unicode="&#xdd;" horiz-adv-x="1057" 
d="M328 1411h276l11 -611l358 611h310l-591 -868l-157 -543h-296l162 558zM715 1520l218 268h302l-306 -268h-214z" />
    <glyph glyph-name="Thorn" unicode="&#xde;" horiz-adv-x="1057" 
d="M613 949h-54l-121 -417h98q95 0 144 45.5t85 166.5l-3 -8q62 213 -149 213zM747 1162q204 0 284 -118t17 -340q-63 -221 -163.5 -303t-321.5 -82h-187l-92 -319h-296l409 1411h296l-72 -249h126z" />
    <glyph glyph-name="germandbls" unicode="&#xdf;" horiz-adv-x="1020" 
d="M466 177q63 0 114.5 36.5t65.5 85.5t11 86t-41 142t-50.5 173.5t3.5 123.5t41.5 87t90.5 77l52 37q30 22 49 84q18 63 -1 96t-75 33t-106 -44.5t-72 -120.5l-311 -1073h-267l295 1018q63 216 164 304t295 88t284 -85.5t46 -237.5q-27 -93 -47.5 -123.5t-80.5 -72.5
t-78.5 -64t-26.5 -51t-1.5 -62.5t43.5 -134.5t47 -165.5t-8 -124.5q-42 -147 -139.5 -218t-236.5 -71t-203 10l50 172q30 -5 93 -5z" />
    <glyph glyph-name="agrave" unicode="&#xe0;" horiz-adv-x="906" 
d="M506 466q-96 0 -137 -30t-68 -123l-9 -31q-36 -130 65 -130q51 0 83 43t77 172l29 99h-40zM215 -21q-130 0 -178 87q-24 46 -24 106t21 135q52 183 150 249t314 66h93l27 92q31 112 -57 112q-43 0 -65 -26t-52 -105h-269q43 171 129 237t263 66t263 -78q58 -54 58 -133
q1 -33 -11 -73l-126 -432q-44 -152 -60 -282l-237 87l-14 -14q-95 -94 -225 -94zM558 1098l-101 312h280l31 -312h-210z" />
    <glyph glyph-name="aacute" unicode="&#xe1;" horiz-adv-x="906" 
d="M506 466q-96 0 -137 -30t-68 -123l-9 -31q-36 -130 65 -130q51 0 83 43t77 172l29 99h-40zM215 -21q-130 0 -178 87q-24 46 -24 106t21 135q52 183 150 249t314 66h93l27 92q31 112 -57 112q-43 0 -65 -26t-52 -105h-269q43 171 129 237t263 66t263 -78q58 -54 58 -133
q1 -33 -11 -73l-126 -432q-44 -152 -60 -282l-237 87l-14 -14q-95 -94 -225 -94zM525 1098l200 312h310l-284 -312h-226z" />
    <glyph glyph-name="acircumflex" unicode="&#xe2;" horiz-adv-x="906" 
d="M506 466q-96 0 -137 -30t-68 -123l-9 -31q-36 -130 65 -130q51 0 83 43t77 172l29 99h-40zM215 -21q-130 0 -178 87q-24 46 -24 106t21 135q52 183 150 249t314 66h93l27 92q31 112 -57 112q-43 0 -65 -26t-52 -105h-269q43 171 129 237t263 66t263 -78q58 -54 58 -133
q1 -33 -11 -73l-126 -432q-44 -152 -60 -282l-237 87l-14 -14q-95 -94 -225 -94zM602 1410h294l19 -312h-152l-48 181l-155 -181h-179z" />
    <glyph glyph-name="atilde" unicode="&#xe3;" horiz-adv-x="906" 
d="M506 466q-96 0 -137 -30t-68 -123l-9 -31q-36 -130 65 -130q51 0 83 43t77 172l29 99h-40zM215 -21q-130 0 -178 87q-24 46 -24 106t21 135q52 183 150 249t314 66h93l27 92q31 112 -57 112q-43 0 -65 -26t-52 -105h-269q43 171 129 237t263 66t263 -78q58 -54 58 -133
q1 -33 -11 -73l-126 -432q-44 -152 -60 -282l-237 87l-14 -14q-95 -94 -225 -94zM740 1276q42 0 56 100h156q-24 -133 -74 -205t-116 -72t-160 69q-37 28 -59 28q-11 0 -23 -30t-16 -72h-156q24 134 70 206t111 73q65 0 169 -79q22 -18 42 -18z" />
    <glyph glyph-name="adieresis" unicode="&#xe4;" horiz-adv-x="906" 
d="M506 466q-96 0 -137 -30t-68 -123l-9 -31q-36 -130 65 -130q51 0 83 43t77 172l29 99h-40zM215 -21q-130 0 -178 87q-24 46 -24 106t21 135q52 183 150 249t314 66h93l27 92q31 112 -57 112q-43 0 -65 -26t-52 -105h-269q43 171 129 237t263 66t263 -78q58 -54 58 -133
q1 -33 -11 -73l-126 -432q-44 -152 -60 -282l-237 87l-14 -14q-95 -94 -225 -94zM785 1401h232l-68 -233h-232zM454 1401h232l-68 -233h-232z" />
    <glyph glyph-name="aring" unicode="&#xe5;" horiz-adv-x="906" 
d="M506 466q-96 0 -137 -30t-68 -123l-9 -31q-36 -130 65 -130q51 0 83 43t77 172l29 99h-40zM215 -21q-130 0 -178 87q-24 46 -24 106t21 135q52 183 150 249t314 66h93l27 92q31 112 -57 112q-43 0 -65 -26t-52 -105h-269q43 171 129 237t263 66t263 -78q58 -54 58 -133
q1 -33 -11 -73l-126 -432q-44 -152 -60 -282l-237 87l-14 -14q-95 -94 -225 -94zM648 1215q36 0 62 25t26 62q0 36 -26 62t-62 26q-37 0 -62 -26t-25 -62q0 -37 25 -62t62 -25zM648 1098q-86 0 -145 59t-59 145t59 146t145 59q86 1 146 -59t59 -146q1 -86 -59 -145t-146 -59
z" />
    <glyph glyph-name="ae" unicode="&#xe6;" horiz-adv-x="1360" 
d="M1020 826q-55 0 -82 -38t-73 -188h181q42 125 35.5 175.5t-61.5 50.5zM515 455q-95 0 -135.5 -29.5t-66.5 -118.5l-9 -30q-17 -59 -0.5 -92t66.5 -33t81.5 41.5t75.5 166.5l28 95h-40zM838 156q35 0 63.5 41t60.5 137h258q-50 -192 -139 -273.5t-255 -81.5t-233 103
l-12 22l-36 -34q-107 -91 -263 -91t-219 86q-37 49 -37 111t19 125q52 180 149 245t313 65h93l30 103q31 112 -58 112q-45 0 -67.5 -25.5t-51.5 -105.5h-269q42 170 119.5 236.5t231.5 66.5t225 -78q17 -18 27 -39q100 120 266 122q277 0 280 -231q0 -73 -28 -169l-48 -164
h-439l-21 -72q-37 -127 -28.5 -169t69.5 -42z" />
    <glyph glyph-name="ccedilla" unicode="&#xe7;" horiz-adv-x="831" 
d="M306 -21q-276 0 -276 236q0 79 31 187l51 175q71 243 167 335t281 91q185 0 243 -92q29 -47 29 -120t-28 -172h-257q35 119 27 163t-55 44t-79 -68t-95 -284l-51 -175q-43 -149 37 -149q40 0 71 47t68 157h264q-53 -203 -149 -289t-279 -86zM-8 -406l196 295h203
l-140 -295h-259z" />
    <glyph glyph-name="egrave" unicode="&#xe8;" horiz-adv-x="868" 
d="M545 826q-58 0 -86 -38t-74 -188h191q42 126 34 182q-6 44 -65 44zM348 156q50 0 81 41t63 137h258q-50 -192 -147 -274t-279 -81q-182 0 -258 103q-43 60 -43 134t22 151l36 123q86 292 187 402t282 111q311 0 311 -240q1 -70 -26 -160l-48 -164h-449l-21 -72
q-37 -127 -29 -169q10 -42 60 -42zM543 1098l-101 312h280l31 -312h-210z" />
    <glyph glyph-name="eacute" unicode="&#xe9;" horiz-adv-x="868" 
d="M545 826q-58 0 -86 -38t-74 -188h191q42 126 34 182q-6 44 -65 44zM348 156q50 0 81 41t63 137h258q-50 -192 -147 -274t-279 -81q-182 0 -258 103q-43 60 -43 134t22 151l36 123q86 292 187 402t282 111q311 0 311 -240q1 -70 -26 -160l-48 -164h-449l-21 -72
q-37 -127 -29 -169q10 -42 60 -42zM510 1098l200 312h310l-284 -312h-226z" />
    <glyph glyph-name="ecircumflex" unicode="&#xea;" horiz-adv-x="868" 
d="M545 826q-58 0 -86 -38t-74 -188h191q42 126 34 182q-6 44 -65 44zM348 156q50 0 81 41t63 137h258q-50 -192 -147 -274t-279 -81q-182 0 -258 103q-43 60 -43 134t22 151l36 123q86 292 187 402t282 111q311 0 311 -240q1 -70 -26 -160l-48 -164h-449l-21 -72
q-37 -127 -29 -169q10 -42 60 -42zM587 1410h294l19 -312h-152l-48 181l-155 -181h-179z" />
    <glyph glyph-name="edieresis" unicode="&#xeb;" horiz-adv-x="868" 
d="M545 826q-58 0 -86 -38t-74 -188h191q42 126 34 182q-6 44 -65 44zM348 156q50 0 81 41t63 137h258q-50 -192 -147 -274t-279 -81q-182 0 -258 103q-43 60 -43 134t22 151l36 123q86 292 187 402t282 111q311 0 311 -240q1 -70 -26 -160l-48 -164h-449l-21 -72
q-37 -127 -29 -169q10 -42 60 -42zM770 1401h232l-68 -233h-232zM439 1401h232l-68 -233h-232z" />
    <glyph glyph-name="igrave" unicode="&#xec;" horiz-adv-x="491" 
d="M254 982h273l-285 -982h-273zM334 1098l-101 312h280l31 -312h-210z" />
    <glyph glyph-name="iacute" unicode="&#xed;" horiz-adv-x="491" 
d="M254 982h273l-285 -982h-273zM301 1098l200 312h310l-284 -312h-226z" />
    <glyph glyph-name="icircumflex" unicode="&#xee;" horiz-adv-x="491" 
d="M254 982h273l-285 -982h-273zM378 1410h294l19 -312h-152l-48 181l-155 -181h-179z" />
    <glyph glyph-name="idieresis" unicode="&#xef;" horiz-adv-x="491" 
d="M254 982h273l-285 -982h-273zM561 1401h232l-68 -233h-232zM230 1401h232l-68 -233h-232z" />
    <glyph glyph-name="eth" unicode="&#xf0;" horiz-adv-x="906" 
d="M364 156q58 0 94.5 48.5t72.5 172.5l66 226q35 123 24 173t-71 50t-90 -43.5t-69 -179.5l-66 -226q-35 -122 -27 -171.5t66 -49.5zM323 -21q-182 0 -254 106q-39 59 -39 135t23 157l66 226q66 228 155.5 314t260.5 86q55 0 104 -15q-31 100 -74 185l-211 -81l-42 123
l186 71q-33 50 -71 92l182 75q41 -46 76 -95l193 74l42 -123l-162 -62q125 -222 123 -439q1 -113 -32 -226l-85 -291q-47 -162 -153 -237t-288 -75z" />
    <glyph glyph-name="ntilde" unicode="&#xf1;" horiz-adv-x="944" 
d="M730 1003q122 0 166 -70t7 -195l-214 -738h-264l210 724q29 105 -55 105q-95 0 -165 -228l-174 -601h-273l285 982h265l-24 -92q114 113 236 113zM739 1276q42 0 56 100h156q-25 -133 -75 -205t-115 -72q-66 0 -160 69q-37 28 -59 28q-12 0 -24 -30t-15 -72h-156
q23 134 69 206t112 73q65 0 169 -79q22 -18 42 -18z" />
    <glyph glyph-name="ograve" unicode="&#xf2;" horiz-adv-x="906" 
d="M360 156q60 0 92 43t71 178l66 226q39 135 31 179t-66 44q-60 0 -92 -44t-71 -179l-66 -226q-39 -133 -31 -177q6 -44 66 -44zM588 1003q300 0 300 -227q0 -77 -27 -173l-66 -226q-66 -227 -167 -313t-293 -85q-192 0 -265 106q-41 59 -41 135t24 157l66 226
q65 228 167 314t302 86zM544 1098l-101 312h280l31 -312h-210z" />
    <glyph glyph-name="oacute" unicode="&#xf3;" horiz-adv-x="906" 
d="M360 156q60 0 92 43t71 178l66 226q39 135 31 179t-66 44q-60 0 -92 -44t-71 -179l-66 -226q-39 -133 -31 -177q6 -44 66 -44zM588 1003q300 0 300 -227q0 -77 -27 -173l-66 -226q-66 -227 -167 -313t-293 -85q-192 0 -265 106q-41 59 -41 135t24 157l66 226
q65 228 167 314t302 86zM511 1098l200 312h310l-284 -312h-226z" />
    <glyph glyph-name="ocircumflex" unicode="&#xf4;" horiz-adv-x="906" 
d="M360 156q60 0 92 43t71 178l66 226q39 135 31 179t-66 44q-60 0 -92 -44t-71 -179l-66 -226q-39 -133 -31 -177q6 -44 66 -44zM588 1003q300 0 300 -227q0 -77 -27 -173l-66 -226q-66 -227 -167 -313t-293 -85q-192 0 -265 106q-41 59 -41 135t24 157l66 226
q65 228 167 314t302 86zM588 1410h294l19 -312h-152l-48 181l-155 -181h-179z" />
    <glyph glyph-name="otilde" unicode="&#xf5;" horiz-adv-x="906" 
d="M360 156q60 0 92 43t71 178l66 226q39 135 31 179t-66 44q-60 0 -92 -44t-71 -179l-66 -226q-39 -133 -31 -177q6 -44 66 -44zM588 1003q300 0 300 -227q0 -77 -27 -173l-66 -226q-66 -227 -167 -313t-293 -85q-192 0 -265 106q-41 59 -41 135t24 157l66 226
q65 228 167 314t302 86zM726 1276q42 0 56 100h156q-24 -133 -74 -205t-116 -72t-160 69q-37 28 -59 28q-11 0 -23 -30t-16 -72h-156q24 134 70 206t111 73q65 0 169 -79q22 -18 42 -18z" />
    <glyph glyph-name="odieresis" unicode="&#xf6;" horiz-adv-x="906" 
d="M360 156q60 0 92 43t71 178l66 226q39 135 31 179t-66 44q-60 0 -92 -44t-71 -179l-66 -226q-39 -133 -31 -177q6 -44 66 -44zM588 1003q300 0 300 -227q0 -77 -27 -173l-66 -226q-66 -227 -167 -313t-293 -85q-192 0 -265 106q-41 59 -41 135t24 157l66 226
q65 228 167 314t302 86zM771 1401h232l-68 -233h-232zM440 1401h232l-68 -233h-232z" />
    <glyph glyph-name="divide" unicode="&#xf7;" horiz-adv-x="1360" 
d="M681 937q48 0 81 -33t33 -81t-33 -81t-81 -33t-81 33t-33 81t33 81t81 33zM214 605h934v-148h-934v148zM681 353q48 0 81 -33t33 -81t-33 -81t-81 -33t-81 33t-33 81t33 81t81 33z" />
    <glyph glyph-name="oslash" unicode="&#xf8;" horiz-adv-x="906" 
d="M607 809q-17 17 -65 17t-80 -43.5t-71 -179.5l-66 -226l-25 -97zM325 -21q-66 0 -118 14l-75 -130l-56 30l70 123q-118 65 -116 215q-1 65 23 146l66 226q66 228 167.5 314t303.5 86q69 1 120 -16l71 123l55 -30l-66 -115q116 -67 114 -215q0 -66 -23 -147l-66 -226
q-66 -227 -167 -313t-303 -85zM612 693l-303 -523q15 -14 63 -14t80 43t71 178l66 226z" />
    <glyph glyph-name="ugrave" unicode="&#xf9;" horiz-adv-x="944" 
d="M228 -21q-192 0 -192 161q-1 46 16 102l215 740h264l-211 -725q-30 -104 53 -104q93 0 164 228l175 601h273l-285 -982h-254l27 98l-10 -9q-111 -110 -235 -110zM566 1098l-101 312h280l31 -312h-210z" />
    <glyph glyph-name="uacute" unicode="&#xfa;" horiz-adv-x="944" 
d="M228 -21q-192 0 -192 161q-1 46 16 102l215 740h264l-211 -725q-30 -104 53 -104q93 0 164 228l175 601h273l-285 -982h-254l27 98l-10 -9q-111 -110 -235 -110zM533 1098l200 312h310l-284 -312h-226z" />
    <glyph glyph-name="ucircumflex" unicode="&#xfb;" horiz-adv-x="944" 
d="M228 -21q-192 0 -192 161q-1 46 16 102l215 740h264l-211 -725q-30 -104 53 -104q93 0 164 228l175 601h273l-285 -982h-254l27 98l-10 -9q-111 -110 -235 -110zM610 1410h294l19 -312h-152l-48 181l-155 -181h-179z" />
    <glyph glyph-name="udieresis" unicode="&#xfc;" horiz-adv-x="944" 
d="M228 -21q-192 0 -192 161q-1 46 16 102l215 740h264l-211 -725q-30 -104 53 -104q93 0 164 228l175 601h273l-285 -982h-254l27 98l-10 -9q-111 -110 -235 -110zM793 1401h232l-68 -233h-232zM462 1401h232l-68 -233h-232z" />
    <glyph glyph-name="yacute" unicode="&#xfd;" horiz-adv-x="906" 
d="M216 -368h-268l239 400l17 950h255l-47 -591l324 591h272zM517 1098l200 312h310l-284 -312h-226z" />
    <glyph glyph-name="thorn" unicode="&#xfe;" horiz-adv-x="906" 
d="M358 155q91 0 136 141l107 349q25 80 13 131t-62 51t-89.5 -60.5t-81.5 -208.5l-71 -235q-25 -79 -12.5 -123.5t60.5 -44.5zM895 807q0 -90 -40 -220l-60 -195q-69 -223 -152 -318t-213 -95t-188 100l-4 5l-137 -451h-264l546 1778h264l-151 -488q93 81 220 80
q179 0 179 -196z" />
    <glyph glyph-name="ydieresis" unicode="&#xff;" horiz-adv-x="906" 
d="M216 -368h-268l239 400l17 950h255l-47 -591l324 591h272zM777 1401h232l-68 -233h-232zM446 1401h232l-68 -233h-232z" />
    <glyph glyph-name="Amacron" unicode="&#x100;" horiz-adv-x="1133" 
d="M618 1411h394l-69 -1411h-275l22 303h-344l-139 -303h-295zM637 1720h558l-53 -154h-558z" />
    <glyph glyph-name="amacron" unicode="&#x101;" horiz-adv-x="906" 
d="M506 466q-96 0 -137 -30t-68 -123l-9 -31q-36 -130 65 -130q51 0 83 43t77 172l29 99h-40zM215 -21q-130 0 -178 87q-24 46 -24 106t21 135q52 183 150 249t314 66h93l27 92q31 112 -57 112q-43 0 -65 -26t-52 -105h-269q43 171 129 237t263 66t263 -78q58 -54 58 -133
q1 -33 -11 -73l-126 -432q-44 -152 -60 -282l-237 87l-14 -14q-95 -94 -225 -94zM460 1268h462l-38 -149h-462z" />
    <glyph glyph-name="Abreve" unicode="&#x102;" horiz-adv-x="1133" 
d="M618 1411h394l-69 -1411h-275l22 303h-344l-139 -303h-295zM884 1647q74 0 121 40t59 114h168q-59 -293 -363 -293q-165 0 -229 78t-13 215h168q-64 -154 89 -154z" />
    <glyph glyph-name="abreve" unicode="&#x103;" horiz-adv-x="906" 
d="M506 466q-96 0 -137 -30t-68 -123l-9 -31q-36 -130 65 -130q51 0 83 43t77 172l29 99h-40zM215 -21q-130 0 -178 87q-24 46 -24 106t21 135q52 183 150 249t314 66h93l27 92q31 112 -57 112q-43 0 -65 -26t-52 -105h-269q43 171 129 237t263 66t263 -78q58 -54 58 -133
q1 -33 -11 -73l-126 -432q-44 -152 -60 -282l-237 87l-14 -14q-95 -94 -225 -94zM656 1092q-162 0 -220 78t-7 215h168q-64 -154 89 -154q74 0 120 40t60 114h168q-45 -165 -130 -229q-86 -64 -248 -64z" />
    <glyph glyph-name="Aogonek" unicode="&#x104;" horiz-adv-x="1133" 
d="M743 -237q39 0 89 36l67 -90q-45 -41 -100 -65t-101 -24q-105 0 -152 59t-19 155t142 175l21 294h-344l-139 -303h-295l706 1411h394l-69 -1411h-137h-9q-93 -55 -116 -137q-13 -43 5 -71t57 -29z" />
    <glyph glyph-name="aogonek" unicode="&#x105;" horiz-adv-x="906" 
d="M506 466q-96 0 -137 -30t-68 -123l-9 -31q-36 -130 65 -130q51 0 83 43t77 172l29 99h-40zM453 -363q-99 1 -143 53t-21 132q41 142 246 235l-81 30l-14 -14q-95 -94 -225 -94t-178 87q-24 46 -24 106t21 135q52 183 150 249t314 66h93l27 92q31 112 -57 112
q-43 0 -65 -26t-52 -105h-269q43 171 129 237t263 66t263 -78q58 -54 58 -133q1 -33 -11 -73l-126 -432q-44 -152 -60 -282l-121 44l7 -15q-110 -65 -138 -160t67 -95q32 0 73 37l68 -92q-95 -82 -194 -82z" />
    <glyph glyph-name="Cacute" unicode="&#x106;" horiz-adv-x="1057" 
d="M447 -21q-371 0 -374 280q0 77 29 177l131 450q94 322 207 434q114 112 348 112t307 -118q37 -56 37 -150t-41 -226h-272q72 281 -71 281q-78 0 -122 -59t-93 -230l-131 -450q-46 -158 -29 -223t93 -65q150 0 210 281h280q-33 -252 -158 -373t-351 -121zM686 1520
l218 268h302l-306 -268h-214z" />
    <glyph glyph-name="cacute" unicode="&#x107;" horiz-adv-x="831" 
d="M301 -21q-276 0 -276 236q0 79 31 187l51 175q71 243 167 335t281 91q185 0 243 -92q29 -47 29 -120t-28 -172h-257q35 119 27 163t-55 44t-79 -68t-95 -284l-51 -175q-43 -149 37 -149q40 0 71 47t68 157h264q-53 -203 -149 -289t-279 -86zM460 1098l200 312h310
l-284 -312h-226z" />
    <glyph glyph-name="Ccaron" unicode="&#x10c;" horiz-adv-x="1057" 
d="M447 -21q-371 0 -374 280q0 77 29 177l131 450q94 322 207 434q114 112 348 112t307 -118q37 -56 37 -150t-41 -226h-272q72 281 -71 281q-78 0 -122 -59t-93 -230l-131 -450q-46 -158 -29 -223t93 -65q150 0 210 281h280q-33 -252 -158 -373t-351 -121zM969 1520h-320
l-73 268h187l66 -159l138 159h221z" />
    <glyph glyph-name="ccaron" unicode="&#x10d;" horiz-adv-x="831" 
d="M301 -21q-276 0 -276 236q0 79 31 187l51 175q71 243 167 335t281 91q185 0 243 -92q29 -47 29 -120t-28 -172h-257q35 119 27 163t-55 44t-79 -68t-95 -284l-51 -175q-43 -149 37 -149q40 0 71 47t68 157h264q-53 -203 -149 -289t-279 -86zM730 1098h-294l-19 312h152
l47 -181l156 181h179z" />
    <glyph glyph-name="Dcaron" unicode="&#x10e;" horiz-adv-x="1133" 
d="M420 213q128 0 190 49t101 180l147 507q40 137 7 193t-154 56h-81l-280 -985h70zM792 1411q385 0 382 -297q0 -97 -38 -226l-106 -366q-93 -324 -203 -423t-376 -99h-457l409 1411h389zM950 1520h-320l-73 268h187l66 -159l138 159h221z" />
    <glyph glyph-name="dcaron" unicode="&#x10f;" horiz-adv-x="1171" 
d="M549 830q-100 0 -155 -191l-86 -298q-26 -89 -14 -139t62 -50t82 42q34 42 74 155l96 332q22 69 6 109t-65 40zM214 -21q-194 1 -193 223q0 70 31 175l66 226q59 204 139 302q79 98 201 98t200 -89l14 -15l148 512h264l-409 -1411h-238l28 97l-26 -28q-95 -90 -225 -90z
M1081 1068l154 343h208l-211 -343h-151z" />
    <glyph glyph-name="Dcroat" unicode="&#x110;" horiz-adv-x="1133" 
d="M420 213q128 0 191 49t101 180l147 507q40 137 7 193t-154 56h-82l-110 -386h146l-61 -213h-145l-110 -386h70zM793 1411q385 0 382 -297q0 -97 -38 -226l-106 -366q-93 -324 -203 -423t-377 -99h-457l174 599h-126l61 213h126l174 599h390z" />
    <glyph glyph-name="dcroat" unicode="&#x111;" horiz-adv-x="906" 
d="M549 830q-100 0 -155 -191l-86 -298q-26 -89 -14 -139t62 -50t83 41.5t73 155.5l96 332q21 70 5.5 109.5t-64.5 39.5zM214 -21q-194 1 -193 223q0 70 31 175l66 226q59 204 138.5 302t201.5 98t200 -89l14 -15l52 181h-167l50 172h167l46 159h264l-46 -159h118l-50 -172
h-118l-313 -1080h-238l28 97l-26 -28q-95 -90 -225 -90z" />
    <glyph glyph-name="Emacron" unicode="&#x112;" horiz-adv-x="944" 
d="M-10 0l409 1411h703l-61 -213h-407l-107 -368h378l-62 -213h-378l-118 -404h422l-61 -213h-718zM537 1720h558l-53 -154h-558z" />
    <glyph glyph-name="emacron" unicode="&#x113;" horiz-adv-x="868" 
d="M545 826q-58 0 -86 -38t-74 -188h191q42 126 34 182q-6 44 -65 44zM348 156q50 0 81 41t63 137h258q-50 -192 -147 -274t-279 -81q-182 0 -258 103q-43 60 -43 134t22 151l36 123q86 292 187 402t282 111q311 0 311 -240q1 -70 -26 -160l-48 -164h-449l-21 -72
q-37 -127 -29 -169q10 -42 60 -42zM445 1268h462l-38 -149h-462z" />
    <glyph glyph-name="Edotaccent" unicode="&#x116;" horiz-adv-x="944" 
d="M-10 0l409 1411h703l-61 -213h-407l-107 -368h378l-62 -213h-378l-118 -404h422l-61 -213h-718zM695 1801h268l-68 -235h-268z" />
    <glyph glyph-name="edotaccent" unicode="&#x117;" horiz-adv-x="868" 
d="M545 826q-58 0 -86 -38t-74 -188h191q42 126 34 182q-6 44 -65 44zM348 156q50 0 81 41t63 137h258q-50 -192 -147 -274t-279 -81q-182 0 -258 103q-43 60 -43 134t22 151l36 123q86 292 187 402t282 111q311 0 311 -240q1 -70 -26 -160l-48 -164h-449l-21 -72
q-37 -127 -29 -169q10 -42 60 -42zM599 1400h264l-76 -232h-264z" />
    <glyph glyph-name="Eogonek" unicode="&#x118;" horiz-adv-x="944" 
d="M540 -237q39 0 89 36l67 -90q-45 -41 -100 -65t-101 -24q-105 0 -152 59t-20 152t130 169h-463l409 1411h703l-61 -213h-407l-107 -368h378l-62 -213h-378l-118 -404h422l-61 -213h-114q-93 -55 -116 -137q-13 -43 5 -71t57 -29z" />
    <glyph glyph-name="eogonek" unicode="&#x119;" horiz-adv-x="868" 
d="M545 826q-58 0 -86 -38t-74 -188h191q42 126 34 182q-6 44 -65 44zM23 216q0 74 22 151l36 123q86 292 187 402t282 111q311 0 311 -240q1 -70 -26 -160l-48 -164h-449l-21 -72q-37 -127 -29 -169t60 -42q50 0 81 41t63 137h258q-50 -192 -148 -274q-52 -44 -129 -64
q-68 -54 -86 -114t-1 -84t57 -24t81 37l68 -92q-95 -82 -194 -82q-99 1 -143 53t-19 137t112 152h-20q-186 0 -262 103q-43 60 -43 134z" />
    <glyph glyph-name="Ecaron" unicode="&#x11a;" horiz-adv-x="944" 
d="M-10 0l409 1411h703l-61 -213h-407l-107 -368h378l-62 -213h-378l-118 -404h422l-61 -213h-718zM908 1520h-320l-73 268h187l66 -159l138 159h221z" />
    <glyph glyph-name="ecaron" unicode="&#x11b;" horiz-adv-x="868" 
d="M545 826q-58 0 -86 -38t-74 -188h191q42 126 34 182q-6 44 -65 44zM348 156q50 0 81 41t63 137h258q-50 -192 -147 -274t-279 -81q-182 0 -258 103q-43 60 -43 134t22 151l36 123q86 292 187 402t282 111q311 0 311 -240q1 -70 -26 -160l-48 -164h-449l-21 -72
q-37 -127 -29 -169q10 -42 60 -42zM780 1098h-294l-19 312h152l47 -181l156 181h179z" />
    <glyph glyph-name="Gbreve" unicode="&#x11e;" horiz-adv-x="1133" 
d="M496 -21q-406 0 -403 319q-1 95 35 218l110 377q94 319 214 429t374 110q198 0 295 -110t46 -278l-21 -70h-284l21 70q23 89 -3 132t-108 43q-80 1 -132 -71t-106 -254l-109 -377q-52 -179 -30 -252t130 -73q50 1 107 19l98 324h-153l62 213h442l-205 -706
q-163 -63 -380 -63zM1236 1801q-59 -293 -363 -293q-165 0 -229 78t-13 215h168q-64 -154 89 -154q74 0 121 40t59 114h168z" />
    <glyph glyph-name="gbreve" unicode="&#x11f;" horiz-adv-x="906" 
d="M534 830q-52 0 -86 -40q-33 -40 -58 -123l-98 -317q-26 -84 -14 -123t64 -39q105 0 158 193l78 256q32 105 20 149t-64 44zM234 -230q52 0 86 60t95 261q-93 -78 -221 -77t-173 90q-21 42 -21 102t26 143l97 317q104 336 336 338q116 0 209 -107l27 85h251l-336 -1093
q-84 -277 -397 -277q-408 0 -304 306h266q-18 -74 -6 -111q13 -37 65 -37zM616 1092q-162 0 -221 78q-58 78 -7 215h168q-64 -154 89 -154q75 0 121 40t59 114h168q-45 -165 -130 -229t-247 -64z" />
    <glyph glyph-name="uni0122" unicode="&#x122;" horiz-adv-x="1133" 
d="M496 -21q-406 0 -403 319q-1 95 35 218l110 377q94 319 214 429t374 110q198 0 295 -110t46 -278l-21 -70h-284l21 70q23 89 -3 132t-108 43q-80 1 -132 -71t-106 -254l-109 -377q-52 -179 -30 -252t130 -73q50 1 107 19l98 324h-153l62 213h442l-205 -706
q-163 -63 -380 -63zM173 -406l196 295h203l-140 -295h-259z" />
    <glyph glyph-name="uni0123" unicode="&#x123;" horiz-adv-x="906" 
d="M534 830q-52 0 -86 -40q-33 -40 -58 -123l-98 -317q-26 -84 -14 -123t64 -39q105 0 158 193l78 256q32 105 20 149t-64 44zM234 -230q52 0 86 60t95 261q-93 -78 -221 -77t-173 90q-21 42 -21 102t26 143l97 317q104 336 336 338q116 0 209 -107l27 85h251l-336 -1093
q-84 -277 -397 -277q-408 0 -304 306h266q-18 -74 -6 -111q13 -37 65 -37zM821 1390l-149 -292h-255l204 292h200z" />
    <glyph glyph-name="Imacron" unicode="&#x12a;" horiz-adv-x="529" 
d="M384 1411h296l-409 -1411h-296zM354 1720h558l-53 -154h-558z" />
    <glyph glyph-name="imacron" unicode="&#x12b;" horiz-adv-x="491" 
d="M254 982h273l-285 -982h-273zM236 1268h462l-38 -149h-462z" />
    <glyph glyph-name="Iogonek" unicode="&#x12e;" horiz-adv-x="529" 
d="M190 -237q39 0 89 36l67 -90q-45 -41 -100 -65t-101 -24q-105 0 -152 59t-20 152t130 169h-108l409 1411h296l-409 -1411h-47q-93 -55 -116 -137q-13 -43 5 -71t57 -29z" />
    <glyph glyph-name="iogonek" unicode="&#x12f;" horiz-adv-x="491" 
d="M403 1411h266l-69 -239h-266zM131 -363q-99 1 -143 53t-18 143t140 167h-119l285 982h273l-285 -982h-52q-72 -55 -91 -117q-19 -61 -2 -85t57 -24t81 37l68 -92q-95 -82 -194 -82z" />
    <glyph glyph-name="Idotaccent" unicode="&#x130;" horiz-adv-x="529" 
d="M384 1411h296l-409 -1411h-296zM512 1801h268l-68 -235h-268z" />
    <glyph glyph-name="dotlessi" unicode="&#x131;" horiz-adv-x="491" 
d="M254 982h273l-285 -982h-273z" />
    <glyph glyph-name="uni0136" unicode="&#x136;" horiz-adv-x="1095" 
d="M967 1411h292l-449 -663l95 -748h-283l-109 762zM292 0h-296l409 1411h296zM128 -406l196 295h203l-140 -295h-259z" />
    <glyph glyph-name="uni0137" unicode="&#x137;" horiz-adv-x="906" 
d="M22 -406l196 295h203l-140 -295h-259zM245 0h-267l409 1411h267l-246 -850l300 421h271l-323 -446l53 -536h-252l-50 559z" />
    <glyph glyph-name="Lacute" unicode="&#x139;" horiz-adv-x="868" 
d="M396 1411h296l-335 -1156h388l-74 -255h-684zM454 1520l218 268h302l-306 -268h-214z" />
    <glyph glyph-name="lacute" unicode="&#x13a;" horiz-adv-x="491" 
d="M376 1411h273l-409 -1411h-273zM422 1520l218 268h302l-306 -268h-214z" />
    <glyph glyph-name="uni013B" unicode="&#x13b;" horiz-adv-x="868" 
d="M396 1411h296l-335 -1156h388l-74 -255h-684zM0 -406l196 295h203l-140 -295h-259z" />
    <glyph glyph-name="uni013C" unicode="&#x13c;" horiz-adv-x="491" 
d="M369 1411h273l-409 -1411h-273zM-233 -406l196 295h203l-140 -295h-259z" />
    <glyph glyph-name="Lcaron" unicode="&#x13d;" horiz-adv-x="868" 
d="M396 1411h296l-335 -1156h388l-74 -255h-684zM718 1068l154 343h208l-211 -343h-151z" />
    <glyph glyph-name="lcaron" unicode="&#x13e;" horiz-adv-x="718" 
d="M376 1411h273l-409 -1411h-273zM674 1068l154 343h208l-211 -343h-151z" />
    <glyph glyph-name="Lslash" unicode="&#x141;" horiz-adv-x="1020" 
d="M546 1411h296l-145 -501l287 66l-87 -272l-279 -64l-111 -385h388l-74 -255h-684l164 566l-206 -47l79 270l205 47z" />
    <glyph glyph-name="lslash" unicode="&#x142;" horiz-adv-x="680" 
d="M470 1411h273l-141 -486l178 69l-76 -263l-178 -69l-192 -662h-273l157 543l-179 -70l76 263l180 70z" />
    <glyph glyph-name="Nacute" unicode="&#x143;" horiz-adv-x="1171" 
d="M247 0h-256l409 1411h177l174 -1027l298 1027h256l-409 -1411h-182l-178 996zM762 1520l218 268h302l-306 -268h-214z" />
    <glyph glyph-name="nacute" unicode="&#x144;" horiz-adv-x="944" 
d="M730 1003q122 0 166 -70t7 -195l-214 -738h-264l210 724q29 105 -55 105q-95 0 -165 -228l-174 -601h-273l285 982h265l-24 -92q114 113 236 113zM524 1098l200 312h310l-284 -312h-226z" />
    <glyph glyph-name="uni0145" unicode="&#x145;" horiz-adv-x="1171" 
d="M247 0h-256l409 1411h177l174 -1027l298 1027h256l-409 -1411h-182l-178 996zM114 -406l196 295h203l-140 -295h-259z" />
    <glyph glyph-name="uni0146" unicode="&#x146;" horiz-adv-x="944" 
d="M730 1003q122 0 166 -70t7 -195l-214 -738h-264l210 724q29 105 -55 105q-95 0 -165 -228l-174 -601h-273l285 982h265l-24 -92q114 113 236 113zM-1 -406l196 295h203l-140 -295h-259z" />
    <glyph glyph-name="Ncaron" unicode="&#x147;" horiz-adv-x="1171" 
d="M247 0h-256l409 1411h177l174 -1027l298 1027h256l-409 -1411h-182l-178 996zM1045 1520h-320l-73 268h187l66 -159l138 159h221z" />
    <glyph glyph-name="ncaron" unicode="&#x148;" horiz-adv-x="944" 
d="M730 1003q122 0 166 -70t7 -195l-214 -738h-264l210 724q29 105 -55 105q-95 0 -165 -228l-174 -601h-273l285 982h265l-24 -92q114 113 236 113zM794 1098h-294l-19 312h152l47 -181l156 181h179z" />
    <glyph glyph-name="Omacron" unicode="&#x14c;" horiz-adv-x="1133" 
d="M488 192q88 0 138 66q49 66 105 259l109 377q52 179 36 252t-104 73q-88 -1 -138 -67q-49 -66 -105 -258l-109 -377q-52 -179 -36 -252t104 -73zM795 1432q379 0 379 -310q1 -99 -38 -229l-110 -377q-91 -317 -206 -427t-359 -110q-372 0 -375 312q0 97 37 225l110 377
q93 319 209 429t353 110zM656 1720h558l-53 -154h-558z" />
    <glyph glyph-name="omacron" unicode="&#x14d;" horiz-adv-x="906" 
d="M360 156q60 0 92 43t71 178l66 226q39 135 31 179t-66 44q-60 0 -92 -44t-71 -179l-66 -226q-39 -133 -31 -177q6 -44 66 -44zM588 1003q300 0 300 -227q0 -77 -27 -173l-66 -226q-66 -227 -167 -313t-293 -85q-192 0 -265 106q-41 59 -41 135t24 157l66 226
q65 228 167 314t302 86zM446 1268h462l-38 -149h-462z" />
    <glyph glyph-name="Ohungarumlaut" unicode="&#x150;" horiz-adv-x="1133" 
d="M488 192q88 0 138 66q49 66 105 259l109 377q52 179 36 252t-104 73q-88 -1 -138 -67q-49 -66 -105 -258l-109 -377q-52 -179 -36 -252t104 -73zM795 1432q379 0 379 -310q1 -99 -38 -229l-110 -377q-91 -317 -206 -427t-359 -110q-372 0 -375 312q0 97 37 225l110 377
q93 319 209 429t353 110zM974 1520l204 268h261l-283 -268h-182zM631 1520l204 268h261l-283 -268h-182z" />
    <glyph glyph-name="ohungarumlaut" unicode="&#x151;" horiz-adv-x="906" 
d="M360 156q60 0 92 43t71 178l66 226q39 135 31 179t-66 44q-60 0 -92 -44t-71 -179l-66 -226q-39 -133 -31 -177q6 -44 66 -44zM588 1003q300 0 300 -227q0 -77 -27 -173l-66 -226q-66 -227 -167 -313t-293 -85q-192 0 -265 106q-41 59 -41 135t24 157l66 226
q65 228 167 314t302 86zM727 1098l202 312h249l-270 -312h-181zM408 1098l202 312h249l-270 -312h-181z" />
    <glyph glyph-name="OE" unicode="&#x152;" horiz-adv-x="1586" 
d="M793 1205q-127 0 -190.5 -79t-130.5 -307l-66 -227q-61 -212 -39 -299t138 -86t145 10l280 967q-10 21 -137 21zM860 0l-447 -7q-475 0 -323 527l107 370q92 312 212 420t375 108l485 -7h421l-61 -213h-407l-107 -368h386l-62 -213h-386l-118 -404h429l-61 -213h-443z
" />
    <glyph glyph-name="oe" unicode="&#x153;" horiz-adv-x="1360" 
d="M984 826q-60 0 -92 -48t-72 -178h200q42 126 33 176t-69 50zM526 826q-57 0 -92 -56.5t-87 -233.5l-65 -226q-25 -86 -13.5 -120t69.5 -34t90.5 46t73.5 189l78 267q26 92 14 130t-68 38zM1028 1003h3q276 0 276 -230q0 -73 -28 -170l-48 -164h-458q-52 -167 -44 -225
t76 -58q39 0 69.5 41t62.5 137h258q-50 -192 -141.5 -273.5t-256.5 -81.5q-197 0 -237 124l-4 14l-16 -17q-116 -121 -273 -121h-1q-165 0 -228 105.5t-9 292.5l66 226q66 228 160 314t271 86t239 -124l11 13q92 111 252 111z" />
    <glyph glyph-name="Racute" unicode="&#x154;" horiz-adv-x="1057" 
d="M553 797q183 0 228 154l8 29q34 118 5 168t-133 50h-41l-117 -401h50zM729 1411q247 0 328 -102q43 -55 43 -139t-38 -218q-69 -239 -357 -266q119 -17 170 -68q74 -73 27 -233q-24 -81 -48 -201t-24 -183h-293q-1 96 23 195q24 98 54 200t-1 145q-30 43 -142 43h-30
l-169 -584h-290l409 1411h338zM663 1520l218 268h302l-306 -268h-214z" />
    <glyph glyph-name="racute" unicode="&#x155;" horiz-adv-x="680" 
d="M656 736q-122 0 -186 -68t-113 -247l-122 -421h-264l285 982h246l-35 -120q140 142 289 141l35 -1l-84 -275q-22 9 -51 9zM431 1098l200 312h310l-284 -312h-226z" />
    <glyph glyph-name="uni0156" unicode="&#x156;" horiz-adv-x="1057" 
d="M553 797q183 0 228 154l8 29q34 118 5 168t-133 50h-41l-117 -401h50zM729 1411q247 0 328 -102q43 -55 43 -139t-38 -218q-69 -239 -357 -266q119 -17 170 -68q74 -73 27 -233q-24 -81 -48 -201t-24 -183h-293q-1 96 23 195q24 98 54 200t-1 145q-30 43 -142 43h-30
l-169 -584h-290l409 1411h338zM74 -406l196 295h203l-140 -295h-259z" />
    <glyph glyph-name="uni0157" unicode="&#x157;" horiz-adv-x="680" 
d="M663 736q-121 0 -185 -68t-114 -247l-122 -421h-264l285 982h246l-35 -120q140 142 289 141l35 -1l-84 -275q-22 9 -51 9zM-219 -406l196 295h203l-140 -295h-259z" />
    <glyph glyph-name="Rcaron" unicode="&#x158;" horiz-adv-x="1057" 
d="M553 797q183 0 228 154l8 29q34 118 5 168t-133 50h-41l-117 -401h50zM729 1411q247 0 328 -102q43 -55 43 -139t-38 -218q-69 -239 -357 -266q119 -17 170 -68q74 -73 27 -233q-24 -81 -48 -201t-24 -183h-293q-1 96 23 195q24 98 54 200t-1 145q-30 43 -142 43h-30
l-169 -584h-290l409 1411h338zM946 1520h-320l-73 268h187l66 -159l138 159h221z" />
    <glyph glyph-name="rcaron" unicode="&#x159;" horiz-adv-x="680" 
d="M656 736q-122 0 -186 -68t-113 -247l-122 -421h-264l285 982h246l-35 -120q140 142 289 141l35 -1l-84 -275q-22 9 -51 9zM701 1098h-294l-19 312h152l47 -181l156 181h179z" />
    <glyph glyph-name="Sacute" unicode="&#x15a;" horiz-adv-x="1095" 
d="M813 1432q346 0 343 -263q1 -77 -31 -181h-288q35 136 19 184t-82 47q-136 0 -178 -142t61 -207l107 -69q153 -100 195 -200q19 -47 19 -111t-23 -144q-57 -195 -182 -281t-351 -86q-355 0 -358 281q1 84 32 192h286q-72 -260 79 -260q73 0 127 44t76 120q22 75 4 130
t-84 98l-107 69q-141 93 -178 188q-17 44 -17 104t23 142q53 183 173 264t335 81zM716 1520l218 268h302l-306 -268h-214z" />
    <glyph glyph-name="sacute" unicode="&#x15b;" horiz-adv-x="831" 
d="M546 1003q264 0 264 -208q1 -52 -16 -117h-266q22 88 16 118t-41 30q-69 0 -93 -94t46 -128q159 -82 210 -153q50 -67 25 -172q-43 -168 -135 -234t-283 -66q-275 0 -278 208q1 61 23 137h265q-26 -106 -19 -137q6 -31 48 -31t66 27t38 81t-2 88t-62 58q-134 68 -176 128
t-41 104q0 42 7 71q38 148 137 219t267 71zM448 1098l200 312h310l-284 -312h-226z" />
    <glyph glyph-name="Scedilla" unicode="&#x15e;" horiz-adv-x="1095" 
d="M813 1432q346 0 343 -263q1 -77 -31 -181h-288q35 136 19 184t-82 47q-136 0 -178 -142t61 -207l107 -69q153 -100 195 -200q19 -47 19 -111t-23 -144q-57 -195 -182 -281t-351 -86q-355 0 -358 281q1 84 32 192h286q-72 -260 79 -260q73 0 127 44t76 120q22 75 4 130
t-84 98l-107 69q-141 93 -178 188q-17 44 -17 104t23 142q53 183 173 264t335 81zM99 -406l196 295h203l-140 -295h-259z" />
    <glyph glyph-name="scedilla" unicode="&#x15f;" horiz-adv-x="831" 
d="M517 1003q264 0 264 -208q1 -52 -16 -117h-266q23 88 17 118t-42 30q-69 0 -93 -94t46 -128q159 -82 210 -153q50 -67 25 -172q-42 -168 -134 -234t-284 -66q-275 0 -278 208q1 61 23 137h265q-26 -106 -19 -137t49 -31t65 27q24 27 38 81q15 54 -1 88t-63 58
q-133 68 -175 128t-42 104q0 42 7 71q38 148 137 219t267 71zM-80 -406l196 295h203l-140 -295h-259z" />
    <glyph glyph-name="Scaron" unicode="&#x160;" horiz-adv-x="1095" 
d="M813 1432q346 0 343 -263q1 -77 -31 -181h-288q35 136 19 184t-82 47q-136 0 -178 -142t61 -207l107 -69q153 -100 195 -200q19 -47 19 -111t-23 -144q-57 -195 -182 -281t-351 -86q-355 0 -358 281q1 84 32 192h286q-72 -260 79 -260q73 0 127 44t76 120q22 75 4 130
t-84 98l-107 69q-141 93 -178 188q-17 44 -17 104t23 142q53 183 173 264t335 81zM999 1520h-320l-73 268h187l66 -159l138 159h221z" />
    <glyph glyph-name="scaron" unicode="&#x161;" horiz-adv-x="831" 
d="M546 1003q264 0 264 -208q1 -52 -16 -117h-266q22 88 16 118t-41 30q-69 0 -93 -94t46 -128q159 -82 210 -153q50 -67 25 -172q-43 -168 -135 -234t-283 -66q-275 0 -278 208q1 61 23 137h265q-26 -106 -19 -137q6 -31 48 -31t66 27t38 81t-2 88t-62 58q-134 68 -176 128
t-41 104q0 42 7 71q38 148 137 219t267 71zM718 1098h-294l-19 312h152l47 -181l156 181h179z" />
    <glyph glyph-name="uni0162" unicode="&#x162;" horiz-adv-x="1020" 
d="M532 0h-296l348 1198h-311l61 213h918l-61 -213h-311zM55 -406l196 295h203l-140 -295h-259z" />
    <glyph glyph-name="uni0163" unicode="&#x163;" horiz-adv-x="642" 
d="M323 -21q-169 1 -221 85t5 268l147 480h-128l53 170h128l48 157l298 80l-73 -237h149l-53 -170h-149l-147 -480q-36 -112 -18 -144t117 -32l23 1l-51 -168q-62 -10 -128 -10zM-56 -406l196 295h203l-140 -295h-259z" />
    <glyph glyph-name="Tcaron" unicode="&#x164;" horiz-adv-x="1020" 
d="M518 0h-296l348 1198h-311l61 213h918l-61 -213h-311zM972 1520h-320l-73 268h187l66 -159l138 159h221z" />
    <glyph glyph-name="tcaron" unicode="&#x165;" horiz-adv-x="755" 
d="M296 -21q-168 1 -220 85t4 268l147 480h-128l53 170h128l48 157l298 80l-73 -237h149l-53 -170h-149l-147 -480q-35 -112 -17 -144t116 -32l23 1l-51 -168q-62 -10 -128 -10zM678 1069l154 343h208l-211 -343h-151z" />
    <glyph glyph-name="Umacron" unicode="&#x16a;" horiz-adv-x="1133" 
d="M456 -21q-212 0 -305 124q-92 126 -32 326l285 982h296l-292 -1007q-18 -59 -18 -97q0 -115 113 -115q67 0 111 47t74 149l297 1023h294l-294 -1014q-63 -217 -191 -317q-126 -100 -338 -101zM663 1720h558l-53 -154h-558z" />
    <glyph glyph-name="umacron" unicode="&#x16b;" horiz-adv-x="944" 
d="M228 -21q-192 0 -192 161q-1 46 16 102l215 740h264l-211 -725q-30 -104 53 -104q93 0 164 228l175 601h273l-285 -982h-254l27 98l-10 -9q-111 -110 -235 -110zM468 1268h462l-38 -149h-462z" />
    <glyph glyph-name="Uring" unicode="&#x16e;" horiz-adv-x="1133" 
d="M456 -21q-212 0 -305 124q-92 126 -32 326l285 982h296l-292 -1007q-18 -59 -18 -97q0 -115 113 -115q67 0 111 47t74 149l297 1023h294l-294 -1014q-63 -217 -191 -317q-126 -100 -338 -101zM874 1637q36 0 62 25t26 62q0 36 -26 62t-62 26q-37 0 -62 -26t-25 -62
q0 -37 25 -62t62 -25zM874 1520q-86 0 -145 59t-59 145t59 146t145 59q86 1 146 -59t59 -146q1 -86 -59 -145t-146 -59z" />
    <glyph glyph-name="uring" unicode="&#x16f;" horiz-adv-x="944" 
d="M228 -21q-192 0 -192 161q-1 46 16 102l215 740h264l-211 -725q-30 -104 53 -104q93 0 164 228l175 601h273l-285 -982h-254l27 98l-10 -9q-111 -110 -235 -110zM656 1215q36 0 62 25t26 62q0 36 -26 62t-62 26q-37 0 -62 -26t-25 -62q0 -37 25 -62t62 -25zM656 1098
q-86 0 -145 59t-59 145t59 146t145 59q86 1 146 -59t59 -146q1 -86 -59 -145t-146 -59z" />
    <glyph glyph-name="Uhungarumlaut" unicode="&#x170;" horiz-adv-x="1133" 
d="M456 -21q-212 0 -305 124q-92 126 -32 326l285 982h296l-292 -1007q-18 -59 -18 -97q0 -115 113 -115q67 0 111 47t74 149l297 1023h294l-294 -1014q-63 -217 -191 -317q-126 -100 -338 -101zM981 1520l204 268h261l-283 -268h-182zM638 1520l204 268h261l-283 -268h-182
z" />
    <glyph glyph-name="uhungarumlaut" unicode="&#x171;" horiz-adv-x="944" 
d="M228 -21q-192 0 -192 161q-1 46 16 102l215 740h264l-211 -725q-30 -104 53 -104q93 0 164 228l175 601h273l-285 -982h-254l27 98l-10 -9q-111 -110 -235 -110zM749 1098l202 312h249l-270 -312h-181zM430 1098l202 312h249l-270 -312h-181z" />
    <glyph glyph-name="Uogonek" unicode="&#x172;" horiz-adv-x="1133" 
d="M597 -237q39 0 89 36l67 -90q-45 -41 -100 -65t-101 -24q-105 0 -152 59t-22 145t106 156q-15 -1 -31 -1q-209 0 -302 124q-92 126 -32 326l285 982h296l-292 -1007q-18 -59 -18 -97q0 -115 113 -115q67 0 111 47t74 149l297 1023h294l-294 -1014q-87 -299 -306 -382
q-118 -59 -144 -152q-13 -43 5 -71t57 -29z" />
    <glyph glyph-name="uogonek" unicode="&#x173;" horiz-adv-x="944" 
d="M458 -363q-99 1 -143 53t-21 132q31 108 154 186l25 90l-10 -9q-111 -110 -235 -110q-192 0 -192 161q-1 46 16 102l215 740h264l-211 -725q-30 -104 53 -104q93 0 164 228l175 601h273l-285 -982h-161q-72 -55 -91 -117q-19 -61 -2 -85t57 -24t81 37l68 -92
q-95 -82 -194 -82z" />
    <glyph glyph-name="Ydieresis" unicode="&#x178;" horiz-adv-x="1057" 
d="M328 1411h276l11 -611l358 611h310l-591 -868l-157 -543h-296l162 558zM997 1800h232l-68 -233h-232zM609 1800h232l-68 -233h-232z" />
    <glyph glyph-name="Zacute" unicode="&#x179;" horiz-adv-x="944" 
d="M4 256l696 942h-422l61 213h729l-74 -256l-696 -942h504l-61 -213h-811zM613 1520l218 268h302l-306 -268h-214z" />
    <glyph glyph-name="zacute" unicode="&#x17a;" horiz-adv-x="755" 
d="M-2 236l484 577h-316l49 169h578l-69 -236l-483 -577h347l-49 -169h-609zM415 1098l200 312h310l-284 -312h-226z" />
    <glyph glyph-name="Zdotaccent" unicode="&#x17b;" horiz-adv-x="944" 
d="M4 256l696 942h-422l61 213h729l-74 -256l-696 -942h504l-61 -213h-811zM683 1801h268l-68 -235h-268z" />
    <glyph glyph-name="zdotaccent" unicode="&#x17c;" horiz-adv-x="755" 
d="M-2 236l484 577h-316l49 169h578l-69 -236l-483 -577h347l-49 -169h-609zM504 1400h264l-76 -232h-264z" />
    <glyph glyph-name="Zcaron" unicode="&#x17d;" horiz-adv-x="944" 
d="M4 256l696 942h-422l61 213h729l-74 -256l-696 -942h504l-61 -213h-811zM896 1520h-320l-73 268h187l66 -159l138 159h221z" />
    <glyph glyph-name="zcaron" unicode="&#x17e;" horiz-adv-x="755" 
d="M-2 236l484 577h-316l49 169h578l-69 -236l-483 -577h347l-49 -169h-609zM685 1098h-294l-19 312h152l47 -181l156 181h179z" />
    <glyph glyph-name="florin" unicode="&#x192;" 
d="M474 0h-264l249 812h-145l53 170h145l59 193q42 137 117.5 193t216.5 56q84 1 154 -15l-50 -162q-29 3 -69 3q-82 -1 -117 -114l-47 -154h169l-53 -170h-169z" />
    <glyph glyph-name="circumflex" unicode="&#x2c6;" 
d="M626 1410h294l18 -312h-152l-47 181l-156 -181h-179z" />
    <glyph glyph-name="caron" unicode="&#x2c7;" 
d="M799 1098h-294l-18 312h152l47 -181l156 181h179z" />
    <glyph glyph-name="uni02C9" unicode="&#x2c9;" 
d="M493 1268h462l-38 -149h-462z" />
    <glyph glyph-name="breve" unicode="&#x2d8;" 
d="M664 1092q-162 0 -219.5 77.5t-6.5 215.5h168q-64 -154 89 -154q74 0 120.5 40t59.5 114h168q-45 -164 -131 -228.5t-248 -64.5z" />
    <glyph glyph-name="dotaccent" unicode="&#x2d9;" 
d="M603 1400h264l-75 -232h-264z" />
    <glyph glyph-name="ring" unicode="&#x2da;" 
d="M678 1215q37 0 62.5 25t25.5 62t-25.5 62.5t-62.5 25.5t-62 -25.5t-25 -62.5t25 -62t62 -25zM678 1098q-86 0 -145 59t-59 145t59 145.5t145 59.5t145.5 -59.5t59.5 -145.5t-59.5 -145t-145.5 -59z" />
    <glyph glyph-name="ogonek" unicode="&#x2db;" 
d="M643 -281q-95 -82 -194 -82q-99 1 -143 53t-21 132q43 150 271 246l17 -39q-110 -65 -138 -160t67 -95q32 0 73 37z" />
    <glyph glyph-name="tilde" unicode="&#x2dc;" 
d="M788 1276q41 0 55 100h156q-25 -133 -74.5 -205t-115.5 -72t-160 69q-37 28 -59 28q-12 0 -23.5 -29.5t-15.5 -72.5h-156q23 134 69.5 206.5t111.5 72.5t169 -79q23 -18 43 -18z" />
    <glyph glyph-name="hungarumlaut" unicode="&#x2dd;" 
d="M743 1098l203 312h249l-271 -312h-181zM424 1098l203 312h249l-271 -312h-181z" />
    <glyph glyph-name="pi" unicode="&#x3c0;" horiz-adv-x="1246" 
d="M669 206q0 180 101 599h-148l-116 -652q-18 -105 -45 -141.5t-89 -36.5t-73 45t28 165l211 620h-94q-75 0 -130.5 -31.5t-140.5 -121.5l-61 40q91 160 171.5 213.5t229.5 53.5l338 1q236 0 337 9l-30 -164h-301q-61 -325 14 -660q22 -99 7 -134.5t-78 -35.5
q-131 0 -131 231z" />
    <glyph glyph-name="endash" unicode="&#x2013;" 
d="M111 583h790l-51 -175h-790z" />
    <glyph glyph-name="emdash" unicode="&#x2014;" horiz-adv-x="1360" 
d="M126 583h1112l-51 -175h-1112z" />
    <glyph glyph-name="quoteleft" unicode="&#x2018;" horiz-adv-x="453" 
d="M662 1411l-200 -450h-272l274 450h198z" />
    <glyph glyph-name="quoteright" unicode="&#x2019;" horiz-adv-x="453" 
d="M210 961l200 450h272l-274 -450h-198z" />
    <glyph glyph-name="quotesinglbase" unicode="&#x201a;" horiz-adv-x="453" 
d="M-112 -185l196 450h272l-270 -450h-198z" />
    <glyph glyph-name="quotedblleft" unicode="&#x201c;" horiz-adv-x="793" 
d="M1003 1411l-200 -450h-272l274 450h198zM661 1411l-200 -450h-272l274 450h198z" />
    <glyph glyph-name="quotedblright" unicode="&#x201d;" horiz-adv-x="793" 
d="M560 961l200 450h272l-274 -450h-198zM218 961l200 450h272l-274 -450h-198z" />
    <glyph glyph-name="quotedblbase" unicode="&#x201e;" horiz-adv-x="793" 
d="M207 -182l200 450h272l-274 -450h-198zM-130 -182l200 450h272l-274 -450h-198z" />
    <glyph glyph-name="dagger" unicode="&#x2020;" 
d="M207 1131h243v280h213v-280h245v-202h-245v-929h-213v929h-243v202z" />
    <glyph glyph-name="daggerdbl" unicode="&#x2021;" 
d="M213 1131h242v280h216v-280h243v-203h-243v-447h243v-203h-243v-278h-216v278h-242v203h242v447h-242v203z" />
    <glyph glyph-name="bullet" unicode="&#x2022;" horiz-adv-x="1020" 
d="M510 1103q155 0 262.5 -107.5t107.5 -262.5t-107.5 -262.5t-262.5 -107.5t-262.5 107.5t-107.5 262.5t107.5 262.5t262.5 107.5z" />
    <glyph glyph-name="ellipsis" unicode="&#x2026;" horiz-adv-x="1360" 
d="M927 241h240v-241h-240v241zM485 241h240v-241h-240v241zM43 241h240v-241h-240v241z" />
    <glyph glyph-name="perthousand" unicode="&#x2030;" horiz-adv-x="2039" 
d="M1754 643q-44 0 -66 -25t-43 -98l-85 -292q-20 -67 -11 -94.5t53 -27.5t66.5 25t43.5 97l85 292q19 68 10 95.5t-53 27.5zM1582 -7q-119 0 -168.5 62t-15.5 176l84 292q36 124 106 181.5t189 57.5t168 -62t15 -177l-84 -292q-36 -124 -105.5 -181t-188.5 -57zM1192 643
q-44 0 -66.5 -25t-43.5 -98l-85 -292q-20 -67 -11.5 -94.5t52.5 -27.5t67 25t44 97l85 292q19 68 10.5 95.5t-52.5 27.5zM1019 -7q-119 0 -168.5 62t-15.5 176l84 292q36 124 106 181.5t189 57.5t168 -62t15 -177l-84 -292q-36 -124 -105.5 -181t-188.5 -57zM117 -77
l1150 1509h163l-1150 -1509h-163zM552 1313q-44 0 -66.5 -25t-43.5 -98l-85 -292q-19 -67 -10 -94.5t53 -27.5t66 25t43 97l85 292q20 68 11 95.5t-53 27.5zM379 663q-119 0 -168 62t-16 176l85 292q36 124 106 181.5t189 57.5t167.5 -62t15.5 -177l-85 -292
q-36 -124 -105.5 -181t-188.5 -57z" />
    <glyph glyph-name="guilsinglleft" unicode="&#x2039;" horiz-adv-x="491" 
d="M534 854l-221 -371l2 -367h-215l-29 384l228 354h235z" />
    <glyph glyph-name="guilsinglright" unicode="&#x203a;" horiz-adv-x="491" 
d="M-39 116l221 371l-2 367h215l29 -384l-228 -354h-235z" />
    <glyph glyph-name="fraction" unicode="&#x2044;" horiz-adv-x="227" 
d="M804 1425l-1115 -1510h-166l1115 1510h166z" />
    <glyph glyph-name="uni2074" unicode="&#x2074;" horiz-adv-x="642" 
d="M524 1397h230l-133 -458h100l-33 -116h-100l-45 -153h-164l49 153h-268l45 158z" />
    <glyph glyph-name="Euro" unicode="&#x20ac;" 
d="M469 199q137 0 194 234h263q-37 -228 -152.5 -337.5t-318.5 -109.5q-353 0 -356 270q1 78 29 176l8 28h-118l81 188h92l30 104h-118l81 188h92l2 10q78 266 189 370.5t327 104.5t289 -112q72 -112 -2 -349h-256q80 248 -29 248t-149.5 -51t-82.5 -197l-7 -24h221
l-81 -188h-195l-30 -104h180l-81 -188h-154q-43 -150 -30.5 -205.5t82.5 -55.5z" />
    <glyph glyph-name="trademark" unicode="&#x2122;" horiz-adv-x="1246" 
d="M311 1388h393v-89h-152v-518h-89v518h-152v89zM767 781v607h160l112 -486l112 486h160v-607h-89v559l-129 -559h-108l-129 559v-559h-89z" />
    <glyph glyph-name="Omega" unicode="&#x2126;" horiz-adv-x="1246" 
d="M101 952q0 209 149.5 334.5t397.5 127.5t404 -127t156 -328q0 -168 -141 -399q-81 -133 -199 -345h79q75 -1 112 42.5t64 164.5l73 -12l-74 -410h-412q127 352 167 479q88 285 88 460t-86.5 279.5t-224.5 108.5q-138 -4 -224 -107t-86 -265q0 -78 39.5 -284t215.5 -671
h-413l-74 410l74 12q33 -138 61.5 -171t114.5 -36h79q-81 154 -172 303q-168 271 -168 434z" />
    <glyph glyph-name="partialdiff" unicode="&#x2202;" horiz-adv-x="1020" 
d="M683 654q0 246 -156 247q-107 0 -181.5 -167.5t-74.5 -409.5q0 -114 44 -193t108 -79q108 0 184 178t76 424zM545 1434q393 0 391 -620q0 -372 -145.5 -609t-372.5 -237q-148 0 -242.5 117t-94.5 300q0 234 139.5 416.5t317.5 182.5q92 0 201 -66q21 190 -16.5 302
t-122.5 112q-28 0 -60.5 -29t-56.5 -81t-44.5 -71.5t-70.5 -19.5t-76 48.5t4 108.5t102.5 103t146.5 43z" />
    <glyph glyph-name="Delta" unicode="&#x2206;" horiz-adv-x="1360" 
d="M667 1077l-446 -883h799zM740 1391l582 -1391h-1285z" />
    <glyph glyph-name="product" unicode="&#x220f;" horiz-adv-x="2039" 
d="M197 -315v65q151 17 197.5 88.5t46.5 289.5v901q3 217 -43.5 288.5t-200.5 88.5v65h1645v-65q-151 -17 -197.5 -88.5t-46.5 -288.5v-901q0 -218 46.5 -289.5t197.5 -88.5v-65h-704v65q157 17 202 87t42 291v1262h-725v-1262q0 -218 46.5 -289.5t197.5 -88.5v-65h-704z
" />
    <glyph glyph-name="summation" unicode="&#x2211;" horiz-adv-x="2039" 
d="M1110 1389h-403l370 -740l-451 -756h524q138 0 219 51t149 180l22 41l70 -21l-117 -459h-1077l491 838l-482 948h1119l46 -366l-70 -14l-17 39q-54 142 -142.5 200.5t-250.5 58.5z" />
    <glyph glyph-name="minus" unicode="&#x2212;" horiz-adv-x="1360" 
d="M215 605h934v-148h-934v148z" />
    <glyph glyph-name="uni2215" unicode="&#x2215;" horiz-adv-x="227" 
d="M804 1425l-1115 -1510h-166l1115 1510h166z" />
    <glyph glyph-name="uni2219" unicode="&#x2219;" horiz-adv-x="453" 
d="M195 839h260l-78 -268h-260z" />
    <glyph glyph-name="radical" unicode="&#x221a;" horiz-adv-x="1473" 
d="M1722 1529v-86h-281l-553 -1817h-74l-570 821l-145 -105l-43 96l298 194l506 -750l480 1647h382z" />
    <glyph glyph-name="infinity" unicode="&#x221e;" horiz-adv-x="2039" 
d="M1643 569q0 97 -59.5 156.5t-150.5 59.5t-153 -50.5t-122 -168.5q41 -100 111.5 -154t164.5 -54t151.5 57t57.5 154zM394 569q0 -109 69 -183t173 -74t189 73t160 232q-63 113 -138 163.5t-185 50.5t-189 -76.5t-79 -185.5zM1754 573q0 -164 -97 -271t-243 -107
q-105 0 -189 56.5t-135 161.5q-106 -156 -186.5 -210t-206.5 -54q-174 0 -294 121.5t-120 299.5t116.5 301t285.5 123q122 0 210.5 -60.5t175.5 -202.5q147 217 335 217q153 0 250.5 -105.5t97.5 -269.5z" />
    <glyph glyph-name="integral" unicode="&#x222b;" horiz-adv-x="2039" 
d="M1187 1321q-84 0 -84 77q0 10 16 72q2 8 -5.5 14t-20.5 6q-77 0 -80 -131t58 -453t75 -638t-14 -464t-79 -208t-127 -60t-125 42t-49 94t28 82t64 30t61 -25.5t25 -61.5l-9 -60q-1 -9 6 -15.5t19 -6.5q52 -1 69 87t-13 250q-80 427 -110 817q-63 800 231 800
q66 0 112 -42t46 -102q0 -104 -94 -104z" />
    <glyph glyph-name="approxequal" unicode="&#x2248;" horiz-adv-x="2039" 
d="M742 865q128 0 336 -67t292 -67q85 0 157 35.5t116 86.5l37 -22q-48 -115 -136 -182.5t-178 -67.5t-334 67t-313 67t-147 -35t-127 -86l-31 32q57 100 156.5 169.5t171.5 69.5zM742 514q128 0 336 -67t292 -67q85 0 157 35.5t116 86.5l37 -22q-48 -115 -136 -182.5
t-178 -67.5t-334 67t-313 67t-147 -35t-127 -86l-31 32q57 100 156.5 169.5t171.5 69.5z" />
    <glyph glyph-name="notequal" unicode="&#x2260;" horiz-adv-x="2039" 
d="M407 279v135h437l236 276h-673v135h788l317 367h164l-315 -367h312v-135h-427l-236 -276h663v-135h-779l-318 -372h-166l318 372h-321z" />
    <glyph glyph-name="lessequal" unicode="&#x2264;" horiz-adv-x="2039" 
d="M417 135h1266v-135h-1266v135zM1683 1235v-135l-1063 -410l1063 -309v-135l-1266 377v135z" />
    <glyph glyph-name="greaterequal" unicode="&#x2265;" horiz-adv-x="2039" 
d="M417 135h1266v-135h-1266v135zM417 1235l1266 -477v-135l-1266 -377v135l1063 309l-1063 410v135z" />
    <glyph glyph-name="lozenge" unicode="&#x25ca;" horiz-adv-x="1171" 
d="M585 1324l-349 -613l349 -615l349 615zM530 1423h110l404 -712l-404 -711h-110l-404 711z" />
    <glyph glyph-name="uniEFED" unicode="&#xefed;" 
d="M712 1801h268l-69 -235h-268z" />
    <glyph glyph-name="uniEFEE" unicode="&#xefee;" 
d="M782 1647q74 0 120.5 40t59.5 114h168q-59 -293 -371 -293q-157 0 -221 77.5t-13 215.5h168q-64 -154 89 -154z" />
    <glyph glyph-name="uniEFEF" unicode="&#xefef;" 
d="M575 1720h558l-52 -154h-558z" />
    <glyph glyph-name="uniEFF0" unicode="&#xeff0;" 
d="M891 1520l204 268h261l-283 -268h-182zM548 1520l204 268h261l-283 -268h-182z" />
    <glyph glyph-name="uniEFF1" unicode="&#xeff1;" 
d="M592 -237q39 0 89 36l67 -90q-45 -40 -100 -64.5t-101 -24.5q-105 0 -152 59t-22 144q49 167 291 264l24 -65q-130 -60 -158 -159q-13 -43 5 -71.5t57 -28.5z" />
    <glyph glyph-name="uniEFF2" unicode="&#xeff2;" 
d="M71 -406l196 295h203l-140 -295h-259z" />
    <glyph glyph-name="uniEFF3" unicode="&#xeff3;" 
d="M763 1637q37 0 62.5 25t25.5 62t-25.5 62.5t-62.5 25.5t-62 -25.5t-25 -62.5t25 -62t62 -25zM763 1520q-86 0 -145 59t-59 145t59 145.5t145 59.5t145.5 -59.5t59.5 -145.5t-59.5 -145t-145.5 -59z" />
    <glyph glyph-name="uniEFF4" unicode="&#xeff4;" 
d="M930 1520h-320l-72 268h187l66 -159l138 159h221z" />
    <glyph glyph-name="uniEFF5" unicode="&#xeff5;" 
d="M620 1764q84 0 194 -40q109 -40 121 -39q12 0 25 20t18 49h156q-24 -112 -69.5 -173t-95.5 -61t-89.5 11t-94.5 33t-76 28.5t-37 7t-31 -19.5t-20 -48h-156q20 111 62.5 171.5t92.5 60.5z" />
    <glyph glyph-name="uniEFF6" unicode="&#xeff6;" 
d="M933 1800h232l-67 -233h-232zM545 1800h232l-67 -233h-232z" />
    <glyph glyph-name="uniEFF7" unicode="&#xeff7;" 
d="M690 1788h320l72 -268h-187l-66 159l-138 -159h-221z" />
    <glyph glyph-name="uniEFF8" unicode="&#xeff8;" 
d="M725 1520l-177 268h297l99 -268h-219z" />
    <glyph glyph-name="uniEFF9" unicode="&#xeff9;" 
d="M628 1520l218 268h302l-306 -268h-214z" />
    <glyph glyph-name="uniF001" unicode="&#xf001;" horiz-adv-x="1095" 
d="M981 1411h266l-69 -239h-266zM854 982h273l-285 -982h-273zM691 1424q79 0 152 -15l-48 -165q-27 4 -65 4q-78 -1 -99 -73l-56 -193h154l-50 -170h-154l-235 -812h-264l235 812h-132l50 170h132l56 193q40 137 112.5 193t211.5 56z" />
    <glyph glyph-name="uniF002" unicode="&#xf002;" horiz-adv-x="1095" 
d="M978 1411h273l-409 -1411h-273zM691 1424q79 0 152 -15l-48 -165q-27 4 -65 4q-78 -1 -99 -73l-56 -193h154l-50 -170h-154l-235 -812h-264l235 812h-132l50 170h132l56 193q40 137 112.5 193t211.5 56z" />
    <glyph glyph-name="uniFB01" unicode="&#xfb01;" horiz-adv-x="1095" 
d="M981 1411h266l-69 -239h-266zM854 982h273l-285 -982h-273zM691 1424q79 0 152 -15l-48 -165q-27 4 -65 4q-78 -1 -99 -73l-56 -193h154l-50 -170h-154l-235 -812h-264l235 812h-132l50 170h132l56 193q40 137 112.5 193t211.5 56z" />
    <glyph glyph-name="glyph106" horiz-adv-x="0" 
d="M412 1051q0 173 -120 293t-293 120t-292.5 -120t-119.5 -293t119.5 -292.5t292.5 -119.5t293 119.5t120 292.5zM0 1529q200 0 338.5 -138.5t138.5 -338.5t-138.5 -339t-338.5 -139t-339 139t-139 339t139 338.5t339 138.5z" />
    <glyph glyph-name="glyph107" horiz-adv-x="0" 
d="M19 786q-110 0 -186.5 79t-76.5 195t75.5 195.5t184.5 79.5q58 0 114.5 -22t79.5 -54l-58 -62q-19 26 -58.5 44.5t-77.5 18.5q-78 0 -131.5 -58t-53.5 -142t54.5 -141.5t133.5 -57.5q37 0 77 19.5t61 47.5l58 -62q-24 -34 -81 -57t-115 -23z" />
    <glyph glyph-name="glyph113" horiz-adv-x="0" 
d="M412 1046q0 173 -120 293t-293 120t-292.5 -120t-119.5 -293t119.5 -292.5t292.5 -119.5t293 119.5t120 292.5zM0 1524q200 0 338.5 -139t138.5 -339t-138.5 -338.5t-338.5 -138.5t-339 138.5t-139 338.5t139 339t339 139z" />
    <glyph glyph-name="glyph114" horiz-adv-x="0" 
d="M99 1166q0 30 -21 51t-51 21h-112v-144h112q30 0 51 21t21 51zM-160 807v506h187q62 0 104.5 -42.5t42.5 -104.5t-43 -105q-20 -20 -46 -31l89 -223h-91l-84 212h-84v-212h-75z" />
    <glyph glyph-name="glyph130" horiz-adv-x="642" 
d="M468 670h-166l163 562q-50 -42 -157 -70l45 156q63 12 103 36t85 78h149z" />
    <glyph glyph-name="glyph131" horiz-adv-x="642" 
d="M524 1397h230l-133 -458h100l-33 -116h-100l-45 -153h-164l49 153h-268l45 158z" />
    <glyph glyph-name="glyph133" horiz-adv-x="642" 
d="M468 670h-166l163 562q-50 -42 -157 -70l45 156q63 12 103 36t85 78h149z" />
    <glyph glyph-name="glyph134" horiz-adv-x="642" 
d="M550 1432q206 0 208 -151v-2q0 -121 -106 -235t-308 -259h293l-34 -115h-468l31 106q241 221 333 327q91 106 92 160t-38 53q-39 0 -58 -23t-23 -78h-170q4 104 73 160.5t175 56.5z" />
    <glyph glyph-name="glyph136" horiz-adv-x="642" 
d="M357 635q-118 0 -166.5 65.5t-7.5 181.5h157q-20 -70 -10 -99t48 -29t60.5 25t38.5 79l7 25q30 104 -103 104h-8l41 116h60q66 0 91 87q23 73 15 99.5t-41 26.5t-50 -21t-30 -70h-163q22 110 80 158.5t180 48.5q188 0 189 -145q-1 -39 -23 -122q-23 -83 -86 -110
q-18 -8 -48 -14q64 -27 64 -106q1 -25 -13 -80q-33 -114 -98.5 -167t-183.5 -53z" />
    <glyph glyph-name="glyph137" horiz-adv-x="642" 
d="M524 1397h230l-133 -458h100l-33 -116h-100l-45 -153h-164l49 153h-268l45 158z" />
    <glyph glyph-name="glyph140" horiz-adv-x="0" 
d="M-73 0l-178 268h297l100 -268h-219z" />
    <glyph glyph-name="glyph142" horiz-adv-x="0" 
d="M-123 0l218 268h302l-306 -268h-214z" />
    <glyph glyph-name="glyph144" horiz-adv-x="0" 
d="M-87 268h320l73 -268h-187l-67 159l-137 -159h-221z" />
    <glyph glyph-name="glyph146" horiz-adv-x="0" 
d="M-178 244q83 0 193 -40t122 -39q12 0 25 20t18 49h156q-24 -112 -69 -173t-95 -61t-90 11t-94 33t-76 28.5t-38 7t-31 -19.5t-20 -48h-156q20 111 62.5 171.5t92.5 60.5z" />
    <glyph glyph-name="glyph148" horiz-adv-x="0" 
d="M159 280h232l-68 -233h-232zM-229 280h232l-68 -233h-232z" />
    <glyph glyph-name="glyph150" horiz-adv-x="0" 
d="M0 117q37 0 62.5 25t25.5 62t-25.5 62.5t-62.5 25.5t-62 -25.5t-25 -62.5t25 -62t62 -25zM0 0q-86 0 -145 59t-59 145t59 145.5t145 59.5t145.5 -59.5t59.5 -145.5t-59.5 -145t-145.5 -59z" />
    <glyph glyph-name="glyph153" horiz-adv-x="0" 
d="M-329 -406l196 295h203l-140 -295h-259z" />
    <glyph glyph-name="glyph179" horiz-adv-x="0" 
d="M-90 0l-101 312h280l31 -312h-210z" />
    <glyph glyph-name="glyph181" horiz-adv-x="0" 
d="M-123 0l200 312h310l-284 -312h-226z" />
    <glyph glyph-name="glyph183" horiz-adv-x="0" 
d="M-46 312h294l19 -312h-152l-48 181l-155 -181h-179z" />
    <glyph glyph-name="glyph185" horiz-adv-x="0" 
d="M229.5 73q-49.5 -72 -115.5 -72t-160 69q-37 28 -59 28q-12 0 -23.5 -29.5t-15.5 -72.5h-156q23 134 69.5 206.5t111.5 72.5t169 -79q22 -18 42 -18q42 0 56 100h156q-25 -133 -74.5 -205z" />
    <glyph glyph-name="glyph187" horiz-adv-x="0" 
d="M137 303h232l-68 -233h-232zM-194 303h232l-68 -233h-232z" />
    <glyph glyph-name="glyph189" horiz-adv-x="0" 
d="M0 117q37 0 62.5 25t25.5 62t-25.5 62.5t-62.5 25.5t-62 -25.5t-25 -62.5t25 -62t62 -25zM0 0q-86 0 -145 59t-59 145t59 145.5t145 59.5t145.5 -59.5t59.5 -145.5t-59.5 -145t-145.5 -59z" />
    <glyph glyph-name="glyph192" horiz-adv-x="0" 
d="M-329 -406l196 295h203l-140 -295h-259z" />
    <glyph glyph-name="glyph219" horiz-adv-x="0" 
d="M-211 200h558l-53 -154h-558z" />
    <glyph glyph-name="glyph221" horiz-adv-x="0" 
d="M-188 170h462l-38 -149h-462z" />
    <glyph glyph-name="glyph223" horiz-adv-x="0" 
d="M384 281q-59 -293 -363 -293q-164 0 -228.5 77.5t-13.5 215.5h168q-64 -154 89 -154q74 0 121 40t59 114h168z" />
    <glyph glyph-name="glyph225" horiz-adv-x="0" 
d="M8 -6q-162 0 -220 77.5t-7 215.5h168q-64 -154 89 -154q74 0 120.5 40t59.5 114h168q-45 -165 -130 -229q-86 -64 -248 -64z" />
    <glyph glyph-name="glyph227" horiz-adv-x="0" 
d="M75 -237q39 0 89 36l67 -90q-45 -40 -100 -64.5t-101 -24.5q-105 0 -152 59t-22 144q49 167 291 264l24 -65q-130 -60 -158 -159q-13 -43 5 -71.5t57 -28.5z" />
    <glyph glyph-name="glyph229" horiz-adv-x="0" 
d="M-10 -363q-99 1 -143 53t-21 132q43 150 271 246l17 -39q-110 -65 -138 -160t67 -95q32 0 73 37l68 -92q-95 -82 -194 -82z" />
    <glyph glyph-name="glyph233" horiz-adv-x="0" 
d="M160 0h-320l-73 268h187l66 -159l138 159h221z" />
    <glyph glyph-name="glyph235" horiz-adv-x="0" 
d="M147 0h-294l-19 312h152l47 -181l156 181h179z" />
    <glyph glyph-name="glyph238" horiz-adv-x="0" 
d="M138 830q-100 0 -155 -191l-86 -298q-26 -89 -14.5 -139t61.5 -50t83.5 41.5t73.5 155.5l96 332q21 70 5.5 109.5t-64.5 39.5zM-196 -21q-194 1 -194 223q0 70 31 175l66 226q59 204 139 302t202 98t199 -89l14 -15l148 512h264l-409 -1411h-238l28 97l-26 -28
q-94 -90 -224 -90z" />
    <glyph glyph-name="glyph239" horiz-adv-x="0" 
d="M0 0l154 343h208l-211 -343h-151z" />
    <glyph glyph-name="glyph245" horiz-adv-x="0" 
d="M-53 281h268l-68 -235h-268z" />
    <glyph glyph-name="glyph247" horiz-adv-x="0" 
d="M-34 302h264l-76 -232h-264z" />
    <glyph glyph-name="glyph255" horiz-adv-x="0" 
d="M-329 -406l196 295h203l-140 -295h-259z" />
    <glyph glyph-name="glyph257" horiz-adv-x="0" 
d="M242 292l-149 -292h-255l204 292h200z" />
    <glyph glyph-name="glyph282" horiz-adv-x="0" 
d="M107 0l204 268h261l-283 -268h-182zM-236 0l204 268h261l-283 -268h-182z" />
    <glyph glyph-name="glyph284" horiz-adv-x="0" 
d="M93 0l202 312h249l-270 -312h-181zM-226 0l202 312h249l-270 -312h-181z" />
    <glyph glyph-name="glyph300" horiz-adv-x="0" 
d="M-329 -406l196 295h203l-140 -295h-259z" />
    <glyph glyph-name="glyph302" horiz-adv-x="0" 
d="M-329 -406l196 295h203l-140 -295h-259z" />
    <glyph glyph-name="glyph350" horiz-adv-x="0" 
d="M0 1388h393v-89h-152v-518h-89v518h-152v89z" />
    <glyph glyph-name="glyph351" horiz-adv-x="0" 
d="M0 781v607h160l112 -486l112 486h160v-607h-89v559l-129 -559h-108l-129 559v-559h-89z" />
  </font>
</defs>
</svg>
